<svg width="14" height="17" viewBox="0 0 14 17" fill="none" xmlns="http://www.w3.org/2000/svg">
<path d="M4.63861 9.52872C4.57597 9.52872 3.19778 9.52872 2.57133 9.52872C2.23722 9.52872 2.13281 9.40343 2.13281 9.0902C2.13281 8.25494 2.13281 7.39879 2.13281 6.56352C2.13281 6.22941 2.2581 6.12501 2.57133 6.12501H4.63861C4.63861 6.06236 4.63861 4.85122 4.63861 4.28742C4.63861 3.45215 4.78478 2.65865 5.20242 1.92779C5.64093 1.17605 6.26738 0.674889 7.06089 0.382546C7.58293 0.194611 8.10497 0.111084 8.66878 0.111084H10.7152C11.0075 0.111084 11.1328 0.236374 11.1328 0.528717V2.90923C11.1328 3.20157 11.0075 3.32686 10.7152 3.32686C10.1514 3.32686 9.58757 3.32686 9.02376 3.34774C8.45996 3.34774 8.16762 3.6192 8.16762 4.20389C8.14673 4.83034 8.16762 5.43591 8.16762 6.08324H10.5899C10.924 6.08324 11.0493 6.20853 11.0493 6.54264V9.06932C11.0493 9.40343 10.9449 9.50784 10.5899 9.50784C9.83815 9.50784 8.23026 9.50784 8.16762 9.50784V16.3153C8.16762 16.6702 8.06321 16.7955 7.68734 16.7955C6.81031 16.7955 5.95416 16.7955 5.07713 16.7955C4.7639 16.7955 4.63861 16.6702 4.63861 16.357C4.63861 14.1644 4.63861 9.59136 4.63861 9.52872Z" fill="#050504"/>
</svg>
