<svg xmlns="http://www.w3.org/2000/svg" viewBox="0 0 48 48"><title>Couple conversation</title><g id="Couple_conversation" data-name="Couple conversation"><path d="M27,14V12h2.59c4,4,3.85,4,4.41,4a1,1,0,0,0,1-1V12a2,2,0,0,0,2-2V2a2,2,0,0,0-2-2H23a2,2,0,0,0-2,2V4H13a2,2,0,0,0-2,2v8a2,2,0,0,0,2,2v3a1,1,0,0,0,1,1c.56,0,.42,0,4.41-4H25A2,2,0,0,0,27,14ZM23,2H35v8H34a1,1,0,0,0-1,1v1.59l-2.29-2.3C30.32,9.9,30.19,10,27,10V6a2,2,0,0,0-2-2H23Zm2,12c-7.47,0-7.29-.12-7.71.29L15,16.59V15a1,1,0,0,0-1-1H13V6H25Z"/><path d="M18.29,9.29a1,1,0,1,0,1.42,0A1,1,0,0,0,18.29,9.29Z"/><path d="M21.62,9.08a1,1,0,1,0,1.3,1.3A1,1,0,0,0,21.62,9.08Z"/><path d="M16.38,9.08a1,1,0,0,0-1.09,1.63A1,1,0,1,0,16.38,9.08Z"/><path d="M28.29,6.71a1,1,0,1,0-.21-1.09A1,1,0,0,0,28.29,6.71Z"/><path d="M31.29,6.71a1,1,0,1,0,0-1.42A1,1,0,0,0,31.29,6.71Z"/><path d="M15.44,35C17.32,33,17,31,17,28A6,6,0,0,0,5,28c0,2.95-.31,5,1.56,7A7,7,0,0,0,0,42v5a1,1,0,0,0,1,1H21a1,1,0,0,0,1-1V42A7,7,0,0,0,15.44,35ZM7,31V30a4.61,4.61,0,0,0,3.19-1.5A7.93,7.93,0,0,0,15,30v1a4,4,0,0,1-8,0Zm4-7a4,4,0,0,1,4,4,5.84,5.84,0,0,1-4.29-1.71,1,1,0,0,0-1.6.26A2.62,2.62,0,0,1,7,28,4,4,0,0,1,11,24Zm9,22H2V42a5,5,0,0,1,5-5h8a5,5,0,0,1,5,5Z"/><path d="M41.44,35C43.32,33,43,31,43,28a6,6,0,0,0-3.1-5.25,3,3,0,1,0-5.8,0A6,6,0,0,0,31,28c0,2.95-.31,5,1.56,7A7,7,0,0,0,26,42v5a1,1,0,0,0,1,1H47a1,1,0,0,0,1-1V42A7,7,0,0,0,41.44,35ZM33,31V30a4.61,4.61,0,0,0,3.19-1.5A7.93,7.93,0,0,0,41,30v1a4,4,0,0,1-8,0Zm3.71-4.71a1,1,0,0,0-1.6.26A2.62,2.62,0,0,1,33,28a4,4,0,0,1,8,0A5.84,5.84,0,0,1,36.71,26.29ZM36,22a1,1,0,0,1,2,0c0,.18-.12,0-1,0S36,22.19,36,22ZM46,46H28V42a5,5,0,0,1,5-5h8a5,5,0,0,1,5,5Z"/></g></svg>