<svg width="1920" height="504" viewBox="0 0 1920 504" fill="none" xmlns="http://www.w3.org/2000/svg">
<g opacity="0.3">
<path d="M648.672 503.486C639.2 503.486 629.981 503.076 621.122 502.256C602.542 500.536 585.376 497.006 570.1 491.761C553.682 486.126 539.282 478.448 527.297 468.94C503.21 449.83 491.159 426.944 479.504 404.811C477.214 400.465 474.847 395.971 472.443 391.611C456.043 361.893 435.253 335.861 408.891 312.028C356.301 264.486 282.343 223.913 195.007 194.694C94.0044 160.905 -14.5899 144.073 -110.774 147.3C-167.306 149.198 -242.001 167.244 -275.384 198.063C-295.195 216.354 -296.793 236.652 -280.001 256.759L-280.334 256.844C-289.139 246.299 -292.975 235.727 -291.733 225.422C-290.593 215.969 -285.2 206.729 -275.699 197.958C-260.589 184.007 -235.67 171.642 -203.635 162.2C-174.033 153.475 -141.065 148.111 -110.796 147.096C-60.4598 145.408 -6.92474 149.153 48.3214 158.23C98.4012 166.459 147.818 178.667 195.197 194.518C282.584 223.753 356.587 264.349 409.206 311.919C435.583 335.768 456.384 361.814 472.795 391.548C475.202 395.909 477.569 400.404 479.855 404.75C491.5 426.867 503.543 449.737 527.598 468.819C550.86 487.275 582.349 498.456 621.184 502.05C674.965 507.027 740.272 496.617 795.877 474.201C876.01 441.899 931.622 394.881 985.406 349.413C994.834 341.443 1004.58 333.202 1014.23 325.244C1039.29 304.58 1073.22 277.804 1113.54 253.949C1154.76 229.566 1196.65 211.651 1241.6 199.18C1269.12 191.546 1298.27 186.403 1328.27 183.894C1355.97 181.575 1385.29 181.431 1415.42 183.463C1467.1 186.949 1522.78 196.796 1585.64 213.566C1709.41 246.588 1833.05 286.67 1953.12 332.7C2067.25 376.45 2179.17 425.957 2285.8 479.84L2285.55 479.989C2064.53 368.292 1828.99 278.716 1585.48 213.748C1447.9 177.043 1338.69 172.47 1241.77 199.36C1143.16 226.715 1074.28 276.082 1014.54 325.356C1004.89 333.311 995.141 341.552 985.714 349.522C931.915 395.006 876.284 442.038 796.097 474.363C770.185 484.809 741.034 492.957 711.799 497.924C696.355 500.548 681.003 502.264 666.164 503.025C660.25 503.334 654.413 503.486 648.672 503.486Z" fill="#FFE492"/>
<path d="M657.934 492.153C633.781 492.153 611.408 489.613 591.414 484.602C569.118 479.013 549.878 470.354 534.226 458.865C532.841 457.847 531.466 456.795 530.14 455.735C506.309 436.708 493.723 414.12 481.555 392.274C479.093 387.859 476.55 383.292 473.971 378.861C458.607 352.477 440.108 329.223 417.409 307.774C414.613 305.134 411.719 302.487 408.799 299.91C355.436 252.777 280.877 212.717 193.182 184.061C91.4503 150.848 -17.4517 134.712 -113.464 138.627C-169.586 140.94 -243.936 159.281 -277.462 189.864C-297.537 208.177 -299.809 228.515 -284.039 248.681L-284.376 248.762C-292.642 238.192 -296.038 227.6 -294.466 217.284C-293.023 207.808 -287.41 198.548 -277.777 189.758C-262.513 175.832 -237.667 163.453 -205.933 153.962C-176.602 145.189 -143.776 139.671 -113.497 138.425C-63.2227 136.375 -9.62903 139.762 45.793 148.491C95.9937 156.398 145.645 168.307 193.365 183.887C281.111 212.559 355.711 252.643 409.107 299.802C412.027 302.382 414.925 305.031 417.721 307.673C440.434 329.136 458.945 352.402 474.315 378.801C476.898 383.232 479.441 387.798 481.903 392.215C494.068 414.047 506.643 436.619 530.441 455.62C531.763 456.676 533.137 457.728 534.519 458.744C566.865 482.491 611.309 492.153 658.047 492.153C658.304 492.153 658.557 492.153 658.813 492.153C658.52 492.151 658.227 492.153 657.934 492.153ZM667.904 492.011C711.355 490.779 756.192 481.559 794.657 467.843C877.629 438.134 937.261 392.25 994.932 347.876C997.307 346.047 999.681 344.222 1002.06 342.397C1007.27 338.391 1013.45 333.648 1019.76 328.867C1048.06 307.426 1082.32 282.479 1121.77 260.024C1163.74 236.131 1205.68 218.4 1249.97 205.817C1277.18 198.094 1305.94 192.654 1335.44 189.647C1362.78 186.861 1391.67 186.074 1421.3 187.306C1472.49 189.437 1527.53 197.514 1589.57 212.001C1650.06 226.103 1699.78 239.378 1746.05 253.778C1811.59 274.197 1874.02 297.724 1926.45 318.045C2048.34 365.422 2167.93 419.22 2281.91 477.945L2281.66 478.093C2167.69 419.376 2048.11 365.582 1926.24 318.21C1873.82 297.892 1811.4 274.369 1745.87 253.956C1699.62 239.56 1649.91 226.289 1589.43 212.191C1454.29 180.631 1346.47 178.663 1250.14 206C1150.15 234.403 1078.95 284.377 1020.06 328.989C1013.74 333.77 1007.57 338.51 1002.35 342.519C999.978 344.342 997.604 346.169 995.229 347.998C937.539 392.385 877.885 438.286 794.855 468.017C774.267 475.357 752.359 481.188 729.738 485.346C708.681 489.213 687.924 491.449 667.904 492.011Z" fill="#FFE492"/>
<path d="M668.145 481.078C665.24 481.078 662.352 481.043 659.487 480.972C635.356 480.384 613.024 477.326 593.113 471.882C571.338 465.927 552.472 457.107 537.043 445.666C535.672 444.646 534.306 443.592 532.987 442.531C509.423 423.597 496.314 401.311 483.64 379.76C480.998 375.268 478.265 370.623 475.495 366.115C459.373 339.82 440.386 316.752 417.442 295.592C414.602 292.976 411.664 290.352 408.699 287.795C354.563 241.072 279.403 201.526 191.35 173.433C88.8926 140.797 -20.3173 125.355 -116.161 129.958C-170.124 132.59 -244.259 149.885 -279.507 181.635C-299.871 199.979 -302.835 220.372 -288.08 240.609L-288.421 240.684C-296.152 230.082 -299.102 219.465 -297.196 209.13C-295.445 199.625 -289.597 190.34 -279.818 181.53C-264.392 167.636 -239.627 155.253 -208.197 145.717C-179.142 136.902 -146.466 131.235 -116.194 129.758C-65.9783 127.348 -12.326 130.375 43.2682 138.755C93.5935 146.343 143.476 157.95 191.533 173.259C279.638 201.371 354.838 240.939 409.007 287.687C411.971 290.247 414.914 292.871 417.753 295.491C440.708 316.663 459.706 339.745 475.835 366.054C478.605 370.564 481.339 375.21 483.98 379.702C496.651 401.24 509.75 423.51 533.284 442.422C534.603 443.482 535.962 444.535 537.332 445.55C600.027 492.042 711.135 487.05 793.433 461.482C879.867 434.392 944.101 389.367 1006.22 345.825L1006.86 345.378C1012.87 341.157 1019.1 336.795 1025.29 332.488C1090.63 287.044 1162.45 240.342 1258.33 212.45C1285.25 204.636 1313.62 198.898 1342.63 195.396C1369.61 192.138 1398.07 190.708 1427.19 191.145C1477.97 191.906 1532.37 198.214 1593.51 210.431C1657.76 223.225 1706.12 234.984 1750.29 248.562C1813.23 267.948 1874.19 292.444 1927.98 314.057C2047.74 362.437 2165.51 416.937 2278.03 476.04L2277.77 476.185C2165.27 417.088 2047.51 362.594 1927.76 314.219C1873.98 292.61 1813.03 268.118 1750.11 248.739C1705.95 235.164 1657.62 223.409 1593.39 210.619C1460.86 184.138 1354.45 184.776 1258.5 212.626C1162.68 240.5 1090.89 287.181 1025.57 332.609C1019.38 336.917 1013.16 341.281 1007.14 345.499L1006.51 345.947C975.549 367.645 943.541 390.081 908.974 410.122C870.128 432.644 832.392 449.5 793.609 461.654C753.033 474.259 708.834 481.078 668.145 481.078Z" fill="#FFE492"/>
<path d="M2273.89 474.277C2162.85 414.799 2046.91 359.605 1929.29 310.228C1924.31 308.153 1919.32 306.066 1914.31 303.974C1863.37 282.685 1810.69 260.671 1754.36 243.522C1699.71 226.931 1644.32 216.786 1597.35 209.051C1467.69 187.567 1362.69 190.81 1266.88 219.254C1168.54 248.54 1092.33 297.162 1031.1 336.232C1027.43 338.577 1023.76 340.926 1020.09 343.277C1017.37 345.013 1014.66 346.749 1011.94 348.483C977.081 370.752 945.368 390.661 910.329 408.829C870.3 429.582 831.718 444.781 792.37 455.296C755.495 465.152 716.103 470.366 679.463 470.368C672.787 470.368 666.21 470.196 659.747 469.846C636.151 468.569 614.306 464.982 594.82 459.183C573.558 452.856 555.066 443.868 539.849 432.469C538.49 431.447 537.134 430.391 535.822 429.329C512.537 410.494 498.918 388.521 485.75 367.272C482.914 362.695 479.979 357.96 477.011 353.365C460.12 327.153 440.642 304.27 417.471 283.405C414.587 280.809 411.601 278.21 408.596 275.674C353.684 229.363 277.926 190.331 189.517 162.798C86.3347 130.738 -23.1792 115.994 -118.854 121.279C-184.261 124.964 -251.144 146.383 -281.504 173.363C-302.187 191.745 -305.855 212.203 -292.118 232.525L-292.463 232.596C-299.655 221.955 -302.162 211.307 -299.912 200.945C-297.842 191.405 -291.752 182.09 -281.815 173.256C-266.229 159.403 -241.544 147.02 -210.429 137.45C-181.652 128.598 -149.145 122.783 -118.891 121.079C-68.734 118.307 -15.0268 120.976 40.7396 129.008C91.1859 136.276 141.306 147.584 189.7 162.62C278.165 190.169 353.962 229.223 408.908 275.563C411.916 278.1 414.902 280.702 417.786 283.298C440.972 304.175 460.457 327.071 477.359 353.295C480.327 357.892 483.262 362.624 486.098 367.203C499.259 388.44 512.871 410.399 536.126 429.211C537.438 430.272 538.79 431.326 540.146 432.346C605.596 481.378 716.84 475.254 792.212 455.112C882.138 431.079 950.953 387.129 1011.67 348.35C1014.38 346.614 1017.1 344.878 1019.81 343.144C1023.48 340.793 1027.15 338.444 1030.83 336.099C1065.78 313.798 1100.29 292.126 1138.24 272.156C1181.87 249.189 1223.9 231.827 1266.71 219.076C1293.35 211.167 1321.31 205.131 1349.82 201.139C1376.47 197.406 1404.48 195.335 1433.09 194.978C1483.54 194.351 1537.31 198.892 1597.46 208.856C1644.45 216.596 1699.86 226.745 1754.54 243.346C1810.89 260.501 1863.58 282.521 1914.54 303.815C1919.54 305.907 1924.54 307.993 1929.52 310.069C2047.14 359.45 2163.1 414.65 2274.15 474.133L2273.89 474.277Z" fill="#FFE492"/>
<path d="M2270.01 472.372C2158.33 411.377 2044.22 355.481 1930.82 306.24C1924.04 303.294 1917.1 300.257 1910.39 297.321C1862.31 276.295 1812.6 254.552 1758.61 238.307C1704.69 222.143 1648.84 213.653 1601.31 207.482C1474.81 190.897 1371.2 196.744 1275.26 225.884C1183.75 253.779 1112.05 295.727 1042.72 336.292L1035.11 340.746C1029.09 344.264 1022.88 347.9 1016.75 351.467C947.341 391.8 877.864 429.601 791.133 448.936C770.087 453.628 748.476 456.88 726.895 458.606C703.72 460.457 681.209 460.483 659.983 458.682C636.929 456.726 615.579 452.617 596.526 446.468C575.791 439.777 557.669 430.625 542.668 419.27C541.316 418.242 539.971 417.184 538.671 416.124C515.672 397.4 501.562 375.751 487.917 354.814C484.872 350.142 481.721 345.31 478.541 340.618C460.865 314.487 440.904 291.787 417.513 271.222C414.589 268.653 411.559 266.073 408.506 263.558C352.821 217.657 276.466 179.139 187.694 152.167C83.7824 120.688 -26.0394 106.638 -121.549 112.609C-186.359 116.746 -252.938 138.315 -283.452 165.061C-304.479 183.49 -308.873 204.026 -296.158 224.451L-296.507 224.518C-303.16 213.831 -305.216 203.142 -302.618 192.75C-300.222 183.17 -293.879 173.818 -283.767 164.956C-268.011 151.149 -243.415 138.778 -212.63 129.18C-184.138 120.295 -151.807 114.341 -121.593 112.41C-71.4953 109.278 -17.7331 111.587 38.2092 119.272C88.7801 126.22 139.131 137.226 187.866 151.991C276.69 178.978 353.088 217.52 408.807 263.447C411.859 265.964 414.893 268.546 417.817 271.115C441.222 291.69 461.195 314.402 478.878 340.547C482.058 345.239 485.209 350.073 488.254 354.745C501.891 375.67 515.994 397.309 538.968 416.011C540.265 417.067 541.609 418.123 542.958 419.151C606.833 467.502 712.965 466.144 790.99 448.75C877.651 429.431 947.099 391.644 1016.47 351.329C1022.6 347.762 1028.82 344.126 1034.83 340.608L1042.45 336.155C1076.48 316.243 1111.67 295.652 1149.89 276.497C1193.18 254.803 1234.13 238.19 1275.08 225.706C1301.44 217.698 1329.01 211.365 1357 206.885C1383.32 202.673 1410.9 199.957 1438.97 198.814C1489.21 196.769 1542.33 199.54 1601.39 207.284C1648.94 213.459 1704.82 221.951 1758.78 238.129C1812.8 254.38 1862.52 276.129 1910.61 297.161C1917.32 300.097 1924.26 303.132 1931.05 306.08C2044.45 355.326 2158.58 411.226 2270.26 472.227L2270.01 472.372Z" fill="#FFE492"/>
<path d="M2266.12 470.466C2155.41 408.793 2043.11 352.197 1932.35 302.252C1924.02 298.498 1915.49 294.595 1907.24 290.822C1861.76 270.022 1814.73 248.514 1762.85 233.095C1709.18 217.208 1653.08 210.44 1605.27 205.916C1482.28 194.097 1380.07 202.551 1283.63 232.516C1199.47 258.777 1130.37 295.993 1063.54 331.984C1056.51 335.772 1049.24 339.687 1042.15 343.481C1033.83 347.936 1027.47 351.321 1021.54 354.453C989.768 371.218 951.941 390.523 912.245 406.58C870.178 423.594 830.156 435.369 789.889 442.581C768.714 446.372 747.195 448.764 725.926 449.686C703.088 450.678 680.976 449.949 660.208 447.52C637.707 444.887 616.855 440.256 598.224 433.755C578.02 426.706 560.275 417.39 545.48 406.072C544.146 405.046 542.809 403.986 541.512 402.922C518.817 384.323 504.234 363.008 490.128 342.394C486.856 337.613 483.474 332.67 480.062 327.869C461.592 301.811 441.143 279.297 417.543 259.038C414.575 256.49 411.501 253.935 408.405 251.44C351.946 205.95 274.991 167.946 185.86 141.534C81.2262 110.634 -28.9033 97.2819 -124.245 103.935C-178.494 107.803 -249.349 125.624 -285.352 156.715C-306.757 175.2 -311.894 195.829 -300.202 216.372L-300.55 216.433C-306.666 205.691 -308.263 194.955 -305.303 184.523C-302.569 174.894 -295.963 165.502 -285.66 156.605C-269.736 142.855 -245.231 130.505 -214.786 120.886C-186.581 111.975 -154.444 105.885 -124.289 103.734C-74.2492 100.242 -20.4284 102.19 35.6825 109.527C86.3742 116.155 136.96 126.863 186.032 141.356C275.214 167.782 352.214 205.808 408.706 251.325C411.802 253.82 414.88 256.379 417.847 258.928C441.458 279.198 461.918 301.724 480.4 327.794C483.814 332.597 487.196 337.54 490.468 342.321C504.564 362.925 519.143 384.228 541.812 402.806C543.109 403.869 544.443 404.927 545.777 405.95C598.916 446.607 690.132 460.228 789.775 442.384C880.013 426.226 953.623 390.011 1021.29 354.303C1027.22 351.171 1033.57 347.786 1041.89 343.331C1048.98 339.537 1056.25 335.622 1063.28 331.834C1096.18 314.116 1130.2 295.795 1166.48 278.64C1207.51 259.238 1245.78 244.091 1283.45 232.336C1309.57 224.223 1336.73 217.592 1364.19 212.631C1390.2 207.931 1417.35 204.574 1444.87 202.65C1494.97 199.15 1547.47 200.151 1605.34 205.711C1653.17 210.239 1709.31 217.009 1763.02 232.911C1814.93 248.34 1861.97 269.854 1907.47 290.66C1915.72 294.434 1924.26 298.337 1932.58 302.09C2043.35 352.041 2155.66 408.642 2266.38 470.318L2266.12 470.466Z" fill="#FFE492"/>
<path d="M2262.24 468.559C2152.49 406.204 2042.01 348.906 1933.88 298.26C1924.67 293.953 1915.23 289.431 1906.09 285.058C1862.56 264.23 1817.56 242.694 1767.09 227.877C1713.39 212.181 1657.16 207.173 1609.24 204.344C1491.81 197.228 1388.05 208.611 1292 239.143C1215.53 263.565 1149.98 296.235 1086.58 327.831C1073.78 334.213 1060.54 340.813 1047.67 347.103C1039.8 350.954 1032.82 354.335 1026.33 357.438C996.175 371.856 956.057 390.343 913.188 405.452C870.114 420.63 829.374 430.696 788.641 436.222C744.215 442.25 699.876 442.294 660.422 436.354C638.486 433.049 618.128 427.898 599.914 421.041C580.25 413.638 562.882 404.161 548.288 392.877C546.966 391.849 545.639 390.787 544.349 389.722C521.977 371.266 506.94 350.3 492.401 330.026C488.883 325.122 485.249 320.052 481.581 315.125C462.301 289.135 441.365 266.804 417.574 246.858C414.562 244.333 411.444 241.8 408.304 239.327C351.072 194.248 273.52 156.756 184.03 130.908C78.6743 100.589 -31.763 87.933 -126.94 95.2675C-191.441 100.346 -255.844 121.672 -287.193 148.331C-309.009 166.883 -314.904 187.62 -304.242 208.3L-304.593 208.355C-310.166 197.548 -311.302 186.756 -307.972 176.279C-304.894 166.595 -298.006 157.155 -287.501 148.22C-271.408 134.534 -246.999 122.212 -216.91 112.585C-189.001 103.656 -157.065 97.4325 -126.991 95.0652C-77.01 91.2128 -23.1306 92.8031 33.1525 99.7896C83.9688 106.098 134.789 116.506 184.198 130.726C273.739 156.59 351.336 194.102 408.605 239.21C411.745 241.683 414.863 244.218 417.878 246.745C441.68 266.703 462.627 289.044 481.918 315.046C485.586 319.973 489.221 325.045 492.738 329.95C507.27 350.213 522.299 371.169 544.65 389.607C545.94 390.671 547.262 391.729 548.585 392.757C600.812 433.151 690.518 449.325 788.553 436.026C877.926 423.9 955.537 391.015 1026.09 357.287C1032.57 354.183 1039.55 350.804 1047.42 346.954C1060.29 340.663 1073.53 334.065 1086.34 327.683C1149.74 296.081 1215.31 263.403 1291.82 238.971C1317.7 230.742 1344.47 223.817 1371.37 218.382C1397.1 213.186 1423.81 209.186 1450.75 206.493C1500.85 201.485 1552.7 200.719 1609.27 204.146C1657.23 206.977 1713.51 211.986 1767.26 227.701C1817.76 242.528 1862.79 264.073 1906.33 284.909C1915.47 289.281 1924.91 293.801 1934.11 298.109C2042.25 348.758 2152.74 406.061 2262.5 468.419L2262.24 468.559Z" fill="#FFE492"/>
<path d="M2258.35 466.652C2149.58 403.609 2040.92 345.613 1935.4 294.271C1925.71 289.553 1915.73 284.557 1906.09 279.726C1864.15 258.722 1820.78 237.002 1771.33 222.662C1717.41 207.099 1661.13 203.876 1613.19 202.775C1500.21 199.991 1397.88 214.055 1300.38 245.773C1231.99 268.122 1171.04 296.408 1112.08 323.761C1091.81 333.168 1072.66 342.052 1053.19 350.726C1045.27 354.257 1038.05 357.429 1031.13 360.422C986.446 379.714 949.271 393.663 914.133 404.317C870.051 417.685 828.596 426.042 787.398 429.862C771.415 431.343 755.491 432.081 739.857 432.081C712.142 432.081 685.325 429.767 660.637 425.182C615.958 416.884 579.105 401.574 551.101 379.675C549.782 378.638 548.467 377.575 547.192 376.515C525.16 358.218 509.701 337.625 494.752 317.707C490.964 312.661 487.05 307.445 483.104 302.373C463 276.444 441.572 254.299 417.61 234.671C414.554 232.168 411.392 229.657 408.208 227.207C350.203 182.538 272.049 145.56 182.2 120.273C76.1227 90.5359 -34.6187 78.5741 -129.63 86.5905C-194.399 92.1688 -256.944 113.09 -288.964 139.891C-311.223 158.519 -317.899 179.38 -308.277 200.218L-308.633 200.268C-313.656 189.387 -314.323 178.53 -310.611 167.998C-307.174 158.25 -299.997 148.757 -289.268 139.779C-273.007 126.169 -248.704 113.887 -218.981 104.26C-191.373 95.317 -159.661 88.9719 -129.685 86.3902C-79.7631 82.1776 -25.825 83.4078 30.6266 90.0463C81.5675 96.0373 132.618 106.146 182.368 120.09C272.269 145.394 350.466 182.392 408.508 227.087C411.692 229.54 414.854 232.051 417.914 234.555C441.891 254.194 463.329 276.351 483.441 302.29C487.387 307.362 491.304 312.58 495.089 317.627C510.031 337.534 525.482 358.119 547.496 376.4C548.771 377.458 550.082 378.52 551.401 379.556C603.694 420.451 689.689 438.714 787.335 429.659C880.288 421.04 962.619 389.741 1030.9 360.26C1037.82 357.267 1045.04 354.097 1052.96 350.566C1072.43 341.892 1091.58 333.01 1111.85 323.603C1170.81 296.244 1231.78 267.954 1300.19 245.597C1325.88 237.24 1352.24 230.017 1378.56 224.125C1404.05 218.419 1430.32 213.776 1456.64 210.326C1506.84 203.748 1558.06 201.211 1613.21 202.571C1661.19 203.672 1717.51 206.899 1771.5 222.48C1820.99 236.83 1864.37 258.56 1906.33 279.572C1915.98 284.404 1925.95 289.399 1935.64 294.116C2041.16 345.461 2149.83 403.464 2258.61 466.51L2258.35 466.652Z" fill="#FFE492"/>
<path d="M2254.47 464.748C2145.15 400.116 2041.28 343.048 1936.93 290.284C1926.97 285.25 1917.17 280.109 1906.79 274.666C1866.22 253.389 1824.26 231.39 1775.58 217.451C1720.98 201.894 1662.23 200.599 1617.15 201.21C1509.31 202.481 1408.43 219.228 1308.75 252.408C1248.94 272.412 1193.72 296.435 1140.32 319.669C1112.25 331.88 1085.74 343.41 1058.71 354.354C1050.68 357.606 1043.23 360.568 1035.92 363.411C990.629 381.006 952.23 393.643 915.07 403.185C869.966 414.767 827.796 421.413 786.151 423.505C764.753 424.58 743.502 424.377 722.987 422.904C701.267 421.344 680.36 418.352 660.849 414.012C617.602 404.391 581.625 388.401 553.914 366.482C552.606 365.442 551.302 364.378 550.034 363.318C528.372 345.209 512.526 325.008 497.199 305.473C493.11 300.261 488.882 294.871 484.628 289.631C463.68 263.759 441.77 241.798 417.642 222.493C414.539 220.013 411.333 217.524 408.112 215.096C349.334 170.838 270.583 134.374 180.375 109.647C97.1133 86.919 11.2505 75.0604 -67.4857 75.0604C-89.7446 75.0604 -111.417 76.0073 -132.321 77.9234C-196.309 83.9043 -258.462 104.9 -290.669 131.414C-313.4 150.129 -320.886 171.131 -312.316 192.147L-312.675 192.192C-317.148 181.226 -317.335 170.294 -313.232 159.702C-309.428 149.883 -301.939 140.326 -290.976 131.3C-274.547 117.775 -250.357 105.544 -221.016 95.9268C-193.319 86.8482 -162.67 80.5537 -132.386 77.7251C-82.5228 73.1524 -28.5261 74.0245 28.0977 80.3129C79.1595 85.9823 130.449 95.7892 180.536 109.463C270.795 134.204 349.594 170.688 408.409 214.973C411.633 217.4 414.843 219.891 417.946 222.374C442.085 241.688 464.007 263.659 484.965 289.544C489.219 294.784 493.451 300.174 497.54 305.388C512.859 324.915 528.698 345.108 550.342 363.202C551.61 364.261 552.914 365.325 554.218 366.363C606.039 407.349 690.56 428.1 786.122 423.301C882.819 418.443 970.301 388.652 1035.71 363.241C1043.02 360.398 1050.47 357.436 1058.5 354.187C1085.53 343.246 1112.03 331.714 1140.1 319.505C1193.51 296.269 1248.73 272.24 1308.56 252.23C1359.89 235.147 1410.25 222.698 1462.53 214.167C1512.96 205.94 1563.54 201.635 1617.15 201.004C1647.74 200.589 1672.69 201.309 1695.69 203.268C1725.38 205.797 1751.57 210.376 1775.75 217.267C1824.48 231.218 1866.46 253.229 1907.05 274.517C1917.43 279.959 1927.23 285.098 1937.18 290.132C2041.54 342.898 2145.42 399.97 2254.74 464.607L2254.47 464.748Z" fill="#FFE492"/>
<path d="M2250.58 462.842C2142.26 397.501 2040.17 339.754 1938.45 286.294C1928.39 281.005 1918.47 275.556 1907.97 269.787C1868.61 248.174 1827.91 225.823 1779.82 212.234C1724.77 196.75 1666.08 197.369 1621.11 199.637C1519.34 204.592 1419.91 224.022 1317.12 259.034C1266.48 276.367 1218.26 296.204 1171.62 315.389C1134.76 330.554 1099.95 344.879 1064.23 357.971C1056.16 360.934 1048.24 363.766 1040.71 366.389C995.334 382.178 954.543 393.839 916.008 402.037C869.867 411.854 826.983 416.795 784.906 417.139C763.497 417.313 742.33 416.245 722.005 413.961C700.699 411.565 680.195 407.82 661.062 402.826C619.299 391.927 584.194 375.257 556.725 353.277C555.435 352.239 554.138 351.173 552.874 350.107C531.619 332.219 515.428 312.445 499.768 293.323C495.338 287.912 490.754 282.316 486.149 276.875C464.344 251.052 441.946 229.277 417.675 210.302C414.528 207.844 411.278 205.377 408.013 202.972C348.462 159.124 269.11 123.174 178.543 99.0076C71.0258 70.4384 -40.3348 59.8686 -135.017 69.2447C-198.177 75.608 -259.916 96.6586 -292.302 122.871C-315.547 141.685 -323.864 162.845 -316.36 184.066L-316.719 184.104C-320.633 173.043 -320.332 162.026 -315.822 151.361C-311.634 141.461 -303.826 131.836 -292.606 122.755C-276.016 109.327 -251.947 97.1563 -223.001 87.5597C-195.623 78.4831 -165.223 72.0814 -135.083 69.0444C-85.274 64.1136 -31.2224 64.6234 25.57 70.5639C76.7564 75.9176 128.276 85.4251 178.701 98.8235C269.323 123.002 348.718 158.975 408.303 202.848C411.571 205.254 414.825 207.722 417.972 210.183C442.257 229.167 464.663 250.952 486.478 276.786C491.088 282.227 495.668 287.823 500.101 293.236C515.754 312.35 531.938 332.116 553.178 349.992C554.442 351.056 555.739 352.122 557.025 353.158C609.392 395.057 690.319 417.71 784.898 416.933C861.641 416.306 942.865 400.188 1040.52 366.212C1048.04 363.59 1055.95 360.76 1064.02 357.797C1099.73 344.707 1134.55 330.386 1171.4 315.221C1218.04 296.034 1266.27 276.193 1316.93 258.855C1368.75 241.202 1418.3 227.84 1468.41 218.001C1519.18 208.034 1569.12 201.958 1621.08 199.429C1666.1 197.157 1724.85 196.539 1779.99 212.048C1828.13 225.653 1868.85 248.015 1908.23 269.638C1918.73 275.406 1928.65 280.853 1938.71 286.14C2040.43 339.602 2142.53 397.353 2250.85 462.698L2250.58 462.842Z" fill="#FFE492"/>
<path d="M2246.7 460.935C2139.39 394.884 2039.07 336.453 1939.98 282.305C1929.93 276.807 1919.99 271.095 1909.48 265.048C1871.24 243.048 1831.69 220.3 1784.07 207.019C1728.5 191.591 1669.91 194.131 1625.08 198.066C1529.32 206.311 1434.13 227.79 1325.5 265.663C1284.75 279.931 1244.93 295.584 1206.43 310.72C1159.66 329.104 1115.49 346.47 1069.75 361.594C1061.51 364.322 1053.35 366.94 1045.51 369.372C999.317 383.685 957.265 393.996 916.949 400.891C894.368 404.753 872.076 407.552 850.693 409.209C827.884 410.975 805.332 411.503 783.663 410.779C739.698 409.308 698.522 402.87 661.281 391.644C621.061 379.521 586.832 362.173 559.546 340.078C558.263 339.032 556.977 337.964 555.721 336.904C534.92 319.279 518.439 299.974 502.504 281.307C497.679 275.656 492.692 269.813 487.676 264.127C464.992 238.346 442.107 216.755 417.712 198.119C414.52 195.68 411.223 193.236 407.918 190.855C347.593 147.416 267.644 111.98 176.718 88.3781C68.4825 60.3937 -43.1822 50.5199 -137.707 60.5737C-238.918 71.5057 -337.542 118.74 -320.395 175.99L-320.758 176.022C-325.048 161.701 -322.535 147.592 -313.29 134.085C-304.848 121.749 -290.995 110.139 -272.114 99.5812C-254.56 89.7641 -233.499 81.2884 -209.522 74.3889C-186.717 67.8273 -161.908 62.9795 -137.78 60.3734C-88.0299 55.0825 -33.9196 55.2342 23.045 60.8267C74.356 65.8627 126.11 75.0708 176.872 88.196C267.849 111.814 347.846 147.271 408.207 190.733C411.516 193.117 414.813 195.561 418.008 198.001C442.414 216.646 465.311 238.249 488.006 264.04C493.022 269.726 498.009 275.569 502.834 281.222C518.765 299.883 535.239 319.179 556.028 336.794C557.281 337.855 558.564 338.923 559.846 339.967C612.289 382.428 691.784 407.503 783.685 410.579C861.487 413.179 947.071 399.645 1045.33 369.198C1053.17 366.766 1061.32 364.15 1069.56 361.422C1115.29 346.302 1159.46 328.938 1206.22 310.556C1244.73 295.418 1284.55 279.763 1325.3 265.493C1433.98 227.604 1529.21 206.117 1625.02 197.866C1655.14 195.221 1680.08 194.375 1703.52 195.207C1733.47 196.269 1759.87 200.073 1784.23 206.837C1831.9 220.132 1871.47 242.895 1909.74 264.906C1920.25 270.952 1930.18 276.664 1940.24 282.159C2039.33 336.311 2139.66 394.744 2246.96 460.799L2246.7 460.935Z" fill="#FFE492"/>
<path d="M2242.81 459.03C2136.53 392.258 2037.97 333.147 1941.51 278.315C1931.53 272.642 1921.67 266.699 1911.23 260.405C1874.02 237.985 1835.54 214.799 1788.31 201.804C1731.53 186.246 1670.22 191.323 1629.04 196.495C1517.27 210.358 1417.11 242.59 1333.87 272.294C1303.96 283.013 1274.12 294.368 1245.25 305.349C1187.36 327.377 1132.68 348.182 1075.28 365.219C1066.83 367.726 1058.44 370.127 1050.31 372.359C1003.22 385.266 959.904 394.225 917.899 399.745C870.282 406.003 824.705 407.577 782.426 404.42C738.992 401.177 698.307 393.116 661.506 380.46C622.905 367.187 589.552 349.162 562.365 326.883C561.097 325.837 559.818 324.767 558.569 323.702C538.285 306.401 521.599 287.627 505.459 269.469C500.171 263.519 494.701 257.368 489.205 251.381C465.297 225.276 442.591 204.483 417.753 185.937C414.518 183.521 411.18 181.101 407.827 178.74C346.722 135.714 266.172 100.792 174.887 77.7482C65.9335 50.3506 -46.0391 41.1708 -140.402 51.9024C-241.976 63.6073 -338.586 110.2 -324.435 167.915L-324.798 167.942C-328.308 153.623 -325.271 139.528 -315.773 126.051C-307.068 113.703 -293.133 102.081 -274.352 91.5108C-256.838 81.6532 -235.887 73.1149 -212.078 66.1284C-189.409 59.4757 -164.647 54.4882 -140.476 51.7021C-90.7805 46.051 -36.6152 45.8446 20.5179 51.087C71.9535 55.8054 123.942 64.7141 175.041 77.5641C266.381 100.62 346.975 135.562 408.109 178.615C411.462 180.978 414.803 183.4 418.042 185.815C442.895 204.369 465.609 225.175 489.527 251.29C495.023 257.277 500.494 263.43 505.781 269.38C521.917 287.532 538.6 306.3 558.869 323.593C560.119 324.657 561.394 325.726 562.661 326.772C615.511 370.079 693.573 397.584 782.47 404.22C862.199 410.173 949.754 399.69 1050.14 372.177C1058.27 369.947 1066.67 367.548 1075.1 365.041C1132.49 348.008 1187.16 327.207 1245.05 305.181C1273.91 294.2 1303.75 282.844 1333.67 272.122C1389.64 252.15 1436.2 237.394 1480.19 225.685C1531.98 211.902 1580.64 202.289 1628.95 196.296C1658.41 192.598 1684.08 190.922 1707.43 191.177C1737.51 191.505 1764.02 194.92 1788.47 201.622C1835.77 214.634 1874.26 237.833 1911.49 260.267C1921.94 266.56 1931.8 272.502 1941.77 278.172C2038.24 333.006 2136.8 392.121 2243.09 458.894L2242.81 459.03Z" fill="#FFE492"/>
<path d="M2238.93 457.122C2133.67 389.629 2036.88 329.836 1943.04 274.324C1933.2 268.503 1923.46 262.354 1913.15 255.843C1876.92 232.972 1839.46 209.321 1792.56 196.588C1735.15 181.067 1674.01 188.204 1633 194.923C1531.73 211.375 1441.41 242.7 1342.25 278.923C1324.36 285.481 1306.27 292.249 1288.78 298.796C1221.49 323.974 1151.92 350.008 1080.8 368.841C1072.16 371.131 1063.51 373.319 1055.1 375.342C1007.69 386.737 961.844 394.559 918.839 398.592C870.122 403.16 823.809 402.98 781.174 398.06C738.349 393.117 698.159 383.431 661.716 369.272C624.838 354.943 592.353 336.241 565.166 313.688C563.909 312.639 562.641 311.567 561.399 310.503C541.727 293.606 524.935 275.443 508.696 257.879C502.844 251.55 496.795 245.006 490.716 238.639C465.874 212.56 442.696 191.945 417.773 173.759C414.501 171.372 411.115 168.972 407.715 166.629C345.848 124.008 264.705 89.5995 173.053 67.1185C63.3849 40.3076 -48.8917 31.8238 -143.101 43.2313C-241.451 55.27 -339.844 100.228 -328.482 159.839L-328.845 159.859C-331.575 145.54 -328.013 131.462 -318.263 118.015C-309.297 105.652 -295.279 94.0205 -276.6 83.4385C-242.136 63.9176 -193.507 49.1899 -143.182 43.031C-93.5451 37.0217 -39.3213 36.4552 17.984 41.3476C69.5442 45.7503 121.764 54.3575 173.199 66.9324C264.903 89.4255 346.094 123.856 408.001 166.498C411.405 168.843 414.79 171.242 418.066 173.632C443 191.827 466.189 212.451 491.039 238.54C497.117 244.909 503.17 251.452 509.022 257.781C525.257 275.342 542.046 293.501 561.707 310.39C562.945 311.454 564.213 312.524 565.47 313.572C619.862 358.696 694.476 387.842 781.244 397.859C861.589 407.134 953.673 399.496 1054.95 375.156C1063.35 373.132 1071.99 370.947 1080.63 368.659C1151.72 349.832 1221.29 323.802 1288.56 298.628C1306.06 292.081 1324.15 285.313 1342.03 278.755C1385.44 262.898 1435.95 244.711 1486.08 229.526C1538.51 213.643 1586.53 202.262 1632.89 194.731C1662.07 189.95 1687.73 187.469 1711.35 187.15C1741.12 186.745 1768.49 189.861 1792.71 196.408C1813.72 202.112 1834.87 210.624 1857.36 222.432C1877.23 232.858 1895.62 244.476 1913.42 255.71C1923.72 262.218 1933.46 268.367 1943.3 274.186C2037.15 329.7 2133.94 389.495 2239.2 456.991L2238.93 457.122Z" fill="#FFE492"/>
<path d="M2235.04 455.215C2130.82 386.993 2035.8 326.518 1944.57 270.335C1934.9 264.386 1925.33 258.051 1915.2 251.346C1879.92 227.999 1843.44 203.857 1796.8 191.375C1753.22 179.747 1700.93 180.395 1636.96 193.354C1547.51 211.372 1467.56 241.509 1382.9 273.419C1372.36 277.392 1361.47 281.5 1350.62 285.556C1346.37 287.149 1342.12 288.745 1337.88 290.339C1257.22 320.626 1173.81 351.945 1086.32 372.466C1077.48 374.542 1068.59 376.514 1059.9 378.327C1011.45 388.43 964.308 394.86 919.798 397.438C869.956 400.323 822.899 398.392 779.942 391.699C737.784 385.13 698.088 373.819 661.957 358.082C626.936 342.828 595.323 323.453 567.993 300.49C566.747 299.44 565.491 298.366 564.256 297.3C545.331 280.933 528.594 263.502 512.402 246.646C505.848 239.819 499.065 232.76 492.254 225.889C466.452 199.829 442.804 179.391 417.823 161.574C414.503 159.207 411.078 156.831 407.633 154.51C344.982 112.302 263.238 78.4055 171.227 56.487C60.8483 30.2649 -51.7398 22.4751 -145.792 34.5583C-242.335 47.0644 -340.589 92.3907 -332.518 151.763L-332.884 151.779C-334.83 137.458 -330.748 123.396 -320.745 109.983C-311.515 97.6068 -297.416 85.9606 -278.836 75.3706C-244.519 55.8092 -196.058 40.863 -145.876 34.3621C-96.2943 27.9927 -42.0155 27.066 15.4583 31.6104C67.1431 35.6934 119.601 44.0011 171.374 56.3008C263.436 78.2336 345.231 112.148 407.908 154.379C411.352 156.7 414.786 159.079 418.105 161.446C443.097 179.274 466.76 199.717 492.569 225.788C499.384 232.659 506.163 239.72 512.721 246.547C528.905 263.399 545.643 280.826 564.56 297.186C565.795 298.253 567.048 299.325 568.294 300.375C623.866 347.065 697.084 378.574 780.037 391.499C861.925 404.258 956.039 399.76 1059.77 378.133C1068.45 376.32 1077.33 374.349 1086.17 372.276C1173.64 351.763 1257.03 320.45 1337.67 290.168C1341.92 288.571 1346.17 286.977 1350.41 285.384C1361.26 281.328 1372.15 277.22 1382.7 273.249C1467.37 241.333 1547.35 211.187 1636.83 193.162C1665.73 187.306 1691.39 184.022 1715.27 183.118C1745.16 181.987 1772.64 184.704 1796.96 191.191C1817.85 196.781 1838.73 205.332 1860.81 217.332C1880.28 227.92 1898.18 239.763 1915.49 251.215C1925.62 257.918 1935.18 264.251 1944.84 270.197C2036.08 326.383 2131.1 386.86 2235.32 455.084L2235.04 455.215Z" fill="#FFE492"/>
<path d="M2231.16 453.31C2136.03 389.737 2040.12 326.833 1946.09 266.346C1936.52 260.223 1927.03 253.645 1916.99 246.683C1884.33 224.034 1847.3 198.364 1801.05 186.162C1756.95 174.554 1704.58 176.393 1640.92 191.782C1565.23 210.021 1498.24 236.838 1427.33 265.229C1405.12 274.119 1382.15 283.315 1358.99 292.185C1318.56 307.702 1274.82 324.121 1228.97 339.076C1179.87 355.092 1135.01 367.198 1091.83 376.088C1082.76 377.956 1073.63 379.714 1064.68 381.31C1015.2 390.138 966.785 395.162 920.768 396.242C869.827 397.436 822.026 393.77 778.688 385.337C698.659 369.571 628.713 336.585 570.795 287.293C569.561 286.241 568.315 285.164 567.087 284.098C549.123 268.454 532.678 251.95 516.777 235.988C509.291 228.475 501.553 220.706 493.767 213.145C466.983 187.09 442.859 166.833 417.848 149.394C414.481 147.047 411.011 144.694 407.526 142.397C344.113 100.596 261.768 67.215 169.398 45.8569C58.3047 20.2215 -54.5875 13.1298 -148.485 25.8868C-245.615 39.1577 -341.407 83.883 -336.56 143.688L-336.926 143.696C-338.088 129.371 -333.478 115.325 -323.23 101.947C-313.733 89.5544 -299.553 77.8961 -281.079 67.2979C-263.675 57.3129 -243.047 48.5823 -219.769 41.3469C-197.169 34.324 -173.218 29.0553 -148.577 25.6885C-99.0504 18.961 -44.713 17.6741 12.9295 21.8685C64.7387 25.6379 117.427 33.6442 169.537 45.6687C261.962 67.039 344.355 100.44 407.805 142.262C411.289 144.56 414.766 146.915 418.134 149.262C443.155 166.711 467.29 186.977 494.085 213.039C501.871 220.602 509.61 228.372 517.095 235.887C532.997 251.846 549.438 268.349 567.395 283.987C568.619 285.055 569.868 286.129 571.099 287.182C628.973 336.435 698.857 369.395 778.809 385.144C861.165 401.169 959.98 399.777 1064.57 381.116C1073.51 379.52 1082.64 377.763 1091.7 375.898C1188.25 356.023 1276.58 323.563 1358.78 292.017C1381.94 283.147 1404.9 273.953 1427.11 265.063C1498.04 236.666 1565.04 209.842 1640.77 191.596C1704.52 176.183 1757 174.343 1801.2 185.977C1821.92 191.442 1842.49 200.009 1864.09 212.163C1883.13 222.881 1900.49 234.917 1917.28 246.555C1927.32 253.518 1936.8 260.093 1946.37 266.212C2040.4 326.701 2136.31 389.606 2231.44 453.18L2231.16 453.31Z" fill="#FFE492"/>
<path d="M2227.27 451.404C2133.6 387.48 2039.51 323.875 1947.62 262.356C1938.35 256.167 1929.15 249.474 1919.4 242.388C1887.54 219.211 1851.42 192.94 1805.29 180.944C1760.67 169.356 1708.19 172.387 1644.87 190.207C1578.53 208.849 1517.57 235.173 1458.63 260.632C1429.07 273.397 1398.5 286.597 1367.36 298.812C1318.2 318.11 1276.84 332.832 1237.2 345.144C1188.31 360.325 1142.56 371.631 1097.35 379.708C1088.07 381.367 1078.69 382.909 1069.47 384.291C1021.46 391.488 974.313 395.13 929.208 395.132C926.702 395.132 924.211 395.12 921.719 395.097C869.573 394.628 821.032 389.202 777.445 378.972C756.406 374.006 735.803 367.704 716.212 360.238C697.796 353.221 679.7 344.956 662.424 335.673C631.342 318.972 602.286 298.828 573.604 274.093C572.373 273.029 571.146 271.963 569.925 270.892C553.283 256.298 537.539 241.042 522.315 226.288C513.525 217.772 504.438 208.965 495.286 200.392C467.106 173.98 443.234 154.491 417.876 137.206C414.465 134.881 410.951 132.55 407.422 130.276C343.24 88.8892 260.297 56.0225 167.568 35.2248C55.7641 10.1782 -57.4359 3.78254 -151.18 17.2133C-246.488 30.9071 -342.156 75.9723 -340.599 135.61L-340.965 135.612C-341.691 107.833 -321.755 81.4191 -283.316 59.2254C-265.941 49.1938 -245.422 40.4005 -222.324 33.0842C-199.849 25.9662 -175.945 20.5599 -151.271 17.015C-101.804 9.92734 -47.4074 8.28239 10.4035 12.1267C62.3374 15.5805 115.261 23.2873 167.704 35.0346C260.491 55.8464 343.482 88.7334 407.704 130.145C411.233 132.421 414.754 134.754 418.165 137.078C443.535 154.374 467.417 173.868 495.604 200.291C504.757 208.866 513.848 217.673 522.634 226.189C537.858 240.941 553.599 256.195 570.237 270.785C571.457 271.855 572.681 272.922 573.912 273.984C634.859 326.546 701.482 360.827 777.588 378.785C882.998 403.527 994.446 395.33 1069.38 384.097C1078.59 382.715 1087.96 381.175 1097.24 379.516C1201.22 360.938 1296.1 326.539 1367.15 298.648C1398.29 286.437 1428.85 273.237 1458.4 260.474C1517.36 235.011 1578.33 208.679 1644.71 190.029C1673.04 182.055 1698.69 177.158 1723.1 175.062C1753.21 172.476 1780.92 174.394 1805.44 180.764C1826.1 186.136 1846.47 194.771 1867.72 207.162C1886.44 218.08 1903.35 230.375 1919.7 242.268C1929.44 249.352 1938.63 256.043 1947.9 262.228C2039.79 323.747 2133.88 387.352 2227.56 451.277L2227.27 451.404Z" fill="#FFE492"/>
<path d="M2223.39 449.498L1949.15 258.368C1940.19 252.126 1931.3 245.333 1921.88 238.145C1890.8 214.419 1855.58 187.529 1809.53 175.732C1765 164.324 1710.93 168.666 1648.83 188.638C1589.13 207.837 1534.68 233.37 1482.02 258.062C1447.7 274.158 1412.2 290.799 1375.73 305.446C1266.13 349.469 1170.33 375.471 1074.27 387.277C1034.42 392.173 995.112 394.638 956.988 394.638C945.432 394.638 933.993 394.411 922.674 393.958C869.297 391.821 820.016 384.639 776.205 372.612C735.6 361.464 698.455 345.726 662.657 324.498C634.07 307.546 606.667 287.337 576.421 260.899C560.456 246.946 544.998 232.449 530.049 218.429C496.215 186.704 461.231 153.898 417.919 125.025C351.483 80.7411 264.279 46.0129 165.735 24.5941C53.2238 0.138327 -60.2839 -5.56337 -153.874 8.54115C-244.485 22.1965 -342.831 65.2566 -344.641 127.534L-345.008 127.53C-344.198 99.6934 -323.639 73.2831 -285.555 51.1541C-251.121 31.1456 -204.39 15.9424 -153.969 8.34488C-104.556 0.899093 -50.1016 -1.10601 7.87421 2.38825C59.9326 5.52439 113.09 12.9338 165.871 24.4059C214.631 35.0041 260.941 48.9548 303.517 65.8717C346.448 82.9303 385.034 102.787 418.197 124.892C461.528 153.775 496.523 186.589 530.364 218.322C545.313 232.34 560.772 246.835 576.732 260.786C620.862 299.362 683.436 346.912 776.37 372.426C882.949 401.685 997.153 396.542 1074.19 387.075C1170.2 375.277 1265.95 349.285 1375.52 305.278C1411.97 290.637 1447.46 273.996 1481.78 257.904C1534.45 233.208 1588.92 207.67 1648.65 188.46C1710.86 168.454 1765.04 164.108 1809.69 175.545C1830.3 180.828 1850.49 189.539 1871.4 202.178C1889.8 213.304 1906.26 225.871 1922.18 238.023C1931.59 245.212 1940.48 252 1949.44 258.24L2223.68 449.37L2223.39 449.498Z" fill="#FFE492"/>
<path d="M2221.18 434.805C2151.35 381.587 2091.43 338.404 2032.62 298.907C2004.08 279.72 1974.92 260.834 1945.97 242.774C1937.21 237.311 1928.53 231.5 1919.35 225.347C1896.27 209.883 1872.39 193.893 1844.92 182.026C1830.18 175.643 1815.98 171.072 1801.52 168.053C1757.14 158.695 1705.07 164.883 1646.75 186.445C1616.57 197.587 1589.09 210.267 1566.19 221.201C1541.95 232.777 1518.03 245.542 1494.9 257.886C1461.66 275.631 1427.28 293.978 1390.33 309.736C1367.84 319.352 1345.05 327.945 1322.57 335.278C1277.62 349.947 1229.36 362.034 1179.15 371.204C1148.13 376.806 1116.95 381.041 1086.5 383.789C1060.26 386.148 1033.96 387.51 1008.35 387.835C970.011 388.325 932.66 386.458 897.332 382.279C859.768 377.836 824.22 370.745 791.676 361.199C762.657 352.686 735.246 341.969 707.88 328.431C656.884 303.225 616.209 274.079 586.472 251.503C571.864 240.36 557.6 228.997 543.805 218.009C504.083 186.362 466.563 156.472 419.613 129.847C381.32 108.274 337.63 89.6578 289.745 74.5113C252.947 62.8712 212.925 53.3515 170.793 46.2152C160.757 44.5177 150.53 42.9355 140.407 41.5171C96.8196 35.4209 47.751 31.4511 -5.43231 29.7172C-59.0516 27.9285 -105.442 29.4764 -147.245 34.4537C-170.878 37.2459 -193.774 41.6264 -215.308 47.4717C-291.329 68.1095 -340.144 102.755 -345.89 140.15L-346.348 140.127C-344.816 130.158 -340.32 120.339 -332.989 110.939C-326.023 102.01 -316.457 93.3989 -304.556 85.3441C-282.07 70.1288 -251.277 56.953 -215.509 47.2431C-193.943 41.3876 -171.01 37.0011 -147.34 34.2049C-105.493 29.2235 -59.0663 27.6736 -5.40302 29.4642C47.8096 31.1982 96.9038 35.172 140.52 41.2723C150.655 42.6927 160.885 44.2749 170.928 45.9745C213.094 53.1147 253.149 62.6425 289.976 74.2928C337.894 89.4494 381.62 108.082 419.931 129.669C466.912 156.31 504.438 186.208 544.175 217.863C557.966 228.852 572.23 240.213 586.835 251.353C616.557 273.919 657.214 303.051 708.18 328.241C735.517 341.765 762.899 352.472 791.885 360.974C855.576 379.655 928.399 388.608 1008.33 387.583C1033.93 387.257 1060.2 385.895 1086.42 383.538C1116.85 380.79 1148.01 376.56 1179 370.961C1229.19 361.797 1277.41 349.718 1322.34 335.057C1344.8 327.731 1367.58 319.142 1390.04 309.533C1426.98 293.784 1461.35 275.44 1494.58 257.702C1517.71 245.356 1541.63 232.587 1565.89 221.007C1588.8 210.067 1616.29 197.383 1646.5 186.233C1672.46 176.632 1697.6 170 1721.22 166.517C1750.24 162.24 1777.31 162.677 1801.68 167.816C1816.18 170.845 1830.42 175.428 1845.21 181.826C1872.72 193.711 1896.6 209.711 1919.7 225.185C1928.89 231.336 1937.56 237.147 1946.31 242.606C1975.27 260.668 2004.43 279.556 2032.98 298.747C2091.79 338.248 2151.71 381.436 2221.55 434.657L2221.18 434.805Z" fill="#FFE492"/>
<path d="M2218.97 420.108C2154.22 365.991 2093.46 320.705 2033.19 281.665C2003.81 262.595 1973.39 244.264 1942.79 227.181C1934.67 222.649 1926.66 217.939 1918.17 212.953C1892.76 198.023 1866.48 182.585 1837.05 171.904C1822.19 166.488 1807.95 162.716 1793.51 160.373C1738.22 151.398 1682.06 168.402 1644.67 184.246C1618.19 195.439 1594 208.095 1569.49 221.16C1548.05 232.596 1527.87 244.897 1506.51 257.919C1474.8 277.25 1442.02 297.238 1404.92 314.022C1382.9 324.035 1359.92 332.693 1336.62 339.754C1293.22 352.91 1245.7 363.126 1191.33 370.988C1160.9 375.387 1129.75 378.521 1098.72 380.3C1072.54 381.783 1046.41 382.313 1021.04 381.87C983.313 381.218 946.431 378.288 911.417 373.163C874.645 367.779 839.559 359.913 807.136 349.782C778.728 340.908 751.3 329.897 723.281 316.122C672.395 291.14 628.804 263.445 596.517 242.107C584.565 234.208 572.803 226.261 561.426 218.572C516.121 187.955 473.328 159.034 421.307 134.669C382.428 116.459 338.778 101.062 291.578 88.9058C255.865 79.7079 218.012 72.8165 175.861 67.8371C166.133 66.6899 156.237 65.6559 146.45 64.7637C103.464 60.8647 57.5864 59.3897 2.08014 57.8642C-37.931 56.7089 -90.3082 55.9481 -140.626 60.363C-164.457 62.4146 -187.493 65.9777 -209.1 70.9489C-285.172 88.4567 -336.776 119.041 -347.145 152.766L-347.688 152.715C-344.939 143.772 -339.37 135.001 -331.144 126.643C-323.303 118.679 -313 111.043 -300.524 103.941C-276.814 90.4496 -245.274 78.943 -209.312 70.6677C-187.665 65.6863 -164.585 62.1172 -140.714 60.0615C-90.3485 55.6405 -37.931 56.4033 2.10574 57.5586C57.6303 59.0842 103.522 60.5592 146.538 64.4602C156.332 65.3545 166.236 66.3884 175.975 67.5356C218.166 72.5211 256.056 79.4185 291.809 88.6266C339.057 100.795 382.743 116.204 421.662 134.432C473.721 158.815 516.531 187.745 561.851 218.374C573.224 226.06 584.986 234.008 596.938 241.905C629.218 263.235 672.791 290.92 723.647 315.889C751.633 329.65 779.032 340.649 807.407 349.513C871.161 369.432 943.049 380.215 1021.06 381.562C1046.4 382.003 1072.51 381.475 1098.66 379.992C1129.66 378.216 1160.79 375.085 1191.19 370.689C1245.51 362.834 1293 352.627 1336.36 339.483C1359.63 332.43 1382.58 323.784 1404.57 313.781C1441.64 297.012 1474.41 277.032 1506.11 257.711C1527.48 244.683 1547.66 232.379 1569.12 220.937C1593.63 207.865 1617.83 195.205 1644.34 184C1668.58 173.727 1692.48 166.338 1715.39 162.032C1743.17 156.812 1769.51 156.155 1793.67 160.076C1808.16 162.429 1822.45 166.213 1837.36 171.645C1866.84 182.347 1893.14 197.799 1918.58 212.741C1927.06 217.724 1935.08 222.432 1943.19 226.963C1973.8 244.052 2004.22 262.389 2033.62 281.465C2093.89 320.515 2154.68 365.809 2219.43 419.938L2218.97 420.108Z" fill="#FFE492"/>
<path d="M2216.76 405.409C2156.16 349.657 2096.31 303.54 2033.77 264.423C2003.53 245.47 1971.85 227.696 1939.62 211.588C1932.73 208.144 1925.63 204.49 1918.78 200.957C1890.45 186.361 1861.16 171.269 1829.18 161.782C1814.17 157.298 1799.88 154.324 1785.51 152.691C1730.33 146.421 1677.34 165.193 1642.6 182.044C1619.05 193.419 1597.52 206.311 1576.7 218.781L1572.8 221.116C1553.9 232.428 1536.17 244.835 1517.4 257.972C1487.5 278.891 1456.59 300.521 1419.51 318.306C1397.93 328.73 1374.77 337.452 1350.67 344.23C1308.65 356.049 1261.88 364.482 1203.5 370.77C1173.31 374.022 1142.17 376.053 1110.93 376.806C1084.81 377.411 1058.84 377.107 1033.73 375.899C957.702 372.259 886.664 359.63 822.588 338.363C794.888 329.169 767.441 317.869 738.682 303.811C690.012 280.071 646.726 255.67 606.564 232.711C601.178 229.634 595.851 226.577 590.564 223.544C535.71 192.083 483.9 162.367 423.012 139.495C383.261 124.563 339.655 112.387 293.411 103.302C259.461 96.6334 222.666 92.1052 180.933 89.4587C171.528 88.8659 161.961 88.3782 152.497 88.01C128.688 87.0995 103.435 86.9518 76.6991 86.796C55.2242 86.6706 33.0203 86.5411 9.58884 86.013C-35.6655 84.9062 -86.9545 83.6538 -134.015 86.276C-158.297 87.6296 -181.472 90.3732 -202.899 94.432C-278.942 108.838 -333.338 135.366 -348.408 165.394L-349.027 165.299C-345.056 157.381 -338.416 149.658 -329.297 142.344C-320.576 135.349 -309.54 128.685 -296.496 122.536C-271.548 110.776 -239.253 100.943 -203.111 94.0961C-181.636 90.0273 -158.414 87.2776 -134.085 85.9219C-86.9765 83.2977 -35.6618 84.5522 9.61084 85.6589C33.0276 86.185 55.2316 86.3165 76.6991 86.4419C103.446 86.5977 128.706 86.7454 152.537 87.6579C162.009 88.0282 171.586 88.5158 180.999 89.1087C222.784 91.7572 259.622 96.2914 293.62 102.97C339.919 112.065 383.572 124.256 423.367 139.204C484.311 162.096 536.146 191.826 591.022 223.301C596.309 226.334 601.64 229.389 607.022 232.469C647.176 255.423 690.448 279.818 739.103 303.55C767.833 317.591 795.25 328.882 822.918 338.063C886.91 359.304 957.856 371.915 1033.79 375.551C1058.87 376.757 1084.81 377.061 1110.9 376.456C1142.11 375.703 1173.22 373.674 1203.37 370.426C1261.7 364.144 1308.41 355.721 1350.38 343.919C1374.43 337.155 1397.54 328.449 1419.08 318.043C1456.12 300.28 1487.01 278.663 1516.89 257.756C1535.67 244.612 1553.41 232.199 1572.33 220.879L1576.23 218.544C1597.06 206.068 1618.59 193.168 1642.17 181.78C1677.02 164.876 1730.2 146.049 1785.63 152.347C1800.07 153.988 1814.41 156.973 1829.48 161.475C1861.53 170.982 1890.85 186.09 1919.21 200.703C1926.06 204.235 1933.16 207.889 1940.04 211.331C1972.29 227.447 2003.99 245.232 2034.24 264.194C2096.81 303.327 2156.68 349.461 2217.3 405.231L2216.76 405.409Z" fill="#FFE492"/>
<path d="M2214.54 390.709C2158.91 334.115 2098.28 285.825 2034.34 247.183C2003.26 228.35 1970.32 211.13 1936.45 196C1931.56 193.814 1926.55 191.546 1921.7 189.353C1889.69 174.864 1856.58 159.879 1821.33 151.665C1806.19 148.102 1791.86 145.927 1777.52 145.012C1722.5 141.508 1672.65 162.018 1640.52 179.841C1620.57 190.852 1602.56 203.097 1585.15 214.94C1582.14 216.989 1579.13 219.035 1576.11 221.072C1559.55 232.265 1544.06 244.769 1527.66 258.006C1499.79 280.509 1470.96 303.777 1434.1 322.594C1412.45 333.644 1389.76 342.186 1364.71 348.713C1312.32 362.364 1259.97 367.417 1215.67 370.561C1185.7 372.685 1154.57 373.616 1123.13 373.321C1097.1 373.048 1071.29 371.908 1046.42 369.938C972.672 364.109 902.564 349.646 838.044 326.95C811.198 317.51 783.736 305.916 754.083 291.508C724.13 276.989 696.218 263.018 669.221 249.506C650.875 240.322 633.544 231.648 616.62 223.326C552.646 191.868 494.048 164.209 424.728 144.328C384.123 132.684 340.562 123.725 295.253 117.701C262.778 113.384 228.065 111.281 186.013 111.081C176.941 111.045 167.701 111.103 158.551 111.257C144.654 111.506 130.276 112.026 115.059 112.578C85.8572 113.637 52.7528 114.836 17.0945 114.165C3.51562 113.908 -10.338 113.545 -23.7374 113.193C-58.2012 112.289 -93.8375 111.354 -127.411 112.19C-152.066 112.805 -175.384 114.731 -196.709 117.916C-272.623 129.257 -329.808 151.729 -349.682 178.031L-350.359 177.875C-345.156 170.987 -337.447 164.314 -327.448 158.04C-317.845 152.015 -306.076 146.323 -292.475 141.125C-266.266 131.11 -233.221 122.95 -196.906 117.525C-175.531 114.333 -152.161 112.4 -127.451 111.785C-93.8411 110.948 -58.1902 111.884 -23.7081 112.789C-10.3124 113.141 3.54126 113.503 17.1165 113.76C52.7418 114.432 85.8206 113.234 115.008 112.176C130.232 111.623 144.613 111.103 158.526 110.854C167.686 110.701 176.934 110.642 186.017 110.678C228.128 110.877 262.892 112.985 295.421 117.309C340.785 123.34 384.406 132.31 425.062 143.97C456.374 152.95 488.105 164.327 522.067 178.749C552.471 191.66 582.047 205.786 617.104 223.025C634.028 231.349 651.359 240.023 669.708 249.207C696.701 262.716 724.614 276.687 754.56 291.205C784.183 305.598 811.616 317.18 838.429 326.611C902.861 349.276 972.87 363.718 1046.51 369.539C1071.35 371.508 1097.13 372.645 1123.14 372.918C1154.54 373.213 1185.64 372.285 1215.56 370.16C1259.81 367.022 1312.1 361.976 1364.39 348.349C1389.37 341.84 1412.01 333.32 1433.59 322.299C1470.39 303.514 1499.2 280.264 1527.05 257.779C1543.46 244.535 1558.95 232.025 1575.54 220.82C1578.55 218.782 1581.56 216.736 1584.57 214.689C1602 202.838 1620.02 190.585 1639.99 179.56C1660.9 167.965 1682.34 159.044 1703.73 153.047C1729.07 145.943 1753.92 143.106 1777.59 144.615C1792 145.534 1806.4 147.719 1821.6 151.296C1856.95 159.533 1890.1 174.536 1922.15 189.043C1927 191.237 1932 193.505 1936.89 195.688C1970.79 210.83 2003.75 228.067 2034.86 246.914C2068.81 267.433 2102.06 290.81 2133.68 316.397C2161.63 339.011 2189.05 363.951 2215.17 390.519L2214.54 390.709Z" fill="#FFE492"/>
<path d="M2212.33 376.008C2160.84 317.791 2101.15 268.649 2034.92 229.945C2002.98 211.231 1968.79 194.567 1933.29 180.412C1931.6 179.738 1929.91 179.064 1928.22 178.389C1891.3 163.651 1853.13 148.411 1813.48 141.55C1798.12 138.891 1783.75 137.514 1769.55 137.336C1714.75 136.652 1668.02 158.876 1638.46 177.638C1621.08 188.614 1605.64 200.645 1590.71 212.279C1587.02 215.156 1583.2 218.131 1579.44 221.028C1565.09 232.063 1551.74 244.61 1537.62 257.895C1511.94 282.059 1485.37 307.045 1448.7 326.882C1427.49 338.358 1404.61 346.965 1378.76 353.197C1327.84 365.472 1276.13 368.695 1227.83 370.35C1198.06 371.37 1166.94 371.196 1135.34 369.834C1109.39 368.681 1083.75 366.708 1059.11 363.973C987.87 356.082 918.693 339.786 853.506 315.537C827.4 305.827 800.704 294.282 769.498 279.204C710.188 250.627 666.147 230.499 626.7 213.942C548.242 181.013 488.361 161.64 426.479 149.164C385.05 140.812 341.533 135.071 297.128 132.101C266.321 130.042 233.627 130.226 191.125 132.704C182.415 133.218 173.504 133.823 164.637 134.505C156.261 135.158 147.753 135.907 138.744 136.698C105.478 139.622 67.7715 142.936 24.6167 142.317C1.87042 141.991 -21.3632 141.099 -43.831 140.237C-69.3655 139.258 -95.7684 138.244 -120.801 138.106C-145.9 137.969 -169.36 139.078 -190.513 141.404C-266.175 149.722 -326.155 168.145 -350.957 190.682L-351.66 190.446C-345.219 184.59 -336.44 178.967 -325.569 173.733C-315.075 168.679 -302.581 163.962 -288.43 159.711C-260.943 151.452 -227.138 144.965 -190.674 140.957C-169.463 138.626 -145.951 137.514 -120.794 137.651C-95.7392 137.789 -69.3215 138.802 -43.776 139.784C-21.3155 140.646 1.90704 141.538 24.635 141.864C67.7129 142.481 105.379 139.171 138.608 136.251C147.622 135.458 156.137 134.711 164.516 134.056C173.394 133.374 182.312 132.769 191.029 132.253C233.598 129.772 266.347 129.586 297.22 131.652C341.687 134.626 385.266 140.375 426.754 148.739C488.72 161.231 548.664 180.624 627.191 213.582C666.652 230.145 710.709 250.279 770.033 278.864C801.217 293.93 827.884 305.463 853.961 315.163C919.06 339.378 988.134 355.651 1059.26 363.53C1083.87 366.261 1109.49 368.23 1135.4 369.383C1166.96 370.743 1198.04 370.917 1227.78 369.899C1276 368.246 1327.62 365.031 1378.43 352.784C1404.18 346.576 1426.98 337.998 1448.12 326.562C1484.71 306.768 1511.25 281.808 1536.91 257.67C1551.04 244.377 1564.39 231.82 1578.76 220.769C1582.53 217.874 1586.34 214.899 1590.03 212.022C1604.97 200.378 1620.42 188.339 1637.84 177.345C1657.12 165.099 1677.34 155.414 1697.93 148.555C1722.04 140.52 1746.15 136.597 1769.56 136.886C1783.85 137.064 1798.29 138.45 1813.73 141.121C1853.5 148.007 1891.73 163.266 1928.7 178.026C1930.39 178.702 1932.08 179.378 1933.77 180.05C1969.31 194.221 2003.54 210.905 2035.51 229.639C2101.8 268.377 2161.54 317.558 2213.07 375.815L2212.33 376.008Z" fill="#FFE492"/>
<path d="M1246.07 370.139C1244.01 370.139 1241.99 370.137 1239.99 370.131C1210.37 370.063 1179.26 368.788 1147.54 366.34C1121.69 364.306 1096.2 361.5 1071.79 358.002C1036.91 353.012 1001.9 345.841 967.733 336.69C934.739 327.852 901.51 316.894 868.966 304.117C837.078 291.598 807.293 277.65 784.906 266.896C732.525 241.803 682.687 220.829 636.777 204.556C562.419 178.2 496.155 162.133 428.235 153.993C387.261 149.082 343.3 146.493 300.973 146.493C300.317 146.493 299.665 146.493 299.009 146.495C262.647 146.563 228.125 150.294 196.24 154.317C187.941 155.371 179.357 156.522 170.724 157.742C165.994 158.418 161.256 159.114 156.244 159.85C120.89 165.052 80.8164 170.946 32.1325 170.463C2.48325 170.167 -27.7999 168.472 -57.0865 166.831C-75.9965 165.771 -95.5477 164.676 -114.198 164.014C-139.835 163.106 -163.427 163.397 -184.327 164.884C-259.586 170.234 -322.362 184.608 -352.256 203.336L-352.945 203.002C-337.611 193.397 -314.546 185.081 -284.391 178.283C-255.592 171.792 -221.029 166.985 -184.444 164.385C-163.49 162.896 -139.835 162.6 -114.139 163.513C-95.4707 164.174 -75.9085 165.271 -56.9912 166.331C-27.723 167.972 2.54184 169.668 32.1508 169.961C80.7101 170.445 120.714 164.559 156.009 159.367C161.026 158.628 165.763 157.932 170.497 157.257C179.137 156.037 187.729 154.883 196.035 153.829C227.974 149.801 262.556 146.064 299.005 145.993C342.006 145.91 386.755 148.508 428.43 153.503C463.483 157.706 497.467 163.891 532.316 172.413C565.878 180.622 600.21 190.997 637.268 204.135C683.215 220.42 733.089 241.41 785.503 266.52C807.872 277.267 837.635 291.206 869.49 303.71C935.527 329.637 1003.67 347.739 1072.02 357.518C1096.4 361.012 1121.85 363.815 1147.67 365.846C1179.35 368.29 1210.41 369.565 1239.99 369.632C1286.28 369.737 1340.03 368.875 1392.46 357.21C1418.99 351.306 1441.95 342.673 1462.64 330.818C1498.98 309.999 1523.06 283.277 1546.36 257.433C1558.35 244.14 1569.67 231.583 1581.97 220.714C1585.92 217.232 1589.9 213.644 1593.74 210.174C1606.74 198.451 1620.18 186.332 1635.67 175.129C1653.36 162.24 1672.35 151.786 1692.11 144.057C1715.01 135.095 1738.36 130.082 1761.5 129.155C1775.79 128.582 1790.29 129.167 1805.83 130.943C1847.38 135.69 1888.57 149.481 1930.62 164.407C1967.28 177.421 2003.77 194.002 2036.14 212.36C2072.1 232.692 2105.89 256.545 2136.56 283.254C2163.88 307.051 2188.91 333.244 2210.95 361.109L2210.11 361.312C2162.78 301.47 2104.03 251.474 2035.49 212.714C2003.16 194.382 1966.73 177.826 1930.13 164.834C1888.15 149.934 1847.04 136.17 1805.64 131.439C1790.19 129.673 1775.77 129.092 1761.57 129.661C1719.04 131.366 1674.59 147.622 1636.4 175.436C1620.94 186.619 1607.51 198.728 1594.52 210.439C1590.68 213.911 1586.69 217.501 1582.75 220.983C1570.47 231.832 1559.15 244.378 1547.18 257.659C1535.75 270.34 1523.93 283.453 1510.37 296.058C1494.99 310.349 1479.6 321.833 1463.3 331.17C1442.52 343.078 1419.46 351.75 1392.8 357.682C1369.29 362.914 1344.02 366.372 1315.55 368.258C1291.43 369.846 1267.22 370.139 1246.07 370.139Z" fill="#FFE492"/>
<path d="M1304.83 371.156C1286.14 371.156 1268.2 370.541 1252.14 369.918C1222.62 368.773 1191.53 366.396 1159.73 362.851C1133.99 359.939 1108.66 356.301 1084.46 352.034C1018.18 340.374 952.742 320.964 884.412 292.7C854.612 280.376 826.52 267.116 800.308 254.591C748.557 229.937 696.931 209.947 646.855 195.173C573.208 173.444 504.303 161.893 430.004 158.822C387.669 157.072 343.027 157.786 300.898 160.886C265.635 163.48 232.392 169.74 201.357 175.927C193.593 177.483 185.335 179.182 176.816 180.977C174.687 181.428 172.54 181.888 170.364 182.351C134.621 189.983 94.1775 198.618 42.2729 198.618C41.3972 198.618 40.5252 198.616 39.6422 198.61C4.52621 198.414 -31.3263 195.646 -66.0026 192.967C-79.75 191.905 -93.9664 190.808 -107.608 189.92C-134.252 188.188 -157.328 187.676 -178.158 188.36C-253.919 190.849 -317.867 200.917 -353.599 215.989L-354.211 215.545C-336.547 208.096 -311.005 201.627 -280.355 196.84C-250.208 192.132 -214.89 189.008 -178.221 187.804C-157.332 187.118 -134.197 187.63 -107.494 189.366C-93.8381 190.254 -79.6181 191.353 -65.867 192.413C-31.2237 195.088 4.59583 197.854 39.6459 198.05C92.6313 198.349 133.734 189.57 169.993 181.827C172.166 181.364 174.317 180.904 176.446 180.451C184.972 178.654 193.234 176.955 201.006 175.399C232.091 169.199 265.397 162.931 300.755 160.329C342.95 157.225 387.666 156.509 430.069 158.261C466.889 159.783 501.994 163.376 537.389 169.244C573.842 175.288 609.801 183.605 647.32 194.677C697.459 209.471 749.151 229.486 800.956 254.164C827.158 266.685 855.232 279.937 885.005 292.249C953.244 320.475 1018.58 339.856 1084.75 351.498C1108.92 355.757 1134.21 359.391 1159.92 362.298C1191.67 365.839 1222.72 368.215 1252.2 369.356C1301.8 371.278 1354.57 372.265 1406.48 361.629C1433.8 356.03 1456.92 347.342 1477.15 335.067C1513.19 313.201 1535.63 283.375 1555.43 257.06C1565.39 243.819 1574.79 231.313 1585.17 220.652C1588.92 216.806 1592.69 212.83 1596.34 208.986C1607.74 196.957 1619.53 184.52 1633.48 172.904C1649.63 159.372 1667.4 148.149 1686.28 139.546C1707.97 129.666 1730.57 123.564 1753.43 121.413C1767.73 120.067 1782.28 119.853 1797.92 120.751C1841.61 123.266 1886 135.693 1927.46 148.75C1965.75 160.805 2003.54 176.821 2036.77 195.068C2073.73 215.305 2107.78 239.396 2137.98 266.669C2164.98 291.058 2188.82 317.879 2208.83 346.391L2207.89 346.591C2165.36 285.985 2105.94 233.725 2036.06 195.46C2002.9 177.248 1965.18 161.262 1926.97 149.231C1885.61 136.205 1841.33 123.808 1797.82 121.304C1782.27 120.409 1767.81 120.624 1753.61 121.959C1711.39 125.931 1669.03 144.131 1634.33 173.208C1620.4 184.799 1608.62 197.224 1597.23 209.241C1593.59 213.087 1589.82 217.063 1586.07 220.913C1575.71 231.55 1566.31 244.044 1556.36 257.27C1536.53 283.626 1514.06 313.5 1477.9 335.439C1457.55 347.781 1434.3 356.518 1406.84 362.149C1383 367.033 1357.28 369.862 1328.22 370.79C1320.36 371.053 1312.53 371.156 1304.83 371.156Z" fill="#FFE492"/>
<path d="M1341.7 373.344C1341.43 373.344 1341.17 373.344 1340.9 373.344C1314.5 373.308 1288.58 371.523 1264.28 369.698C1234.81 367.485 1203.73 364.003 1171.92 359.353C1146.29 355.567 1121.13 351.094 1097.13 346.06C1033.5 332.732 970.817 312.149 899.864 281.279C874.311 270.165 849.165 258.197 824.843 246.626C821.802 245.177 818.757 243.731 815.712 242.284C763.694 217.636 710.276 198.627 656.946 185.787C583.919 168.207 510.268 160.963 431.785 163.644C388.751 165.115 344.149 169.135 302.8 175.27C270.176 180.112 241.105 187.879 206.488 197.53C199.471 199.495 191.978 201.615 182.913 204.205L182.408 204.351C164.919 209.381 145.097 215.081 122.864 219.415C97.329 224.392 72.5565 226.788 47.1539 226.759C7.54214 226.705 -32.8831 222.634 -71.9745 218.694C-81.5523 217.729 -91.4598 216.732 -101.023 215.829C-128.448 213.245 -151.663 211.94 -171.995 211.841C-246.858 211.477 -313.551 217.604 -354.969 228.647L-355.445 228.101C-335.158 222.69 -307.791 218.3 -276.306 215.402C-244.763 212.499 -208.687 211.058 -171.984 211.236C-151.594 211.335 -128.32 212.643 -100.836 215.232C-91.2656 216.135 -81.3581 217.132 -71.7766 218.097C-32.7328 222.031 7.64105 226.098 47.1576 226.152C47.3334 226.152 47.5129 226.152 47.6888 226.152C104.214 226.152 147.277 213.77 181.902 203.813L182.411 203.667C191.48 201.075 198.973 198.955 205.993 196.99C240.669 187.323 269.791 179.541 302.518 174.685C343.936 168.538 388.611 164.512 431.719 163.039C470.125 161.728 506.351 162.727 542.475 166.098C581.401 169.73 618.991 175.988 657.386 185.233C710.818 198.097 764.328 217.136 816.43 241.825C819.475 243.271 822.52 244.72 825.561 246.169C849.872 257.736 875.011 269.7 900.542 280.806C971.404 311.637 1033.99 332.192 1097.52 345.497C1121.48 350.525 1146.61 354.991 1172.2 358.772C1203.97 363.416 1235 366.892 1264.43 369.101C1317.14 373.063 1368.75 375.811 1420.52 366.066C1448.62 360.777 1471.89 352.035 1491.67 339.336C1527.39 316.398 1546.91 284.614 1564.13 256.569C1572.19 243.439 1579.8 231.036 1588.39 220.614C1591.7 216.604 1595.01 212.456 1598.22 208.444C1608.24 195.9 1618.61 182.93 1631.32 170.701C1645.95 156.52 1662.49 144.526 1680.46 135.052C1700.95 124.256 1722.79 117.069 1745.37 113.694C1759.37 111.602 1773.66 110.583 1789.01 110.583C1789.34 110.583 1789.68 110.583 1790.01 110.585C1837.74 110.722 1886.86 122.696 1924.32 133.112C1964.22 144.21 2003.33 159.66 2037.41 177.793C2075.37 197.937 2109.69 222.265 2139.42 250.104C2166.09 275.086 2188.74 302.536 2206.72 331.696L2205.68 331.893C2178.92 288.505 2127.86 226.628 2036.65 178.232C2002.65 160.14 1963.63 144.726 1923.82 133.654C1886.47 123.267 1837.51 111.327 1790.01 111.192C1774.37 111.141 1759.87 112.157 1745.66 114.281C1703.83 120.535 1663.56 140.679 1632.27 171.003C1619.59 183.203 1609.24 196.159 1599.22 208.689C1596.02 212.703 1592.7 216.853 1589.39 220.865C1580.83 231.261 1573.22 243.648 1565.17 256.763C1547.92 284.859 1528.37 316.704 1492.5 339.731C1472.6 352.514 1449.17 361.316 1420.88 366.639C1396.91 371.149 1370.99 373.344 1341.7 373.344Z" fill="#FFE492"/>
<path d="M1371.03 376.192C1365.34 376.192 1359.53 376.091 1353.58 375.889C1327.53 375.004 1302.22 372.352 1276.43 369.479C1246.53 366.148 1216.33 361.693 1184.11 355.858C1158.61 351.2 1133.61 345.895 1109.8 340.086C1049.39 325.373 989.411 303.713 915.321 269.859C896.92 261.452 878.527 252.635 860.738 244.106C851.054 239.465 841.044 234.663 831.125 229.975C778.488 205.162 723.286 187.138 667.05 176.402C592.747 162.217 516.382 159.619 433.582 168.461C389.838 173.132 345.276 180.459 304.719 189.647C272.138 197.028 243.757 207.393 213.708 218.368L211.63 219.126C206.937 220.846 202.192 222.59 197.388 224.355C194.622 225.372 191.837 226.396 189.027 227.428C171.506 233.897 152.581 240.644 130.879 245.838C105.682 251.868 80.7589 254.834 54.6784 254.907C11.2597 255.024 -33.0273 249.452 -75.8524 244.058C-81.964 243.287 -88.2881 242.492 -94.4253 241.737C-123.199 238.196 -145.883 236.159 -165.822 235.321C-239.403 232.231 -308.844 234.409 -356.344 241.296L-356.648 240.661C-309.023 233.755 -239.44 231.57 -165.731 234.665C-145.736 235.505 -122.994 237.549 -94.1652 241.096C-88.0243 241.852 -81.7002 242.647 -75.5849 243.418C-33.2838 248.746 10.4427 254.251 53.2861 254.251C53.7478 254.251 54.2094 254.251 54.6748 254.249C110.089 254.095 149.536 241.215 188.371 226.882C191.182 225.85 193.966 224.826 196.733 223.808C201.536 222.042 206.277 220.3 210.975 218.578L213.052 217.819C243.152 206.827 271.581 196.443 304.268 189.038C344.898 179.832 389.537 172.493 433.359 167.813C516.367 158.949 592.938 161.555 667.442 175.779C723.817 186.543 779.147 204.607 831.902 229.476C841.82 234.166 851.834 238.965 861.518 243.609C879.3 252.135 897.689 260.95 916.079 269.351C990.081 303.167 1049.98 324.796 1110.28 339.485C1134.06 345.284 1159.02 350.583 1184.48 355.233C1216.65 361.06 1246.81 365.509 1276.67 368.833C1321.99 373.882 1378.4 380.166 1434.57 370.486C1463.45 365.511 1486.88 356.714 1506.19 343.59C1541.57 319.554 1557.98 285.746 1572.45 255.92C1578.74 242.963 1584.68 230.724 1591.61 220.567C1594.31 216.609 1597.02 212.516 1599.64 208.557C1608.41 195.278 1617.49 181.547 1629.15 168.489C1642.3 153.648 1657.61 140.883 1674.64 130.548C1693.94 118.837 1715.03 110.568 1737.3 105.969C1751.6 103.017 1766.25 101.198 1782.1 100.407C1803.32 99.3463 1825.91 100.479 1851.16 103.862C1872.52 106.727 1895.42 111.175 1921.17 117.461C1962.7 127.6 2003.11 142.485 2038.04 160.507C2077.02 180.556 2111.61 205.125 2140.85 233.528C2167.19 259.105 2188.64 287.185 2204.61 316.99L2203.47 317.176C2169.74 254.251 2110.7 198.782 2037.23 160.989C2002.39 143.015 1962.09 128.172 1920.68 118.064C1865.2 104.52 1821.21 99.1157 1782.21 101.062C1766.47 101.847 1751.92 103.654 1737.72 106.584C1684.72 117.524 1650 146.445 1630.22 168.778C1618.59 181.804 1609.52 195.518 1600.75 208.781C1598.13 212.743 1595.43 216.838 1592.73 220.798C1585.81 230.924 1579.88 243.149 1573.6 256.09C1559.1 285.981 1542.66 319.859 1507.12 344.005C1487.65 357.232 1464.03 366.1 1434.92 371.116C1415.19 374.515 1394.15 376.192 1371.03 376.192Z" fill="#FFE492"/>
<path d="M1396.43 379.459C1357.68 379.459 1320.43 373.961 1288.56 369.259C1258.58 364.836 1228.4 359.309 1196.28 352.363C1170.93 346.839 1146.09 340.7 1122.46 334.114C1051.62 314.395 988.461 286.091 930.767 258.44C918.987 252.795 907.086 246.976 895.581 241.349C879.606 233.535 863.085 225.456 846.531 217.671C793.106 192.612 736.119 175.57 677.158 167.017C600.884 155.956 521.796 158.001 435.376 173.273C390.88 181.136 346.363 191.768 306.634 204.021C275.991 213.47 250.065 225.4 222.618 238.029C220.672 238.924 218.723 239.822 216.762 240.72L215.7 241.21C209.028 244.283 202.128 247.46 195.134 250.649C178.375 258.323 159.919 266.26 138.572 272.324C113.792 279.363 88.8111 282.874 62.192 283.056C15.4684 283.378 -32.153 276.124 -78.2024 269.109C-81.4304 268.618 -84.6437 268.128 -87.8424 267.644C-118.21 263.043 -140.363 260.316 -159.665 258.799C-231.399 253.162 -303.595 251.389 -357.742 253.936L-357.852 253.23C-303.617 250.677 -231.315 252.451 -159.485 258.096C-140.128 259.618 -117.928 262.351 -87.5053 266.961C-84.3066 267.444 -81.0933 267.934 -77.8616 268.427C-31.9001 275.428 15.6296 282.664 62.1737 282.348C119.981 281.951 160.692 265.496 194.313 250.102C201.308 246.914 208.207 243.737 214.879 240.666L215.942 240.176C217.902 239.276 219.851 238.379 221.797 237.485C249.292 224.833 275.262 212.883 306.007 203.402C345.809 191.127 390.411 180.476 434.984 172.599C475.955 165.36 514.439 161.18 552.629 159.82C595.23 158.305 637.235 160.496 677.48 166.333C736.629 174.912 793.784 192.003 847.359 217.13C863.924 224.92 880.449 233.001 896.428 240.817C907.933 246.444 919.826 252.261 931.602 257.904C989.237 285.524 1052.32 313.798 1123.03 333.481C1146.63 340.057 1171.43 346.187 1196.75 351.703C1228.81 358.639 1258.95 364.159 1288.89 368.575C1334.86 375.358 1392.07 383.799 1448.6 374.916C1478.26 370.255 1501.84 361.403 1520.69 347.855C1555.71 322.687 1568.81 286.799 1580.37 255.134C1585.01 242.412 1589.4 230.395 1594.81 220.528C1596.81 216.877 1598.82 213.106 1600.76 209.458C1608.36 195.19 1616.22 180.434 1626.96 166.285C1638.66 150.772 1652.73 137.232 1668.79 126.045C1686.91 113.421 1707.24 104.07 1729.21 98.2486C1743.48 94.469 1758.18 91.8489 1774.16 90.2363C1795.69 88.0653 1819.58 88.1381 1845.17 90.4528C1867.57 92.4801 1892.07 96.3022 1917.99 101.816C1961.14 110.995 2002.86 125.314 2038.66 143.225C2078.65 163.181 2113.51 187.987 2142.27 216.956C2168.25 243.128 2188.52 271.839 2202.49 302.29L2201.24 302.464C2171.64 237.94 2113.6 181.575 2037.8 143.751C2002.12 125.899 1960.53 111.627 1917.53 102.477C1861.79 90.6187 1814.97 86.8412 1774.39 90.9343C1758.53 92.5348 1743.93 95.1367 1729.77 98.888C1677.49 112.738 1645.65 143.33 1628.15 166.558C1617.43 180.67 1609.58 195.406 1601.99 209.656C1600.05 213.304 1598.04 217.078 1596.04 220.732C1590.65 230.567 1586.26 242.567 1581.63 255.274C1576.06 270.507 1569.76 287.772 1560.61 303.959C1550.13 322.505 1537.4 337.004 1521.71 348.286C1512.64 354.809 1502.21 360.361 1490.71 364.788C1478.35 369.549 1464.3 373.187 1448.95 375.598C1431.38 378.36 1413.75 379.459 1396.43 379.459Z" fill="#FFE492"/>
<path d="M1419.33 383.042C1406.52 383.042 1393.1 382.354 1378.92 380.981C1351 378.275 1324.28 373.367 1300.7 369.039C1270.97 363.582 1239.94 356.794 1208.46 348.865C1183.27 342.483 1158.59 335.511 1135.12 328.138C1067.75 307 1009.71 278.894 946.213 247.019C940.57 244.186 934.839 241.297 929.299 238.501C907.48 227.496 884.921 216.117 861.936 205.365C807.625 180.013 748.857 163.954 687.265 157.633C609.573 149.659 525.425 156.539 437.17 178.083C391.882 189.138 347.405 203.075 308.548 218.389C279.291 229.92 255.207 243.515 229.709 257.909C227.119 259.371 224.517 260.838 221.901 262.311C215.39 265.982 208.377 269.921 201.243 273.864C186.283 282.162 168.051 291.617 146.268 298.806C121.884 306.855 96.8407 310.911 69.7122 311.205C20.0501 311.745 -30.5024 302.664 -79.3915 293.883L-81.2528 293.549C-105.19 289.252 -130.512 284.91 -153.5 282.273C-223.571 274.239 -296.598 268.66 -359.125 266.566L-359.041 265.81C-296.448 267.906 -223.355 273.488 -153.222 281.531C-130.168 284.175 -104.801 288.523 -80.8278 292.827L-78.9665 293.161C-30.1837 301.922 20.2663 310.98 69.6866 310.444C126.761 309.825 166.179 292.238 200.272 273.324C207.406 269.383 214.412 265.443 220.923 261.775C223.539 260.304 226.14 258.835 228.731 257.374C254.273 242.956 278.4 229.337 307.753 217.768C346.683 202.423 391.245 188.46 436.617 177.385C478.024 167.278 518.771 160.314 557.72 156.688C602.223 152.547 645.895 152.611 687.521 156.883C749.348 163.228 808.332 179.343 862.827 204.782C885.829 215.544 908.4 226.928 930.23 237.938C935.77 240.733 941.501 243.622 947.143 246.455C1010.58 278.3 1068.56 306.375 1135.81 327.476C1159.25 334.837 1183.89 341.799 1209.04 348.173C1240.47 356.09 1271.46 362.868 1301.14 368.317C1347.66 376.859 1405.56 387.488 1462.65 379.344C1493.1 375 1516.84 366.095 1535.22 352.118C1569.84 325.785 1579.86 286.093 1587.92 254.2C1591.05 241.777 1594.02 230.044 1598.03 220.493C1599.3 217.483 1600.57 214.381 1601.81 211.38C1608.22 195.793 1614.86 179.673 1624.8 164.086C1640.17 139.828 1669.35 107.378 1721.14 90.5381C1735.44 85.8885 1750.2 82.4651 1766.25 80.0735C1808.24 73.7264 1858.23 75.7801 1914.84 86.1738C1959.6 94.3946 2002.64 108.147 2039.3 125.946C2080.3 145.807 2115.43 170.852 2143.71 200.39C2156.68 213.938 2168.15 228.409 2177.79 243.399C2187 257.718 2194.6 272.588 2200.38 287.595L2199.04 287.752C2173.58 221.627 2116.53 164.365 2038.39 126.515C2001.87 108.782 1959 95.0825 1914.4 86.8921C1858.06 76.5449 1808.33 74.4973 1766.61 80.804C1750.67 83.1773 1736.03 86.5744 1721.84 91.1896C1670.4 107.912 1641.39 140.196 1626.1 164.334C1616.18 179.882 1609.55 195.979 1603.15 211.546C1601.91 214.547 1600.64 217.651 1599.37 220.663C1595.37 230.181 1592.41 241.898 1589.28 254.303C1585.23 270.352 1580.63 288.542 1572.79 305.709C1563.77 325.437 1551.84 340.763 1536.33 352.563C1527.47 359.295 1517.12 364.972 1505.55 369.436C1493.1 374.245 1478.77 377.826 1462.99 380.076C1449.14 382.055 1434.67 383.042 1419.33 383.042Z" fill="#FFE492"/>
<path d="M1440.44 386.826C1425.08 386.826 1408.89 385.727 1391.6 383.524C1363.58 379.957 1336.62 374.037 1312.83 368.813C1282.88 362.237 1251.87 354.348 1220.64 345.362C1195.62 338.129 1171.1 330.323 1147.79 322.159C1083.62 299.71 1028.59 270.777 970.323 240.148C967.44 238.633 964.556 237.115 961.665 235.598C934.57 221.37 906.555 206.656 877.349 193.059C822.092 167.386 761.544 152.308 697.387 148.245C616.8 143.14 529.857 154.797 438.967 182.886C393.504 196.936 347.868 214.646 310.466 232.753C282.224 246.424 259.573 261.808 235.592 278.095C232.752 280.024 229.905 281.958 227.036 283.896C221.305 287.775 214.487 292.374 207.349 297.078C194.129 305.813 176.117 316.913 153.964 325.263C129.969 334.309 104.87 338.92 77.2325 339.355C54.5155 339.669 29.4463 337.732 0.58844 333.433C-24.1877 329.742 -48.1541 324.919 -74.6743 319.456C-98.8824 314.408 -124.432 309.194 -147.354 305.75C-215.252 295.548 -286.971 286.615 -360.516 279.194L-360.252 278.399C-286.664 285.822 -214.904 294.763 -146.969 304.969C-123.985 308.423 -98.3988 313.645 -74.1613 318.697C-29.7094 327.857 25.6137 339.26 77.1922 338.546C136.161 337.615 174.058 317.815 206.224 296.556C213.358 291.856 220.173 287.259 225.9 283.382C228.769 281.444 231.616 279.51 234.452 277.583C258.473 261.269 281.165 245.86 309.499 232.144C346.978 214.001 392.701 196.256 438.252 182.18C529.417 154.006 616.661 142.319 697.555 147.442C728.571 149.407 759.037 153.969 788.101 161.002C819.285 168.547 849.63 179.127 878.294 192.442C907.533 206.053 935.567 220.775 962.677 235.013C965.568 236.532 968.455 238.048 971.338 239.563C1029.55 270.166 1084.53 299.071 1148.57 321.477C1171.86 329.629 1196.33 337.425 1221.32 344.646C1252.5 353.617 1283.47 361.496 1313.37 368.062C1360.37 378.381 1418.86 391.223 1476.69 383.775C1508.02 379.741 1531.91 370.781 1549.73 356.387C1584.05 328.895 1590.16 286.897 1595.07 253.152C1596.83 241.083 1598.49 229.683 1601.24 220.465C1601.81 218.563 1602.38 216.651 1602.95 214.729C1608.08 197.367 1613.4 179.412 1622.63 161.89C1635.82 136.688 1662.2 102.514 1713.06 82.8314C1727.25 77.3401 1742.05 73.1155 1758.32 69.9146C1780.93 65.4249 1806.13 63.3145 1833.21 63.6383C1857.93 63.9337 1884.33 66.2544 1911.67 70.5337C1958.05 77.7913 2002.4 90.9773 2039.92 108.665C2081.93 128.429 2117.33 153.716 2145.14 183.821C2157.9 197.634 2168.94 212.402 2177.97 227.715C2186.62 242.38 2193.45 257.583 2198.26 272.901L2196.82 273.039C2175.84 206.288 2118.3 146.6 2038.97 109.28C2001.61 91.6693 1957.45 78.538 1911.27 71.3087C1854.32 62.3939 1801.61 62.1754 1758.81 70.6733C1742.66 73.8499 1727.97 78.0422 1713.9 83.491C1663.39 103.038 1637.15 137.036 1624.04 162.113C1614.83 179.588 1609.52 197.517 1604.39 214.857C1603.82 216.779 1603.25 218.693 1602.69 220.595C1599.94 229.779 1598.29 241.164 1596.53 253.215C1591.6 287.057 1585.47 329.176 1550.93 356.845C1542.34 363.783 1532.07 369.59 1520.41 374.099C1507.86 378.951 1493.26 382.472 1477.02 384.564C1465.3 386.069 1453.16 386.826 1440.44 386.826Z" fill="#FFE492"/>
<path d="M1460.27 390.766C1442.78 390.766 1424.24 389.204 1404.27 386.067C1376.01 381.63 1348.88 374.7 1324.95 368.588C1294.71 360.863 1263.71 351.869 1232.81 341.862C1207.97 333.789 1183.62 325.147 1160.44 316.182C1103.37 294.112 1054.59 267.074 1002.94 238.449C994.5 233.769 985.769 228.931 977.107 224.174C946.659 207.461 920.659 193.681 892.75 180.754C836.508 154.74 774.183 140.644 707.501 138.855C623.712 136.607 533.962 153.036 440.749 187.686C394.443 204.9 348.848 226.003 312.366 247.11C284.882 263.012 263.396 280.321 240.65 298.646C237.832 300.916 235.003 303.195 232.156 305.475C227.085 309.544 220.373 314.905 213.444 320.281C184.286 342.959 146.191 366.306 84.7418 367.5C82.8255 367.534 80.9019 367.55 78.982 367.55C30.9979 367.55 -17.9901 357.063 -68.1066 345.354L-71.2357 344.618C-96.0594 338.766 -119.509 333.241 -141.215 329.218C-223.014 314.06 -302.124 301.264 -361.906 291.811L-361.478 290.984C-301.681 300.441 -222.549 313.238 -140.72 328.403C-118.956 332.435 -95.4805 337.969 -70.6238 343.827L-67.4984 344.563C-15.5462 356.701 35.1895 367.528 84.6868 366.642C145.455 365.46 183.231 342.293 212.173 319.786C219.098 314.414 225.803 309.056 230.874 304.989C233.721 302.707 236.546 300.431 239.364 298.161C262.146 279.807 283.665 262.469 311.237 246.518C347.793 225.366 393.48 204.22 439.877 186.971C482.94 170.963 526.018 158.671 567.913 150.434C615.981 140.983 662.972 136.799 707.574 137.995C774.6 139.792 837.24 153.957 893.747 180.092C921.696 193.039 947.722 206.834 978.199 223.561C986.865 228.318 995.596 233.158 1004.04 237.837C1055.63 266.435 1104.37 293.446 1161.33 315.472C1184.48 324.427 1208.79 333.055 1233.6 341.115C1264.45 351.111 1295.4 360.09 1325.6 367.803C1373.01 379.913 1432.01 394.982 1490.73 388.198C1522.82 384.489 1546.87 375.477 1564.23 360.649C1598.11 331.903 1600.15 287.542 1601.79 251.898C1602.32 240.267 1602.83 229.281 1604.45 220.429L1604.48 220.227C1608.11 200.404 1611.86 179.908 1620.45 159.685C1627.89 142.046 1638.25 126.187 1651.25 112.546C1665.91 97.1666 1683.98 84.5735 1704.97 75.1145C1719.01 68.7856 1733.86 63.7577 1750.37 59.7454C1794.99 48.8418 1849.67 47.1584 1908.49 54.8814C1932.16 57.9892 1955.51 62.6974 1977.9 68.8726C2000.41 75.0842 2021.49 82.6574 2040.54 91.3779C2083.57 111.047 2119.25 136.573 2146.56 167.248C2171.12 194.82 2188.26 226.272 2196.14 258.202L2194.6 258.317C2177.74 189.978 2121.23 129.372 2039.55 92.0395C2001.35 74.5541 1955.9 61.9933 1908.13 55.7231C1849.64 48.0446 1795.31 49.7098 1751.01 60.5386C1734.62 64.5205 1719.89 69.5079 1705.95 75.7863C1666.77 93.4478 1637.73 122.529 1621.97 159.885C1613.4 180.056 1609.66 200.524 1606.04 220.318L1606 220.52C1604.39 229.34 1603.88 240.31 1603.35 251.924C1601.7 287.678 1599.66 332.172 1565.53 361.12C1557.16 368.27 1546.97 374.203 1535.23 378.751C1522.58 383.656 1507.72 387.118 1491.04 389.046C1481.12 390.191 1470.88 390.766 1460.27 390.766Z" fill="#FFE492"/>
<path d="M85.8808 395.722C64.4243 395.722 41.0588 393.413 14.6888 388.699C-11.5126 384.015 -37.4246 377.548 -61.5265 371.26C-65.8904 370.115 -70.2212 368.971 -74.5228 367.836C-95.9353 362.185 -116.161 356.848 -135.063 352.69C-210.436 336.117 -282.28 321.221 -351.761 306.819L-363.273 304.432L-362.695 303.58L-351.182 305.967C-281.698 320.373 -209.842 335.269 -134.455 351.846C-115.501 356.014 -95.2502 361.358 -73.812 367.017C-69.5141 368.152 -65.1832 369.295 -60.823 370.438C-11.3477 383.347 41.2163 395.857 92.1975 394.742C154.867 393.302 192.423 366.343 218.137 343.02C224.725 337.056 231.071 331.111 235.864 326.599C238.509 324.113 241.136 321.628 243.756 319.149C265.484 298.603 286.006 279.195 312.995 260.896C348.62 236.746 394.263 212.195 441.522 191.77C485.365 172.819 529.609 157.847 573.027 147.269C622.829 135.135 671.472 128.839 717.606 128.553C787.025 127.983 851.5 141.171 909.216 167.747C941.21 182.497 969.896 198.453 993.741 212.116C1006.72 219.552 1019.69 227.174 1032.24 234.544C1076.66 260.639 1122.59 287.62 1174.1 309.474C1197.11 319.238 1221.27 328.699 1245.88 337.592C1276.35 348.572 1307.29 358.653 1337.85 367.551C1385.61 381.459 1445.05 398.769 1504.77 392.626C1537.64 389.245 1561.84 380.181 1578.74 364.915C1612.18 334.866 1609.92 288.075 1608.1 250.478C1607.57 239.36 1607.06 228.857 1607.67 220.402C1609.04 201.34 1611.11 179.187 1618.28 157.489C1624.33 139.103 1633.45 122.469 1645.4 108.051C1658.92 91.741 1676.25 78.0675 1696.89 67.4087C1710.57 60.3453 1725.9 54.3502 1742.45 49.5873C1766.07 42.7688 1792.57 38.4814 1821.22 36.8465C1848.06 35.3149 1876.35 36.1202 1905.32 39.2381C1929.75 41.8684 1953.82 46.1942 1976.88 52.0983C2000.08 58.0387 2021.71 65.44 2041.17 74.0957C2063.6 84.0626 2084.22 95.8322 2102.47 109.079C2119.75 121.629 2135.07 135.627 2148 150.68C2172.19 178.843 2188.11 210.945 2194.03 243.51L2192.39 243.601C2179.67 173.669 2124.18 112.146 2040.14 74.8059C2001.64 57.6846 1953.66 45.3707 1905 40.1324C1844.84 33.6558 1788.9 37.2047 1743.21 50.3946C1726.79 55.1191 1711.59 61.0676 1698.01 68.0743C1659.12 88.1577 1632.83 118.295 1619.9 157.652C1612.75 179.292 1610.69 201.407 1609.32 220.438C1608.71 228.863 1609.21 239.35 1609.75 250.454C1610.65 269.002 1611.66 290.026 1608.26 310.35C1604.31 333.934 1595.12 351.937 1580.15 365.39C1572 372.751 1561.88 378.811 1550.07 383.4C1537.32 388.357 1522.18 391.762 1505.08 393.52C1496.45 394.409 1487.83 394.811 1479.26 394.811C1427.94 394.811 1378.2 380.328 1337.08 368.354C1306.48 359.442 1275.49 349.347 1244.99 338.351C1220.33 329.446 1196.15 319.971 1173.1 310.192C1121.48 288.294 1075.5 261.285 1031.04 235.166C1018.5 227.797 1005.52 220.177 992.558 212.745C968.745 199.098 940.1 183.164 908.164 168.443C850.76 142.008 786.662 128.897 717.632 129.46C609.224 130.131 508.2 164.101 442.54 192.482C395.377 212.867 349.826 237.365 314.278 261.467C287.369 279.711 266.876 299.088 245.182 319.603C242.562 322.081 239.931 324.566 237.286 327.054C232.489 331.568 226.14 337.517 219.548 343.488C208.754 353.279 191.808 367.531 169.362 378.214C158.461 383.402 146.861 387.479 134.883 390.334C121.528 393.516 107.187 395.305 92.2672 395.647C90.153 395.697 88.0242 395.722 85.8808 395.722Z" fill="#FFE492"/>
<path d="M92.7689 423.889C71.2867 423.889 47.9689 421.402 21.7381 416.328C-5.41959 411.075 -32.2696 403.69 -54.9499 397.157C-61.9189 395.146 -68.8731 393.106 -75.6003 391.134C-94.4041 385.62 -112.167 380.41 -128.915 376.157C-189.06 360.881 -248.813 345.967 -306.602 331.543C-325.717 326.772 -345.481 321.839 -364.637 317.048L-363.919 316.172C-344.763 320.963 -324.999 325.896 -305.884 330.667C-248.095 345.091 -188.335 360.007 -128.186 375.285C-111.394 379.55 -93.609 384.764 -74.7832 390.286C-68.0598 392.259 -61.1054 394.296 -54.1438 396.307C-7.10507 409.851 47.4559 424.189 99.7012 422.839C163.847 421.144 199.876 391.706 224.102 366.251C230.313 359.73 236.318 353.182 240.854 348.207C243.184 345.654 245.5 343.102 247.812 340.557C268.594 317.663 288.222 296.04 314.757 275.275C349.269 248.268 394.875 220.315 443.167 196.568C510.42 163.638 614.364 123.472 727.634 119.115C799.669 116.271 865.969 128.479 924.685 155.406C951.066 167.509 977.154 181.47 1009.28 200.677C1025.52 210.383 1041.63 220.443 1057.21 230.169C1097.74 255.475 1139.65 281.642 1186.88 303.484C1209.75 314.068 1233.74 324.36 1258.17 334.076C1287.76 345.83 1318.68 357.01 1350.09 367.309C1398.34 383.032 1458.38 402.604 1518.82 397.064C1551.95 394.09 1576.99 384.712 1593.25 369.193C1626.22 337.785 1619.15 286.401 1613.98 248.883C1612.53 238.353 1611.16 228.409 1610.89 220.386C1610.29 202.557 1610.34 179.048 1616.12 155.304C1626.09 114.16 1650.55 81.9977 1688.81 59.7149C1702.22 51.8645 1717.61 45.0439 1734.52 39.4413C1758.59 31.4614 1785.74 26.0935 1815.23 23.4895C1843.02 21.0373 1872.26 21.0757 1902.14 23.6048C1927.36 25.786 1952.16 29.7395 1975.85 35.3522C1999.78 41.0215 2021.96 48.2448 2041.8 56.8216C2064.73 66.7318 2085.68 78.5419 2104.06 91.9261C2121.49 104.61 2136.75 118.806 2149.44 134.122C2173.26 162.878 2187.95 195.627 2191.92 228.83L2190.18 228.892C2181.62 157.364 2127.15 94.9226 2040.73 57.5803C2001.55 40.6391 1952.23 28.91 1901.88 24.5558C1839.81 19.3053 1782.25 24.7379 1735.42 40.2668C1718.64 45.8229 1703.39 52.5888 1690.08 60.3765C1652.07 82.5116 1627.77 114.492 1617.85 155.434C1612.09 179.113 1612.04 202.575 1612.63 220.37C1612.91 228.364 1614.27 238.297 1615.72 248.812C1618.39 268.205 1621.42 290.189 1619.69 311.65C1617.67 336.64 1609.52 355.621 1594.76 369.676C1586.82 377.258 1576.78 383.449 1564.91 388.079C1552.05 393.098 1536.64 396.441 1519.11 398.015C1491.92 400.506 1462.66 398.268 1429.65 391.172C1400.96 385.003 1373.47 376.044 1349.21 368.141C1317.76 357.828 1286.79 346.631 1257.16 334.861C1232.69 325.131 1208.67 314.824 1185.76 304.226C1138.44 282.34 1096.48 256.144 1055.9 230.812C1040.33 221.088 1024.23 211.035 1008.01 201.337C975.934 182.164 949.894 168.229 923.575 156.154C865.207 129.382 799.328 117.246 727.751 120.072C614.969 124.412 511.369 164.456 444.317 197.286C396.121 220.985 350.61 248.879 316.172 275.829C289.71 296.536 270.111 318.128 249.362 340.988C247.05 343.535 244.734 346.087 242.404 348.64C237.864 353.619 231.855 360.173 225.637 366.7C201.198 392.382 164.807 422.082 99.7782 423.8C97.4662 423.859 95.1248 423.889 92.7689 423.889Z" fill="#FFE492"/>
<path d="M99.7962 452.06C41.0986 452.06 -20.49 432.152 -75.0876 414.503C-91.8651 409.081 -107.712 403.957 -122.771 399.626L-366 329.665L-365.154 328.769L-121.925 398.729C-106.825 403.071 -90.9601 408.2 -74.1606 413.631C-17.4525 431.962 46.8254 452.74 107.205 450.939C172.765 448.986 207.302 417.071 230.067 389.487C237.512 380.465 244.701 371.285 251.655 362.407C270.675 338.127 290.34 313.02 316.512 289.652C337.294 271.099 363.111 251.64 391.17 233.384C421.952 213.355 454.91 194.98 489.121 178.769C526.842 160.897 565.197 146.113 603.116 134.829C645.058 122.349 686.377 114.201 725.934 110.609C805.176 103.417 877.247 114.332 940.14 143.057C992.407 166.926 1036.83 196.442 1079.79 224.987C1117.19 249.834 1155.85 275.524 1199.64 297.485C1250.21 322.849 1304.95 346.257 1362.33 367.054C1410.68 384.578 1470.85 406.39 1532.86 401.487C1585.24 397.347 1615.52 377.996 1625.43 342.325C1633.87 311.984 1625.84 275.991 1619.4 247.072C1617.2 237.216 1615.13 227.907 1614.11 220.358C1608.49 178.742 1612.07 144.389 1625.06 115.336C1633.16 97.209 1645.12 81.0509 1660.6 67.3105C1677.89 51.9617 1700.09 39.1662 1726.59 29.2803C1749.5 20.7278 1775.33 14.5162 1803.36 10.8176C1830.04 7.29703 1858.12 6.11744 1886.84 7.3112C1943.32 9.65824 1998.57 21.1021 2042.41 39.5325C2065.84 49.384 2087.12 61.2366 2105.65 74.7584C2123.21 87.574 2138.42 101.97 2150.86 117.549C2174.3 146.898 2187.76 180.296 2189.79 214.132L2187.96 214.167C2183.64 142.112 2128.81 77.1297 2041.3 40.3398C1948.36 1.26958 1816.43 -3.02995 1727.6 30.12C1639.61 62.9584 1603.08 125.161 1615.93 220.283C1616.94 227.808 1619.02 237.105 1621.21 246.948C1627.67 275.93 1635.71 312 1627.24 342.479C1622.62 359.08 1613.35 372.422 1599.67 382.136C1591.97 387.597 1582.7 392.06 1572.1 395.399C1560.82 398.952 1547.7 401.337 1533.12 402.491C1527.16 402.962 1521.09 403.199 1514.93 403.199C1492.45 403.199 1468.52 400.061 1442.29 393.703C1412.74 386.541 1384.23 376.206 1361.32 367.902C1303.86 347.074 1249.05 323.636 1198.4 298.235C1154.51 276.228 1115.81 250.507 1078.37 225.635C1035.47 197.126 991.099 167.647 938.964 143.838C876.492 115.31 804.915 104.465 726.22 111.609C567.032 126.059 403.053 214.308 318.058 290.187C291.956 313.489 272.317 338.562 253.322 362.809C246.364 371.692 239.172 380.878 231.719 389.908C216.605 408.221 201.678 421.334 184.743 431.171C174.172 437.31 162.704 442.15 150.657 445.555C137.261 449.34 122.671 451.493 107.289 451.953C104.805 452.023 102.302 452.06 99.7962 452.06Z" fill="#FFE492"/>
</g>
</svg>
