<svg width="20" height="21" viewBox="0 0 20 21" fill="none" xmlns="http://www.w3.org/2000/svg">
<path d="M15.4001 4.18581C15.1726 4.18581 14.9503 4.25326 14.7611 4.37962C14.572 4.50599 14.4246 4.68559 14.3376 4.89573C14.2505 5.10586 14.2278 5.33709 14.2721 5.56017C14.3165 5.78325 14.426 5.98816 14.5869 6.14899C14.7477 6.30982 14.9526 6.41934 15.1757 6.46372C15.3988 6.50809 15.63 6.48532 15.8401 6.39827C16.0503 6.31123 16.2299 6.16384 16.3562 5.97472C16.4826 5.7856 16.5501 5.56326 16.5501 5.33581C16.5501 5.03081 16.4289 4.73831 16.2132 4.52264C15.9976 4.30697 15.7051 4.18581 15.4001 4.18581ZM19.8084 6.50498C19.7897 5.70985 19.6408 4.92316 19.3676 4.17623C19.1239 3.53715 18.7446 2.95846 18.2559 2.47998C17.7813 1.98876 17.2013 1.6119 16.5596 1.3779C15.8147 1.0963 15.0271 0.943973 14.2309 0.92748C13.2151 0.86998 12.8892 0.86998 10.2826 0.86998C7.67589 0.86998 7.35005 0.86998 6.33422 0.92748C5.53799 0.943973 4.75042 1.0963 4.00547 1.3779C3.36499 1.61427 2.78545 1.99081 2.30922 2.47998C1.818 2.95452 1.44114 3.53457 1.20714 4.17623C0.925539 4.92118 0.773212 5.70875 0.756719 6.50498C0.699219 7.52081 0.699219 7.84665 0.699219 10.4533C0.699219 13.06 0.699219 13.3858 0.756719 14.4016C0.773212 15.1979 0.925539 15.9854 1.20714 16.7304C1.44114 17.3721 1.818 17.9521 2.30922 18.4266C2.78545 18.9158 3.36499 19.2924 4.00547 19.5287C4.75042 19.8103 5.53799 19.9627 6.33422 19.9791C7.35005 20.0366 7.67589 20.0366 10.2826 20.0366C12.8892 20.0366 13.2151 20.0366 14.2309 19.9791C15.0271 19.9627 15.8147 19.8103 16.5596 19.5287C17.2013 19.2947 17.7813 18.9179 18.2559 18.4266C18.7468 17.95 19.1264 17.3707 19.3676 16.7304C19.6408 15.9835 19.7897 15.1968 19.8084 14.4016C19.8084 13.3858 19.8659 13.06 19.8659 10.4533C19.8659 7.84665 19.8659 7.52081 19.8084 6.50498ZM18.0834 14.2866C18.0764 14.895 17.9662 15.4977 17.7576 16.0691C17.6045 16.4862 17.3588 16.8631 17.0388 17.1712C16.728 17.488 16.3519 17.7332 15.9367 17.89C15.3653 18.0987 14.7625 18.2088 14.1542 18.2158C13.1959 18.2637 12.8413 18.2733 10.3209 18.2733C7.80047 18.2733 7.44589 18.2733 6.48755 18.2158C5.85591 18.2276 5.22696 18.1304 4.62839 17.9283C4.23143 17.7636 3.8726 17.5189 3.57422 17.2096C3.25614 16.9017 3.01344 16.5245 2.86505 16.1075C2.63108 15.5278 2.50131 14.9114 2.48172 14.2866C2.48172 13.3283 2.42422 12.9737 2.42422 10.4533C2.42422 7.9329 2.42422 7.57831 2.48172 6.61998C2.48601 5.99807 2.59955 5.38176 2.81714 4.79915C2.98585 4.39464 3.24481 4.03407 3.57422 3.74498C3.86537 3.41547 4.2252 3.15378 4.62839 2.97831C5.21254 2.76752 5.82822 2.65735 6.44922 2.65248C7.40755 2.65248 7.76214 2.59498 10.2826 2.59498C12.803 2.59498 13.1576 2.59498 14.1159 2.65248C14.7242 2.65946 15.3269 2.76963 15.8984 2.97831C16.3339 3.13994 16.7247 3.40271 17.0388 3.74498C17.3528 4.03936 17.5982 4.39927 17.7576 4.79915C17.9705 5.38271 18.0808 5.99877 18.0834 6.61998C18.1313 7.57831 18.1409 7.9329 18.1409 10.4533C18.1409 12.9737 18.1313 13.3283 18.0834 14.2866ZM10.2826 5.53706C9.31062 5.53896 8.36106 5.8289 7.55385 6.37026C6.74663 6.91161 6.118 7.68008 5.74737 8.57858C5.37674 9.47707 5.28075 10.4653 5.47152 11.4183C5.6623 12.3713 6.13128 13.2464 6.81921 13.933C7.50714 14.6196 8.38315 15.0869 9.33654 15.2758C10.2899 15.4647 11.2779 15.3668 12.1757 14.9944C13.0735 14.622 13.8407 13.9919 14.3805 13.1836C14.9203 12.3754 15.2084 11.4252 15.2084 10.4533C15.2097 9.80654 15.083 9.16589 14.8358 8.56823C14.5886 7.97056 14.2257 7.42767 13.7679 6.97078C13.3101 6.51388 12.7665 6.152 12.1684 5.90595C11.5702 5.6599 10.9293 5.53454 10.2826 5.53706ZM10.2826 13.6446C9.65138 13.6446 9.03439 13.4574 8.50959 13.1067C7.98479 12.7561 7.57576 12.2577 7.33422 11.6746C7.09268 11.0914 7.02949 10.4498 7.15262 9.83073C7.27576 9.21169 7.57969 8.64306 8.026 8.19676C8.4723 7.75045 9.04093 7.44652 9.65997 7.32338C10.279 7.20025 10.9207 7.26344 11.5038 7.50498C12.0869 7.74652 12.5853 8.15555 12.936 8.68035C13.2866 9.20515 13.4738 9.82214 13.4738 10.4533C13.4738 10.8724 13.3913 11.2874 13.2309 11.6746C13.0705 12.0617 12.8354 12.4135 12.5391 12.7099C12.2428 13.0062 11.891 13.2413 11.5038 13.4016C11.1166 13.562 10.7016 13.6446 10.2826 13.6446Z" fill="black"/>
</svg>
