<svg width="572" height="487" viewBox="0 0 572 487" fill="none" xmlns="http://www.w3.org/2000/svg">
<g filter="url(#filter0_d_742_180)">
<rect x="50" y="46" width="472" height="387" rx="10" fill="#043873" shape-rendering="crispEdges"/>
<path d="M96.2756 126V99.8182H106.605C108.591 99.8182 110.283 100.197 111.68 100.956C113.078 101.706 114.143 102.75 114.876 104.088C115.618 105.418 115.989 106.952 115.989 108.69C115.989 110.429 115.614 111.963 114.864 113.293C114.114 114.622 113.027 115.658 111.604 116.399C110.189 117.141 108.476 117.511 106.464 117.511H99.8807V113.075H105.57C106.635 113.075 107.513 112.892 108.203 112.526C108.902 112.151 109.422 111.635 109.763 110.979C110.112 110.314 110.287 109.551 110.287 108.69C110.287 107.821 110.112 107.062 109.763 106.415C109.422 105.759 108.902 105.251 108.203 104.893C107.504 104.527 106.618 104.344 105.544 104.344H101.811V126H96.2756ZM117.867 104.382V99.8182H139.37V104.382H131.354V126H125.883V104.382H117.867ZM142.191 126V99.8182H159.833V104.382H147.727V110.621H158.925V115.185H147.727V121.436H159.884V126H142.191Z" fill="#FFA616"/>
<path d="M95.0043 165V154.818H98.8224C99.6046 154.818 100.261 154.964 100.791 155.256C101.325 155.547 101.728 155.948 101.999 156.459C102.274 156.966 102.412 157.543 102.412 158.189C102.412 158.842 102.274 159.422 101.999 159.929C101.724 160.436 101.318 160.835 100.781 161.127C100.244 161.415 99.5831 161.56 98.7976 161.56H96.267V160.043H98.549C99.0064 160.043 99.3809 159.964 99.6726 159.805C99.9643 159.646 100.18 159.427 100.319 159.148C100.461 158.87 100.533 158.55 100.533 158.189C100.533 157.828 100.461 157.509 100.319 157.234C100.18 156.959 99.9626 156.746 99.6676 156.593C99.3759 156.437 98.9998 156.359 98.5391 156.359H96.8487V165H95.0043ZM107.206 165.149C106.44 165.149 105.779 164.99 105.222 164.672C104.669 164.35 104.243 163.896 103.944 163.31C103.646 162.72 103.497 162.025 103.497 161.227C103.497 160.441 103.646 159.752 103.944 159.158C104.246 158.562 104.667 158.098 105.207 157.766C105.747 157.432 106.382 157.264 107.111 157.264C107.582 157.264 108.026 157.34 108.444 157.493C108.865 157.642 109.236 157.874 109.557 158.189C109.882 158.504 110.137 158.905 110.323 159.392C110.509 159.876 110.601 160.453 110.601 161.122V161.674H104.342V160.461H108.876C108.873 160.116 108.798 159.81 108.653 159.541C108.507 159.269 108.303 159.056 108.041 158.9C107.782 158.744 107.481 158.666 107.136 158.666C106.768 158.666 106.445 158.756 106.167 158.935C105.888 159.11 105.671 159.342 105.515 159.631C105.363 159.916 105.285 160.229 105.282 160.57V161.629C105.282 162.073 105.363 162.455 105.525 162.773C105.688 163.088 105.915 163.33 106.206 163.499C106.498 163.664 106.84 163.747 107.231 163.747C107.492 163.747 107.729 163.711 107.942 163.638C108.154 163.562 108.338 163.451 108.493 163.305C108.649 163.159 108.767 162.978 108.846 162.763L110.527 162.952C110.421 163.396 110.219 163.784 109.92 164.115C109.625 164.443 109.247 164.698 108.787 164.881C108.326 165.06 107.799 165.149 107.206 165.149ZM114.321 165.154C113.837 165.154 113.402 165.068 113.014 164.896C112.629 164.72 112.324 164.461 112.099 164.12C111.877 163.779 111.766 163.358 111.766 162.857C111.766 162.426 111.846 162.07 112.005 161.788C112.164 161.507 112.381 161.281 112.656 161.112C112.931 160.943 113.241 160.816 113.586 160.729C113.934 160.64 114.293 160.575 114.664 160.536C115.112 160.489 115.475 160.448 115.753 160.411C116.032 160.371 116.234 160.312 116.36 160.232C116.489 160.149 116.554 160.022 116.554 159.849V159.82C116.554 159.445 116.443 159.155 116.221 158.95C115.998 158.744 115.679 158.641 115.261 158.641C114.82 158.641 114.471 158.737 114.212 158.93C113.957 159.122 113.784 159.349 113.695 159.611L112.015 159.372C112.147 158.908 112.366 158.52 112.671 158.209C112.976 157.894 113.349 157.659 113.789 157.503C114.23 157.344 114.717 157.264 115.251 157.264C115.619 157.264 115.985 157.307 116.35 157.393C116.714 157.48 117.047 157.622 117.349 157.821C117.651 158.017 117.893 158.283 118.075 158.621C118.261 158.96 118.353 159.382 118.353 159.889V165H116.623V163.951H116.564C116.454 164.163 116.3 164.362 116.101 164.548C115.906 164.73 115.659 164.877 115.36 164.99C115.065 165.099 114.719 165.154 114.321 165.154ZM114.789 163.832C115.15 163.832 115.463 163.76 115.728 163.618C115.993 163.472 116.197 163.28 116.34 163.041C116.486 162.803 116.559 162.542 116.559 162.261V161.361C116.502 161.407 116.406 161.45 116.27 161.49C116.138 161.53 115.989 161.565 115.823 161.594C115.657 161.624 115.493 161.651 115.331 161.674C115.168 161.697 115.027 161.717 114.908 161.734C114.64 161.77 114.399 161.83 114.187 161.913C113.975 161.996 113.808 162.112 113.685 162.261C113.562 162.406 113.501 162.595 113.501 162.827C113.501 163.159 113.622 163.409 113.864 163.578C114.106 163.747 114.414 163.832 114.789 163.832ZM120.163 165V157.364H121.908V158.636H121.988C122.127 158.196 122.365 157.856 122.703 157.617C123.045 157.375 123.434 157.254 123.872 157.254C123.971 157.254 124.082 157.259 124.205 157.269C124.331 157.276 124.435 157.287 124.518 157.304V158.96C124.442 158.933 124.321 158.91 124.155 158.89C123.993 158.867 123.835 158.855 123.683 158.855C123.355 158.855 123.06 158.926 122.798 159.069C122.539 159.208 122.336 159.402 122.186 159.651C122.037 159.899 121.963 160.186 121.963 160.511V165H120.163ZM131.749 159.382L130.109 159.561C130.062 159.395 129.981 159.24 129.865 159.094C129.752 158.948 129.6 158.83 129.408 158.741C129.215 158.651 128.98 158.607 128.702 158.607C128.327 158.607 128.012 158.688 127.757 158.85C127.505 159.013 127.381 159.223 127.384 159.482C127.381 159.704 127.462 159.884 127.628 160.023C127.797 160.163 128.075 160.277 128.463 160.366L129.766 160.645C130.488 160.801 131.025 161.048 131.376 161.386C131.731 161.724 131.91 162.166 131.913 162.713C131.91 163.194 131.769 163.618 131.491 163.986C131.216 164.35 130.833 164.635 130.342 164.841C129.852 165.046 129.288 165.149 128.652 165.149C127.717 165.149 126.965 164.954 126.395 164.562C125.825 164.168 125.485 163.62 125.376 162.917L127.131 162.748C127.21 163.093 127.379 163.353 127.638 163.528C127.896 163.704 128.233 163.792 128.647 163.792C129.075 163.792 129.418 163.704 129.676 163.528C129.938 163.353 130.069 163.136 130.069 162.877C130.069 162.658 129.984 162.478 129.815 162.335C129.65 162.193 129.391 162.083 129.04 162.007L127.737 161.734C127.005 161.581 126.463 161.324 126.112 160.963C125.76 160.598 125.586 160.138 125.589 159.581C125.586 159.11 125.714 158.703 125.972 158.358C126.234 158.01 126.597 157.741 127.061 157.553C127.528 157.36 128.067 157.264 128.677 157.264C129.572 157.264 130.276 157.455 130.79 157.836C131.307 158.217 131.627 158.732 131.749 159.382ZM136.728 165.149C135.983 165.149 135.336 164.985 134.789 164.657C134.243 164.329 133.818 163.87 133.517 163.28C133.218 162.69 133.069 162 133.069 161.212C133.069 160.423 133.218 159.732 133.517 159.138C133.818 158.545 134.243 158.085 134.789 157.756C135.336 157.428 135.983 157.264 136.728 157.264C137.474 157.264 138.12 157.428 138.667 157.756C139.214 158.085 139.637 158.545 139.935 159.138C140.237 159.732 140.387 160.423 140.387 161.212C140.387 162 140.237 162.69 139.935 163.28C139.637 163.87 139.214 164.329 138.667 164.657C138.12 164.985 137.474 165.149 136.728 165.149ZM136.738 163.707C137.143 163.707 137.481 163.596 137.752 163.374C138.024 163.149 138.226 162.847 138.359 162.469C138.495 162.092 138.563 161.671 138.563 161.207C138.563 160.739 138.495 160.317 138.359 159.939C138.226 159.558 138.024 159.254 137.752 159.029C137.481 158.804 137.143 158.691 136.738 158.691C136.324 158.691 135.979 158.804 135.704 159.029C135.432 159.254 135.229 159.558 135.093 159.939C134.96 160.317 134.894 160.739 134.894 161.207C134.894 161.671 134.96 162.092 135.093 162.469C135.229 162.847 135.432 163.149 135.704 163.374C135.979 163.596 136.324 163.707 136.738 163.707ZM143.715 160.526V165H141.915V157.364H143.635V158.661H143.725C143.9 158.234 144.18 157.894 144.565 157.642C144.953 157.39 145.432 157.264 146.002 157.264C146.529 157.264 146.988 157.377 147.379 157.602C147.773 157.828 148.078 158.154 148.294 158.582C148.512 159.009 148.62 159.528 148.617 160.138V165H146.817V160.416C146.817 159.906 146.684 159.506 146.419 159.218C146.157 158.93 145.794 158.786 145.33 158.786C145.016 158.786 144.735 158.855 144.49 158.994C144.248 159.13 144.058 159.327 143.919 159.586C143.783 159.844 143.715 160.158 143.715 160.526ZM153.551 156.364V154.818H161.675V156.364H158.528V165H156.698V156.364H153.551ZM165.434 165.149C164.669 165.149 164.007 164.99 163.451 164.672C162.897 164.35 162.471 163.896 162.173 163.31C161.875 162.72 161.725 162.025 161.725 161.227C161.725 160.441 161.875 159.752 162.173 159.158C162.475 158.562 162.895 158.098 163.436 157.766C163.976 157.432 164.611 157.264 165.34 157.264C165.81 157.264 166.255 157.34 166.672 157.493C167.093 157.642 167.464 157.874 167.786 158.189C168.111 158.504 168.366 158.905 168.551 159.392C168.737 159.876 168.83 160.453 168.83 161.122V161.674H162.571V160.461H167.105C167.101 160.116 167.027 159.81 166.881 159.541C166.735 159.269 166.531 159.056 166.27 158.9C166.011 158.744 165.709 158.666 165.365 158.666C164.997 158.666 164.674 158.756 164.395 158.935C164.117 159.11 163.9 159.342 163.744 159.631C163.592 159.916 163.514 160.229 163.51 160.57V161.629C163.51 162.073 163.592 162.455 163.754 162.773C163.916 163.088 164.143 163.33 164.435 163.499C164.727 163.664 165.068 163.747 165.459 163.747C165.721 163.747 165.958 163.711 166.17 163.638C166.382 163.562 166.566 163.451 166.722 163.305C166.878 163.159 166.995 162.978 167.075 162.763L168.755 162.952C168.649 163.396 168.447 163.784 168.149 164.115C167.854 164.443 167.476 164.698 167.015 164.881C166.555 165.06 166.028 165.149 165.434 165.149ZM176.388 159.382L174.747 159.561C174.701 159.395 174.62 159.24 174.504 159.094C174.391 158.948 174.239 158.83 174.046 158.741C173.854 158.651 173.619 158.607 173.34 158.607C172.966 158.607 172.651 158.688 172.396 158.85C172.144 159.013 172.02 159.223 172.023 159.482C172.02 159.704 172.101 159.884 172.267 160.023C172.436 160.163 172.714 160.277 173.102 160.366L174.404 160.645C175.127 160.801 175.664 161.048 176.015 161.386C176.37 161.724 176.549 162.166 176.552 162.713C176.549 163.194 176.408 163.618 176.129 163.986C175.854 164.35 175.472 164.635 174.981 164.841C174.49 165.046 173.927 165.149 173.291 165.149C172.356 165.149 171.604 164.954 171.034 164.562C170.463 164.168 170.124 163.62 170.014 162.917L171.769 162.748C171.849 163.093 172.018 163.353 172.276 163.528C172.535 163.704 172.871 163.792 173.286 163.792C173.713 163.792 174.056 163.704 174.315 163.528C174.577 163.353 174.708 163.136 174.708 162.877C174.708 162.658 174.623 162.478 174.454 162.335C174.288 162.193 174.03 162.083 173.678 162.007L172.376 161.734C171.643 161.581 171.102 161.324 170.75 160.963C170.399 160.598 170.225 160.138 170.228 159.581C170.225 159.11 170.352 158.703 170.611 158.358C170.873 158.01 171.236 157.741 171.7 157.553C172.167 157.36 172.706 157.264 173.316 157.264C174.21 157.264 174.915 157.455 175.428 157.836C175.945 158.217 176.265 158.732 176.388 159.382ZM181.849 157.364V158.756H177.459V157.364H181.849ZM178.543 155.534H180.343V162.703C180.343 162.945 180.379 163.131 180.452 163.26C180.528 163.386 180.628 163.472 180.751 163.518C180.873 163.565 181.009 163.588 181.158 163.588C181.271 163.588 181.374 163.58 181.466 163.563C181.563 163.547 181.635 163.532 181.685 163.518L181.988 164.925C181.892 164.959 181.755 164.995 181.576 165.035C181.4 165.075 181.185 165.098 180.93 165.104C180.479 165.118 180.073 165.05 179.711 164.901C179.35 164.748 179.064 164.513 178.851 164.195C178.643 163.876 178.54 163.479 178.543 163.001V155.534ZM190.158 165.149C189.412 165.149 188.766 164.985 188.219 164.657C187.672 164.329 187.248 163.87 186.946 163.28C186.648 162.69 186.499 162 186.499 161.212C186.499 160.423 186.648 159.732 186.946 159.138C187.248 158.545 187.672 158.085 188.219 157.756C188.766 157.428 189.412 157.264 190.158 157.264C190.904 157.264 191.55 157.428 192.097 157.756C192.644 158.085 193.066 158.545 193.365 159.138C193.666 159.732 193.817 160.423 193.817 161.212C193.817 162 193.666 162.69 193.365 163.28C193.066 163.87 192.644 164.329 192.097 164.657C191.55 164.985 190.904 165.149 190.158 165.149ZM190.168 163.707C190.572 163.707 190.91 163.596 191.182 163.374C191.454 163.149 191.656 162.847 191.789 162.469C191.925 162.092 191.993 161.671 191.993 161.207C191.993 160.739 191.925 160.317 191.789 159.939C191.656 159.558 191.454 159.254 191.182 159.029C190.91 158.804 190.572 158.691 190.168 158.691C189.754 158.691 189.409 158.804 189.134 159.029C188.862 159.254 188.658 159.558 188.522 159.939C188.39 160.317 188.324 160.739 188.324 161.207C188.324 161.671 188.39 162.092 188.522 162.469C188.658 162.847 188.862 163.149 189.134 163.374C189.409 163.596 189.754 163.707 190.168 163.707ZM199.213 157.364V158.756H194.698V157.364H199.213ZM195.827 165V156.643C195.827 156.129 195.933 155.701 196.145 155.36C196.36 155.019 196.649 154.763 197.01 154.594C197.371 154.425 197.772 154.341 198.213 154.341C198.525 154.341 198.802 154.366 199.044 154.415C199.285 154.465 199.464 154.51 199.58 154.55L199.222 155.942C199.146 155.919 199.05 155.895 198.934 155.872C198.818 155.846 198.689 155.832 198.546 155.832C198.212 155.832 197.975 155.914 197.835 156.076C197.7 156.235 197.632 156.464 197.632 156.762V165H195.827ZM204.174 165V154.818H210.796V156.364H206.019V159.129H210.453V160.675H206.019V163.454H210.836V165H204.174ZM214.398 160.526V165H212.599V157.364H214.319V158.661H214.408C214.584 158.234 214.864 157.894 215.248 157.642C215.636 157.39 216.115 157.264 216.685 157.264C217.212 157.264 217.671 157.377 218.062 157.602C218.457 157.828 218.762 158.154 218.977 158.582C219.196 159.009 219.304 159.528 219.3 160.138V165H217.501V160.416C217.501 159.906 217.368 159.506 217.103 159.218C216.841 158.93 216.478 158.786 216.014 158.786C215.699 158.786 215.419 158.855 215.174 158.994C214.932 159.13 214.741 159.327 214.602 159.586C214.466 159.844 214.398 160.158 214.398 160.526ZM224.451 168.023C223.805 168.023 223.249 167.935 222.785 167.759C222.321 167.587 221.948 167.355 221.667 167.063C221.385 166.772 221.189 166.448 221.08 166.094L222.701 165.701C222.774 165.85 222.88 165.998 223.019 166.143C223.158 166.293 223.345 166.415 223.581 166.511C223.819 166.611 224.119 166.661 224.481 166.661C224.991 166.661 225.414 166.536 225.748 166.288C226.083 166.042 226.251 165.638 226.251 165.075V163.628H226.161C226.068 163.813 225.932 164.004 225.753 164.2C225.578 164.395 225.344 164.559 225.052 164.692C224.764 164.824 224.401 164.891 223.964 164.891C223.377 164.891 222.845 164.753 222.368 164.478C221.894 164.2 221.516 163.785 221.234 163.235C220.956 162.682 220.817 161.989 220.817 161.157C220.817 160.318 220.956 159.611 221.234 159.034C221.516 158.454 221.895 158.015 222.373 157.717C222.85 157.415 223.382 157.264 223.969 157.264C224.416 157.264 224.784 157.34 225.072 157.493C225.364 157.642 225.596 157.823 225.768 158.035C225.941 158.244 226.072 158.441 226.161 158.626H226.26V157.364H228.035V165.124C228.035 165.777 227.88 166.317 227.568 166.745C227.256 167.173 226.831 167.492 226.29 167.705C225.75 167.917 225.137 168.023 224.451 168.023ZM224.466 163.479C224.847 163.479 225.172 163.386 225.44 163.2C225.709 163.015 225.912 162.748 226.052 162.4C226.191 162.052 226.26 161.634 226.26 161.147C226.26 160.666 226.191 160.246 226.052 159.884C225.916 159.523 225.714 159.243 225.445 159.044C225.18 158.842 224.854 158.741 224.466 158.741C224.065 158.741 223.73 158.845 223.461 159.054C223.193 159.263 222.991 159.549 222.855 159.914C222.719 160.275 222.651 160.686 222.651 161.147C222.651 161.614 222.719 162.024 222.855 162.375C222.994 162.723 223.198 162.995 223.466 163.19C223.738 163.383 224.071 163.479 224.466 163.479ZM231.68 154.818V165H229.88V154.818H231.68ZM233.53 165V157.364H235.33V165H233.53ZM234.435 156.28C234.15 156.28 233.905 156.185 233.699 155.996C233.494 155.804 233.391 155.574 233.391 155.305C233.391 155.034 233.494 154.803 233.699 154.614C233.905 154.422 234.15 154.326 234.435 154.326C234.723 154.326 234.969 154.422 235.171 154.614C235.376 154.803 235.479 155.034 235.479 155.305C235.479 155.574 235.376 155.804 235.171 155.996C234.969 156.185 234.723 156.28 234.435 156.28ZM243.216 159.382L241.575 159.561C241.529 159.395 241.448 159.24 241.332 159.094C241.219 158.948 241.067 158.83 240.874 158.741C240.682 158.651 240.447 158.607 240.169 158.607C239.794 158.607 239.479 158.688 239.224 158.85C238.972 159.013 238.848 159.223 238.851 159.482C238.848 159.704 238.929 159.884 239.095 160.023C239.264 160.163 239.542 160.277 239.93 160.366L241.232 160.645C241.955 160.801 242.492 161.048 242.843 161.386C243.198 161.724 243.377 162.166 243.38 162.713C243.377 163.194 243.236 163.618 242.958 163.986C242.682 164.35 242.3 164.635 241.809 164.841C241.319 165.046 240.755 165.149 240.119 165.149C239.184 165.149 238.432 164.954 237.862 164.562C237.292 164.168 236.952 163.62 236.843 162.917L238.597 162.748C238.677 163.093 238.846 163.353 239.105 163.528C239.363 163.704 239.7 163.792 240.114 163.792C240.541 163.792 240.884 163.704 241.143 163.528C241.405 163.353 241.536 163.136 241.536 162.877C241.536 162.658 241.451 162.478 241.282 162.335C241.116 162.193 240.858 162.083 240.507 162.007L239.204 161.734C238.472 161.581 237.93 161.324 237.578 160.963C237.227 160.598 237.053 160.138 237.056 159.581C237.053 159.11 237.181 158.703 237.439 158.358C237.701 158.01 238.064 157.741 238.528 157.553C238.995 157.36 239.534 157.264 240.144 157.264C241.039 157.264 241.743 157.455 242.257 157.836C242.774 158.217 243.093 158.732 243.216 159.382ZM246.664 160.526V165H244.864V154.818H246.624V158.661H246.714C246.893 158.23 247.169 157.891 247.544 157.642C247.922 157.39 248.402 157.264 248.986 157.264C249.516 157.264 249.978 157.375 250.373 157.597C250.767 157.819 251.072 158.144 251.287 158.572C251.506 158.999 251.616 159.521 251.616 160.138V165H249.816V160.416C249.816 159.902 249.683 159.503 249.418 159.218C249.156 158.93 248.788 158.786 248.314 158.786C247.996 158.786 247.711 158.855 247.459 158.994C247.211 159.13 247.015 159.327 246.873 159.586C246.733 159.844 246.664 160.158 246.664 160.526Z" fill="white"/>
<path d="M99.8168 203.179C98.9389 203.179 98.1548 203.028 97.4645 202.725C96.7784 202.423 96.2351 202.003 95.8345 201.466C95.4382 200.925 95.2251 200.298 95.1953 199.587H97.2024C97.228 199.974 97.358 200.311 97.5923 200.597C97.831 200.878 98.142 201.095 98.5256 201.249C98.9091 201.402 99.3352 201.479 99.804 201.479C100.32 201.479 100.776 201.389 101.172 201.21C101.572 201.031 101.886 200.782 102.112 200.462C102.337 200.138 102.45 199.766 102.45 199.344C102.45 198.905 102.337 198.519 102.112 198.187C101.89 197.85 101.564 197.586 101.134 197.394C100.707 197.202 100.192 197.107 99.5866 197.107H98.4808V195.496H99.5866C100.072 195.496 100.499 195.408 100.865 195.234C101.236 195.059 101.526 194.816 101.734 194.505C101.943 194.19 102.048 193.821 102.048 193.399C102.048 192.994 101.956 192.643 101.773 192.344C101.594 192.042 101.338 191.805 101.006 191.635C100.678 191.464 100.29 191.379 99.8423 191.379C99.4162 191.379 99.0178 191.458 98.647 191.616C98.2805 191.769 97.9822 191.991 97.7521 192.281C97.522 192.566 97.3984 192.909 97.3814 193.31H95.4702C95.4915 192.602 95.7003 191.98 96.0966 191.443C96.4972 190.906 97.0256 190.487 97.6818 190.184C98.3381 189.881 99.0668 189.73 99.8679 189.73C100.707 189.73 101.432 189.894 102.041 190.222C102.655 190.546 103.128 190.979 103.46 191.52C103.797 192.061 103.963 192.653 103.959 193.297C103.963 194.03 103.759 194.652 103.345 195.163C102.936 195.675 102.391 196.018 101.709 196.192V196.295C102.578 196.427 103.251 196.772 103.729 197.33C104.21 197.888 104.449 198.581 104.445 199.408C104.449 200.128 104.249 200.773 103.844 201.344C103.443 201.915 102.896 202.365 102.201 202.693C101.506 203.017 100.712 203.179 99.8168 203.179ZM115.321 203H111.083V189.909H115.456C116.738 189.909 117.84 190.171 118.76 190.695C119.681 191.215 120.386 191.963 120.876 192.939C121.37 193.911 121.618 195.076 121.618 196.435C121.618 197.799 121.368 198.971 120.87 199.951C120.375 200.931 119.659 201.685 118.722 202.214C117.784 202.738 116.651 203 115.321 203ZM113.059 201.274H115.213C116.21 201.274 117.039 201.087 117.699 200.712C118.36 200.332 118.854 199.785 119.182 199.069C119.51 198.349 119.674 197.471 119.674 196.435C119.674 195.408 119.51 194.537 119.182 193.821C118.858 193.105 118.375 192.562 117.731 192.191C117.088 191.82 116.289 191.635 115.334 191.635H113.059V201.274ZM126.418 203.217C125.795 203.217 125.233 203.102 124.73 202.872C124.227 202.638 123.829 202.299 123.535 201.856C123.245 201.413 123.1 200.869 123.1 200.226C123.1 199.672 123.207 199.216 123.42 198.858C123.633 198.5 123.92 198.217 124.283 198.008C124.645 197.799 125.05 197.641 125.497 197.535C125.945 197.428 126.4 197.347 126.865 197.292C127.453 197.224 127.93 197.168 128.297 197.126C128.663 197.079 128.93 197.004 129.096 196.902C129.262 196.8 129.345 196.634 129.345 196.403V196.359C129.345 195.8 129.187 195.368 128.872 195.061C128.561 194.754 128.096 194.601 127.479 194.601C126.835 194.601 126.328 194.744 125.957 195.029C125.591 195.31 125.337 195.624 125.197 195.969L123.4 195.56C123.614 194.963 123.925 194.482 124.334 194.115C124.747 193.744 125.222 193.476 125.759 193.31C126.296 193.139 126.861 193.054 127.453 193.054C127.845 193.054 128.261 193.101 128.699 193.195C129.143 193.284 129.556 193.45 129.94 193.693C130.327 193.936 130.645 194.283 130.892 194.735C131.139 195.183 131.263 195.764 131.263 196.48V203H129.396V201.658H129.32C129.196 201.905 129.011 202.148 128.763 202.386C128.516 202.625 128.199 202.823 127.811 202.981C127.423 203.138 126.959 203.217 126.418 203.217ZM126.833 201.683C127.361 201.683 127.813 201.579 128.188 201.37C128.567 201.161 128.855 200.888 129.051 200.552C129.251 200.211 129.351 199.847 129.351 199.459V198.193C129.283 198.261 129.151 198.325 128.955 198.385C128.763 198.44 128.544 198.489 128.297 198.532C128.05 198.57 127.809 198.607 127.574 198.641C127.34 198.67 127.144 198.696 126.986 198.717C126.616 198.764 126.277 198.843 125.97 198.954C125.668 199.065 125.425 199.224 125.241 199.433C125.062 199.638 124.973 199.911 124.973 200.251C124.973 200.724 125.148 201.082 125.497 201.325C125.846 201.564 126.292 201.683 126.833 201.683ZM134.305 206.682C134.019 206.682 133.759 206.658 133.525 206.612C133.291 206.569 133.116 206.522 133.001 206.471L133.461 204.905C133.811 204.999 134.122 205.039 134.394 205.026C134.667 205.013 134.908 204.911 135.117 204.719C135.33 204.528 135.517 204.214 135.679 203.78L135.916 203.128L132.323 193.182H134.369L136.855 200.801H136.958L139.444 193.182H141.496L137.45 204.31C137.262 204.822 137.024 205.254 136.734 205.608C136.444 205.966 136.099 206.234 135.698 206.413C135.298 206.592 134.833 206.682 134.305 206.682ZM150.289 195.579L148.557 195.886C148.485 195.664 148.37 195.453 148.212 195.253C148.058 195.053 147.85 194.888 147.585 194.761C147.321 194.633 146.991 194.569 146.595 194.569C146.054 194.569 145.602 194.69 145.24 194.933C144.877 195.172 144.696 195.481 144.696 195.86C144.696 196.188 144.818 196.452 145.061 196.653C145.304 196.853 145.696 197.017 146.237 197.145L147.796 197.503C148.7 197.712 149.373 198.033 149.816 198.468C150.259 198.903 150.481 199.467 150.481 200.162C150.481 200.75 150.311 201.274 149.97 201.734C149.633 202.19 149.162 202.548 148.557 202.808C147.956 203.068 147.259 203.198 146.467 203.198C145.367 203.198 144.47 202.964 143.776 202.495C143.081 202.022 142.655 201.351 142.497 200.482L144.345 200.2C144.46 200.682 144.696 201.046 145.054 201.293C145.412 201.536 145.879 201.658 146.454 201.658C147.081 201.658 147.581 201.528 147.956 201.268C148.331 201.004 148.519 200.682 148.519 200.303C148.519 199.996 148.404 199.738 148.174 199.529C147.948 199.32 147.6 199.163 147.132 199.056L145.47 198.692C144.554 198.483 143.876 198.151 143.437 197.695C143.002 197.239 142.785 196.661 142.785 195.962C142.785 195.383 142.947 194.876 143.271 194.441C143.595 194.006 144.042 193.668 144.613 193.425C145.184 193.178 145.838 193.054 146.576 193.054C147.637 193.054 148.472 193.284 149.081 193.744C149.691 194.2 150.093 194.812 150.289 195.579ZM156.134 191.609V189.909H166.265V191.609H162.181V203H160.212V191.609H156.134ZM166.971 203V193.182H168.819V194.741H168.921C169.1 194.213 169.415 193.798 169.867 193.495C170.323 193.188 170.838 193.035 171.414 193.035C171.533 193.035 171.674 193.039 171.836 193.048C172.002 193.056 172.132 193.067 172.225 193.08V194.908C172.149 194.886 172.012 194.863 171.816 194.837C171.62 194.808 171.424 194.793 171.228 194.793C170.777 194.793 170.374 194.888 170.02 195.08C169.671 195.268 169.394 195.53 169.189 195.866C168.985 196.199 168.882 196.578 168.882 197.004V203H166.971ZM173.519 203V193.182H175.431V203H173.519ZM174.485 191.667C174.152 191.667 173.867 191.556 173.628 191.335C173.394 191.109 173.277 190.84 173.277 190.529C173.277 190.214 173.394 189.945 173.628 189.724C173.867 189.498 174.152 189.385 174.485 189.385C174.817 189.385 175.1 189.498 175.335 189.724C175.573 189.945 175.693 190.214 175.693 190.529C175.693 190.84 175.573 191.109 175.335 191.335C175.1 191.556 174.817 191.667 174.485 191.667ZM180.499 203.217C179.877 203.217 179.314 203.102 178.812 202.872C178.309 202.638 177.91 202.299 177.616 201.856C177.326 201.413 177.182 200.869 177.182 200.226C177.182 199.672 177.288 199.216 177.501 198.858C177.714 198.5 178.002 198.217 178.364 198.008C178.726 197.799 179.131 197.641 179.579 197.535C180.026 197.428 180.482 197.347 180.947 197.292C181.535 197.224 182.012 197.168 182.378 197.126C182.745 197.079 183.011 197.004 183.177 196.902C183.344 196.8 183.427 196.634 183.427 196.403V196.359C183.427 195.8 183.269 195.368 182.954 195.061C182.643 194.754 182.178 194.601 181.56 194.601C180.917 194.601 180.41 194.744 180.039 195.029C179.672 195.31 179.419 195.624 179.278 195.969L177.482 195.56C177.695 194.963 178.006 194.482 178.415 194.115C178.829 193.744 179.304 193.476 179.841 193.31C180.378 193.139 180.942 193.054 181.535 193.054C181.927 193.054 182.342 193.101 182.781 193.195C183.224 193.284 183.638 193.45 184.021 193.693C184.409 193.936 184.726 194.283 184.974 194.735C185.221 195.183 185.344 195.764 185.344 196.48V203H183.478V201.658H183.401C183.277 201.905 183.092 202.148 182.845 202.386C182.598 202.625 182.28 202.823 181.893 202.981C181.505 203.138 181.04 203.217 180.499 203.217ZM180.915 201.683C181.443 201.683 181.895 201.579 182.27 201.37C182.649 201.161 182.937 200.888 183.133 200.552C183.333 200.211 183.433 199.847 183.433 199.459V198.193C183.365 198.261 183.233 198.325 183.037 198.385C182.845 198.44 182.625 198.489 182.378 198.532C182.131 198.57 181.89 198.607 181.656 198.641C181.422 198.67 181.226 198.696 181.068 198.717C180.697 198.764 180.358 198.843 180.052 198.954C179.749 199.065 179.506 199.224 179.323 199.433C179.144 199.638 179.054 199.911 179.054 200.251C179.054 200.724 179.229 201.082 179.579 201.325C179.928 201.564 180.373 201.683 180.915 201.683ZM189.441 189.909V203H187.53V189.909H189.441ZM207.082 194.166H205.088C205.011 193.74 204.868 193.365 204.66 193.041C204.451 192.717 204.195 192.442 203.893 192.217C203.59 191.991 203.251 191.82 202.876 191.705C202.506 191.59 202.111 191.533 201.694 191.533C200.939 191.533 200.264 191.722 199.667 192.102C199.075 192.481 198.606 193.037 198.261 193.77C197.92 194.503 197.75 195.398 197.75 196.455C197.75 197.52 197.92 198.419 198.261 199.152C198.606 199.885 199.077 200.439 199.674 200.814C200.27 201.189 200.942 201.376 201.687 201.376C202.101 201.376 202.493 201.321 202.864 201.21C203.239 201.095 203.577 200.927 203.88 200.705C204.182 200.484 204.438 200.213 204.647 199.893C204.86 199.57 205.007 199.199 205.088 198.781L207.082 198.788C206.976 199.431 206.769 200.023 206.462 200.565C206.16 201.102 205.77 201.566 205.292 201.958C204.819 202.346 204.278 202.646 203.669 202.859C203.06 203.072 202.395 203.179 201.675 203.179C200.541 203.179 199.531 202.911 198.645 202.374C197.758 201.832 197.06 201.059 196.548 200.053C196.041 199.048 195.788 197.848 195.788 196.455C195.788 195.057 196.043 193.857 196.555 192.856C197.066 191.85 197.765 191.079 198.651 190.542C199.538 190.001 200.545 189.73 201.675 189.73C202.369 189.73 203.017 189.83 203.618 190.031C204.223 190.227 204.766 190.516 205.248 190.9C205.729 191.279 206.128 191.744 206.443 192.293C206.758 192.839 206.971 193.463 207.082 194.166ZM210.844 189.909V203H208.932V189.909H210.844ZM215.912 203.217C215.29 203.217 214.727 203.102 214.224 202.872C213.722 202.638 213.323 202.299 213.029 201.856C212.739 201.413 212.594 200.869 212.594 200.226C212.594 199.672 212.701 199.216 212.914 198.858C213.127 198.5 213.415 198.217 213.777 198.008C214.139 197.799 214.544 197.641 214.992 197.535C215.439 197.428 215.895 197.347 216.359 197.292C216.947 197.224 217.425 197.168 217.791 197.126C218.158 197.079 218.424 197.004 218.59 196.902C218.756 196.8 218.84 196.634 218.84 196.403V196.359C218.84 195.8 218.682 195.368 218.367 195.061C218.055 194.754 217.591 194.601 216.973 194.601C216.33 194.601 215.822 194.744 215.452 195.029C215.085 195.31 214.832 195.624 214.691 195.969L212.895 195.56C213.108 194.963 213.419 194.482 213.828 194.115C214.242 193.744 214.717 193.476 215.254 193.31C215.791 193.139 216.355 193.054 216.947 193.054C217.34 193.054 217.755 193.101 218.194 193.195C218.637 193.284 219.05 193.45 219.434 193.693C219.822 193.936 220.139 194.283 220.386 194.735C220.634 195.183 220.757 195.764 220.757 196.48V203H218.891V201.658H218.814C218.69 201.905 218.505 202.148 218.258 202.386C218.011 202.625 217.693 202.823 217.305 202.981C216.918 203.138 216.453 203.217 215.912 203.217ZM216.327 201.683C216.856 201.683 217.308 201.579 217.683 201.37C218.062 201.161 218.349 200.888 218.545 200.552C218.746 200.211 218.846 199.847 218.846 199.459V198.193C218.778 198.261 218.646 198.325 218.45 198.385C218.258 198.44 218.038 198.489 217.791 198.532C217.544 198.57 217.303 198.607 217.069 198.641C216.835 198.67 216.639 198.696 216.481 198.717C216.11 198.764 215.771 198.843 215.465 198.954C215.162 199.065 214.919 199.224 214.736 199.433C214.557 199.638 214.467 199.911 214.467 200.251C214.467 200.724 214.642 201.082 214.992 201.325C215.341 201.564 215.786 201.683 216.327 201.683ZM230.3 195.579L228.568 195.886C228.495 195.664 228.38 195.453 228.223 195.253C228.069 195.053 227.86 194.888 227.596 194.761C227.332 194.633 227.002 194.569 226.605 194.569C226.064 194.569 225.613 194.69 225.25 194.933C224.888 195.172 224.707 195.481 224.707 195.86C224.707 196.188 224.828 196.452 225.071 196.653C225.314 196.853 225.706 197.017 226.247 197.145L227.807 197.503C228.711 197.712 229.384 198.033 229.827 198.468C230.27 198.903 230.492 199.467 230.492 200.162C230.492 200.75 230.321 201.274 229.98 201.734C229.644 202.19 229.173 202.548 228.568 202.808C227.967 203.068 227.27 203.198 226.478 203.198C225.378 203.198 224.481 202.964 223.787 202.495C223.092 202.022 222.666 201.351 222.508 200.482L224.355 200.2C224.47 200.682 224.707 201.046 225.065 201.293C225.423 201.536 225.89 201.658 226.465 201.658C227.091 201.658 227.592 201.528 227.967 201.268C228.342 201.004 228.529 200.682 228.529 200.303C228.529 199.996 228.414 199.738 228.184 199.529C227.958 199.32 227.611 199.163 227.142 199.056L225.48 198.692C224.564 198.483 223.887 198.151 223.448 197.695C223.013 197.239 222.796 196.661 222.796 195.962C222.796 195.383 222.958 194.876 223.282 194.441C223.605 194.006 224.053 193.668 224.624 193.425C225.195 193.178 225.849 193.054 226.586 193.054C227.647 193.054 228.483 193.284 229.092 193.744C229.701 194.2 230.104 194.812 230.3 195.579ZM239.59 195.579L237.858 195.886C237.786 195.664 237.671 195.453 237.513 195.253C237.36 195.053 237.151 194.888 236.887 194.761C236.622 194.633 236.292 194.569 235.896 194.569C235.355 194.569 234.903 194.69 234.541 194.933C234.178 195.172 233.997 195.481 233.997 195.86C233.997 196.188 234.119 196.452 234.362 196.653C234.605 196.853 234.997 197.017 235.538 197.145L237.098 197.503C238.001 197.712 238.674 198.033 239.117 198.468C239.561 198.903 239.782 199.467 239.782 200.162C239.782 200.75 239.612 201.274 239.271 201.734C238.934 202.19 238.463 202.548 237.858 202.808C237.257 203.068 236.561 203.198 235.768 203.198C234.669 203.198 233.772 202.964 233.077 202.495C232.382 202.022 231.956 201.351 231.799 200.482L233.646 200.2C233.761 200.682 233.997 201.046 234.355 201.293C234.713 201.536 235.18 201.658 235.755 201.658C236.382 201.658 236.882 201.528 237.257 201.268C237.632 201.004 237.82 200.682 237.82 200.303C237.82 199.996 237.705 199.738 237.475 199.529C237.249 199.32 236.901 199.163 236.433 199.056L234.771 198.692C233.855 198.483 233.177 198.151 232.738 197.695C232.303 197.239 232.086 196.661 232.086 195.962C232.086 195.383 232.248 194.876 232.572 194.441C232.896 194.006 233.343 193.668 233.914 193.425C234.485 193.178 235.139 193.054 235.877 193.054C236.938 193.054 237.773 193.284 238.382 193.744C238.992 194.2 239.394 194.812 239.59 195.579ZM248.784 203.217C248.162 203.217 247.6 203.102 247.097 202.872C246.594 202.638 246.196 202.299 245.902 201.856C245.612 201.413 245.467 200.869 245.467 200.226C245.467 199.672 245.574 199.216 245.787 198.858C246 198.5 246.287 198.217 246.65 198.008C247.012 197.799 247.417 197.641 247.864 197.535C248.311 197.428 248.767 197.347 249.232 197.292C249.82 197.224 250.297 197.168 250.664 197.126C251.03 197.079 251.297 197.004 251.463 196.902C251.629 196.8 251.712 196.634 251.712 196.403V196.359C251.712 195.8 251.554 195.368 251.239 195.061C250.928 194.754 250.463 194.601 249.846 194.601C249.202 194.601 248.695 194.744 248.324 195.029C247.958 195.31 247.704 195.624 247.564 195.969L245.767 195.56C245.98 194.963 246.292 194.482 246.701 194.115C247.114 193.744 247.589 193.476 248.126 193.31C248.663 193.139 249.228 193.054 249.82 193.054C250.212 193.054 250.628 193.101 251.066 193.195C251.51 193.284 251.923 193.45 252.306 193.693C252.694 193.936 253.012 194.283 253.259 194.735C253.506 195.183 253.63 195.764 253.63 196.48V203H251.763V201.658H251.686C251.563 201.905 251.378 202.148 251.13 202.386C250.883 202.625 250.566 202.823 250.178 202.981C249.79 203.138 249.326 203.217 248.784 203.217ZM249.2 201.683C249.728 201.683 250.18 201.579 250.555 201.37C250.934 201.161 251.222 200.888 251.418 200.552C251.618 200.211 251.718 199.847 251.718 199.459V198.193C251.65 198.261 251.518 198.325 251.322 198.385C251.13 198.44 250.911 198.489 250.664 198.532C250.417 198.57 250.176 198.607 249.941 198.641C249.707 198.67 249.511 198.696 249.353 198.717C248.983 198.764 248.644 198.843 248.337 198.954C248.034 199.065 247.792 199.224 247.608 199.433C247.429 199.638 247.34 199.911 247.34 200.251C247.34 200.724 247.515 201.082 247.864 201.325C248.213 201.564 248.659 201.683 249.2 201.683ZM263.863 193.182L260.302 203H258.257L254.69 193.182H256.742L259.229 200.737H259.331L261.811 193.182H263.863ZM267.875 203.217C267.253 203.217 266.69 203.102 266.188 202.872C265.685 202.638 265.286 202.299 264.992 201.856C264.702 201.413 264.558 200.869 264.558 200.226C264.558 199.672 264.664 199.216 264.877 198.858C265.09 198.5 265.378 198.217 265.74 198.008C266.102 197.799 266.507 197.641 266.955 197.535C267.402 197.428 267.858 197.347 268.322 197.292C268.911 197.224 269.388 197.168 269.754 197.126C270.121 197.079 270.387 197.004 270.553 196.902C270.719 196.8 270.803 196.634 270.803 196.403V196.359C270.803 195.8 270.645 195.368 270.33 195.061C270.018 194.754 269.554 194.601 268.936 194.601C268.293 194.601 267.786 194.744 267.415 195.029C267.048 195.31 266.795 195.624 266.654 195.969L264.858 195.56C265.071 194.963 265.382 194.482 265.791 194.115C266.205 193.744 266.68 193.476 267.217 193.31C267.754 193.139 268.318 193.054 268.911 193.054C269.303 193.054 269.718 193.101 270.157 193.195C270.6 193.284 271.014 193.45 271.397 193.693C271.785 193.936 272.102 194.283 272.349 194.735C272.597 195.183 272.72 195.764 272.72 196.48V203H270.854V201.658H270.777C270.653 201.905 270.468 202.148 270.221 202.386C269.974 202.625 269.656 202.823 269.268 202.981C268.881 203.138 268.416 203.217 267.875 203.217ZM268.29 201.683C268.819 201.683 269.271 201.579 269.646 201.37C270.025 201.161 270.313 200.888 270.509 200.552C270.709 200.211 270.809 199.847 270.809 199.459V198.193C270.741 198.261 270.609 198.325 270.413 198.385C270.221 198.44 270.001 198.489 269.754 198.532C269.507 198.57 269.266 198.607 269.032 198.641C268.798 198.67 268.602 198.696 268.444 198.717C268.073 198.764 267.734 198.843 267.428 198.954C267.125 199.065 266.882 199.224 266.699 199.433C266.52 199.638 266.43 199.911 266.43 200.251C266.43 200.724 266.605 201.082 266.955 201.325C267.304 201.564 267.749 201.683 268.29 201.683ZM274.906 203V193.182H276.817V203H274.906ZM275.871 191.667C275.539 191.667 275.253 191.556 275.014 191.335C274.78 191.109 274.663 190.84 274.663 190.529C274.663 190.214 274.78 189.945 275.014 189.724C275.253 189.498 275.539 189.385 275.871 189.385C276.203 189.385 276.487 189.498 276.721 189.724C276.96 189.945 277.079 190.214 277.079 190.529C277.079 190.84 276.96 191.109 276.721 191.335C276.487 191.556 276.203 191.667 275.871 191.667ZM280.939 189.909V203H279.028V189.909H280.939ZM286.008 203.217C285.386 203.217 284.823 203.102 284.32 202.872C283.818 202.638 283.419 202.299 283.125 201.856C282.835 201.413 282.69 200.869 282.69 200.226C282.69 199.672 282.797 199.216 283.01 198.858C283.223 198.5 283.511 198.217 283.873 198.008C284.235 197.799 284.64 197.641 285.087 197.535C285.535 197.428 285.991 197.347 286.455 197.292C287.043 197.224 287.521 197.168 287.887 197.126C288.254 197.079 288.52 197.004 288.686 196.902C288.852 196.8 288.935 196.634 288.935 196.403V196.359C288.935 195.8 288.778 195.368 288.462 195.061C288.151 194.754 287.687 194.601 287.069 194.601C286.426 194.601 285.918 194.744 285.548 195.029C285.181 195.31 284.928 195.624 284.787 195.969L282.991 195.56C283.204 194.963 283.515 194.482 283.924 194.115C284.337 193.744 284.813 193.476 285.35 193.31C285.886 193.139 286.451 193.054 287.043 193.054C287.435 193.054 287.851 193.101 288.29 193.195C288.733 193.284 289.146 193.45 289.53 193.693C289.918 193.936 290.235 194.283 290.482 194.735C290.729 195.183 290.853 195.764 290.853 196.48V203H288.987V201.658H288.91C288.786 201.905 288.601 202.148 288.354 202.386C288.107 202.625 287.789 202.823 287.401 202.981C287.014 203.138 286.549 203.217 286.008 203.217ZM286.423 201.683C286.952 201.683 287.404 201.579 287.779 201.37C288.158 201.161 288.445 200.888 288.641 200.552C288.842 200.211 288.942 199.847 288.942 199.459V198.193C288.874 198.261 288.742 198.325 288.546 198.385C288.354 198.44 288.134 198.489 287.887 198.532C287.64 198.57 287.399 198.607 287.165 198.641C286.93 198.67 286.734 198.696 286.577 198.717C286.206 198.764 285.867 198.843 285.56 198.954C285.258 199.065 285.015 199.224 284.832 199.433C284.653 199.638 284.563 199.911 284.563 200.251C284.563 200.724 284.738 201.082 285.087 201.325C285.437 201.564 285.882 201.683 286.423 201.683ZM293.192 203V189.909H295.103V194.773H295.218C295.329 194.569 295.489 194.332 295.698 194.064C295.907 193.795 296.196 193.561 296.567 193.361C296.938 193.156 297.428 193.054 298.037 193.054C298.83 193.054 299.537 193.254 300.159 193.655C300.782 194.055 301.27 194.633 301.623 195.387C301.981 196.141 302.16 197.049 302.16 198.11C302.16 199.171 301.983 200.081 301.63 200.839C301.276 201.594 300.79 202.175 300.172 202.585C299.554 202.989 298.849 203.192 298.056 203.192C297.46 203.192 296.972 203.092 296.593 202.891C296.218 202.691 295.924 202.457 295.711 202.188C295.498 201.92 295.333 201.681 295.218 201.472H295.059V203H293.192ZM295.065 198.091C295.065 198.781 295.165 199.386 295.365 199.906C295.566 200.426 295.855 200.833 296.235 201.127C296.614 201.417 297.078 201.562 297.628 201.562C298.199 201.562 298.676 201.411 299.06 201.108C299.444 200.801 299.733 200.386 299.929 199.862C300.13 199.337 300.23 198.747 300.23 198.091C300.23 197.443 300.132 196.862 299.936 196.346C299.744 195.83 299.454 195.423 299.066 195.125C298.683 194.827 298.203 194.678 297.628 194.678C297.074 194.678 296.605 194.82 296.222 195.106C295.843 195.391 295.555 195.79 295.359 196.301C295.163 196.812 295.065 197.409 295.065 198.091ZM305.858 189.909V203H303.946V189.909H305.858ZM312.3 203.198C311.333 203.198 310.5 202.991 309.801 202.578C309.106 202.161 308.569 201.575 308.19 200.82C307.815 200.062 307.628 199.173 307.628 198.155C307.628 197.149 307.815 196.263 308.19 195.496C308.569 194.729 309.098 194.13 309.775 193.7C310.457 193.269 311.254 193.054 312.166 193.054C312.72 193.054 313.257 193.146 313.777 193.329C314.297 193.512 314.763 193.8 315.177 194.192C315.59 194.584 315.916 195.093 316.155 195.719C316.393 196.342 316.513 197.098 316.513 197.989V198.666H308.708V197.234H314.64C314.64 196.732 314.537 196.286 314.333 195.898C314.128 195.506 313.841 195.197 313.47 194.972C313.104 194.746 312.673 194.633 312.179 194.633C311.642 194.633 311.173 194.765 310.773 195.029C310.376 195.289 310.069 195.63 309.852 196.052C309.639 196.469 309.532 196.923 309.532 197.413V198.532C309.532 199.188 309.648 199.746 309.878 200.207C310.112 200.667 310.438 201.018 310.856 201.261C311.273 201.5 311.761 201.619 312.319 201.619C312.682 201.619 313.012 201.568 313.31 201.466C313.608 201.359 313.866 201.202 314.084 200.993C314.301 200.784 314.467 200.526 314.582 200.219L316.391 200.545C316.246 201.078 315.986 201.545 315.611 201.945C315.241 202.342 314.774 202.651 314.211 202.872C313.653 203.089 313.016 203.198 312.3 203.198Z" fill="white"/>
<path d="M112.006 266.677V267.505C112.005 269.447 111.376 271.336 110.214 272.891C109.051 274.445 107.417 275.583 105.556 276.133C103.694 276.684 101.704 276.618 99.8829 275.945C98.0618 275.272 96.507 274.029 95.4503 272.4C94.3937 270.771 93.8918 268.845 94.0195 266.908C94.1473 264.97 94.8978 263.126 96.1592 261.651C97.4205 260.175 99.1252 259.146 101.019 258.718C102.913 258.291 104.894 258.486 106.667 259.276" stroke="#FFE492" stroke-width="2" stroke-linecap="round" stroke-linejoin="round"/>
<path d="M135.009 274L131.379 260.909H133.456L136.006 271.047H136.128L138.781 260.909H140.839L143.491 271.053H143.613L146.157 260.909H148.241L144.604 274H142.616L139.861 264.195H139.759L137.004 274H135.009ZM151.44 268.17V274H149.528V260.909H151.414V265.78H151.535C151.766 265.251 152.117 264.832 152.59 264.521C153.063 264.21 153.681 264.054 154.444 264.054C155.117 264.054 155.705 264.192 156.208 264.469C156.715 264.746 157.107 265.16 157.384 265.71C157.665 266.255 157.806 266.937 157.806 267.755V274H155.895V267.985C155.895 267.265 155.709 266.707 155.339 266.31C154.968 265.91 154.452 265.71 153.792 265.71C153.34 265.71 152.935 265.805 152.577 265.997C152.224 266.189 151.945 266.47 151.74 266.841C151.54 267.207 151.44 267.651 151.44 268.17ZM164.132 274.198C163.212 274.198 162.408 273.987 161.722 273.565C161.036 273.143 160.504 272.553 160.124 271.795C159.745 271.036 159.555 270.15 159.555 269.136C159.555 268.117 159.745 267.227 160.124 266.464C160.504 265.701 161.036 265.109 161.722 264.687C162.408 264.265 163.212 264.054 164.132 264.054C165.053 264.054 165.856 264.265 166.542 264.687C167.228 265.109 167.761 265.701 168.14 266.464C168.519 267.227 168.709 268.117 168.709 269.136C168.709 270.15 168.519 271.036 168.14 271.795C167.761 272.553 167.228 273.143 166.542 273.565C165.856 273.987 165.053 274.198 164.132 274.198ZM164.138 272.594C164.735 272.594 165.229 272.436 165.621 272.121C166.013 271.805 166.303 271.386 166.491 270.862C166.683 270.337 166.778 269.76 166.778 269.129C166.778 268.503 166.683 267.928 166.491 267.403C166.303 266.875 166.013 266.451 165.621 266.131C165.229 265.812 164.735 265.652 164.138 265.652C163.538 265.652 163.039 265.812 162.643 266.131C162.251 266.451 161.959 266.875 161.767 267.403C161.58 267.928 161.486 268.503 161.486 269.129C161.486 269.76 161.58 270.337 161.767 270.862C161.959 271.386 162.251 271.805 162.643 272.121C163.039 272.436 163.538 272.594 164.138 272.594ZM172.393 260.909V274H170.482V260.909H172.393ZM178.836 274.198C177.869 274.198 177.036 273.991 176.337 273.578C175.642 273.161 175.105 272.575 174.726 271.82C174.351 271.062 174.164 270.173 174.164 269.155C174.164 268.149 174.351 267.263 174.726 266.496C175.105 265.729 175.634 265.13 176.311 264.7C176.993 264.269 177.79 264.054 178.702 264.054C179.256 264.054 179.793 264.146 180.313 264.329C180.833 264.512 181.299 264.8 181.713 265.192C182.126 265.584 182.452 266.093 182.691 266.719C182.929 267.342 183.048 268.098 183.048 268.989V269.666H175.244V268.234H181.176C181.176 267.732 181.073 267.286 180.869 266.898C180.664 266.506 180.377 266.197 180.006 265.972C179.639 265.746 179.209 265.633 178.715 265.633C178.178 265.633 177.709 265.765 177.308 266.029C176.912 266.289 176.605 266.63 176.388 267.052C176.175 267.469 176.068 267.923 176.068 268.413V269.532C176.068 270.188 176.183 270.746 176.414 271.207C176.648 271.667 176.974 272.018 177.392 272.261C177.809 272.5 178.297 272.619 178.855 272.619C179.217 272.619 179.548 272.568 179.846 272.466C180.144 272.359 180.402 272.202 180.619 271.993C180.837 271.784 181.003 271.526 181.118 271.219L182.927 271.545C182.782 272.078 182.522 272.545 182.147 272.945C181.776 273.342 181.31 273.651 180.747 273.872C180.189 274.089 179.552 274.198 178.836 274.198ZM189.366 274V260.909H194.032C195.051 260.909 195.895 261.094 196.564 261.465C197.233 261.836 197.733 262.343 198.066 262.987C198.398 263.626 198.564 264.346 198.564 265.147C198.564 265.952 198.396 266.677 198.059 267.32C197.727 267.96 197.224 268.467 196.551 268.842C195.882 269.212 195.04 269.398 194.026 269.398H190.817V267.723H193.847C194.49 267.723 195.012 267.612 195.413 267.391C195.814 267.165 196.108 266.858 196.295 266.47C196.483 266.082 196.576 265.641 196.576 265.147C196.576 264.653 196.483 264.214 196.295 263.83C196.108 263.447 195.811 263.146 195.407 262.929C195.006 262.712 194.478 262.603 193.821 262.603H191.341V274H189.366ZM203.136 274.217C202.514 274.217 201.951 274.102 201.448 273.872C200.945 273.638 200.547 273.299 200.253 272.856C199.963 272.413 199.818 271.869 199.818 271.226C199.818 270.672 199.925 270.216 200.138 269.858C200.351 269.5 200.639 269.217 201.001 269.008C201.363 268.799 201.768 268.641 202.215 268.535C202.663 268.428 203.119 268.347 203.583 268.292C204.171 268.224 204.649 268.168 205.015 268.126C205.381 268.079 205.648 268.004 205.814 267.902C205.98 267.8 206.063 267.634 206.063 267.403V267.359C206.063 266.8 205.906 266.368 205.59 266.061C205.279 265.754 204.815 265.601 204.197 265.601C203.553 265.601 203.046 265.744 202.675 266.029C202.309 266.31 202.055 266.624 201.915 266.969L200.119 266.56C200.332 265.963 200.643 265.482 201.052 265.115C201.465 264.744 201.94 264.476 202.477 264.31C203.014 264.139 203.579 264.054 204.171 264.054C204.563 264.054 204.979 264.101 205.418 264.195C205.861 264.284 206.274 264.45 206.658 264.693C207.046 264.936 207.363 265.283 207.61 265.735C207.857 266.183 207.981 266.764 207.981 267.48V274H206.114V272.658H206.038C205.914 272.905 205.729 273.148 205.482 273.386C205.234 273.625 204.917 273.823 204.529 273.981C204.141 274.138 203.677 274.217 203.136 274.217ZM203.551 272.683C204.08 272.683 204.531 272.579 204.906 272.37C205.286 272.161 205.573 271.888 205.769 271.552C205.97 271.211 206.07 270.847 206.07 270.459V269.193C206.001 269.261 205.869 269.325 205.673 269.385C205.482 269.44 205.262 269.489 205.015 269.532C204.768 269.57 204.527 269.607 204.293 269.641C204.058 269.67 203.862 269.696 203.705 269.717C203.334 269.764 202.995 269.843 202.688 269.954C202.386 270.065 202.143 270.224 201.96 270.433C201.781 270.638 201.691 270.911 201.691 271.251C201.691 271.724 201.866 272.082 202.215 272.325C202.565 272.564 203.01 272.683 203.551 272.683ZM214.302 274.198C213.352 274.198 212.534 273.983 211.848 273.553C211.166 273.118 210.642 272.519 210.275 271.756C209.909 270.994 209.725 270.12 209.725 269.136C209.725 268.138 209.913 267.259 210.288 266.496C210.663 265.729 211.191 265.13 211.873 264.7C212.555 264.269 213.358 264.054 214.283 264.054C215.029 264.054 215.694 264.192 216.277 264.469C216.861 264.742 217.332 265.126 217.69 265.62C218.052 266.114 218.267 266.692 218.336 267.352H216.475C216.373 266.892 216.139 266.496 215.772 266.163C215.41 265.831 214.924 265.665 214.315 265.665C213.782 265.665 213.316 265.805 212.915 266.087C212.519 266.364 212.21 266.76 211.988 267.276C211.767 267.787 211.656 268.392 211.656 269.091C211.656 269.807 211.765 270.425 211.982 270.945C212.199 271.464 212.506 271.867 212.902 272.153C213.303 272.438 213.774 272.581 214.315 272.581C214.677 272.581 215.005 272.515 215.299 272.383C215.598 272.246 215.847 272.053 216.047 271.801C216.252 271.55 216.395 271.247 216.475 270.893H218.336C218.267 271.528 218.061 272.095 217.716 272.594C217.37 273.092 216.908 273.484 216.328 273.77C215.753 274.055 215.078 274.198 214.302 274.198ZM221.777 270.67L221.764 268.337H222.097L226.009 264.182H228.297L223.835 268.912H223.535L221.777 270.67ZM220.019 274V260.909H221.931V274H220.019ZM226.22 274L222.704 269.334L224.021 267.998L228.566 274H226.22ZM232.536 274.217C231.914 274.217 231.352 274.102 230.849 273.872C230.346 273.638 229.947 273.299 229.653 272.856C229.364 272.413 229.219 271.869 229.219 271.226C229.219 270.672 229.325 270.216 229.538 269.858C229.751 269.5 230.039 269.217 230.401 269.008C230.763 268.799 231.168 268.641 231.616 268.535C232.063 268.428 232.519 268.347 232.984 268.292C233.572 268.224 234.049 268.168 234.415 268.126C234.782 268.079 235.048 268.004 235.214 267.902C235.381 267.8 235.464 267.634 235.464 267.403V267.359C235.464 266.8 235.306 266.368 234.991 266.061C234.68 265.754 234.215 265.601 233.597 265.601C232.954 265.601 232.447 265.744 232.076 266.029C231.709 266.31 231.456 266.624 231.315 266.969L229.519 266.56C229.732 265.963 230.043 265.482 230.452 265.115C230.866 264.744 231.341 264.476 231.878 264.31C232.415 264.139 232.979 264.054 233.572 264.054C233.964 264.054 234.379 264.101 234.818 264.195C235.261 264.284 235.675 264.45 236.058 264.693C236.446 264.936 236.763 265.283 237.011 265.735C237.258 266.183 237.381 266.764 237.381 267.48V274H235.515V272.658H235.438C235.315 272.905 235.129 273.148 234.882 273.386C234.635 273.625 234.317 273.823 233.93 273.981C233.542 274.138 233.077 274.217 232.536 274.217ZM232.952 272.683C233.48 272.683 233.932 272.579 234.307 272.37C234.686 272.161 234.974 271.888 235.17 271.552C235.37 271.211 235.47 270.847 235.47 270.459V269.193C235.402 269.261 235.27 269.325 235.074 269.385C234.882 269.44 234.663 269.489 234.415 269.532C234.168 269.57 233.928 269.607 233.693 269.641C233.459 269.67 233.263 269.696 233.105 269.717C232.734 269.764 232.396 269.843 232.089 269.954C231.786 270.065 231.543 270.224 231.36 270.433C231.181 270.638 231.092 270.911 231.092 271.251C231.092 271.724 231.266 272.082 231.616 272.325C231.965 272.564 232.41 272.683 232.952 272.683ZM243.683 277.886C242.904 277.886 242.232 277.784 241.67 277.58C241.112 277.375 240.656 277.104 240.302 276.768C239.948 276.431 239.684 276.063 239.509 275.662L241.152 274.984C241.267 275.172 241.421 275.37 241.612 275.579C241.808 275.792 242.073 275.973 242.405 276.122C242.742 276.271 243.174 276.346 243.703 276.346C244.427 276.346 245.026 276.169 245.499 275.815C245.972 275.466 246.208 274.908 246.208 274.141V272.21H246.087C245.972 272.419 245.806 272.651 245.588 272.907C245.375 273.163 245.081 273.384 244.706 273.572C244.331 273.759 243.843 273.853 243.242 273.853C242.467 273.853 241.768 273.672 241.146 273.31C240.528 272.943 240.038 272.404 239.676 271.692C239.318 270.977 239.139 270.097 239.139 269.053C239.139 268.009 239.316 267.114 239.669 266.368C240.027 265.622 240.517 265.051 241.139 264.655C241.762 264.254 242.467 264.054 243.255 264.054C243.865 264.054 244.357 264.156 244.732 264.361C245.107 264.561 245.399 264.795 245.607 265.064C245.821 265.332 245.985 265.569 246.1 265.773H246.24V264.182H248.113V274.217C248.113 275.061 247.917 275.754 247.525 276.295C247.133 276.836 246.603 277.237 245.933 277.496C245.269 277.756 244.519 277.886 243.683 277.886ZM243.664 272.268C244.214 272.268 244.678 272.14 245.058 271.884C245.441 271.624 245.731 271.254 245.927 270.772C246.127 270.286 246.228 269.705 246.228 269.027C246.228 268.366 246.129 267.785 245.933 267.282C245.737 266.779 245.45 266.387 245.071 266.106C244.691 265.82 244.223 265.678 243.664 265.678C243.089 265.678 242.61 265.827 242.226 266.125C241.843 266.419 241.553 266.82 241.357 267.327C241.165 267.834 241.069 268.401 241.069 269.027C241.069 269.67 241.167 270.235 241.363 270.721C241.559 271.207 241.849 271.586 242.232 271.859C242.62 272.131 243.098 272.268 243.664 272.268ZM254.548 274.198C253.581 274.198 252.747 273.991 252.049 273.578C251.354 273.161 250.817 272.575 250.438 271.82C250.063 271.062 249.875 270.173 249.875 269.155C249.875 268.149 250.063 267.263 250.438 266.496C250.817 265.729 251.345 265.13 252.023 264.7C252.705 264.269 253.502 264.054 254.414 264.054C254.968 264.054 255.505 264.146 256.024 264.329C256.544 264.512 257.011 264.8 257.424 265.192C257.838 265.584 258.164 266.093 258.402 266.719C258.641 267.342 258.76 268.098 258.76 268.989V269.666H250.956V268.234H256.887C256.887 267.732 256.785 267.286 256.581 266.898C256.376 266.506 256.088 266.197 255.718 265.972C255.351 265.746 254.921 265.633 254.426 265.633C253.89 265.633 253.421 265.765 253.02 266.029C252.624 266.289 252.317 266.63 252.1 267.052C251.887 267.469 251.78 267.923 251.78 268.413V269.532C251.78 270.188 251.895 270.746 252.125 271.207C252.36 271.667 252.686 272.018 253.103 272.261C253.521 272.5 254.009 272.619 254.567 272.619C254.929 272.619 255.26 272.568 255.558 272.466C255.856 272.359 256.114 272.202 256.331 271.993C256.549 271.784 256.715 271.526 256.83 271.219L258.639 271.545C258.494 272.078 258.234 272.545 257.859 272.945C257.488 273.342 257.022 273.651 256.459 273.872C255.901 274.089 255.264 274.198 254.548 274.198Z" fill="white"/>
<path d="M408.106 274V260.909H412.772C413.787 260.909 414.628 261.084 415.297 261.433C415.971 261.783 416.473 262.266 416.806 262.884C417.138 263.498 417.304 264.207 417.304 265.013C417.304 265.814 417.136 266.519 416.799 267.129C416.467 267.734 415.964 268.205 415.291 268.541C414.622 268.878 413.78 269.046 412.766 269.046H409.231V267.346H412.587C413.226 267.346 413.746 267.254 414.147 267.071C414.551 266.888 414.848 266.621 415.035 266.272C415.223 265.923 415.316 265.503 415.316 265.013C415.316 264.518 415.221 264.09 415.029 263.728C414.841 263.366 414.545 263.089 414.14 262.897C413.74 262.701 413.213 262.603 412.561 262.603H410.081V274H408.106ZM414.569 268.094L417.803 274H415.553L412.382 268.094H414.569ZM426.552 266.579L424.819 266.886C424.747 266.664 424.632 266.453 424.474 266.253C424.321 266.053 424.112 265.888 423.848 265.761C423.584 265.633 423.253 265.569 422.857 265.569C422.316 265.569 421.864 265.69 421.502 265.933C421.14 266.172 420.959 266.481 420.959 266.86C420.959 267.188 421.08 267.452 421.323 267.653C421.566 267.853 421.958 268.017 422.499 268.145L424.059 268.503C424.962 268.712 425.635 269.033 426.079 269.468C426.522 269.903 426.743 270.467 426.743 271.162C426.743 271.75 426.573 272.274 426.232 272.734C425.895 273.19 425.424 273.548 424.819 273.808C424.218 274.068 423.522 274.198 422.729 274.198C421.63 274.198 420.733 273.964 420.038 273.495C419.343 273.022 418.917 272.351 418.76 271.482L420.607 271.2C420.722 271.682 420.959 272.046 421.316 272.293C421.674 272.536 422.141 272.658 422.716 272.658C423.343 272.658 423.843 272.528 424.218 272.268C424.593 272.004 424.781 271.682 424.781 271.303C424.781 270.996 424.666 270.738 424.436 270.529C424.21 270.32 423.863 270.163 423.394 270.056L421.732 269.692C420.816 269.483 420.138 269.151 419.699 268.695C419.265 268.239 419.047 267.661 419.047 266.962C419.047 266.383 419.209 265.876 419.533 265.441C419.857 265.006 420.304 264.668 420.875 264.425C421.446 264.178 422.101 264.054 422.838 264.054C423.899 264.054 424.734 264.284 425.343 264.744C425.953 265.2 426.356 265.812 426.552 266.579ZM437.433 274.179C436.849 274.17 436.274 274.064 435.707 273.859C435.145 273.655 434.633 273.314 434.173 272.837C433.713 272.359 433.344 271.718 433.067 270.913C432.795 270.107 432.658 269.102 432.658 267.896C432.658 266.754 432.771 265.739 432.997 264.853C433.227 263.967 433.557 263.219 433.988 262.609C434.418 261.996 434.938 261.529 435.547 261.21C436.157 260.89 436.841 260.73 437.599 260.73C438.379 260.73 439.072 260.884 439.677 261.19C440.282 261.497 440.772 261.921 441.147 262.462C441.526 263.004 441.767 263.619 441.869 264.31H439.92C439.788 263.764 439.525 263.319 439.133 262.974C438.741 262.629 438.23 262.456 437.599 262.456C436.641 262.456 435.893 262.874 435.356 263.709C434.823 264.544 434.555 265.705 434.55 267.192H434.646C434.872 266.822 435.149 266.506 435.477 266.246C435.81 265.982 436.18 265.78 436.589 265.639C437.003 265.494 437.437 265.422 437.893 265.422C438.652 265.422 439.338 265.607 439.952 265.978C440.57 266.344 441.062 266.852 441.428 267.499C441.795 268.147 441.978 268.888 441.978 269.724C441.978 270.559 441.788 271.315 441.409 271.993C441.034 272.67 440.506 273.207 439.824 273.604C439.142 273.996 438.345 274.188 437.433 274.179ZM437.427 272.517C437.93 272.517 438.379 272.393 438.775 272.146C439.172 271.899 439.485 271.567 439.715 271.149C439.945 270.732 440.06 270.265 440.06 269.749C440.06 269.246 439.947 268.788 439.721 268.375C439.5 267.962 439.193 267.634 438.801 267.391C438.413 267.148 437.97 267.026 437.471 267.026C437.092 267.026 436.741 267.099 436.417 267.244C436.097 267.388 435.816 267.589 435.573 267.844C435.33 268.1 435.138 268.394 434.998 268.727C434.861 269.055 434.793 269.402 434.793 269.768C434.793 270.259 434.906 270.712 435.132 271.13C435.362 271.548 435.675 271.884 436.072 272.14C436.472 272.391 436.924 272.517 437.427 272.517ZM445.861 272.21L445.765 272.907C445.701 273.418 445.592 273.951 445.439 274.505C445.29 275.063 445.134 275.581 444.972 276.058C444.814 276.536 444.684 276.915 444.582 277.196H443.227C443.282 276.932 443.359 276.574 443.457 276.122C443.555 275.675 443.651 275.174 443.745 274.62C443.839 274.066 443.909 273.501 443.956 272.926L444.02 272.21H445.861ZM452.257 274.217C451.247 274.213 450.384 273.947 449.668 273.418C448.952 272.89 448.405 272.121 448.025 271.111C447.646 270.101 447.457 268.884 447.457 267.461C447.457 266.042 447.646 264.83 448.025 263.824C448.409 262.818 448.959 262.051 449.675 261.523C450.395 260.994 451.256 260.73 452.257 260.73C453.258 260.73 454.117 260.996 454.833 261.529C455.549 262.058 456.096 262.825 456.476 263.83C456.859 264.832 457.051 266.042 457.051 267.461C457.051 268.888 456.861 270.107 456.482 271.117C456.103 272.123 455.555 272.892 454.839 273.425C454.123 273.953 453.263 274.217 452.257 274.217ZM452.257 272.511C453.143 272.511 453.836 272.078 454.334 271.213C454.837 270.348 455.089 269.097 455.089 267.461C455.089 266.374 454.974 265.456 454.744 264.706C454.518 263.952 454.192 263.381 453.766 262.993C453.344 262.601 452.841 262.405 452.257 262.405C451.375 262.405 450.682 262.839 450.18 263.709C449.677 264.578 449.423 265.829 449.419 267.461C449.419 268.552 449.532 269.474 449.758 270.229C449.988 270.979 450.314 271.548 450.736 271.935C451.158 272.319 451.665 272.511 452.257 272.511ZM463.516 274.217C462.506 274.213 461.643 273.947 460.927 273.418C460.211 272.89 459.664 272.121 459.285 271.111C458.905 270.101 458.716 268.884 458.716 267.461C458.716 266.042 458.905 264.83 459.285 263.824C459.668 262.818 460.218 262.051 460.934 261.523C461.654 260.994 462.515 260.73 463.516 260.73C464.518 260.73 465.376 260.996 466.092 261.529C466.808 262.058 467.356 262.825 467.735 263.83C468.118 264.832 468.31 266.042 468.31 267.461C468.31 268.888 468.121 270.107 467.741 271.117C467.362 272.123 466.814 272.892 466.099 273.425C465.383 273.953 464.522 274.217 463.516 274.217ZM463.516 272.511C464.403 272.511 465.095 272.078 465.594 271.213C466.096 270.348 466.348 269.097 466.348 267.461C466.348 266.374 466.233 265.456 466.003 264.706C465.777 263.952 465.451 263.381 465.025 262.993C464.603 262.601 464.1 262.405 463.516 262.405C462.634 262.405 461.942 262.839 461.439 263.709C460.936 264.578 460.682 265.829 460.678 267.461C460.678 268.552 460.791 269.474 461.017 270.229C461.247 270.979 461.573 271.548 461.995 271.935C462.417 272.319 462.924 272.511 463.516 272.511ZM474.775 274.217C473.765 274.213 472.902 273.947 472.186 273.418C471.471 272.89 470.923 272.121 470.544 271.111C470.164 270.101 469.975 268.884 469.975 267.461C469.975 266.042 470.164 264.83 470.544 263.824C470.927 262.818 471.477 262.051 472.193 261.523C472.913 260.994 473.774 260.73 474.775 260.73C475.777 260.73 476.635 260.996 477.351 261.529C478.067 262.058 478.615 262.825 478.994 263.83C479.378 264.832 479.569 266.042 479.569 267.461C479.569 268.888 479.38 270.107 479 271.117C478.621 272.123 478.074 272.892 477.358 273.425C476.642 273.953 475.781 274.217 474.775 274.217ZM474.775 272.511C475.662 272.511 476.354 272.078 476.853 271.213C477.356 270.348 477.607 269.097 477.607 267.461C477.607 266.374 477.492 265.456 477.262 264.706C477.036 263.952 476.71 263.381 476.284 262.993C475.862 262.601 475.359 262.405 474.775 262.405C473.893 262.405 473.201 262.839 472.698 263.709C472.195 264.578 471.941 265.829 471.937 267.461C471.937 268.552 472.05 269.474 472.276 270.229C472.506 270.979 472.832 271.548 473.254 271.935C473.676 272.319 474.183 272.511 474.775 272.511Z" fill="white"/>
<path d="M132.774 299V285.909H140.892V287.609H134.749V291.598H140.31V293.292H134.749V299H132.774ZM142.685 299V289.182H144.532V290.741H144.634C144.813 290.213 145.128 289.798 145.58 289.495C146.036 289.188 146.552 289.035 147.127 289.035C147.246 289.035 147.387 289.039 147.549 289.048C147.715 289.056 147.845 289.067 147.939 289.08V290.908C147.862 290.886 147.726 290.863 147.53 290.837C147.334 290.808 147.138 290.793 146.942 290.793C146.49 290.793 146.087 290.888 145.734 291.08C145.384 291.268 145.107 291.53 144.903 291.866C144.698 292.199 144.596 292.578 144.596 293.004V299H142.685ZM153.113 299.198C152.145 299.198 151.312 298.991 150.613 298.578C149.919 298.161 149.382 297.575 149.003 296.82C148.628 296.062 148.44 295.173 148.44 294.155C148.44 293.149 148.628 292.263 149.003 291.496C149.382 290.729 149.91 290.13 150.588 289.7C151.27 289.269 152.067 289.054 152.979 289.054C153.532 289.054 154.069 289.146 154.589 289.329C155.109 289.512 155.576 289.8 155.989 290.192C156.403 290.584 156.729 291.093 156.967 291.719C157.206 292.342 157.325 293.098 157.325 293.989V294.666H149.52V293.234H155.452C155.452 292.732 155.35 292.286 155.145 291.898C154.941 291.506 154.653 291.197 154.282 290.972C153.916 290.746 153.486 290.633 152.991 290.633C152.454 290.633 151.986 290.765 151.585 291.029C151.189 291.289 150.882 291.63 150.665 292.052C150.452 292.469 150.345 292.923 150.345 293.413V294.532C150.345 295.188 150.46 295.746 150.69 296.207C150.925 296.667 151.251 297.018 151.668 297.261C152.086 297.5 152.574 297.619 153.132 297.619C153.494 297.619 153.824 297.568 154.123 297.466C154.421 297.359 154.679 297.202 154.896 296.993C155.113 296.784 155.28 296.526 155.395 296.219L157.204 296.545C157.059 297.078 156.799 297.545 156.424 297.945C156.053 298.342 155.586 298.651 155.024 298.872C154.466 299.089 153.829 299.198 153.113 299.198ZM163.317 299.198C162.35 299.198 161.517 298.991 160.818 298.578C160.123 298.161 159.586 297.575 159.207 296.82C158.832 296.062 158.645 295.173 158.645 294.155C158.645 293.149 158.832 292.263 159.207 291.496C159.586 290.729 160.115 290.13 160.792 289.7C161.474 289.269 162.271 289.054 163.183 289.054C163.737 289.054 164.274 289.146 164.794 289.329C165.314 289.512 165.78 289.8 166.194 290.192C166.607 290.584 166.933 291.093 167.172 291.719C167.41 292.342 167.53 293.098 167.53 293.989V294.666H159.725V293.234H165.657C165.657 292.732 165.554 292.286 165.35 291.898C165.145 291.506 164.858 291.197 164.487 290.972C164.12 290.746 163.69 290.633 163.196 290.633C162.659 290.633 162.19 290.765 161.789 291.029C161.393 291.289 161.086 291.63 160.869 292.052C160.656 292.469 160.549 292.923 160.549 293.413V294.532C160.549 295.188 160.664 295.746 160.895 296.207C161.129 296.667 161.455 297.018 161.873 297.261C162.29 297.5 162.778 297.619 163.336 297.619C163.699 297.619 164.029 297.568 164.327 297.466C164.625 297.359 164.883 297.202 165.101 296.993C165.318 296.784 165.484 296.526 165.599 296.219L167.408 296.545C167.263 297.078 167.003 297.545 166.628 297.945C166.258 298.342 165.791 298.651 165.228 298.872C164.67 299.089 164.033 299.198 163.317 299.198ZM173.847 285.909H176.244L180.412 296.085H180.565L184.733 285.909H187.13V299H185.251V289.527H185.129L181.268 298.981H179.709L175.848 289.521H175.726V299H173.847V285.909ZM193.624 299.198C192.703 299.198 191.9 298.987 191.214 298.565C190.528 298.143 189.995 297.553 189.616 296.795C189.237 296.036 189.047 295.15 189.047 294.136C189.047 293.117 189.237 292.227 189.616 291.464C189.995 290.701 190.528 290.109 191.214 289.687C191.9 289.265 192.703 289.054 193.624 289.054C194.544 289.054 195.347 289.265 196.034 289.687C196.72 290.109 197.252 290.701 197.632 291.464C198.011 292.227 198.2 293.117 198.2 294.136C198.2 295.15 198.011 296.036 197.632 296.795C197.252 297.553 196.72 298.143 196.034 298.565C195.347 298.987 194.544 299.198 193.624 299.198ZM193.63 297.594C194.227 297.594 194.721 297.436 195.113 297.121C195.505 296.805 195.795 296.386 195.982 295.862C196.174 295.337 196.27 294.76 196.27 294.129C196.27 293.503 196.174 292.928 195.982 292.403C195.795 291.875 195.505 291.451 195.113 291.131C194.721 290.812 194.227 290.652 193.63 290.652C193.029 290.652 192.531 290.812 192.134 291.131C191.742 291.451 191.45 291.875 191.259 292.403C191.071 292.928 190.977 293.503 190.977 294.129C190.977 294.76 191.071 295.337 191.259 295.862C191.45 296.386 191.742 296.805 192.134 297.121C192.531 297.436 193.029 297.594 193.63 297.594ZM204.109 299.198C203.159 299.198 202.341 298.983 201.655 298.553C200.973 298.118 200.449 297.519 200.082 296.756C199.716 295.994 199.533 295.12 199.533 294.136C199.533 293.138 199.72 292.259 200.095 291.496C200.47 290.729 200.999 290.13 201.68 289.7C202.362 289.269 203.166 289.054 204.09 289.054C204.836 289.054 205.501 289.192 206.085 289.469C206.668 289.742 207.139 290.126 207.497 290.62C207.859 291.114 208.075 291.692 208.143 292.352H206.283C206.18 291.892 205.946 291.496 205.58 291.163C205.217 290.831 204.732 290.665 204.122 290.665C203.59 290.665 203.123 290.805 202.722 291.087C202.326 291.364 202.017 291.76 201.796 292.276C201.574 292.787 201.463 293.392 201.463 294.091C201.463 294.807 201.572 295.425 201.789 295.945C202.006 296.464 202.313 296.867 202.71 297.153C203.11 297.438 203.581 297.581 204.122 297.581C204.484 297.581 204.813 297.515 205.107 297.383C205.405 297.246 205.654 297.053 205.854 296.801C206.059 296.55 206.202 296.247 206.283 295.893H208.143C208.075 296.528 207.868 297.095 207.523 297.594C207.178 298.092 206.715 298.484 206.136 298.77C205.56 299.055 204.885 299.198 204.109 299.198ZM211.584 295.67L211.572 293.337H211.904L215.816 289.182H218.104L213.643 293.912H213.342L211.584 295.67ZM209.827 299V285.909H211.738V299H209.827ZM216.027 299L212.511 294.334L213.828 292.998L218.373 299H216.027ZM228.473 289.182V290.716H223.11V289.182H228.473ZM224.548 286.83H226.459V296.117C226.459 296.488 226.515 296.767 226.626 296.955C226.736 297.138 226.879 297.263 227.054 297.332C227.233 297.396 227.427 297.428 227.636 297.428C227.789 297.428 227.923 297.417 228.038 297.396C228.153 297.374 228.243 297.357 228.307 297.344L228.652 298.923C228.541 298.966 228.383 299.009 228.179 299.051C227.974 299.098 227.719 299.124 227.412 299.128C226.909 299.136 226.44 299.047 226.006 298.859C225.571 298.672 225.219 298.382 224.951 297.99C224.682 297.598 224.548 297.106 224.548 296.513V286.83ZM234.353 299.198C233.386 299.198 232.553 298.991 231.854 298.578C231.159 298.161 230.622 297.575 230.243 296.82C229.868 296.062 229.681 295.173 229.681 294.155C229.681 293.149 229.868 292.263 230.243 291.496C230.622 290.729 231.151 290.13 231.828 289.7C232.51 289.269 233.307 289.054 234.219 289.054C234.773 289.054 235.31 289.146 235.83 289.329C236.35 289.512 236.816 289.8 237.23 290.192C237.643 290.584 237.969 291.093 238.208 291.719C238.446 292.342 238.566 293.098 238.566 293.989V294.666H230.761V293.234H236.693C236.693 292.732 236.59 292.286 236.386 291.898C236.181 291.506 235.894 291.197 235.523 290.972C235.156 290.746 234.726 290.633 234.232 290.633C233.695 290.633 233.226 290.765 232.826 291.029C232.429 291.289 232.122 291.63 231.905 292.052C231.692 292.469 231.585 292.923 231.585 293.413V294.532C231.585 295.188 231.701 295.746 231.931 296.207C232.165 296.667 232.491 297.018 232.909 297.261C233.326 297.5 233.814 297.619 234.372 297.619C234.735 297.619 235.065 297.568 235.363 297.466C235.661 297.359 235.919 297.202 236.137 296.993C236.354 296.784 236.52 296.526 236.635 296.219L238.444 296.545C238.299 297.078 238.039 297.545 237.664 297.945C237.294 298.342 236.827 298.651 236.264 298.872C235.706 299.089 235.069 299.198 234.353 299.198ZM247.683 291.579L245.951 291.886C245.879 291.664 245.764 291.453 245.606 291.253C245.453 291.053 245.244 290.888 244.98 290.761C244.715 290.633 244.385 290.569 243.989 290.569C243.448 290.569 242.996 290.69 242.634 290.933C242.271 291.172 242.09 291.481 242.09 291.86C242.09 292.188 242.212 292.452 242.455 292.653C242.698 292.853 243.09 293.017 243.631 293.145L245.19 293.503C246.094 293.712 246.767 294.033 247.21 294.468C247.654 294.903 247.875 295.467 247.875 296.162C247.875 296.75 247.705 297.274 247.364 297.734C247.027 298.19 246.556 298.548 245.951 298.808C245.35 299.068 244.654 299.198 243.861 299.198C242.761 299.198 241.864 298.964 241.17 298.495C240.475 298.022 240.049 297.351 239.891 296.482L241.739 296.2C241.854 296.682 242.09 297.046 242.448 297.293C242.806 297.536 243.273 297.658 243.848 297.658C244.475 297.658 244.975 297.528 245.35 297.268C245.725 297.004 245.913 296.682 245.913 296.303C245.913 295.996 245.798 295.738 245.568 295.529C245.342 295.32 244.994 295.163 244.526 295.056L242.864 294.692C241.948 294.483 241.27 294.151 240.831 293.695C240.396 293.239 240.179 292.661 240.179 291.962C240.179 291.383 240.341 290.876 240.665 290.441C240.989 290.006 241.436 289.668 242.007 289.425C242.578 289.178 243.232 289.054 243.97 289.054C245.031 289.054 245.866 289.284 246.475 289.744C247.085 290.2 247.487 290.812 247.683 291.579ZM254.2 289.182V290.716H248.837V289.182H254.2ZM250.275 286.83H252.186V296.117C252.186 296.488 252.242 296.767 252.352 296.955C252.463 297.138 252.606 297.263 252.781 297.332C252.96 297.396 253.153 297.428 253.362 297.428C253.516 297.428 253.65 297.417 253.765 297.396C253.88 297.374 253.97 297.357 254.033 297.344L254.379 298.923C254.268 298.966 254.11 299.009 253.906 299.051C253.701 299.098 253.445 299.124 253.139 299.128C252.636 299.136 252.167 299.047 251.732 298.859C251.298 298.672 250.946 298.382 250.678 297.99C250.409 297.598 250.275 297.106 250.275 296.513V286.83ZM263.153 291.579L261.421 291.886C261.348 291.664 261.233 291.453 261.075 291.253C260.922 291.053 260.713 290.888 260.449 290.761C260.185 290.633 259.855 290.569 259.458 290.569C258.917 290.569 258.465 290.69 258.103 290.933C257.741 291.172 257.56 291.481 257.56 291.86C257.56 292.188 257.681 292.452 257.924 292.653C258.167 292.853 258.559 293.017 259.1 293.145L260.66 293.503C261.563 293.712 262.237 294.033 262.68 294.468C263.123 294.903 263.345 295.467 263.345 296.162C263.345 296.75 263.174 297.274 262.833 297.734C262.497 298.19 262.026 298.548 261.421 298.808C260.82 299.068 260.123 299.198 259.33 299.198C258.231 299.198 257.334 298.964 256.639 298.495C255.945 298.022 255.519 297.351 255.361 296.482L257.208 296.2C257.323 296.682 257.56 297.046 257.918 297.293C258.276 297.536 258.742 297.658 259.318 297.658C259.944 297.658 260.445 297.528 260.82 297.268C261.195 297.004 261.382 296.682 261.382 296.303C261.382 295.996 261.267 295.738 261.037 295.529C260.811 295.32 260.464 295.163 259.995 295.056L258.333 294.692C257.417 294.483 256.739 294.151 256.301 293.695C255.866 293.239 255.649 292.661 255.649 291.962C255.649 291.383 255.81 290.876 256.134 290.441C256.458 290.006 256.906 289.668 257.477 289.425C258.048 289.178 258.702 289.054 259.439 289.054C260.5 289.054 261.335 289.284 261.945 289.744C262.554 290.2 262.957 290.812 263.153 291.579ZM273.721 299.198C272.754 299.198 271.921 298.991 271.222 298.578C270.527 298.161 269.99 297.575 269.611 296.82C269.236 296.062 269.049 295.173 269.049 294.155C269.049 293.149 269.236 292.263 269.611 291.496C269.99 290.729 270.519 290.13 271.196 289.7C271.878 289.269 272.675 289.054 273.587 289.054C274.141 289.054 274.678 289.146 275.198 289.329C275.718 289.512 276.184 289.8 276.598 290.192C277.011 290.584 277.337 291.093 277.576 291.719C277.814 292.342 277.934 293.098 277.934 293.989V294.666H270.129V293.234H276.061C276.061 292.732 275.958 292.286 275.754 291.898C275.549 291.506 275.262 291.197 274.891 290.972C274.524 290.746 274.094 290.633 273.6 290.633C273.063 290.633 272.594 290.765 272.193 291.029C271.797 291.289 271.49 291.63 271.273 292.052C271.06 292.469 270.953 292.923 270.953 293.413V294.532C270.953 295.188 271.068 295.746 271.299 296.207C271.533 296.667 271.859 297.018 272.277 297.261C272.694 297.5 273.182 297.619 273.74 297.619C274.103 297.619 274.433 297.568 274.731 297.466C275.029 297.359 275.287 297.202 275.505 296.993C275.722 296.784 275.888 296.526 276.003 296.219L277.812 296.545C277.667 297.078 277.407 297.545 277.032 297.945C276.662 298.342 276.195 298.651 275.632 298.872C275.074 299.089 274.437 299.198 273.721 299.198ZM287.812 289.182L284.252 299H282.206L278.639 289.182H280.691L283.178 296.737H283.28L285.76 289.182H287.812ZM293.146 299.198C292.178 299.198 291.345 298.991 290.646 298.578C289.952 298.161 289.415 297.575 289.036 296.82C288.661 296.062 288.473 295.173 288.473 294.155C288.473 293.149 288.661 292.263 289.036 291.496C289.415 290.729 289.943 290.13 290.621 289.7C291.303 289.269 292.1 289.054 293.011 289.054C293.565 289.054 294.102 289.146 294.622 289.329C295.142 289.512 295.609 289.8 296.022 290.192C296.435 290.584 296.761 291.093 297 291.719C297.239 292.342 297.358 293.098 297.358 293.989V294.666H289.553V293.234H295.485C295.485 292.732 295.383 292.286 295.178 291.898C294.974 291.506 294.686 291.197 294.315 290.972C293.949 290.746 293.519 290.633 293.024 290.633C292.487 290.633 292.019 290.765 291.618 291.029C291.222 291.289 290.915 291.63 290.698 292.052C290.484 292.469 290.378 292.923 290.378 293.413V294.532C290.378 295.188 290.493 295.746 290.723 296.207C290.958 296.667 291.283 297.018 291.701 297.261C292.119 297.5 292.607 297.619 293.165 297.619C293.527 297.619 293.857 297.568 294.156 297.466C294.454 297.359 294.712 297.202 294.929 296.993C295.146 296.784 295.313 296.526 295.428 296.219L297.237 296.545C297.092 297.078 296.832 297.545 296.457 297.945C296.086 298.342 295.619 298.651 295.057 298.872C294.499 299.089 293.862 299.198 293.146 299.198ZM299.119 299V289.182H300.966V290.741H301.068C301.247 290.213 301.563 289.798 302.014 289.495C302.47 289.188 302.986 289.035 303.561 289.035C303.68 289.035 303.821 289.039 303.983 289.048C304.149 289.056 304.279 289.067 304.373 289.08V290.908C304.296 290.886 304.16 290.863 303.964 290.837C303.768 290.808 303.572 290.793 303.376 290.793C302.924 290.793 302.521 290.888 302.168 291.08C301.818 291.268 301.541 291.53 301.337 291.866C301.132 292.199 301.03 292.578 301.03 293.004V299H299.119ZM307.174 302.682C306.888 302.682 306.628 302.658 306.394 302.612C306.16 302.569 305.985 302.522 305.87 302.471L306.33 300.905C306.679 300.999 306.991 301.039 307.263 301.026C307.536 301.013 307.777 300.911 307.986 300.719C308.199 300.528 308.386 300.214 308.548 299.78L308.785 299.128L305.192 289.182H307.238L309.724 296.801H309.826L312.313 289.182H314.365L310.319 300.31C310.131 300.822 309.893 301.254 309.603 301.608C309.313 301.966 308.968 302.234 308.567 302.413C308.167 302.592 307.702 302.682 307.174 302.682ZM322.333 299L319.444 289.182H321.419L323.343 296.392H323.439L325.369 289.182H327.345L329.262 296.36H329.358L331.269 289.182H333.244L330.362 299H328.412L326.418 291.911H326.271L324.276 299H322.333ZM338.631 299.198C337.664 299.198 336.83 298.991 336.132 298.578C335.437 298.161 334.9 297.575 334.521 296.82C334.146 296.062 333.958 295.173 333.958 294.155C333.958 293.149 334.146 292.263 334.521 291.496C334.9 290.729 335.428 290.13 336.106 289.7C336.788 289.269 337.585 289.054 338.497 289.054C339.051 289.054 339.588 289.146 340.107 289.329C340.627 289.512 341.094 289.8 341.507 290.192C341.921 290.584 342.247 291.093 342.485 291.719C342.724 292.342 342.843 293.098 342.843 293.989V294.666H335.039V293.234H340.97C340.97 292.732 340.868 292.286 340.664 291.898C340.459 291.506 340.171 291.197 339.801 290.972C339.434 290.746 339.004 290.633 338.509 290.633C337.972 290.633 337.504 290.765 337.103 291.029C336.707 291.289 336.4 291.63 336.183 292.052C335.97 292.469 335.863 292.923 335.863 293.413V294.532C335.863 295.188 335.978 295.746 336.208 296.207C336.443 296.667 336.769 297.018 337.186 297.261C337.604 297.5 338.092 297.619 338.65 297.619C339.012 297.619 339.343 297.568 339.641 297.466C339.939 297.359 340.197 297.202 340.414 296.993C340.632 296.784 340.798 296.526 340.913 296.219L342.722 296.545C342.577 297.078 342.317 297.545 341.942 297.945C341.571 298.342 341.105 298.651 340.542 298.872C339.984 299.089 339.347 299.198 338.631 299.198ZM348.835 299.198C347.868 299.198 347.035 298.991 346.336 298.578C345.641 298.161 345.104 297.575 344.725 296.82C344.35 296.062 344.163 295.173 344.163 294.155C344.163 293.149 344.35 292.263 344.725 291.496C345.104 290.729 345.633 290.13 346.31 289.7C346.992 289.269 347.789 289.054 348.701 289.054C349.255 289.054 349.792 289.146 350.312 289.329C350.832 289.512 351.298 289.8 351.712 290.192C352.125 290.584 352.451 291.093 352.69 291.719C352.928 292.342 353.048 293.098 353.048 293.989V294.666H345.243V293.234H351.175C351.175 292.732 351.073 292.286 350.868 291.898C350.663 291.506 350.376 291.197 350.005 290.972C349.639 290.746 349.208 290.633 348.714 290.633C348.177 290.633 347.708 290.765 347.308 291.029C346.911 291.289 346.604 291.63 346.387 292.052C346.174 292.469 346.068 292.923 346.068 293.413V294.532C346.068 295.188 346.183 295.746 346.413 296.207C346.647 296.667 346.973 297.018 347.391 297.261C347.808 297.5 348.296 297.619 348.854 297.619C349.217 297.619 349.547 297.568 349.845 297.466C350.144 297.359 350.401 297.202 350.619 296.993C350.836 296.784 351.002 296.526 351.117 296.219L352.926 296.545C352.781 297.078 352.521 297.545 352.146 297.945C351.776 298.342 351.309 298.651 350.747 298.872C350.188 299.089 349.551 299.198 348.835 299.198ZM356.566 295.67L356.553 293.337H356.886L360.798 289.182H363.086L358.624 293.912H358.324L356.566 295.67ZM354.808 299V285.909H356.719V299H354.808ZM361.009 299L357.493 294.334L358.81 292.998L363.354 299H361.009Z" fill="white"/>
<rect x="94" y="354" width="166" height="51" rx="8" fill="#4F9CF9"/>
<path d="M143.153 377.04C143.044 376.695 142.896 376.386 142.71 376.114C142.528 375.837 142.311 375.602 142.057 375.409C141.803 375.212 141.513 375.062 141.188 374.96C140.866 374.858 140.511 374.807 140.125 374.807C139.47 374.807 138.879 374.975 138.352 375.312C137.826 375.65 137.409 376.144 137.102 376.795C136.799 377.443 136.648 378.237 136.648 379.176C136.648 380.119 136.801 380.917 137.108 381.568C137.415 382.22 137.835 382.714 138.369 383.051C138.903 383.388 139.511 383.557 140.193 383.557C140.826 383.557 141.377 383.428 141.847 383.17C142.32 382.913 142.686 382.549 142.943 382.08C143.205 381.606 143.335 381.049 143.335 380.409L143.79 380.494H140.46V379.045H145.034V380.369C145.034 381.347 144.826 382.195 144.409 382.915C143.996 383.631 143.424 384.184 142.693 384.574C141.966 384.964 141.133 385.159 140.193 385.159C139.14 385.159 138.216 384.917 137.42 384.432C136.629 383.947 136.011 383.259 135.568 382.369C135.125 381.475 134.903 380.415 134.903 379.188C134.903 378.259 135.032 377.426 135.29 376.688C135.547 375.949 135.909 375.322 136.375 374.807C136.845 374.288 137.396 373.892 138.028 373.619C138.665 373.343 139.36 373.205 140.114 373.205C140.742 373.205 141.328 373.297 141.869 373.483C142.415 373.669 142.9 373.932 143.324 374.273C143.752 374.614 144.106 375.019 144.386 375.489C144.667 375.955 144.856 376.472 144.955 377.04H143.153ZM150.568 385.176C149.708 385.176 148.967 384.992 148.346 384.625C147.729 384.254 147.251 383.733 146.914 383.062C146.581 382.388 146.414 381.598 146.414 380.693C146.414 379.799 146.581 379.011 146.914 378.33C147.251 377.648 147.721 377.116 148.323 376.733C148.93 376.35 149.638 376.159 150.448 376.159C150.941 376.159 151.418 376.241 151.88 376.403C152.342 376.566 152.757 376.822 153.125 377.17C153.492 377.519 153.782 377.972 153.994 378.528C154.206 379.081 154.312 379.754 154.312 380.545V381.148H147.375V379.875H152.647C152.647 379.428 152.556 379.032 152.375 378.688C152.193 378.339 151.937 378.064 151.608 377.864C151.282 377.663 150.899 377.562 150.46 377.562C149.983 377.562 149.566 377.68 149.21 377.915C148.858 378.146 148.585 378.449 148.392 378.824C148.202 379.195 148.108 379.598 148.108 380.034V381.028C148.108 381.612 148.21 382.108 148.414 382.517C148.623 382.926 148.912 383.239 149.284 383.455C149.655 383.667 150.089 383.773 150.585 383.773C150.907 383.773 151.2 383.727 151.466 383.636C151.731 383.542 151.96 383.402 152.153 383.216C152.346 383.03 152.494 382.801 152.596 382.528L154.204 382.818C154.075 383.292 153.844 383.706 153.511 384.062C153.181 384.415 152.767 384.689 152.267 384.886C151.77 385.08 151.204 385.176 150.568 385.176ZM159.951 376.273V377.636H155.184V376.273H159.951ZM156.462 374.182H158.161V382.438C158.161 382.767 158.21 383.015 158.309 383.182C158.407 383.345 158.534 383.456 158.69 383.517C158.849 383.574 159.021 383.602 159.207 383.602C159.343 383.602 159.462 383.593 159.565 383.574C159.667 383.555 159.746 383.54 159.803 383.528L160.11 384.932C160.012 384.97 159.871 385.008 159.69 385.045C159.508 385.087 159.28 385.11 159.008 385.114C158.561 385.121 158.144 385.042 157.758 384.875C157.371 384.708 157.059 384.451 156.82 384.102C156.582 383.754 156.462 383.316 156.462 382.79V374.182ZM171.907 376.42C171.847 375.883 171.597 375.466 171.157 375.17C170.718 374.871 170.165 374.722 169.498 374.722C169.021 374.722 168.608 374.797 168.26 374.949C167.911 375.097 167.64 375.301 167.447 375.562C167.258 375.82 167.163 376.114 167.163 376.443C167.163 376.72 167.228 376.958 167.356 377.159C167.489 377.36 167.661 377.528 167.873 377.665C168.089 377.797 168.32 377.909 168.567 378C168.813 378.087 169.05 378.159 169.277 378.216L170.413 378.511C170.784 378.602 171.165 378.725 171.555 378.881C171.945 379.036 172.307 379.241 172.64 379.494C172.974 379.748 173.243 380.062 173.447 380.438C173.656 380.812 173.76 381.261 173.76 381.784C173.76 382.443 173.589 383.028 173.248 383.54C172.911 384.051 172.421 384.455 171.777 384.75C171.137 385.045 170.362 385.193 169.453 385.193C168.582 385.193 167.828 385.055 167.192 384.778C166.555 384.502 166.057 384.11 165.697 383.602C165.337 383.091 165.139 382.485 165.101 381.784H166.862C166.896 382.205 167.032 382.555 167.271 382.835C167.514 383.112 167.822 383.318 168.197 383.455C168.576 383.587 168.991 383.653 169.442 383.653C169.938 383.653 170.379 383.576 170.765 383.42C171.156 383.261 171.462 383.042 171.686 382.761C171.909 382.477 172.021 382.146 172.021 381.767C172.021 381.422 171.923 381.14 171.726 380.92C171.532 380.701 171.269 380.519 170.936 380.375C170.606 380.231 170.233 380.104 169.817 379.994L168.442 379.619C167.51 379.366 166.771 378.992 166.226 378.5C165.684 378.008 165.413 377.356 165.413 376.545C165.413 375.875 165.595 375.29 165.959 374.79C166.322 374.29 166.815 373.902 167.436 373.625C168.057 373.345 168.758 373.205 169.538 373.205C170.326 373.205 171.021 373.343 171.623 373.619C172.229 373.896 172.707 374.277 173.055 374.761C173.404 375.242 173.586 375.795 173.601 376.42H171.907ZM179.475 376.273V377.636H174.708V376.273H179.475ZM175.987 374.182H177.686V382.438C177.686 382.767 177.735 383.015 177.833 383.182C177.932 383.345 178.059 383.456 178.214 383.517C178.373 383.574 178.545 383.602 178.731 383.602C178.867 383.602 178.987 383.593 179.089 383.574C179.191 383.555 179.271 383.54 179.328 383.528L179.634 384.932C179.536 384.97 179.396 385.008 179.214 385.045C179.032 385.087 178.805 385.11 178.532 385.114C178.085 385.121 177.668 385.042 177.282 384.875C176.896 384.708 176.583 384.451 176.345 384.102C176.106 383.754 175.987 383.316 175.987 382.79V374.182ZM183.574 385.193C183.021 385.193 182.521 385.091 182.074 384.886C181.627 384.678 181.273 384.377 181.012 383.983C180.754 383.589 180.625 383.106 180.625 382.534C180.625 382.042 180.72 381.636 180.91 381.318C181.099 381 181.355 380.748 181.677 380.562C181.999 380.377 182.358 380.237 182.756 380.142C183.154 380.047 183.559 379.975 183.972 379.926C184.495 379.866 184.919 379.816 185.245 379.778C185.571 379.737 185.807 379.67 185.955 379.58C186.103 379.489 186.177 379.341 186.177 379.136V379.097C186.177 378.6 186.036 378.216 185.756 377.943C185.48 377.67 185.067 377.534 184.518 377.534C183.946 377.534 183.495 377.661 183.165 377.915C182.839 378.165 182.614 378.443 182.489 378.75L180.893 378.386C181.082 377.856 181.358 377.428 181.722 377.102C182.089 376.773 182.512 376.534 182.989 376.386C183.466 376.235 183.968 376.159 184.495 376.159C184.843 376.159 185.213 376.201 185.603 376.284C185.997 376.364 186.364 376.511 186.705 376.727C187.05 376.943 187.332 377.252 187.552 377.653C187.771 378.051 187.881 378.568 187.881 379.205V385H186.222V383.807H186.154C186.044 384.027 185.879 384.242 185.66 384.455C185.44 384.667 185.158 384.843 184.813 384.983C184.468 385.123 184.055 385.193 183.574 385.193ZM183.944 383.83C184.413 383.83 184.815 383.737 185.148 383.551C185.485 383.366 185.741 383.123 185.915 382.824C186.093 382.521 186.182 382.197 186.182 381.852V380.727C186.122 380.788 186.004 380.845 185.83 380.898C185.66 380.947 185.464 380.991 185.245 381.028C185.025 381.062 184.811 381.095 184.603 381.125C184.394 381.152 184.22 381.174 184.08 381.193C183.75 381.235 183.449 381.305 183.177 381.403C182.908 381.502 182.692 381.644 182.529 381.83C182.37 382.011 182.29 382.254 182.29 382.557C182.29 382.977 182.446 383.295 182.756 383.511C183.067 383.723 183.463 383.83 183.944 383.83ZM189.824 385V376.273H191.466V377.659H191.557C191.716 377.189 191.996 376.82 192.398 376.551C192.803 376.278 193.261 376.142 193.773 376.142C193.879 376.142 194.004 376.146 194.148 376.153C194.296 376.161 194.411 376.17 194.494 376.182V377.807C194.426 377.788 194.305 377.767 194.131 377.744C193.956 377.718 193.782 377.705 193.608 377.705C193.206 377.705 192.849 377.79 192.534 377.96C192.224 378.127 191.977 378.36 191.796 378.659C191.614 378.955 191.523 379.292 191.523 379.67V385H189.824ZM200.234 376.273V377.636H195.467V376.273H200.234ZM196.745 374.182H198.444V382.438C198.444 382.767 198.494 383.015 198.592 383.182C198.69 383.345 198.817 383.456 198.973 383.517C199.132 383.574 199.304 383.602 199.49 383.602C199.626 383.602 199.745 383.593 199.848 383.574C199.95 383.555 200.029 383.54 200.086 383.528L200.393 384.932C200.295 384.97 200.154 385.008 199.973 385.045C199.791 385.087 199.564 385.11 199.291 385.114C198.844 385.121 198.427 385.042 198.041 384.875C197.654 384.708 197.342 384.451 197.103 384.102C196.865 383.754 196.745 383.316 196.745 382.79V374.182ZM205.461 385.176C204.601 385.176 203.861 384.992 203.239 384.625C202.622 384.254 202.145 383.733 201.808 383.062C201.474 382.388 201.308 381.598 201.308 380.693C201.308 379.799 201.474 379.011 201.808 378.33C202.145 377.648 202.614 377.116 203.217 376.733C203.823 376.35 204.531 376.159 205.342 376.159C205.834 376.159 206.311 376.241 206.773 376.403C207.236 376.566 207.65 376.822 208.018 377.17C208.385 377.519 208.675 377.972 208.887 378.528C209.099 379.081 209.205 379.754 209.205 380.545V381.148H202.268V379.875H207.54C207.54 379.428 207.45 379.032 207.268 378.688C207.086 378.339 206.83 378.064 206.501 377.864C206.175 377.663 205.792 377.562 205.353 377.562C204.876 377.562 204.459 377.68 204.103 377.915C203.751 378.146 203.478 378.449 203.285 378.824C203.095 379.195 203.001 379.598 203.001 380.034V381.028C203.001 381.612 203.103 382.108 203.308 382.517C203.516 382.926 203.806 383.239 204.177 383.455C204.548 383.667 204.982 383.773 205.478 383.773C205.8 383.773 206.093 383.727 206.359 383.636C206.624 383.542 206.853 383.402 207.046 383.216C207.239 383.03 207.387 382.801 207.489 382.528L209.097 382.818C208.968 383.292 208.737 383.706 208.404 384.062C208.075 384.415 207.66 384.689 207.16 384.886C206.664 385.08 206.097 385.176 205.461 385.176ZM214.037 385.17C213.333 385.17 212.704 384.991 212.151 384.631C211.602 384.267 211.17 383.75 210.855 383.08C210.545 382.405 210.389 381.597 210.389 380.653C210.389 379.71 210.547 378.903 210.861 378.233C211.179 377.562 211.615 377.049 212.168 376.693C212.721 376.337 213.348 376.159 214.049 376.159C214.59 376.159 215.026 376.25 215.355 376.432C215.689 376.61 215.946 376.818 216.128 377.057C216.314 377.295 216.458 377.506 216.56 377.688H216.662V373.364H218.361V385H216.702V383.642H216.56C216.458 383.828 216.31 384.04 216.117 384.278C215.927 384.517 215.666 384.725 215.333 384.903C214.999 385.081 214.568 385.17 214.037 385.17ZM214.412 383.722C214.901 383.722 215.314 383.593 215.651 383.335C215.992 383.074 216.249 382.712 216.424 382.25C216.602 381.788 216.691 381.25 216.691 380.636C216.691 380.03 216.604 379.5 216.429 379.045C216.255 378.591 215.999 378.237 215.662 377.983C215.325 377.729 214.908 377.602 214.412 377.602C213.901 377.602 213.475 377.735 213.134 378C212.793 378.265 212.535 378.627 212.361 379.085C212.191 379.544 212.105 380.061 212.105 380.636C212.105 381.22 212.193 381.744 212.367 382.21C212.541 382.676 212.799 383.045 213.139 383.318C213.484 383.587 213.908 383.722 214.412 383.722Z" fill="white"/>
</g>
<defs>
<filter id="filter0_d_742_180" x="0" y="0" width="572" height="487" filterUnits="userSpaceOnUse" color-interpolation-filters="sRGB">
<feFlood flood-opacity="0" result="BackgroundImageFix"/>
<feColorMatrix in="SourceAlpha" type="matrix" values="0 0 0 0 0 0 0 0 0 0 0 0 0 0 0 0 0 0 127 0" result="hardAlpha"/>
<feOffset dy="4"/>
<feGaussianBlur stdDeviation="25"/>
<feComposite in2="hardAlpha" operator="out"/>
<feColorMatrix type="matrix" values="0 0 0 0 0 0 0 0 0 0 0 0 0 0 0 0 0 0 0.08 0"/>
<feBlend mode="normal" in2="BackgroundImageFix" result="effect1_dropShadow_742_180"/>
<feBlend mode="normal" in="SourceGraphic" in2="effect1_dropShadow_742_180" result="shape"/>
</filter>
</defs>
</svg>
