<svg width="21" height="24" viewBox="0 0 21 24" fill="none" xmlns="http://www.w3.org/2000/svg">
<path d="M20.3672 10.4294V6.485C18.52 6.485 17.1102 5.99194 16.2005 5.03361C15.2668 3.93989 14.7437 2.55482 14.7214 1.11694V0.832221L10.9922 0.741943V16.7628C10.8643 17.4618 10.525 18.1047 10.0201 18.6047C9.51517 19.1048 8.86901 19.4379 8.16881 19.5591C7.46861 19.6803 6.74809 19.5837 6.10451 19.2824C5.46094 18.9811 4.9253 18.4896 4.56991 17.8743C4.21451 17.2589 4.05648 16.5493 4.11714 15.8413C4.17781 15.1333 4.45424 14.4609 4.90913 13.915C5.36402 13.3691 5.97546 12.9759 6.66091 12.7884C7.34636 12.601 8.07281 12.6284 8.74219 12.8669V9.0475C8.35191 8.98355 7.95712 8.95104 7.56163 8.95027C6.13871 8.95027 4.74774 9.37222 3.56462 10.1628C2.3815 10.9533 1.45937 12.0769 0.914835 13.3915C0.370305 14.7061 0.227831 16.1527 0.50543 17.5483C0.783029 18.9439 1.46823 20.2258 2.47439 21.232C3.48056 22.2381 4.76248 22.9233 6.15807 23.2009C7.55365 23.4785 9.00022 23.336 10.3148 22.7915C11.6294 22.247 12.7531 21.3249 13.5436 20.1417C14.3341 18.9586 14.7561 17.5676 14.7561 16.1447C14.7553 15.8499 14.7368 15.5554 14.7005 15.2628V8.90861C16.3962 9.9676 18.3691 10.4971 20.3672 10.4294Z" fill="black"/>
</svg>
