<svg width="572" height="403" viewBox="0 0 572 403" fill="none" xmlns="http://www.w3.org/2000/svg">
<g filter="url(#filter0_d_705_445)">
<rect x="50" y="46" width="472" height="303" rx="10" fill="#043873" shape-rendering="crispEdges"/>
<path d="M95.2784 80.3821V75.8182H116.781V80.3821H108.766V102H103.294V80.3821H95.2784ZM142.467 88.9091C142.467 91.7642 141.926 94.1932 140.843 96.196C139.769 98.1989 138.303 99.7287 136.445 100.786C134.596 101.834 132.517 102.358 130.207 102.358C127.88 102.358 125.792 101.83 123.943 100.773C122.093 99.7159 120.632 98.1861 119.558 96.1832C118.484 94.1804 117.947 91.7557 117.947 88.9091C117.947 86.054 118.484 83.625 119.558 81.6222C120.632 79.6193 122.093 78.0937 123.943 77.0455C125.792 75.9886 127.88 75.4602 130.207 75.4602C132.517 75.4602 134.596 75.9886 136.445 77.0455C138.303 78.0937 139.769 79.6193 140.843 81.6222C141.926 83.625 142.467 86.054 142.467 88.9091ZM136.855 88.9091C136.855 87.0597 136.578 85.5 136.024 84.2301C135.478 82.9602 134.707 81.9972 133.71 81.3409C132.713 80.6847 131.545 80.3565 130.207 80.3565C128.869 80.3565 127.701 80.6847 126.704 81.3409C125.707 81.9972 124.931 82.9602 124.377 84.2301C123.832 85.5 123.559 87.0597 123.559 88.9091C123.559 90.7585 123.832 92.3182 124.377 93.5881C124.931 94.858 125.707 95.821 126.704 96.4773C127.701 97.1335 128.869 97.4616 130.207 97.4616C131.545 97.4616 132.713 97.1335 133.71 96.4773C134.707 95.821 135.478 94.858 136.024 93.5881C136.578 92.3182 136.855 90.7585 136.855 88.9091ZM145.847 102V75.8182H163.489V80.3821H151.383V86.6207H162.582V91.1847H151.383V97.4361H163.54V102H145.847ZM167.17 102V75.8182H184.505V80.3821H172.706V86.6207H183.355V91.1847H172.706V102H167.17ZM187.509 102V75.8182H193.044V97.4361H204.269V102H187.509Z" fill="#FFA616"/>
<path d="M94.5568 132.364V130.818H102.68V132.364H99.5334V141H97.7038V132.364H94.5568ZM106.44 141.149C105.675 141.149 105.013 140.99 104.456 140.672C103.903 140.35 103.477 139.896 103.179 139.31C102.881 138.72 102.731 138.025 102.731 137.227C102.731 136.441 102.881 135.752 103.179 135.158C103.48 134.562 103.901 134.098 104.442 133.766C104.982 133.432 105.617 133.264 106.346 133.264C106.816 133.264 107.26 133.34 107.678 133.493C108.099 133.642 108.47 133.874 108.792 134.189C109.117 134.504 109.372 134.905 109.557 135.392C109.743 135.876 109.836 136.453 109.836 137.122V137.674H103.577V136.461H108.111C108.107 136.116 108.033 135.81 107.887 135.541C107.741 135.269 107.537 135.056 107.275 134.9C107.017 134.744 106.715 134.666 106.371 134.666C106.003 134.666 105.68 134.756 105.401 134.935C105.123 135.11 104.906 135.342 104.75 135.631C104.597 135.916 104.519 136.229 104.516 136.57V137.629C104.516 138.073 104.597 138.455 104.76 138.773C104.922 139.088 105.149 139.33 105.441 139.499C105.733 139.664 106.074 139.747 106.465 139.747C106.727 139.747 106.964 139.711 107.176 139.638C107.388 139.562 107.572 139.451 107.728 139.305C107.884 139.159 108.001 138.978 108.081 138.763L109.761 138.952C109.655 139.396 109.453 139.784 109.155 140.115C108.86 140.443 108.482 140.698 108.021 140.881C107.56 141.06 107.033 141.149 106.44 141.149ZM117.394 135.382L115.753 135.561C115.707 135.395 115.626 135.24 115.51 135.094C115.397 134.948 115.244 134.83 115.052 134.741C114.86 134.651 114.625 134.607 114.346 134.607C113.972 134.607 113.657 134.688 113.402 134.85C113.15 135.013 113.025 135.223 113.029 135.482C113.025 135.704 113.107 135.884 113.272 136.023C113.441 136.163 113.72 136.277 114.108 136.366L115.41 136.645C116.133 136.801 116.67 137.048 117.021 137.386C117.376 137.724 117.555 138.166 117.558 138.713C117.555 139.194 117.414 139.618 117.135 139.986C116.86 140.35 116.477 140.635 115.987 140.841C115.496 141.046 114.933 141.149 114.297 141.149C113.362 141.149 112.609 140.954 112.039 140.562C111.469 140.168 111.13 139.62 111.02 138.917L112.775 138.748C112.855 139.093 113.024 139.353 113.282 139.528C113.541 139.704 113.877 139.792 114.292 139.792C114.719 139.792 115.062 139.704 115.321 139.528C115.583 139.353 115.713 139.136 115.713 138.877C115.713 138.658 115.629 138.478 115.46 138.335C115.294 138.193 115.036 138.083 114.684 138.007L113.382 137.734C112.649 137.581 112.107 137.324 111.756 136.963C111.405 136.598 111.231 136.138 111.234 135.581C111.231 135.11 111.358 134.703 111.617 134.358C111.879 134.01 112.242 133.741 112.706 133.553C113.173 133.36 113.712 133.264 114.321 133.264C115.216 133.264 115.921 133.455 116.434 133.836C116.951 134.217 117.271 134.732 117.394 135.382ZM122.855 133.364V134.756H118.465V133.364H122.855ZM119.549 131.534H121.349V138.703C121.349 138.945 121.385 139.131 121.458 139.26C121.534 139.386 121.634 139.472 121.756 139.518C121.879 139.565 122.015 139.588 122.164 139.588C122.277 139.588 122.379 139.58 122.472 139.563C122.568 139.547 122.641 139.532 122.691 139.518L122.994 140.925C122.898 140.959 122.761 140.995 122.582 141.035C122.406 141.075 122.191 141.098 121.935 141.104C121.485 141.118 121.079 141.05 120.717 140.901C120.356 140.748 120.069 140.513 119.857 140.195C119.648 139.876 119.546 139.479 119.549 139.001V131.534ZM131.164 141.149C130.418 141.149 129.772 140.985 129.225 140.657C128.678 140.329 128.254 139.87 127.952 139.28C127.654 138.69 127.505 138 127.505 137.212C127.505 136.423 127.654 135.732 127.952 135.138C128.254 134.545 128.678 134.085 129.225 133.756C129.772 133.428 130.418 133.264 131.164 133.264C131.91 133.264 132.556 133.428 133.103 133.756C133.65 134.085 134.072 134.545 134.371 135.138C134.672 135.732 134.823 136.423 134.823 137.212C134.823 138 134.672 138.69 134.371 139.28C134.072 139.87 133.65 140.329 133.103 140.657C132.556 140.985 131.91 141.149 131.164 141.149ZM131.174 139.707C131.578 139.707 131.916 139.596 132.188 139.374C132.46 139.149 132.662 138.847 132.795 138.469C132.93 138.092 132.998 137.671 132.998 137.207C132.998 136.739 132.93 136.317 132.795 135.939C132.662 135.558 132.46 135.254 132.188 135.029C131.916 134.804 131.578 134.691 131.174 134.691C130.76 134.691 130.415 134.804 130.14 135.029C129.868 135.254 129.664 135.558 129.528 135.939C129.396 136.317 129.329 136.739 129.329 137.207C129.329 137.671 129.396 138.092 129.528 138.469C129.664 138.847 129.868 139.149 130.14 139.374C130.415 139.596 130.76 139.707 131.174 139.707ZM140.218 133.364V134.756H135.704V133.364H140.218ZM136.833 141V132.643C136.833 132.129 136.939 131.701 137.151 131.36C137.366 131.019 137.655 130.763 138.016 130.594C138.377 130.425 138.778 130.341 139.219 130.341C139.531 130.341 139.807 130.366 140.049 130.415C140.291 130.465 140.47 130.51 140.586 130.55L140.228 131.942C140.152 131.919 140.056 131.895 139.94 131.872C139.824 131.846 139.695 131.832 139.552 131.832C139.217 131.832 138.98 131.914 138.841 132.076C138.705 132.235 138.637 132.464 138.637 132.762V141H136.833ZM145.18 141V130.818H151.802V132.364H147.025V135.129H151.459V136.675H147.025V139.454H151.842V141H145.18ZM155.404 136.526V141H153.604V133.364H155.325V134.661H155.414C155.59 134.234 155.87 133.894 156.254 133.642C156.642 133.39 157.121 133.264 157.691 133.264C158.218 133.264 158.677 133.377 159.068 133.602C159.463 133.828 159.768 134.154 159.983 134.582C160.202 135.009 160.309 135.528 160.306 136.138V141H158.506V136.416C158.506 135.906 158.374 135.506 158.109 135.218C157.847 134.93 157.484 134.786 157.02 134.786C156.705 134.786 156.425 134.855 156.18 134.994C155.938 135.13 155.747 135.327 155.608 135.586C155.472 135.844 155.404 136.158 155.404 136.526ZM165.457 144.023C164.81 144.023 164.255 143.935 163.791 143.759C163.327 143.587 162.954 143.355 162.673 143.063C162.391 142.772 162.195 142.448 162.086 142.094L163.707 141.701C163.78 141.85 163.886 141.998 164.025 142.143C164.164 142.293 164.351 142.415 164.587 142.511C164.825 142.611 165.125 142.661 165.487 142.661C165.997 142.661 166.42 142.536 166.754 142.288C167.089 142.042 167.256 141.638 167.256 141.075V139.628H167.167C167.074 139.813 166.938 140.004 166.759 140.2C166.584 140.395 166.35 140.559 166.058 140.692C165.77 140.824 165.407 140.891 164.969 140.891C164.383 140.891 163.851 140.753 163.374 140.478C162.9 140.2 162.522 139.785 162.24 139.235C161.962 138.682 161.822 137.989 161.822 137.157C161.822 136.318 161.962 135.611 162.24 135.034C162.522 134.454 162.901 134.015 163.379 133.717C163.856 133.415 164.388 133.264 164.974 133.264C165.422 133.264 165.79 133.34 166.078 133.493C166.37 133.642 166.602 133.823 166.774 134.035C166.946 134.244 167.077 134.441 167.167 134.626H167.266V133.364H169.041V141.124C169.041 141.777 168.885 142.317 168.574 142.745C168.262 143.173 167.836 143.492 167.296 143.705C166.756 143.917 166.143 144.023 165.457 144.023ZM165.472 139.479C165.853 139.479 166.178 139.386 166.446 139.2C166.714 139.015 166.918 138.748 167.058 138.4C167.197 138.052 167.266 137.634 167.266 137.147C167.266 136.666 167.197 136.246 167.058 135.884C166.922 135.523 166.719 135.243 166.451 135.044C166.186 134.842 165.859 134.741 165.472 134.741C165.071 134.741 164.736 134.845 164.467 135.054C164.199 135.263 163.997 135.549 163.861 135.914C163.725 136.275 163.657 136.686 163.657 137.147C163.657 137.614 163.725 138.024 163.861 138.375C164 138.723 164.204 138.995 164.472 139.19C164.744 139.383 165.077 139.479 165.472 139.479ZM172.685 130.818V141H170.886V130.818H172.685ZM174.536 141V133.364H176.336V141H174.536ZM175.441 132.28C175.156 132.28 174.911 132.185 174.705 131.996C174.5 131.804 174.397 131.574 174.397 131.305C174.397 131.034 174.5 130.803 174.705 130.614C174.911 130.422 175.156 130.326 175.441 130.326C175.729 130.326 175.974 130.422 176.177 130.614C176.382 130.803 176.485 131.034 176.485 131.305C176.485 131.574 176.382 131.804 176.177 131.996C175.974 132.185 175.729 132.28 175.441 132.28ZM184.222 135.382L182.581 135.561C182.535 135.395 182.454 135.24 182.338 135.094C182.225 134.948 182.073 134.83 181.88 134.741C181.688 134.651 181.453 134.607 181.174 134.607C180.8 134.607 180.485 134.688 180.23 134.85C179.978 135.013 179.854 135.223 179.857 135.482C179.854 135.704 179.935 135.884 180.1 136.023C180.27 136.163 180.548 136.277 180.936 136.366L182.238 136.645C182.961 136.801 183.498 137.048 183.849 137.386C184.204 137.724 184.383 138.166 184.386 138.713C184.383 139.194 184.242 139.618 183.963 139.986C183.688 140.35 183.306 140.635 182.815 140.841C182.324 141.046 181.761 141.149 181.125 141.149C180.19 141.149 179.438 140.954 178.868 140.562C178.297 140.168 177.958 139.62 177.848 138.917L179.603 138.748C179.683 139.093 179.852 139.353 180.11 139.528C180.369 139.704 180.705 139.792 181.12 139.792C181.547 139.792 181.89 139.704 182.149 139.528C182.411 139.353 182.542 139.136 182.542 138.877C182.542 138.658 182.457 138.478 182.288 138.335C182.122 138.193 181.864 138.083 181.512 138.007L180.21 137.734C179.477 137.581 178.935 137.324 178.584 136.963C178.233 136.598 178.059 136.138 178.062 135.581C178.059 135.11 178.186 134.703 178.445 134.358C178.707 134.01 179.07 133.741 179.534 133.553C180.001 133.36 180.54 133.264 181.15 133.264C182.044 133.264 182.749 133.455 183.262 133.836C183.779 134.217 184.099 134.732 184.222 135.382ZM187.67 136.526V141H185.87V130.818H187.63V134.661H187.719C187.898 134.23 188.175 133.891 188.55 133.642C188.928 133.39 189.408 133.264 189.991 133.264C190.522 133.264 190.984 133.375 191.379 133.597C191.773 133.819 192.078 134.144 192.293 134.572C192.512 134.999 192.621 135.521 192.621 136.138V141H190.822V136.416C190.822 135.902 190.689 135.503 190.424 135.218C190.162 134.93 189.794 134.786 189.32 134.786C189.002 134.786 188.717 134.855 188.465 134.994C188.217 135.13 188.021 135.327 187.879 135.586C187.739 135.844 187.67 136.158 187.67 136.526ZM200.126 141.154C199.642 141.154 199.206 141.068 198.819 140.896C198.434 140.72 198.129 140.461 197.904 140.12C197.682 139.779 197.571 139.358 197.571 138.857C197.571 138.426 197.65 138.07 197.809 137.788C197.968 137.507 198.185 137.281 198.461 137.112C198.736 136.943 199.046 136.816 199.39 136.729C199.738 136.64 200.098 136.575 200.469 136.536C200.917 136.489 201.279 136.448 201.558 136.411C201.836 136.371 202.038 136.312 202.164 136.232C202.294 136.149 202.358 136.022 202.358 135.849V135.82C202.358 135.445 202.247 135.155 202.025 134.95C201.803 134.744 201.483 134.641 201.066 134.641C200.625 134.641 200.275 134.737 200.017 134.93C199.761 135.122 199.589 135.349 199.5 135.611L197.819 135.372C197.952 134.908 198.171 134.52 198.475 134.209C198.78 133.894 199.153 133.659 199.594 133.503C200.035 133.344 200.522 133.264 201.056 133.264C201.424 133.264 201.79 133.307 202.154 133.393C202.519 133.48 202.852 133.622 203.154 133.821C203.455 134.017 203.697 134.283 203.88 134.621C204.065 134.96 204.158 135.382 204.158 135.889V141H202.428V139.951H202.368C202.259 140.163 202.105 140.362 201.906 140.548C201.71 140.73 201.463 140.877 201.165 140.99C200.87 141.099 200.524 141.154 200.126 141.154ZM200.593 139.832C200.955 139.832 201.268 139.76 201.533 139.618C201.798 139.472 202.002 139.28 202.145 139.041C202.29 138.803 202.363 138.542 202.363 138.261V137.361C202.307 137.407 202.211 137.45 202.075 137.49C201.942 137.53 201.793 137.565 201.627 137.594C201.462 137.624 201.298 137.651 201.135 137.674C200.973 137.697 200.832 137.717 200.713 137.734C200.444 137.77 200.204 137.83 199.992 137.913C199.78 137.996 199.612 138.112 199.49 138.261C199.367 138.406 199.306 138.595 199.306 138.827C199.306 139.159 199.427 139.409 199.669 139.578C199.911 139.747 200.219 139.832 200.593 139.832ZM212.003 135.382L210.363 135.561C210.316 135.395 210.235 135.24 210.119 135.094C210.006 134.948 209.854 134.83 209.662 134.741C209.469 134.651 209.234 134.607 208.956 134.607C208.581 134.607 208.266 134.688 208.011 134.85C207.759 135.013 207.635 135.223 207.638 135.482C207.635 135.704 207.716 135.884 207.882 136.023C208.051 136.163 208.329 136.277 208.717 136.366L210.02 136.645C210.742 136.801 211.279 137.048 211.63 137.386C211.985 137.724 212.164 138.166 212.167 138.713C212.164 139.194 212.023 139.618 211.745 139.986C211.47 140.35 211.087 140.635 210.596 140.841C210.106 141.046 209.542 141.149 208.906 141.149C207.971 141.149 207.219 140.954 206.649 140.562C206.079 140.168 205.739 139.62 205.63 138.917L207.385 138.748C207.464 139.093 207.633 139.353 207.892 139.528C208.15 139.704 208.487 139.792 208.901 139.792C209.328 139.792 209.672 139.704 209.93 139.528C210.192 139.353 210.323 139.136 210.323 138.877C210.323 138.658 210.238 138.478 210.069 138.335C209.904 138.193 209.645 138.083 209.294 138.007L207.991 137.734C207.259 137.581 206.717 137.324 206.365 136.963C206.014 136.598 205.84 136.138 205.843 135.581C205.84 135.11 205.968 134.703 206.226 134.358C206.488 134.01 206.851 133.741 207.315 133.553C207.782 133.36 208.321 133.264 208.931 133.264C209.826 133.264 210.53 133.455 211.044 133.836C211.561 134.217 211.881 134.732 212.003 135.382ZM219.321 141.154C218.837 141.154 218.402 141.068 218.014 140.896C217.629 140.72 217.324 140.461 217.099 140.12C216.877 139.779 216.766 139.358 216.766 138.857C216.766 138.426 216.846 138.07 217.005 137.788C217.164 137.507 217.381 137.281 217.656 137.112C217.931 136.943 218.241 136.816 218.586 136.729C218.934 136.64 219.293 136.575 219.664 136.536C220.112 136.489 220.475 136.448 220.753 136.411C221.032 136.371 221.234 136.312 221.36 136.232C221.489 136.149 221.554 136.022 221.554 135.849V135.82C221.554 135.445 221.443 135.155 221.221 134.95C220.998 134.744 220.679 134.641 220.261 134.641C219.82 134.641 219.471 134.737 219.212 134.93C218.957 135.122 218.784 135.349 218.695 135.611L217.015 135.372C217.147 134.908 217.366 134.52 217.671 134.209C217.976 133.894 218.349 133.659 218.789 133.503C219.23 133.344 219.717 133.264 220.251 133.264C220.619 133.264 220.985 133.307 221.35 133.393C221.714 133.48 222.047 133.622 222.349 133.821C222.651 134.017 222.893 134.283 223.075 134.621C223.261 134.96 223.353 135.382 223.353 135.889V141H221.623V139.951H221.564C221.454 140.163 221.3 140.362 221.101 140.548C220.906 140.73 220.659 140.877 220.36 140.99C220.065 141.099 219.719 141.154 219.321 141.154ZM219.789 139.832C220.15 139.832 220.463 139.76 220.728 139.618C220.993 139.472 221.197 139.28 221.34 139.041C221.486 138.803 221.559 138.542 221.559 138.261V137.361C221.502 137.407 221.406 137.45 221.27 137.49C221.138 137.53 220.989 137.565 220.823 137.594C220.657 137.624 220.493 137.651 220.331 137.674C220.168 137.697 220.027 137.717 219.908 137.734C219.64 137.77 219.399 137.83 219.187 137.913C218.975 137.996 218.808 138.112 218.685 138.261C218.562 138.406 218.501 138.595 218.501 138.827C218.501 139.159 218.622 139.409 218.864 139.578C219.106 139.747 219.414 139.832 219.789 139.832ZM228.715 141V130.818H235.238V132.364H230.56V135.129H234.79V136.675H230.56V141H228.715ZM239.609 141.149C238.863 141.149 238.217 140.985 237.67 140.657C237.123 140.329 236.699 139.87 236.398 139.28C236.099 138.69 235.95 138 235.95 137.212C235.95 136.423 236.099 135.732 236.398 135.138C236.699 134.545 237.123 134.085 237.67 133.756C238.217 133.428 238.863 133.264 239.609 133.264C240.355 133.264 241.001 133.428 241.548 133.756C242.095 134.085 242.518 134.545 242.816 135.138C243.117 135.732 243.268 136.423 243.268 137.212C243.268 138 243.117 138.69 242.816 139.28C242.518 139.87 242.095 140.329 241.548 140.657C241.001 140.985 240.355 141.149 239.609 141.149ZM239.619 139.707C240.023 139.707 240.362 139.596 240.633 139.374C240.905 139.149 241.107 138.847 241.24 138.469C241.376 138.092 241.444 137.671 241.444 137.207C241.444 136.739 241.376 136.317 241.24 135.939C241.107 135.558 240.905 135.254 240.633 135.029C240.362 134.804 240.023 134.691 239.619 134.691C239.205 134.691 238.86 134.804 238.585 135.029C238.313 135.254 238.109 135.558 237.974 135.939C237.841 136.317 237.775 136.739 237.775 137.207C237.775 137.671 237.841 138.092 237.974 138.469C238.109 138.847 238.313 139.149 238.585 139.374C238.86 139.596 239.205 139.707 239.619 139.707ZM244.796 141V133.364H246.541V134.636H246.62C246.76 134.196 246.998 133.856 247.336 133.617C247.678 133.375 248.067 133.254 248.505 133.254C248.604 133.254 248.715 133.259 248.838 133.269C248.964 133.276 249.068 133.287 249.151 133.304V134.96C249.075 134.933 248.954 134.91 248.788 134.89C248.626 134.867 248.468 134.855 248.316 134.855C247.988 134.855 247.693 134.926 247.431 135.069C247.172 135.208 246.968 135.402 246.819 135.651C246.67 135.899 246.596 136.186 246.596 136.511V141H244.796ZM253.413 141.149C252.647 141.149 251.986 140.99 251.429 140.672C250.876 140.35 250.45 139.896 250.151 139.31C249.853 138.72 249.704 138.025 249.704 137.227C249.704 136.441 249.853 135.752 250.151 135.158C250.453 134.562 250.874 134.098 251.414 133.766C251.954 133.432 252.589 133.264 253.318 133.264C253.789 133.264 254.233 133.34 254.651 133.493C255.072 133.642 255.443 133.874 255.764 134.189C256.089 134.504 256.344 134.905 256.53 135.392C256.716 135.876 256.808 136.453 256.808 137.122V137.674H250.549V136.461H255.083C255.08 136.116 255.005 135.81 254.86 135.541C254.714 135.269 254.51 135.056 254.248 134.9C253.99 134.744 253.688 134.666 253.343 134.666C252.975 134.666 252.652 134.756 252.374 134.935C252.095 135.11 251.878 135.342 251.722 135.631C251.57 135.916 251.492 136.229 251.489 136.57V137.629C251.489 138.073 251.57 138.455 251.732 138.773C251.895 139.088 252.122 139.33 252.414 139.499C252.705 139.664 253.047 139.747 253.438 139.747C253.7 139.747 253.936 139.711 254.149 139.638C254.361 139.562 254.545 139.451 254.7 139.305C254.856 139.159 254.974 138.978 255.053 138.763L256.734 138.952C256.628 139.396 256.426 139.784 256.127 140.115C255.832 140.443 255.454 140.698 254.994 140.881C254.533 141.06 254.006 141.149 253.413 141.149ZM258.331 141V133.364H260.131V141H258.331ZM259.236 132.28C258.951 132.28 258.705 132.185 258.5 131.996C258.295 131.804 258.192 131.574 258.192 131.305C258.192 131.034 258.295 130.803 258.5 130.614C258.705 130.422 258.951 130.326 259.236 130.326C259.524 130.326 259.769 130.422 259.972 130.614C260.177 130.803 260.28 131.034 260.28 131.305C260.28 131.574 260.177 131.804 259.972 131.996C259.769 132.185 259.524 132.28 259.236 132.28ZM265.302 144.023C264.656 144.023 264.101 143.935 263.637 143.759C263.173 143.587 262.8 143.355 262.518 143.063C262.237 142.772 262.041 142.448 261.932 142.094L263.552 141.701C263.625 141.85 263.731 141.998 263.871 142.143C264.01 142.293 264.197 142.415 264.432 142.511C264.671 142.611 264.971 142.661 265.332 142.661C265.843 142.661 266.265 142.536 266.6 142.288C266.935 142.042 267.102 141.638 267.102 141.075V139.628H267.013C266.92 139.813 266.784 140.004 266.605 140.2C266.429 140.395 266.196 140.559 265.904 140.692C265.616 140.824 265.253 140.891 264.815 140.891C264.229 140.891 263.697 140.753 263.219 140.478C262.745 140.2 262.367 139.785 262.086 139.235C261.807 138.682 261.668 137.989 261.668 137.157C261.668 136.318 261.807 135.611 262.086 135.034C262.367 134.454 262.747 134.015 263.224 133.717C263.702 133.415 264.233 133.264 264.82 133.264C265.268 133.264 265.635 133.34 265.924 133.493C266.215 133.642 266.448 133.823 266.62 134.035C266.792 134.244 266.923 134.441 267.013 134.626H267.112V133.364H268.887V141.124C268.887 141.777 268.731 142.317 268.42 142.745C268.108 143.173 267.682 143.492 267.142 143.705C266.602 143.917 265.988 144.023 265.302 144.023ZM265.317 139.479C265.698 139.479 266.023 139.386 266.292 139.2C266.56 139.015 266.764 138.748 266.903 138.4C267.042 138.052 267.112 137.634 267.112 137.147C267.112 136.666 267.042 136.246 266.903 135.884C266.767 135.523 266.565 135.243 266.297 135.044C266.032 134.842 265.705 134.741 265.317 134.741C264.916 134.741 264.581 134.845 264.313 135.054C264.045 135.263 263.842 135.549 263.706 135.914C263.571 136.275 263.503 136.686 263.503 137.147C263.503 137.614 263.571 138.024 263.706 138.375C263.846 138.723 264.05 138.995 264.318 139.19C264.59 139.383 264.923 139.479 265.317 139.479ZM272.531 136.526V141H270.731V133.364H272.452V134.661H272.541C272.717 134.234 272.997 133.894 273.381 133.642C273.769 133.39 274.248 133.264 274.818 133.264C275.345 133.264 275.804 133.377 276.195 133.602C276.59 133.828 276.894 134.154 277.11 134.582C277.329 135.009 277.436 135.528 277.433 136.138V141H275.633V136.416C275.633 135.906 275.501 135.506 275.236 135.218C274.974 134.93 274.611 134.786 274.147 134.786C273.832 134.786 273.552 134.855 273.307 134.994C273.065 135.13 272.874 135.327 272.735 135.586C272.599 135.844 272.531 136.158 272.531 136.526ZM282.815 141V130.818H284.659V139.454H289.144V141H282.815ZM292.862 141.154C292.378 141.154 291.943 141.068 291.555 140.896C291.17 140.72 290.865 140.461 290.64 140.12C290.418 139.779 290.307 139.358 290.307 138.857C290.307 138.426 290.387 138.07 290.546 137.788C290.705 137.507 290.922 137.281 291.197 137.112C291.472 136.943 291.782 136.816 292.127 136.729C292.475 136.64 292.834 136.575 293.205 136.536C293.653 136.489 294.016 136.448 294.294 136.411C294.573 136.371 294.775 136.312 294.901 136.232C295.03 136.149 295.095 136.022 295.095 135.849V135.82C295.095 135.445 294.984 135.155 294.762 134.95C294.539 134.744 294.22 134.641 293.802 134.641C293.361 134.641 293.012 134.737 292.753 134.93C292.498 135.122 292.325 135.349 292.236 135.611L290.556 135.372C290.688 134.908 290.907 134.52 291.212 134.209C291.517 133.894 291.89 133.659 292.33 133.503C292.771 133.344 293.258 133.264 293.792 133.264C294.16 133.264 294.526 133.307 294.891 133.393C295.255 133.48 295.588 133.622 295.89 133.821C296.192 134.017 296.434 134.283 296.616 134.621C296.802 134.96 296.894 135.382 296.894 135.889V141H295.164V139.951H295.105C294.995 140.163 294.841 140.362 294.642 140.548C294.447 140.73 294.2 140.877 293.901 140.99C293.606 141.099 293.26 141.154 292.862 141.154ZM293.33 139.832C293.691 139.832 294.004 139.76 294.269 139.618C294.535 139.472 294.738 139.28 294.881 139.041C295.027 138.803 295.1 138.542 295.1 138.261V137.361C295.043 137.407 294.947 137.45 294.811 137.49C294.679 137.53 294.53 137.565 294.364 137.594C294.198 137.624 294.034 137.651 293.872 137.674C293.709 137.697 293.568 137.717 293.449 137.734C293.181 137.77 292.94 137.83 292.728 137.913C292.516 137.996 292.349 138.112 292.226 138.261C292.103 138.406 292.042 138.595 292.042 138.827C292.042 139.159 292.163 139.409 292.405 139.578C292.647 139.747 292.955 139.832 293.33 139.832ZM300.504 136.526V141H298.704V133.364H300.424V134.661H300.514C300.689 134.234 300.969 133.894 301.354 133.642C301.742 133.39 302.221 133.264 302.791 133.264C303.318 133.264 303.777 133.377 304.168 133.602C304.562 133.828 304.867 134.154 305.083 134.582C305.301 135.009 305.409 135.528 305.406 136.138V141H303.606V136.416C303.606 135.906 303.473 135.506 303.208 135.218C302.946 134.93 302.584 134.786 302.119 134.786C301.805 134.786 301.525 134.855 301.279 134.994C301.037 135.13 300.847 135.327 300.708 135.586C300.572 135.844 300.504 136.158 300.504 136.526ZM310.556 144.023C309.91 144.023 309.355 143.935 308.891 143.759C308.427 143.587 308.054 143.355 307.772 143.063C307.49 142.772 307.295 142.448 307.186 142.094L308.806 141.701C308.879 141.85 308.985 141.998 309.124 142.143C309.264 142.293 309.451 142.415 309.686 142.511C309.925 142.611 310.225 142.661 310.586 142.661C311.097 142.661 311.519 142.536 311.854 142.288C312.189 142.042 312.356 141.638 312.356 141.075V139.628H312.267C312.174 139.813 312.038 140.004 311.859 140.2C311.683 140.395 311.45 140.559 311.158 140.692C310.869 140.824 310.507 140.891 310.069 140.891C309.482 140.891 308.95 140.753 308.473 140.478C307.999 140.2 307.621 139.785 307.34 139.235C307.061 138.682 306.922 137.989 306.922 137.157C306.922 136.318 307.061 135.611 307.34 135.034C307.621 134.454 308.001 134.015 308.478 133.717C308.955 133.415 309.487 133.264 310.074 133.264C310.521 133.264 310.889 133.34 311.178 133.493C311.469 133.642 311.701 133.823 311.874 134.035C312.046 134.244 312.177 134.441 312.267 134.626H312.366V133.364H314.141V141.124C314.141 141.777 313.985 142.317 313.673 142.745C313.362 143.173 312.936 143.492 312.396 143.705C311.856 143.917 311.242 144.023 310.556 144.023ZM310.571 139.479C310.952 139.479 311.277 139.386 311.546 139.2C311.814 139.015 312.018 138.748 312.157 138.4C312.296 138.052 312.366 137.634 312.366 137.147C312.366 136.666 312.296 136.246 312.157 135.884C312.021 135.523 311.819 135.243 311.551 135.044C311.285 134.842 310.959 134.741 310.571 134.741C310.17 134.741 309.835 134.845 309.567 135.054C309.298 135.263 309.096 135.549 308.96 135.914C308.825 136.275 308.757 136.686 308.757 137.147C308.757 137.614 308.825 138.024 308.96 138.375C309.1 138.723 309.303 138.995 309.572 139.19C309.844 139.383 310.177 139.479 310.571 139.479ZM320.852 137.788V133.364H322.652V141H320.907V139.643H320.828C320.655 140.07 320.372 140.42 319.977 140.692C319.586 140.964 319.104 141.099 318.531 141.099C318.03 141.099 317.588 140.988 317.203 140.766C316.822 140.541 316.524 140.214 316.308 139.787C316.093 139.356 315.985 138.836 315.985 138.226V133.364H317.785V137.947C317.785 138.431 317.918 138.816 318.183 139.101C318.448 139.386 318.796 139.528 319.227 139.528C319.492 139.528 319.749 139.464 319.997 139.335C320.246 139.205 320.45 139.013 320.609 138.758C320.771 138.499 320.852 138.176 320.852 137.788ZM326.7 141.154C326.216 141.154 325.781 141.068 325.393 140.896C325.008 140.72 324.703 140.461 324.478 140.12C324.256 139.779 324.145 139.358 324.145 138.857C324.145 138.426 324.224 138.07 324.384 137.788C324.543 137.507 324.76 137.281 325.035 137.112C325.31 136.943 325.62 136.816 325.964 136.729C326.313 136.64 326.672 136.575 327.043 136.536C327.491 136.489 327.854 136.448 328.132 136.411C328.411 136.371 328.613 136.312 328.739 136.232C328.868 136.149 328.933 136.022 328.933 135.849V135.82C328.933 135.445 328.821 135.155 328.599 134.95C328.377 134.744 328.058 134.641 327.64 134.641C327.199 134.641 326.849 134.737 326.591 134.93C326.336 135.122 326.163 135.349 326.074 135.611L324.393 135.372C324.526 134.908 324.745 134.52 325.05 134.209C325.355 133.894 325.728 133.659 326.168 133.503C326.609 133.344 327.096 133.264 327.63 133.264C327.998 133.264 328.364 133.307 328.729 133.393C329.093 133.48 329.426 133.622 329.728 133.821C330.03 134.017 330.272 134.283 330.454 134.621C330.639 134.96 330.732 135.382 330.732 135.889V141H329.002V139.951H328.942C328.833 140.163 328.679 140.362 328.48 140.548C328.285 140.73 328.038 140.877 327.739 140.99C327.444 141.099 327.098 141.154 326.7 141.154ZM327.168 139.832C327.529 139.832 327.842 139.76 328.107 139.618C328.372 139.472 328.576 139.28 328.719 139.041C328.865 138.803 328.938 138.542 328.938 138.261V137.361C328.881 137.407 328.785 137.45 328.649 137.49C328.517 137.53 328.367 137.565 328.202 137.594C328.036 137.624 327.872 137.651 327.71 137.674C327.547 137.697 327.406 137.717 327.287 137.734C327.018 137.77 326.778 137.83 326.566 137.913C326.354 137.996 326.187 138.112 326.064 138.261C325.941 138.406 325.88 138.595 325.88 138.827C325.88 139.159 326.001 139.409 326.243 139.578C326.485 139.747 326.793 139.832 327.168 139.832ZM335.863 144.023C335.217 144.023 334.661 143.935 334.197 143.759C333.733 143.587 333.361 143.355 333.079 143.063C332.797 142.772 332.602 142.448 332.492 142.094L334.113 141.701C334.186 141.85 334.292 141.998 334.431 142.143C334.57 142.293 334.758 142.415 334.993 142.511C335.232 142.611 335.531 142.661 335.893 142.661C336.403 142.661 336.826 142.536 337.161 142.288C337.495 142.042 337.663 141.638 337.663 141.075V139.628H337.573C337.48 139.813 337.344 140.004 337.165 140.2C336.99 140.395 336.756 140.559 336.464 140.692C336.176 140.824 335.813 140.891 335.376 140.891C334.789 140.891 334.257 140.753 333.78 140.478C333.306 140.2 332.928 139.785 332.646 139.235C332.368 138.682 332.229 137.989 332.229 137.157C332.229 136.318 332.368 135.611 332.646 135.034C332.928 134.454 333.308 134.015 333.785 133.717C334.262 133.415 334.794 133.264 335.381 133.264C335.828 133.264 336.196 133.34 336.484 133.493C336.776 133.642 337.008 133.823 337.18 134.035C337.353 134.244 337.484 134.441 337.573 134.626H337.673V133.364H339.447V141.124C339.447 141.777 339.292 142.317 338.98 142.745C338.669 143.173 338.243 143.492 337.702 143.705C337.162 143.917 336.549 144.023 335.863 144.023ZM335.878 139.479C336.259 139.479 336.584 139.386 336.852 139.2C337.121 139.015 337.325 138.748 337.464 138.4C337.603 138.052 337.673 137.634 337.673 137.147C337.673 136.666 337.603 136.246 337.464 135.884C337.328 135.523 337.126 135.243 336.857 135.044C336.592 134.842 336.266 134.741 335.878 134.741C335.477 134.741 335.142 134.845 334.874 135.054C334.605 135.263 334.403 135.549 334.267 135.914C334.131 136.275 334.063 136.686 334.063 137.147C334.063 137.614 334.131 138.024 334.267 138.375C334.406 138.723 334.61 138.995 334.879 139.19C335.15 139.383 335.483 139.479 335.878 139.479ZM344.673 141.149C343.907 141.149 343.246 140.99 342.689 140.672C342.135 140.35 341.71 139.896 341.411 139.31C341.113 138.72 340.964 138.025 340.964 137.227C340.964 136.441 341.113 135.752 341.411 135.158C341.713 134.562 342.134 134.098 342.674 133.766C343.214 133.432 343.849 133.264 344.578 133.264C345.049 133.264 345.493 133.34 345.911 133.493C346.331 133.642 346.703 133.874 347.024 134.189C347.349 134.504 347.604 134.905 347.79 135.392C347.975 135.876 348.068 136.453 348.068 137.122V137.674H341.809V136.461H346.343C346.34 136.116 346.265 135.81 346.119 135.541C345.973 135.269 345.77 135.056 345.508 134.9C345.249 134.744 344.948 134.666 344.603 134.666C344.235 134.666 343.912 134.756 343.634 134.935C343.355 135.11 343.138 135.342 342.982 135.631C342.83 135.916 342.752 136.229 342.749 136.57V137.629C342.749 138.073 342.83 138.455 342.992 138.773C343.155 139.088 343.382 139.33 343.673 139.499C343.965 139.664 344.306 139.747 344.697 139.747C344.959 139.747 345.196 139.711 345.408 139.638C345.621 139.562 345.804 139.451 345.96 139.305C346.116 139.159 346.234 138.978 346.313 138.763L347.994 138.952C347.888 139.396 347.685 139.784 347.387 140.115C347.092 140.443 346.714 140.698 346.254 140.881C345.793 141.06 345.266 141.149 344.673 141.149Z" fill="white"/>
<path d="M100.226 165.909V179H98.2443V167.891H98.1676L95.0355 169.936V168.044L98.3018 165.909H100.226ZM110.553 179L106.922 165.909H109L111.55 176.047H111.672L114.324 165.909H116.382L119.035 176.053H119.157L121.701 165.909H123.784L120.147 179H118.159L115.404 169.195H115.302L112.547 179H110.553ZM128.337 179.198C127.369 179.198 126.536 178.991 125.837 178.578C125.143 178.161 124.606 177.575 124.227 176.82C123.852 176.062 123.664 175.173 123.664 174.155C123.664 173.149 123.852 172.263 124.227 171.496C124.606 170.729 125.134 170.13 125.812 169.7C126.494 169.269 127.291 169.054 128.202 169.054C128.756 169.054 129.293 169.146 129.813 169.329C130.333 169.512 130.8 169.8 131.213 170.192C131.626 170.584 131.952 171.093 132.191 171.719C132.43 172.342 132.549 173.098 132.549 173.989V174.666H124.744V173.234H130.676C130.676 172.732 130.574 172.286 130.369 171.898C130.165 171.506 129.877 171.197 129.506 170.972C129.14 170.746 128.71 170.633 128.215 170.633C127.678 170.633 127.21 170.765 126.809 171.029C126.413 171.289 126.106 171.63 125.889 172.052C125.676 172.469 125.569 172.923 125.569 173.413V174.532C125.569 175.188 125.684 175.746 125.914 176.207C126.149 176.667 126.475 177.018 126.892 177.261C127.31 177.5 127.798 177.619 128.356 177.619C128.718 177.619 129.048 177.568 129.347 177.466C129.645 177.359 129.903 177.202 130.12 176.993C130.337 176.784 130.504 176.526 130.619 176.219L132.428 176.545C132.283 177.078 132.023 177.545 131.648 177.945C131.277 178.342 130.81 178.651 130.248 178.872C129.69 179.089 129.053 179.198 128.337 179.198ZM138.541 179.198C137.574 179.198 136.741 178.991 136.042 178.578C135.347 178.161 134.81 177.575 134.431 176.82C134.056 176.062 133.869 175.173 133.869 174.155C133.869 173.149 134.056 172.263 134.431 171.496C134.81 170.729 135.339 170.13 136.016 169.7C136.698 169.269 137.495 169.054 138.407 169.054C138.961 169.054 139.498 169.146 140.018 169.329C140.538 169.512 141.004 169.8 141.418 170.192C141.831 170.584 142.157 171.093 142.396 171.719C142.634 172.342 142.754 173.098 142.754 173.989V174.666H134.949V173.234H140.881C140.881 172.732 140.778 172.286 140.574 171.898C140.369 171.506 140.082 171.197 139.711 170.972C139.344 170.746 138.914 170.633 138.42 170.633C137.883 170.633 137.414 170.765 137.013 171.029C136.617 171.289 136.31 171.63 136.093 172.052C135.88 172.469 135.773 172.923 135.773 173.413V174.532C135.773 175.188 135.888 175.746 136.119 176.207C136.353 176.667 136.679 177.018 137.097 177.261C137.514 177.5 138.002 177.619 138.56 177.619C138.923 177.619 139.253 177.568 139.551 177.466C139.849 177.359 140.107 177.202 140.325 176.993C140.542 176.784 140.708 176.526 140.823 176.219L142.632 176.545C142.487 177.078 142.227 177.545 141.852 177.945C141.482 178.342 141.015 178.651 140.452 178.872C139.894 179.089 139.257 179.198 138.541 179.198ZM146.272 175.67L146.259 173.337H146.592L150.503 169.182H152.792L148.33 173.912H148.03L146.272 175.67ZM144.514 179V165.909H146.425V179H144.514ZM150.714 179L147.199 174.334L148.516 172.998L153.06 179H150.714ZM158.085 167.609V165.909H168.217V167.609H164.132V179H162.163V167.609H158.085ZM168.922 179V169.182H170.77V170.741H170.872C171.051 170.213 171.366 169.798 171.818 169.495C172.274 169.188 172.79 169.035 173.365 169.035C173.484 169.035 173.625 169.039 173.787 169.048C173.953 169.056 174.083 169.067 174.177 169.08V170.908C174.1 170.886 173.964 170.863 173.768 170.837C173.572 170.808 173.376 170.793 173.179 170.793C172.728 170.793 172.325 170.888 171.971 171.08C171.622 171.268 171.345 171.53 171.14 171.866C170.936 172.199 170.834 172.578 170.834 173.004V179H168.922ZM175.471 179V169.182H177.382V179H175.471ZM176.436 167.667C176.103 167.667 175.818 167.556 175.579 167.335C175.345 167.109 175.228 166.84 175.228 166.529C175.228 166.214 175.345 165.945 175.579 165.724C175.818 165.498 176.103 165.385 176.436 165.385C176.768 165.385 177.052 165.498 177.286 165.724C177.525 165.945 177.644 166.214 177.644 166.529C177.644 166.84 177.525 167.109 177.286 167.335C177.052 167.556 176.768 167.667 176.436 167.667ZM182.45 179.217C181.828 179.217 181.266 179.102 180.763 178.872C180.26 178.638 179.861 178.299 179.567 177.856C179.278 177.413 179.133 176.869 179.133 176.226C179.133 175.672 179.239 175.216 179.452 174.858C179.665 174.5 179.953 174.217 180.315 174.008C180.678 173.799 181.082 173.641 181.53 173.535C181.977 173.428 182.433 173.347 182.898 173.292C183.486 173.224 183.963 173.168 184.33 173.126C184.696 173.079 184.962 173.004 185.129 172.902C185.295 172.8 185.378 172.634 185.378 172.403V172.359C185.378 171.8 185.22 171.368 184.905 171.061C184.594 170.754 184.129 170.601 183.511 170.601C182.868 170.601 182.361 170.744 181.99 171.029C181.624 171.31 181.37 171.624 181.229 171.969L179.433 171.56C179.646 170.963 179.957 170.482 180.366 170.115C180.78 169.744 181.255 169.476 181.792 169.31C182.329 169.139 182.893 169.054 183.486 169.054C183.878 169.054 184.293 169.101 184.732 169.195C185.175 169.284 185.589 169.45 185.972 169.693C186.36 169.936 186.678 170.283 186.925 170.735C187.172 171.183 187.295 171.764 187.295 172.48V179H185.429V177.658H185.352C185.229 177.905 185.043 178.148 184.796 178.386C184.549 178.625 184.232 178.823 183.844 178.981C183.456 179.138 182.991 179.217 182.45 179.217ZM182.866 177.683C183.394 177.683 183.846 177.579 184.221 177.37C184.6 177.161 184.888 176.888 185.084 176.552C185.284 176.211 185.384 175.847 185.384 175.459V174.193C185.316 174.261 185.184 174.325 184.988 174.385C184.796 174.44 184.577 174.489 184.33 174.532C184.082 174.57 183.842 174.607 183.607 174.641C183.373 174.67 183.177 174.696 183.019 174.717C182.648 174.764 182.31 174.843 182.003 174.954C181.7 175.065 181.457 175.224 181.274 175.433C181.095 175.638 181.006 175.911 181.006 176.251C181.006 176.724 181.18 177.082 181.53 177.325C181.879 177.564 182.325 177.683 182.866 177.683ZM191.392 165.909V179H189.481V165.909H191.392ZM209.033 170.166H207.039C206.962 169.74 206.82 169.365 206.611 169.041C206.402 168.717 206.146 168.442 205.844 168.217C205.541 167.991 205.202 167.82 204.827 167.705C204.457 167.59 204.063 167.533 203.645 167.533C202.891 167.533 202.215 167.722 201.619 168.102C201.026 168.481 200.558 169.037 200.212 169.77C199.871 170.503 199.701 171.398 199.701 172.455C199.701 173.52 199.871 174.419 200.212 175.152C200.558 175.885 201.028 176.439 201.625 176.814C202.222 177.189 202.893 177.376 203.639 177.376C204.052 177.376 204.444 177.321 204.815 177.21C205.19 177.095 205.528 176.927 205.831 176.705C206.134 176.484 206.389 176.213 206.598 175.893C206.811 175.57 206.958 175.199 207.039 174.781L209.033 174.788C208.927 175.431 208.72 176.023 208.413 176.565C208.111 177.102 207.721 177.566 207.244 177.958C206.771 178.346 206.229 178.646 205.62 178.859C205.011 179.072 204.346 179.179 203.626 179.179C202.492 179.179 201.482 178.911 200.596 178.374C199.71 177.832 199.011 177.059 198.499 176.053C197.992 175.048 197.739 173.848 197.739 172.455C197.739 171.057 197.994 169.857 198.506 168.856C199.017 167.85 199.716 167.079 200.602 166.542C201.489 166.001 202.496 165.73 203.626 165.73C204.32 165.73 204.968 165.83 205.569 166.031C206.174 166.227 206.717 166.516 207.199 166.9C207.68 167.279 208.079 167.744 208.394 168.293C208.71 168.839 208.923 169.463 209.033 170.166ZM212.795 165.909V179H210.883V165.909H212.795ZM217.863 179.217C217.241 179.217 216.678 179.102 216.176 178.872C215.673 178.638 215.274 178.299 214.98 177.856C214.691 177.413 214.546 176.869 214.546 176.226C214.546 175.672 214.652 175.216 214.865 174.858C215.078 174.5 215.366 174.217 215.728 174.008C216.09 173.799 216.495 173.641 216.943 173.535C217.39 173.428 217.846 173.347 218.311 173.292C218.899 173.224 219.376 173.168 219.742 173.126C220.109 173.079 220.375 173.004 220.541 172.902C220.708 172.8 220.791 172.634 220.791 172.403V172.359C220.791 171.8 220.633 171.368 220.318 171.061C220.007 170.754 219.542 170.601 218.924 170.601C218.281 170.601 217.774 170.744 217.403 171.029C217.036 171.31 216.783 171.624 216.642 171.969L214.846 171.56C215.059 170.963 215.37 170.482 215.779 170.115C216.193 169.744 216.668 169.476 217.205 169.31C217.742 169.139 218.306 169.054 218.899 169.054C219.291 169.054 219.706 169.101 220.145 169.195C220.588 169.284 221.002 169.45 221.385 169.693C221.773 169.936 222.09 170.283 222.338 170.735C222.585 171.183 222.708 171.764 222.708 172.48V179H220.842V177.658H220.765C220.642 177.905 220.456 178.148 220.209 178.386C219.962 178.625 219.644 178.823 219.257 178.981C218.869 179.138 218.404 179.217 217.863 179.217ZM218.279 177.683C218.807 177.683 219.259 177.579 219.634 177.37C220.013 177.161 220.301 176.888 220.497 176.552C220.697 176.211 220.797 175.847 220.797 175.459V174.193C220.729 174.261 220.597 174.325 220.401 174.385C220.209 174.44 219.99 174.489 219.742 174.532C219.495 174.57 219.254 174.607 219.02 174.641C218.786 174.67 218.59 174.696 218.432 174.717C218.061 174.764 217.723 174.843 217.416 174.954C217.113 175.065 216.87 175.224 216.687 175.433C216.508 175.638 216.419 175.911 216.419 176.251C216.419 176.724 216.593 177.082 216.943 177.325C217.292 177.564 217.737 177.683 218.279 177.683ZM232.251 171.579L230.519 171.886C230.447 171.664 230.331 171.453 230.174 171.253C230.02 171.053 229.812 170.888 229.547 170.761C229.283 170.633 228.953 170.569 228.557 170.569C228.015 170.569 227.564 170.69 227.201 170.933C226.839 171.172 226.658 171.481 226.658 171.86C226.658 172.188 226.78 172.452 227.022 172.653C227.265 172.853 227.657 173.017 228.199 173.145L229.758 173.503C230.662 173.712 231.335 174.033 231.778 174.468C232.221 174.903 232.443 175.467 232.443 176.162C232.443 176.75 232.272 177.274 231.932 177.734C231.595 178.19 231.124 178.548 230.519 178.808C229.918 179.068 229.221 179.198 228.429 179.198C227.329 179.198 226.432 178.964 225.738 178.495C225.043 178.022 224.617 177.351 224.459 176.482L226.307 176.2C226.422 176.682 226.658 177.046 227.016 177.293C227.374 177.536 227.841 177.658 228.416 177.658C229.042 177.658 229.543 177.528 229.918 177.268C230.293 177.004 230.481 176.682 230.481 176.303C230.481 175.996 230.366 175.738 230.135 175.529C229.91 175.32 229.562 175.163 229.094 175.056L227.432 174.692C226.515 174.483 225.838 174.151 225.399 173.695C224.964 173.239 224.747 172.661 224.747 171.962C224.747 171.383 224.909 170.876 225.233 170.441C225.557 170.006 226.004 169.668 226.575 169.425C227.146 169.178 227.8 169.054 228.537 169.054C229.598 169.054 230.434 169.284 231.043 169.744C231.652 170.2 232.055 170.812 232.251 171.579ZM241.542 171.579L239.809 171.886C239.737 171.664 239.622 171.453 239.464 171.253C239.311 171.053 239.102 170.888 238.838 170.761C238.574 170.633 238.243 170.569 237.847 170.569C237.306 170.569 236.854 170.69 236.492 170.933C236.13 171.172 235.949 171.481 235.949 171.86C235.949 172.188 236.07 172.452 236.313 172.653C236.556 172.853 236.948 173.017 237.489 173.145L239.049 173.503C239.952 173.712 240.625 174.033 241.069 174.468C241.512 174.903 241.733 175.467 241.733 176.162C241.733 176.75 241.563 177.274 241.222 177.734C240.885 178.19 240.414 178.548 239.809 178.808C239.208 179.068 238.512 179.198 237.719 179.198C236.62 179.198 235.723 178.964 235.028 178.495C234.333 178.022 233.907 177.351 233.75 176.482L235.597 176.2C235.712 176.682 235.949 177.046 236.306 177.293C236.664 177.536 237.131 177.658 237.706 177.658C238.333 177.658 238.833 177.528 239.208 177.268C239.583 177.004 239.771 176.682 239.771 176.303C239.771 175.996 239.656 175.738 239.426 175.529C239.2 175.32 238.853 175.163 238.384 175.056L236.722 174.692C235.806 174.483 235.128 174.151 234.689 173.695C234.255 173.239 234.037 172.661 234.037 171.962C234.037 171.383 234.199 170.876 234.523 170.441C234.847 170.006 235.294 169.668 235.865 169.425C236.436 169.178 237.091 169.054 237.828 169.054C238.889 169.054 239.724 169.284 240.333 169.744C240.943 170.2 241.346 170.812 241.542 171.579ZM250.736 179.217C250.113 179.217 249.551 179.102 249.048 178.872C248.545 178.638 248.147 178.299 247.853 177.856C247.563 177.413 247.418 176.869 247.418 176.226C247.418 175.672 247.525 175.216 247.738 174.858C247.951 174.5 248.238 174.217 248.601 174.008C248.963 173.799 249.368 173.641 249.815 173.535C250.263 173.428 250.719 173.347 251.183 173.292C251.771 173.224 252.248 173.168 252.615 173.126C252.981 173.079 253.248 173.004 253.414 172.902C253.58 172.8 253.663 172.634 253.663 172.403V172.359C253.663 171.8 253.506 171.368 253.19 171.061C252.879 170.754 252.415 170.601 251.797 170.601C251.153 170.601 250.646 170.744 250.275 171.029C249.909 171.31 249.655 171.624 249.515 171.969L247.719 171.56C247.932 170.963 248.243 170.482 248.652 170.115C249.065 169.744 249.54 169.476 250.077 169.31C250.614 169.139 251.179 169.054 251.771 169.054C252.163 169.054 252.579 169.101 253.018 169.195C253.461 169.284 253.874 169.45 254.258 169.693C254.645 169.936 254.963 170.283 255.21 170.735C255.457 171.183 255.581 171.764 255.581 172.48V179H253.714V177.658H253.638C253.514 177.905 253.329 178.148 253.082 178.386C252.834 178.625 252.517 178.823 252.129 178.981C251.741 179.138 251.277 179.217 250.736 179.217ZM251.151 177.683C251.68 177.683 252.131 177.579 252.506 177.37C252.886 177.161 253.173 176.888 253.369 176.552C253.569 176.211 253.67 175.847 253.67 175.459V174.193C253.601 174.261 253.469 174.325 253.273 174.385C253.082 174.44 252.862 174.489 252.615 174.532C252.368 174.57 252.127 174.607 251.893 174.641C251.658 174.67 251.462 174.696 251.305 174.717C250.934 174.764 250.595 174.843 250.288 174.954C249.986 175.065 249.743 175.224 249.56 175.433C249.381 175.638 249.291 175.911 249.291 176.251C249.291 176.724 249.466 177.082 249.815 177.325C250.165 177.564 250.61 177.683 251.151 177.683ZM265.814 169.182L262.254 179H260.208L256.641 169.182H258.693L261.18 176.737H261.282L263.762 169.182H265.814ZM269.826 179.217C269.204 179.217 268.642 179.102 268.139 178.872C267.636 178.638 267.237 178.299 266.943 177.856C266.654 177.413 266.509 176.869 266.509 176.226C266.509 175.672 266.615 175.216 266.828 174.858C267.041 174.5 267.329 174.217 267.691 174.008C268.053 173.799 268.458 173.641 268.906 173.535C269.353 173.428 269.809 173.347 270.274 173.292C270.862 173.224 271.339 173.168 271.705 173.126C272.072 173.079 272.338 173.004 272.504 172.902C272.671 172.8 272.754 172.634 272.754 172.403V172.359C272.754 171.8 272.596 171.368 272.281 171.061C271.97 170.754 271.505 170.601 270.887 170.601C270.244 170.601 269.737 170.744 269.366 171.029C268.999 171.31 268.746 171.624 268.605 171.969L266.809 171.56C267.022 170.963 267.333 170.482 267.742 170.115C268.156 169.744 268.631 169.476 269.168 169.31C269.705 169.139 270.269 169.054 270.862 169.054C271.254 169.054 271.669 169.101 272.108 169.195C272.551 169.284 272.965 169.45 273.348 169.693C273.736 169.936 274.053 170.283 274.301 170.735C274.548 171.183 274.671 171.764 274.671 172.48V179H272.805V177.658H272.728C272.605 177.905 272.419 178.148 272.172 178.386C271.925 178.625 271.607 178.823 271.22 178.981C270.832 179.138 270.367 179.217 269.826 179.217ZM270.242 177.683C270.77 177.683 271.222 177.579 271.597 177.37C271.976 177.161 272.264 176.888 272.46 176.552C272.66 176.211 272.76 175.847 272.76 175.459V174.193C272.692 174.261 272.56 174.325 272.364 174.385C272.172 174.44 271.953 174.489 271.705 174.532C271.458 174.57 271.218 174.607 270.983 174.641C270.749 174.67 270.553 174.696 270.395 174.717C270.024 174.764 269.686 174.843 269.379 174.954C269.076 175.065 268.833 175.224 268.65 175.433C268.471 175.638 268.382 175.911 268.382 176.251C268.382 176.724 268.556 177.082 268.906 177.325C269.255 177.564 269.7 177.683 270.242 177.683ZM276.857 179V169.182H278.768V179H276.857ZM277.822 167.667C277.49 167.667 277.204 167.556 276.966 167.335C276.731 167.109 276.614 166.84 276.614 166.529C276.614 166.214 276.731 165.945 276.966 165.724C277.204 165.498 277.49 165.385 277.822 165.385C278.155 165.385 278.438 165.498 278.672 165.724C278.911 165.945 279.03 166.214 279.03 166.529C279.03 166.84 278.911 167.109 278.672 167.335C278.438 167.556 278.155 167.667 277.822 167.667ZM282.891 165.909V179H280.979V165.909H282.891ZM287.959 179.217C287.337 179.217 286.774 179.102 286.272 178.872C285.769 178.638 285.37 178.299 285.076 177.856C284.786 177.413 284.642 176.869 284.642 176.226C284.642 175.672 284.748 175.216 284.961 174.858C285.174 174.5 285.462 174.217 285.824 174.008C286.186 173.799 286.591 173.641 287.039 173.535C287.486 173.428 287.942 173.347 288.407 173.292C288.995 173.224 289.472 173.168 289.838 173.126C290.205 173.079 290.471 173.004 290.637 172.902C290.804 172.8 290.887 172.634 290.887 172.403V172.359C290.887 171.8 290.729 171.368 290.414 171.061C290.103 170.754 289.638 170.601 289.02 170.601C288.377 170.601 287.87 170.744 287.499 171.029C287.132 171.31 286.879 171.624 286.738 171.969L284.942 171.56C285.155 170.963 285.466 170.482 285.875 170.115C286.289 169.744 286.764 169.476 287.301 169.31C287.838 169.139 288.402 169.054 288.995 169.054C289.387 169.054 289.802 169.101 290.241 169.195C290.684 169.284 291.098 169.45 291.481 169.693C291.869 169.936 292.186 170.283 292.434 170.735C292.681 171.183 292.804 171.764 292.804 172.48V179H290.938V177.658H290.861C290.737 177.905 290.552 178.148 290.305 178.386C290.058 178.625 289.74 178.823 289.353 178.981C288.965 179.138 288.5 179.217 287.959 179.217ZM288.375 177.683C288.903 177.683 289.355 177.579 289.73 177.37C290.109 177.161 290.397 176.888 290.593 176.552C290.793 176.211 290.893 175.847 290.893 175.459V174.193C290.825 174.261 290.693 174.325 290.497 174.385C290.305 174.44 290.085 174.489 289.838 174.532C289.591 174.57 289.35 174.607 289.116 174.641C288.882 174.67 288.686 174.696 288.528 174.717C288.157 174.764 287.818 174.843 287.512 174.954C287.209 175.065 286.966 175.224 286.783 175.433C286.604 175.638 286.514 175.911 286.514 176.251C286.514 176.724 286.689 177.082 287.039 177.325C287.388 177.564 287.833 177.683 288.375 177.683ZM295.143 179V165.909H297.055V170.773H297.17C297.28 170.569 297.44 170.332 297.649 170.064C297.858 169.795 298.148 169.561 298.518 169.361C298.889 169.156 299.379 169.054 299.988 169.054C300.781 169.054 301.488 169.254 302.111 169.655C302.733 170.055 303.221 170.633 303.574 171.387C303.932 172.141 304.111 173.049 304.111 174.11C304.111 175.171 303.934 176.081 303.581 176.839C303.227 177.594 302.741 178.175 302.123 178.585C301.506 178.989 300.8 179.192 300.008 179.192C299.411 179.192 298.923 179.092 298.544 178.891C298.169 178.691 297.875 178.457 297.662 178.188C297.449 177.92 297.285 177.681 297.17 177.472H297.01V179H295.143ZM297.016 174.091C297.016 174.781 297.116 175.386 297.317 175.906C297.517 176.426 297.807 176.833 298.186 177.127C298.565 177.417 299.03 177.562 299.579 177.562C300.15 177.562 300.628 177.411 301.011 177.108C301.395 176.801 301.684 176.386 301.881 175.862C302.081 175.337 302.181 174.747 302.181 174.091C302.181 173.443 302.083 172.862 301.887 172.346C301.695 171.83 301.405 171.423 301.018 171.125C300.634 170.827 300.155 170.678 299.579 170.678C299.025 170.678 298.557 170.82 298.173 171.106C297.794 171.391 297.506 171.79 297.31 172.301C297.114 172.812 297.016 173.409 297.016 174.091ZM307.809 165.909V179H305.897V165.909H307.809ZM314.251 179.198C313.284 179.198 312.451 178.991 311.752 178.578C311.058 178.161 310.521 177.575 310.141 176.82C309.766 176.062 309.579 175.173 309.579 174.155C309.579 173.149 309.766 172.263 310.141 171.496C310.521 170.729 311.049 170.13 311.727 169.7C312.408 169.269 313.205 169.054 314.117 169.054C314.671 169.054 315.208 169.146 315.728 169.329C316.248 169.512 316.714 169.8 317.128 170.192C317.541 170.584 317.867 171.093 318.106 171.719C318.344 172.342 318.464 173.098 318.464 173.989V174.666H310.659V173.234H316.591C316.591 172.732 316.489 172.286 316.284 171.898C316.08 171.506 315.792 171.197 315.421 170.972C315.055 170.746 314.624 170.633 314.13 170.633C313.593 170.633 313.124 170.765 312.724 171.029C312.327 171.289 312.021 171.63 311.803 172.052C311.59 172.469 311.484 172.923 311.484 173.413V174.532C311.484 175.188 311.599 175.746 311.829 176.207C312.063 176.667 312.389 177.018 312.807 177.261C313.224 177.5 313.712 177.619 314.271 177.619C314.633 177.619 314.963 177.568 315.261 177.466C315.56 177.359 315.817 177.202 316.035 176.993C316.252 176.784 316.418 176.526 316.533 176.219L318.342 176.545C318.197 177.078 317.937 177.545 317.562 177.945C317.192 178.342 316.725 178.651 316.163 178.872C315.604 179.089 314.967 179.198 314.251 179.198Z" fill="white"/>
<path d="M112.006 229.677V230.505C112.005 232.447 111.376 234.336 110.214 235.891C109.051 237.445 107.417 238.583 105.556 239.133C103.694 239.684 101.704 239.618 99.8829 238.945C98.0618 238.272 96.507 237.029 95.4503 235.4C94.3937 233.771 93.8918 231.845 94.0195 229.908C94.1473 227.97 94.8978 226.126 96.1592 224.651C97.4205 223.175 99.1252 222.146 101.019 221.718C102.913 221.291 104.894 221.486 106.667 222.276" stroke="#FFE492" stroke-width="2" stroke-linecap="round" stroke-linejoin="round"/>
<path d="M135.009 237L131.379 223.909H133.456L136.006 234.047H136.128L138.781 223.909H140.839L143.491 234.053H143.613L146.157 223.909H148.241L144.604 237H142.616L139.861 227.195H139.759L137.004 237H135.009ZM151.44 231.17V237H149.528V223.909H151.414V228.78H151.535C151.766 228.251 152.117 227.832 152.59 227.521C153.063 227.21 153.681 227.054 154.444 227.054C155.117 227.054 155.705 227.192 156.208 227.469C156.715 227.746 157.107 228.16 157.384 228.71C157.665 229.255 157.806 229.937 157.806 230.755V237H155.895V230.985C155.895 230.265 155.709 229.707 155.339 229.31C154.968 228.91 154.452 228.71 153.792 228.71C153.34 228.71 152.935 228.805 152.577 228.997C152.224 229.189 151.945 229.47 151.74 229.841C151.54 230.207 151.44 230.651 151.44 231.17ZM164.132 237.198C163.212 237.198 162.408 236.987 161.722 236.565C161.036 236.143 160.504 235.553 160.124 234.795C159.745 234.036 159.555 233.15 159.555 232.136C159.555 231.117 159.745 230.227 160.124 229.464C160.504 228.701 161.036 228.109 161.722 227.687C162.408 227.265 163.212 227.054 164.132 227.054C165.053 227.054 165.856 227.265 166.542 227.687C167.228 228.109 167.761 228.701 168.14 229.464C168.519 230.227 168.709 231.117 168.709 232.136C168.709 233.15 168.519 234.036 168.14 234.795C167.761 235.553 167.228 236.143 166.542 236.565C165.856 236.987 165.053 237.198 164.132 237.198ZM164.138 235.594C164.735 235.594 165.229 235.436 165.621 235.121C166.013 234.805 166.303 234.386 166.491 233.862C166.683 233.337 166.778 232.76 166.778 232.129C166.778 231.503 166.683 230.928 166.491 230.403C166.303 229.875 166.013 229.451 165.621 229.131C165.229 228.812 164.735 228.652 164.138 228.652C163.538 228.652 163.039 228.812 162.643 229.131C162.251 229.451 161.959 229.875 161.767 230.403C161.58 230.928 161.486 231.503 161.486 232.129C161.486 232.76 161.58 233.337 161.767 233.862C161.959 234.386 162.251 234.805 162.643 235.121C163.039 235.436 163.538 235.594 164.138 235.594ZM172.393 223.909V237H170.482V223.909H172.393ZM178.836 237.198C177.869 237.198 177.036 236.991 176.337 236.578C175.642 236.161 175.105 235.575 174.726 234.82C174.351 234.062 174.164 233.173 174.164 232.155C174.164 231.149 174.351 230.263 174.726 229.496C175.105 228.729 175.634 228.13 176.311 227.7C176.993 227.269 177.79 227.054 178.702 227.054C179.256 227.054 179.793 227.146 180.313 227.329C180.833 227.512 181.299 227.8 181.713 228.192C182.126 228.584 182.452 229.093 182.691 229.719C182.929 230.342 183.048 231.098 183.048 231.989V232.666H175.244V231.234H181.176C181.176 230.732 181.073 230.286 180.869 229.898C180.664 229.506 180.377 229.197 180.006 228.972C179.639 228.746 179.209 228.633 178.715 228.633C178.178 228.633 177.709 228.765 177.308 229.029C176.912 229.289 176.605 229.63 176.388 230.052C176.175 230.469 176.068 230.923 176.068 231.413V232.532C176.068 233.188 176.183 233.746 176.414 234.207C176.648 234.667 176.974 235.018 177.392 235.261C177.809 235.5 178.297 235.619 178.855 235.619C179.217 235.619 179.548 235.568 179.846 235.466C180.144 235.359 180.402 235.202 180.619 234.993C180.837 234.784 181.003 234.526 181.118 234.219L182.927 234.545C182.782 235.078 182.522 235.545 182.147 235.945C181.776 236.342 181.31 236.651 180.747 236.872C180.189 237.089 179.552 237.198 178.836 237.198ZM189.366 237V223.909H194.032C195.051 223.909 195.895 224.094 196.564 224.465C197.233 224.836 197.733 225.343 198.066 225.987C198.398 226.626 198.564 227.346 198.564 228.147C198.564 228.952 198.396 229.677 198.059 230.32C197.727 230.96 197.224 231.467 196.551 231.842C195.882 232.212 195.04 232.398 194.026 232.398H190.817V230.723H193.847C194.49 230.723 195.012 230.612 195.413 230.391C195.814 230.165 196.108 229.858 196.295 229.47C196.483 229.082 196.576 228.641 196.576 228.147C196.576 227.653 196.483 227.214 196.295 226.83C196.108 226.447 195.811 226.146 195.407 225.929C195.006 225.712 194.478 225.603 193.821 225.603H191.341V237H189.366ZM203.136 237.217C202.514 237.217 201.951 237.102 201.448 236.872C200.945 236.638 200.547 236.299 200.253 235.856C199.963 235.413 199.818 234.869 199.818 234.226C199.818 233.672 199.925 233.216 200.138 232.858C200.351 232.5 200.639 232.217 201.001 232.008C201.363 231.799 201.768 231.641 202.215 231.535C202.663 231.428 203.119 231.347 203.583 231.292C204.171 231.224 204.649 231.168 205.015 231.126C205.381 231.079 205.648 231.004 205.814 230.902C205.98 230.8 206.063 230.634 206.063 230.403V230.359C206.063 229.8 205.906 229.368 205.59 229.061C205.279 228.754 204.815 228.601 204.197 228.601C203.553 228.601 203.046 228.744 202.675 229.029C202.309 229.31 202.055 229.624 201.915 229.969L200.119 229.56C200.332 228.963 200.643 228.482 201.052 228.115C201.465 227.744 201.94 227.476 202.477 227.31C203.014 227.139 203.579 227.054 204.171 227.054C204.563 227.054 204.979 227.101 205.418 227.195C205.861 227.284 206.274 227.45 206.658 227.693C207.046 227.936 207.363 228.283 207.61 228.735C207.857 229.183 207.981 229.764 207.981 230.48V237H206.114V235.658H206.038C205.914 235.905 205.729 236.148 205.482 236.386C205.234 236.625 204.917 236.823 204.529 236.981C204.141 237.138 203.677 237.217 203.136 237.217ZM203.551 235.683C204.08 235.683 204.531 235.579 204.906 235.37C205.286 235.161 205.573 234.888 205.769 234.552C205.97 234.211 206.07 233.847 206.07 233.459V232.193C206.001 232.261 205.869 232.325 205.673 232.385C205.482 232.44 205.262 232.489 205.015 232.532C204.768 232.57 204.527 232.607 204.293 232.641C204.058 232.67 203.862 232.696 203.705 232.717C203.334 232.764 202.995 232.843 202.688 232.954C202.386 233.065 202.143 233.224 201.96 233.433C201.781 233.638 201.691 233.911 201.691 234.251C201.691 234.724 201.866 235.082 202.215 235.325C202.565 235.564 203.01 235.683 203.551 235.683ZM214.302 237.198C213.352 237.198 212.534 236.983 211.848 236.553C211.166 236.118 210.642 235.519 210.275 234.756C209.909 233.994 209.725 233.12 209.725 232.136C209.725 231.138 209.913 230.259 210.288 229.496C210.663 228.729 211.191 228.13 211.873 227.7C212.555 227.269 213.358 227.054 214.283 227.054C215.029 227.054 215.694 227.192 216.277 227.469C216.861 227.742 217.332 228.126 217.69 228.62C218.052 229.114 218.267 229.692 218.336 230.352H216.475C216.373 229.892 216.139 229.496 215.772 229.163C215.41 228.831 214.924 228.665 214.315 228.665C213.782 228.665 213.316 228.805 212.915 229.087C212.519 229.364 212.21 229.76 211.988 230.276C211.767 230.787 211.656 231.392 211.656 232.091C211.656 232.807 211.765 233.425 211.982 233.945C212.199 234.464 212.506 234.867 212.902 235.153C213.303 235.438 213.774 235.581 214.315 235.581C214.677 235.581 215.005 235.515 215.299 235.383C215.598 235.246 215.847 235.053 216.047 234.801C216.252 234.55 216.395 234.247 216.475 233.893H218.336C218.267 234.528 218.061 235.095 217.716 235.594C217.37 236.092 216.908 236.484 216.328 236.77C215.753 237.055 215.078 237.198 214.302 237.198ZM221.777 233.67L221.764 231.337H222.097L226.009 227.182H228.297L223.835 231.912H223.535L221.777 233.67ZM220.019 237V223.909H221.931V237H220.019ZM226.22 237L222.704 232.334L224.021 230.998L228.566 237H226.22ZM232.536 237.217C231.914 237.217 231.352 237.102 230.849 236.872C230.346 236.638 229.947 236.299 229.653 235.856C229.364 235.413 229.219 234.869 229.219 234.226C229.219 233.672 229.325 233.216 229.538 232.858C229.751 232.5 230.039 232.217 230.401 232.008C230.763 231.799 231.168 231.641 231.616 231.535C232.063 231.428 232.519 231.347 232.984 231.292C233.572 231.224 234.049 231.168 234.415 231.126C234.782 231.079 235.048 231.004 235.214 230.902C235.381 230.8 235.464 230.634 235.464 230.403V230.359C235.464 229.8 235.306 229.368 234.991 229.061C234.68 228.754 234.215 228.601 233.597 228.601C232.954 228.601 232.447 228.744 232.076 229.029C231.709 229.31 231.456 229.624 231.315 229.969L229.519 229.56C229.732 228.963 230.043 228.482 230.452 228.115C230.866 227.744 231.341 227.476 231.878 227.31C232.415 227.139 232.979 227.054 233.572 227.054C233.964 227.054 234.379 227.101 234.818 227.195C235.261 227.284 235.675 227.45 236.058 227.693C236.446 227.936 236.763 228.283 237.011 228.735C237.258 229.183 237.381 229.764 237.381 230.48V237H235.515V235.658H235.438C235.315 235.905 235.129 236.148 234.882 236.386C234.635 236.625 234.317 236.823 233.93 236.981C233.542 237.138 233.077 237.217 232.536 237.217ZM232.952 235.683C233.48 235.683 233.932 235.579 234.307 235.37C234.686 235.161 234.974 234.888 235.17 234.552C235.37 234.211 235.47 233.847 235.47 233.459V232.193C235.402 232.261 235.27 232.325 235.074 232.385C234.882 232.44 234.663 232.489 234.415 232.532C234.168 232.57 233.928 232.607 233.693 232.641C233.459 232.67 233.263 232.696 233.105 232.717C232.734 232.764 232.396 232.843 232.089 232.954C231.786 233.065 231.543 233.224 231.36 233.433C231.181 233.638 231.092 233.911 231.092 234.251C231.092 234.724 231.266 235.082 231.616 235.325C231.965 235.564 232.41 235.683 232.952 235.683ZM243.683 240.886C242.904 240.886 242.232 240.784 241.67 240.58C241.112 240.375 240.656 240.104 240.302 239.768C239.948 239.431 239.684 239.063 239.509 238.662L241.152 237.984C241.267 238.172 241.421 238.37 241.612 238.579C241.808 238.792 242.073 238.973 242.405 239.122C242.742 239.271 243.174 239.346 243.703 239.346C244.427 239.346 245.026 239.169 245.499 238.815C245.972 238.466 246.208 237.908 246.208 237.141V235.21H246.087C245.972 235.419 245.806 235.651 245.588 235.907C245.375 236.163 245.081 236.384 244.706 236.572C244.331 236.759 243.843 236.853 243.242 236.853C242.467 236.853 241.768 236.672 241.146 236.31C240.528 235.943 240.038 235.404 239.676 234.692C239.318 233.977 239.139 233.097 239.139 232.053C239.139 231.009 239.316 230.114 239.669 229.368C240.027 228.622 240.517 228.051 241.139 227.655C241.762 227.254 242.467 227.054 243.255 227.054C243.865 227.054 244.357 227.156 244.732 227.361C245.107 227.561 245.399 227.795 245.607 228.064C245.821 228.332 245.985 228.569 246.1 228.773H246.24V227.182H248.113V237.217C248.113 238.061 247.917 238.754 247.525 239.295C247.133 239.836 246.603 240.237 245.933 240.496C245.269 240.756 244.519 240.886 243.683 240.886ZM243.664 235.268C244.214 235.268 244.678 235.14 245.058 234.884C245.441 234.624 245.731 234.254 245.927 233.772C246.127 233.286 246.228 232.705 246.228 232.027C246.228 231.366 246.129 230.785 245.933 230.282C245.737 229.779 245.45 229.387 245.071 229.106C244.691 228.82 244.223 228.678 243.664 228.678C243.089 228.678 242.61 228.827 242.226 229.125C241.843 229.419 241.553 229.82 241.357 230.327C241.165 230.834 241.069 231.401 241.069 232.027C241.069 232.67 241.167 233.235 241.363 233.721C241.559 234.207 241.849 234.586 242.232 234.859C242.62 235.131 243.098 235.268 243.664 235.268ZM254.548 237.198C253.581 237.198 252.747 236.991 252.049 236.578C251.354 236.161 250.817 235.575 250.438 234.82C250.063 234.062 249.875 233.173 249.875 232.155C249.875 231.149 250.063 230.263 250.438 229.496C250.817 228.729 251.345 228.13 252.023 227.7C252.705 227.269 253.502 227.054 254.414 227.054C254.968 227.054 255.505 227.146 256.024 227.329C256.544 227.512 257.011 227.8 257.424 228.192C257.838 228.584 258.164 229.093 258.402 229.719C258.641 230.342 258.76 231.098 258.76 231.989V232.666H250.956V231.234H256.887C256.887 230.732 256.785 230.286 256.581 229.898C256.376 229.506 256.088 229.197 255.718 228.972C255.351 228.746 254.921 228.633 254.426 228.633C253.89 228.633 253.421 228.765 253.02 229.029C252.624 229.289 252.317 229.63 252.1 230.052C251.887 230.469 251.78 230.923 251.78 231.413V232.532C251.78 233.188 251.895 233.746 252.125 234.207C252.36 234.667 252.686 235.018 253.103 235.261C253.521 235.5 254.009 235.619 254.567 235.619C254.929 235.619 255.26 235.568 255.558 235.466C255.856 235.359 256.114 235.202 256.331 234.993C256.549 234.784 256.715 234.526 256.83 234.219L258.639 234.545C258.494 235.078 258.234 235.545 257.859 235.945C257.488 236.342 257.022 236.651 256.459 236.872C255.901 237.089 255.264 237.198 254.548 237.198Z" fill="white"/>
<path d="M407.938 237V223.909H412.604C413.619 223.909 414.46 224.084 415.129 224.433C415.803 224.783 416.305 225.266 416.638 225.884C416.97 226.498 417.136 227.207 417.136 228.013C417.136 228.814 416.968 229.519 416.631 230.129C416.299 230.734 415.796 231.205 415.123 231.541C414.454 231.878 413.612 232.046 412.598 232.046H409.063V230.346H412.419C413.058 230.346 413.578 230.254 413.979 230.071C414.384 229.888 414.68 229.621 414.867 229.272C415.055 228.923 415.148 228.503 415.148 228.013C415.148 227.518 415.053 227.09 414.861 226.728C414.673 226.366 414.377 226.089 413.972 225.897C413.572 225.701 413.045 225.603 412.393 225.603H409.913V237H407.938ZM414.401 231.094L417.635 237H415.385L412.214 231.094H414.401ZM426.384 229.579L424.651 229.886C424.579 229.664 424.464 229.453 424.306 229.253C424.153 229.053 423.944 228.888 423.68 228.761C423.416 228.633 423.085 228.569 422.689 228.569C422.148 228.569 421.696 228.69 421.334 228.933C420.972 229.172 420.791 229.481 420.791 229.86C420.791 230.188 420.912 230.452 421.155 230.653C421.398 230.853 421.79 231.017 422.331 231.145L423.891 231.503C424.794 231.712 425.467 232.033 425.911 232.468C426.354 232.903 426.575 233.467 426.575 234.162C426.575 234.75 426.405 235.274 426.064 235.734C425.727 236.19 425.256 236.548 424.651 236.808C424.051 237.068 423.354 237.198 422.561 237.198C421.462 237.198 420.565 236.964 419.87 236.495C419.176 236.022 418.749 235.351 418.592 234.482L420.439 234.2C420.554 234.682 420.791 235.046 421.149 235.293C421.506 235.536 421.973 235.658 422.548 235.658C423.175 235.658 423.676 235.528 424.051 235.268C424.426 235.004 424.613 234.682 424.613 234.303C424.613 233.996 424.498 233.738 424.268 233.529C424.042 233.32 423.695 233.163 423.226 233.056L421.564 232.692C420.648 232.483 419.97 232.151 419.531 231.695C419.097 231.239 418.879 230.661 418.879 229.962C418.879 229.383 419.041 228.876 419.365 228.441C419.689 228.006 420.136 227.668 420.707 227.425C421.278 227.178 421.933 227.054 422.67 227.054C423.731 227.054 424.566 227.284 425.176 227.744C425.785 228.2 426.188 228.812 426.384 229.579ZM437.661 223.909V237H435.68V225.891H435.603L432.471 227.936V226.044L435.737 223.909H437.661ZM445.4 237.217C444.39 237.213 443.527 236.947 442.811 236.418C442.096 235.89 441.548 235.121 441.169 234.111C440.789 233.101 440.6 231.884 440.6 230.461C440.6 229.042 440.789 227.83 441.169 226.824C441.552 225.818 442.102 225.051 442.818 224.523C443.538 223.994 444.399 223.73 445.4 223.73C446.402 223.73 447.26 223.996 447.976 224.529C448.692 225.058 449.24 225.825 449.619 226.83C450.002 227.832 450.194 229.042 450.194 230.461C450.194 231.888 450.005 233.107 449.625 234.117C449.246 235.123 448.698 235.892 447.983 236.425C447.267 236.953 446.406 237.217 445.4 237.217ZM445.4 235.511C446.287 235.511 446.979 235.078 447.478 234.213C447.98 233.348 448.232 232.097 448.232 230.461C448.232 229.374 448.117 228.456 447.887 227.706C447.661 226.952 447.335 226.381 446.909 225.993C446.487 225.601 445.984 225.405 445.4 225.405C444.518 225.405 443.826 225.839 443.323 226.709C442.82 227.578 442.566 228.829 442.562 230.461C442.562 231.552 442.675 232.474 442.901 233.229C443.131 233.979 443.457 234.548 443.879 234.935C444.301 235.319 444.808 235.511 445.4 235.511ZM454.139 235.21L454.043 235.907C453.979 236.418 453.871 236.951 453.717 237.505C453.568 238.063 453.413 238.581 453.251 239.058C453.093 239.536 452.963 239.915 452.861 240.196H451.506C451.561 239.932 451.638 239.574 451.736 239.122C451.834 238.675 451.93 238.174 452.024 237.62C452.117 237.066 452.188 236.501 452.234 235.926L452.298 235.21H454.139ZM460.536 237.217C459.526 237.213 458.663 236.947 457.947 236.418C457.231 235.89 456.683 235.121 456.304 234.111C455.925 233.101 455.735 231.884 455.735 230.461C455.735 229.042 455.925 227.83 456.304 226.824C456.688 225.818 457.237 225.051 457.953 224.523C458.673 223.994 459.534 223.73 460.536 223.73C461.537 223.73 462.396 223.996 463.112 224.529C463.828 225.058 464.375 225.825 464.754 226.83C465.138 227.832 465.33 229.042 465.33 230.461C465.33 231.888 465.14 233.107 464.761 234.117C464.382 235.123 463.834 235.892 463.118 236.425C462.402 236.953 461.541 237.217 460.536 237.217ZM460.536 235.511C461.422 235.511 462.115 235.078 462.613 234.213C463.116 233.348 463.367 232.097 463.367 230.461C463.367 229.374 463.252 228.456 463.022 227.706C462.796 226.952 462.47 226.381 462.044 225.993C461.622 225.601 461.119 225.405 460.536 225.405C459.654 225.405 458.961 225.839 458.458 226.709C457.955 227.578 457.702 228.829 457.698 230.461C457.698 231.552 457.811 232.474 458.036 233.229C458.266 233.979 458.592 234.548 459.014 234.935C459.436 235.319 459.943 235.511 460.536 235.511ZM471.795 237.217C470.785 237.213 469.922 236.947 469.206 236.418C468.49 235.89 467.943 235.121 467.563 234.111C467.184 233.101 466.994 231.884 466.994 230.461C466.994 229.042 467.184 227.83 467.563 226.824C467.947 225.818 468.497 225.051 469.212 224.523C469.933 223.994 470.793 223.73 471.795 223.73C472.796 223.73 473.655 223.996 474.371 224.529C475.087 225.058 475.634 225.825 476.014 226.83C476.397 227.832 476.589 229.042 476.589 230.461C476.589 231.888 476.399 233.107 476.02 234.117C475.641 235.123 475.093 235.892 474.377 236.425C473.661 236.953 472.8 237.217 471.795 237.217ZM471.795 235.511C472.681 235.511 473.374 235.078 473.872 234.213C474.375 233.348 474.626 232.097 474.626 230.461C474.626 229.374 474.511 228.456 474.281 227.706C474.055 226.952 473.729 226.381 473.303 225.993C472.881 225.601 472.379 225.405 471.795 225.405C470.913 225.405 470.22 225.839 469.717 226.709C469.215 227.578 468.961 228.829 468.957 230.461C468.957 231.552 469.07 232.474 469.296 233.229C469.526 233.979 469.852 234.548 470.274 234.935C470.695 235.319 471.202 235.511 471.795 235.511ZM483.054 237.217C482.044 237.213 481.181 236.947 480.465 236.418C479.749 235.89 479.202 235.121 478.822 234.111C478.443 233.101 478.254 231.884 478.254 230.461C478.254 229.042 478.443 227.83 478.822 226.824C479.206 225.818 479.756 225.051 480.472 224.523C481.192 223.994 482.053 223.73 483.054 223.73C484.055 223.73 484.914 223.996 485.63 224.529C486.346 225.058 486.893 225.825 487.273 226.83C487.656 227.832 487.848 229.042 487.848 230.461C487.848 231.888 487.658 233.107 487.279 234.117C486.9 235.123 486.352 235.892 485.636 236.425C484.92 236.953 484.06 237.217 483.054 237.217ZM483.054 235.511C483.94 235.511 484.633 235.078 485.131 234.213C485.634 233.348 485.886 232.097 485.886 230.461C485.886 229.374 485.771 228.456 485.54 227.706C485.315 226.952 484.989 226.381 484.562 225.993C484.141 225.601 483.638 225.405 483.054 225.405C482.172 225.405 481.479 225.839 480.977 226.709C480.474 227.578 480.22 228.829 480.216 230.461C480.216 231.552 480.329 232.474 480.555 233.229C480.785 233.979 481.111 234.548 481.533 234.935C481.955 235.319 482.462 235.511 483.054 235.511Z" fill="white"/>
<rect x="94" y="277" width="166" height="51" rx="8" fill="#4F9CF9"/>
<path d="M143.153 300.04C143.044 299.695 142.896 299.386 142.71 299.114C142.528 298.837 142.311 298.602 142.057 298.409C141.803 298.212 141.513 298.062 141.188 297.96C140.866 297.858 140.511 297.807 140.125 297.807C139.47 297.807 138.879 297.975 138.352 298.312C137.826 298.65 137.409 299.144 137.102 299.795C136.799 300.443 136.648 301.237 136.648 302.176C136.648 303.119 136.801 303.917 137.108 304.568C137.415 305.22 137.835 305.714 138.369 306.051C138.903 306.388 139.511 306.557 140.193 306.557C140.826 306.557 141.377 306.428 141.847 306.17C142.32 305.913 142.686 305.549 142.943 305.08C143.205 304.606 143.335 304.049 143.335 303.409L143.79 303.494H140.46V302.045H145.034V303.369C145.034 304.347 144.826 305.195 144.409 305.915C143.996 306.631 143.424 307.184 142.693 307.574C141.966 307.964 141.133 308.159 140.193 308.159C139.14 308.159 138.216 307.917 137.42 307.432C136.629 306.947 136.011 306.259 135.568 305.369C135.125 304.475 134.903 303.415 134.903 302.188C134.903 301.259 135.032 300.426 135.29 299.688C135.547 298.949 135.909 298.322 136.375 297.807C136.845 297.288 137.396 296.892 138.028 296.619C138.665 296.343 139.36 296.205 140.114 296.205C140.742 296.205 141.328 296.297 141.869 296.483C142.415 296.669 142.9 296.932 143.324 297.273C143.752 297.614 144.106 298.019 144.386 298.489C144.667 298.955 144.856 299.472 144.955 300.04H143.153ZM150.568 308.176C149.708 308.176 148.967 307.992 148.346 307.625C147.729 307.254 147.251 306.733 146.914 306.062C146.581 305.388 146.414 304.598 146.414 303.693C146.414 302.799 146.581 302.011 146.914 301.33C147.251 300.648 147.721 300.116 148.323 299.733C148.93 299.35 149.638 299.159 150.448 299.159C150.941 299.159 151.418 299.241 151.88 299.403C152.342 299.566 152.757 299.822 153.125 300.17C153.492 300.519 153.782 300.972 153.994 301.528C154.206 302.081 154.312 302.754 154.312 303.545V304.148H147.375V302.875H152.647C152.647 302.428 152.556 302.032 152.375 301.688C152.193 301.339 151.937 301.064 151.608 300.864C151.282 300.663 150.899 300.562 150.46 300.562C149.983 300.562 149.566 300.68 149.21 300.915C148.858 301.146 148.585 301.449 148.392 301.824C148.202 302.195 148.108 302.598 148.108 303.034V304.028C148.108 304.612 148.21 305.108 148.414 305.517C148.623 305.926 148.912 306.239 149.284 306.455C149.655 306.667 150.089 306.773 150.585 306.773C150.907 306.773 151.2 306.727 151.466 306.636C151.731 306.542 151.96 306.402 152.153 306.216C152.346 306.03 152.494 305.801 152.596 305.528L154.204 305.818C154.075 306.292 153.844 306.706 153.511 307.062C153.181 307.415 152.767 307.689 152.267 307.886C151.77 308.08 151.204 308.176 150.568 308.176ZM159.951 299.273V300.636H155.184V299.273H159.951ZM156.462 297.182H158.161V305.438C158.161 305.767 158.21 306.015 158.309 306.182C158.407 306.345 158.534 306.456 158.69 306.517C158.849 306.574 159.021 306.602 159.207 306.602C159.343 306.602 159.462 306.593 159.565 306.574C159.667 306.555 159.746 306.54 159.803 306.528L160.11 307.932C160.012 307.97 159.871 308.008 159.69 308.045C159.508 308.087 159.28 308.11 159.008 308.114C158.561 308.121 158.144 308.042 157.758 307.875C157.371 307.708 157.059 307.451 156.82 307.102C156.582 306.754 156.462 306.316 156.462 305.79V297.182ZM171.907 299.42C171.847 298.883 171.597 298.466 171.157 298.17C170.718 297.871 170.165 297.722 169.498 297.722C169.021 297.722 168.608 297.797 168.26 297.949C167.911 298.097 167.64 298.301 167.447 298.562C167.258 298.82 167.163 299.114 167.163 299.443C167.163 299.72 167.228 299.958 167.356 300.159C167.489 300.36 167.661 300.528 167.873 300.665C168.089 300.797 168.32 300.909 168.567 301C168.813 301.087 169.05 301.159 169.277 301.216L170.413 301.511C170.784 301.602 171.165 301.725 171.555 301.881C171.945 302.036 172.307 302.241 172.64 302.494C172.974 302.748 173.243 303.062 173.447 303.438C173.656 303.812 173.76 304.261 173.76 304.784C173.76 305.443 173.589 306.028 173.248 306.54C172.911 307.051 172.421 307.455 171.777 307.75C171.137 308.045 170.362 308.193 169.453 308.193C168.582 308.193 167.828 308.055 167.192 307.778C166.555 307.502 166.057 307.11 165.697 306.602C165.337 306.091 165.139 305.485 165.101 304.784H166.862C166.896 305.205 167.032 305.555 167.271 305.835C167.514 306.112 167.822 306.318 168.197 306.455C168.576 306.587 168.991 306.653 169.442 306.653C169.938 306.653 170.379 306.576 170.765 306.42C171.156 306.261 171.462 306.042 171.686 305.761C171.909 305.477 172.021 305.146 172.021 304.767C172.021 304.422 171.923 304.14 171.726 303.92C171.532 303.701 171.269 303.519 170.936 303.375C170.606 303.231 170.233 303.104 169.817 302.994L168.442 302.619C167.51 302.366 166.771 301.992 166.226 301.5C165.684 301.008 165.413 300.356 165.413 299.545C165.413 298.875 165.595 298.29 165.959 297.79C166.322 297.29 166.815 296.902 167.436 296.625C168.057 296.345 168.758 296.205 169.538 296.205C170.326 296.205 171.021 296.343 171.623 296.619C172.229 296.896 172.707 297.277 173.055 297.761C173.404 298.242 173.586 298.795 173.601 299.42H171.907ZM179.475 299.273V300.636H174.708V299.273H179.475ZM175.987 297.182H177.686V305.438C177.686 305.767 177.735 306.015 177.833 306.182C177.932 306.345 178.059 306.456 178.214 306.517C178.373 306.574 178.545 306.602 178.731 306.602C178.867 306.602 178.987 306.593 179.089 306.574C179.191 306.555 179.271 306.54 179.328 306.528L179.634 307.932C179.536 307.97 179.396 308.008 179.214 308.045C179.032 308.087 178.805 308.11 178.532 308.114C178.085 308.121 177.668 308.042 177.282 307.875C176.896 307.708 176.583 307.451 176.345 307.102C176.106 306.754 175.987 306.316 175.987 305.79V297.182ZM183.574 308.193C183.021 308.193 182.521 308.091 182.074 307.886C181.627 307.678 181.273 307.377 181.012 306.983C180.754 306.589 180.625 306.106 180.625 305.534C180.625 305.042 180.72 304.636 180.91 304.318C181.099 304 181.355 303.748 181.677 303.562C181.999 303.377 182.358 303.237 182.756 303.142C183.154 303.047 183.559 302.975 183.972 302.926C184.495 302.866 184.919 302.816 185.245 302.778C185.571 302.737 185.807 302.67 185.955 302.58C186.103 302.489 186.177 302.341 186.177 302.136V302.097C186.177 301.6 186.036 301.216 185.756 300.943C185.48 300.67 185.067 300.534 184.518 300.534C183.946 300.534 183.495 300.661 183.165 300.915C182.839 301.165 182.614 301.443 182.489 301.75L180.893 301.386C181.082 300.856 181.358 300.428 181.722 300.102C182.089 299.773 182.512 299.534 182.989 299.386C183.466 299.235 183.968 299.159 184.495 299.159C184.843 299.159 185.213 299.201 185.603 299.284C185.997 299.364 186.364 299.511 186.705 299.727C187.05 299.943 187.332 300.252 187.552 300.653C187.771 301.051 187.881 301.568 187.881 302.205V308H186.222V306.807H186.154C186.044 307.027 185.879 307.242 185.66 307.455C185.44 307.667 185.158 307.843 184.813 307.983C184.468 308.123 184.055 308.193 183.574 308.193ZM183.944 306.83C184.413 306.83 184.815 306.737 185.148 306.551C185.485 306.366 185.741 306.123 185.915 305.824C186.093 305.521 186.182 305.197 186.182 304.852V303.727C186.122 303.788 186.004 303.845 185.83 303.898C185.66 303.947 185.464 303.991 185.245 304.028C185.025 304.062 184.811 304.095 184.603 304.125C184.394 304.152 184.22 304.174 184.08 304.193C183.75 304.235 183.449 304.305 183.177 304.403C182.908 304.502 182.692 304.644 182.529 304.83C182.37 305.011 182.29 305.254 182.29 305.557C182.29 305.977 182.446 306.295 182.756 306.511C183.067 306.723 183.463 306.83 183.944 306.83ZM189.824 308V299.273H191.466V300.659H191.557C191.716 300.189 191.996 299.82 192.398 299.551C192.803 299.278 193.261 299.142 193.773 299.142C193.879 299.142 194.004 299.146 194.148 299.153C194.296 299.161 194.411 299.17 194.494 299.182V300.807C194.426 300.788 194.305 300.767 194.131 300.744C193.956 300.718 193.782 300.705 193.608 300.705C193.206 300.705 192.849 300.79 192.534 300.96C192.224 301.127 191.977 301.36 191.796 301.659C191.614 301.955 191.523 302.292 191.523 302.67V308H189.824ZM200.234 299.273V300.636H195.467V299.273H200.234ZM196.745 297.182H198.444V305.438C198.444 305.767 198.494 306.015 198.592 306.182C198.69 306.345 198.817 306.456 198.973 306.517C199.132 306.574 199.304 306.602 199.49 306.602C199.626 306.602 199.745 306.593 199.848 306.574C199.95 306.555 200.029 306.54 200.086 306.528L200.393 307.932C200.295 307.97 200.154 308.008 199.973 308.045C199.791 308.087 199.564 308.11 199.291 308.114C198.844 308.121 198.427 308.042 198.041 307.875C197.654 307.708 197.342 307.451 197.103 307.102C196.865 306.754 196.745 306.316 196.745 305.79V297.182ZM205.461 308.176C204.601 308.176 203.861 307.992 203.239 307.625C202.622 307.254 202.145 306.733 201.808 306.062C201.474 305.388 201.308 304.598 201.308 303.693C201.308 302.799 201.474 302.011 201.808 301.33C202.145 300.648 202.614 300.116 203.217 299.733C203.823 299.35 204.531 299.159 205.342 299.159C205.834 299.159 206.311 299.241 206.773 299.403C207.236 299.566 207.65 299.822 208.018 300.17C208.385 300.519 208.675 300.972 208.887 301.528C209.099 302.081 209.205 302.754 209.205 303.545V304.148H202.268V302.875H207.54C207.54 302.428 207.45 302.032 207.268 301.688C207.086 301.339 206.83 301.064 206.501 300.864C206.175 300.663 205.792 300.562 205.353 300.562C204.876 300.562 204.459 300.68 204.103 300.915C203.751 301.146 203.478 301.449 203.285 301.824C203.095 302.195 203.001 302.598 203.001 303.034V304.028C203.001 304.612 203.103 305.108 203.308 305.517C203.516 305.926 203.806 306.239 204.177 306.455C204.548 306.667 204.982 306.773 205.478 306.773C205.8 306.773 206.093 306.727 206.359 306.636C206.624 306.542 206.853 306.402 207.046 306.216C207.239 306.03 207.387 305.801 207.489 305.528L209.097 305.818C208.968 306.292 208.737 306.706 208.404 307.062C208.075 307.415 207.66 307.689 207.16 307.886C206.664 308.08 206.097 308.176 205.461 308.176ZM214.037 308.17C213.333 308.17 212.704 307.991 212.151 307.631C211.602 307.267 211.17 306.75 210.855 306.08C210.545 305.405 210.389 304.597 210.389 303.653C210.389 302.71 210.547 301.903 210.861 301.233C211.179 300.562 211.615 300.049 212.168 299.693C212.721 299.337 213.348 299.159 214.049 299.159C214.59 299.159 215.026 299.25 215.355 299.432C215.689 299.61 215.946 299.818 216.128 300.057C216.314 300.295 216.458 300.506 216.56 300.688H216.662V296.364H218.361V308H216.702V306.642H216.56C216.458 306.828 216.31 307.04 216.117 307.278C215.927 307.517 215.666 307.725 215.333 307.903C214.999 308.081 214.568 308.17 214.037 308.17ZM214.412 306.722C214.901 306.722 215.314 306.593 215.651 306.335C215.992 306.074 216.249 305.712 216.424 305.25C216.602 304.788 216.691 304.25 216.691 303.636C216.691 303.03 216.604 302.5 216.429 302.045C216.255 301.591 215.999 301.237 215.662 300.983C215.325 300.729 214.908 300.602 214.412 300.602C213.901 300.602 213.475 300.735 213.134 301C212.793 301.265 212.535 301.627 212.361 302.085C212.191 302.544 212.105 303.061 212.105 303.636C212.105 304.22 212.193 304.744 212.367 305.21C212.541 305.676 212.799 306.045 213.139 306.318C213.484 306.587 213.908 306.722 214.412 306.722Z" fill="white"/>
</g>
<defs>
<filter id="filter0_d_705_445" x="0" y="0" width="572" height="403" filterUnits="userSpaceOnUse" color-interpolation-filters="sRGB">
<feFlood flood-opacity="0" result="BackgroundImageFix"/>
<feColorMatrix in="SourceAlpha" type="matrix" values="0 0 0 0 0 0 0 0 0 0 0 0 0 0 0 0 0 0 127 0" result="hardAlpha"/>
<feOffset dy="4"/>
<feGaussianBlur stdDeviation="25"/>
<feComposite in2="hardAlpha" operator="out"/>
<feColorMatrix type="matrix" values="0 0 0 0 0 0 0 0 0 0 0 0 0 0 0 0 0 0 0.08 0"/>
<feBlend mode="normal" in2="BackgroundImageFix" result="effect1_dropShadow_705_445"/>
<feBlend mode="normal" in="SourceGraphic" in2="effect1_dropShadow_705_445" result="shape"/>
</filter>
</defs>
</svg>
