<svg width="22" height="23" viewBox="0 0 22 23" fill="none" xmlns="http://www.w3.org/2000/svg">
<path d="M15.9495 13.6335C15.7328 13.5252 14.3245 12.8752 14.1078 12.7669C13.8911 12.6585 13.6745 12.6585 13.4578 12.8752C13.2411 13.0919 12.8078 13.7419 12.5911 13.9585C12.4828 14.1752 12.2661 14.1752 12.0495 14.0669C11.2911 13.7419 10.5328 13.3085 9.88281 12.7669C9.34115 12.2252 8.79948 11.5752 8.36615 10.9252C8.25781 10.7085 8.36615 10.4919 8.47448 10.3835C8.58281 10.2752 8.69115 10.0585 8.90781 9.95019C9.01615 9.84186 9.12448 9.62519 9.12448 9.51686C9.23281 9.40853 9.23281 9.19186 9.12448 9.08353C9.01615 8.97519 8.47448 7.67519 8.25781 7.13353C8.14948 6.3752 7.93281 6.3752 7.71615 6.3752H7.17448C6.95781 6.3752 6.63281 6.59186 6.52448 6.70019C5.87448 7.35019 5.54948 8.10853 5.54948 8.97519C5.65781 9.95019 5.98281 10.9252 6.63281 11.7919C7.82448 13.5252 9.34115 14.9335 11.1828 15.8002C11.7245 16.0169 12.1578 16.2335 12.6995 16.3419C13.2411 16.5585 13.7828 16.5585 14.4328 16.4502C15.1911 16.3419 15.8411 15.8002 16.2745 15.1502C16.4911 14.7169 16.4911 14.2835 16.3828 13.8502L15.9495 13.6335ZM18.6578 3.7752C14.4328 -0.449805 7.60781 -0.449805 3.38281 3.7752C-0.0838542 7.24186 -0.733854 12.5502 1.64948 16.7752L0.132812 22.3002L5.87448 20.7835C7.49948 21.6502 9.23281 22.0835 10.9661 22.0835C16.9245 22.0835 21.6911 17.3169 21.6911 11.3585C21.7995 8.54186 20.6078 5.83353 18.6578 3.7752ZM15.7328 18.9419C14.3245 19.8085 12.6995 20.3502 10.9661 20.3502C9.34115 20.3502 7.82448 19.9169 6.41615 19.1585L6.09115 18.9419L2.73281 19.8085L3.59948 16.5585L3.38281 16.2335C0.782812 11.9002 2.08281 6.48353 6.30781 3.7752C10.5328 1.06686 15.9495 2.4752 18.5495 6.59186C21.1495 10.8169 19.9578 16.3419 15.7328 18.9419Z" fill="black"/>
</svg>
