<svg width="465" height="50" viewBox="0 0 465 50" fill="none" xmlns="http://www.w3.org/2000/svg">
<path d="M437.498 26.2642C436.861 26.3052 436.216 26.3334 435.592 26.3949C435.186 26.4333 435.012 26.3206 434.741 26.2617C434.651 26.2412 434.554 26.2001 434.471 26.2053C433.839 26.2463 433.208 26.2924 432.577 26.3385C432.383 26.4385 432.261 26.5717 431.965 26.6204C431.675 26.6665 431.333 26.6666 431.011 26.6896C430.586 26.7178 430.161 26.746 429.736 26.7716C429.523 26.7845 429.349 26.8331 429.278 26.9254C429.265 26.9408 429.407 26.9792 429.484 27.0023C429.742 27.0791 429.993 27.1663 430.277 27.2252C430.547 27.2816 430.882 27.1893 431.172 27.2611C431.823 27.4226 431.829 27.42 432.326 27.3892C432.751 27.3611 433.176 27.3303 433.601 27.3098C433.685 27.3047 433.781 27.3431 433.872 27.3636C434.142 27.42 434.316 27.5481 434.716 27.4995C435.018 27.461 435.353 27.4533 435.669 27.4328C435.933 27.5071 436.178 27.5917 436.461 27.6506C436.725 27.707 436.803 27.7506 436.661 27.8249C436.532 27.8941 436.352 27.9223 436.113 27.9274C435.901 27.93 435.688 27.953 435.476 27.9659C435.366 27.9735 435.263 27.9787 435.16 27.9864C434.754 28.0146 434.754 28.0146 434.013 27.8505C433.723 27.7865 433.395 27.8762 433.118 27.8147C432.931 27.7737 432.77 27.7122 432.59 27.6686C432.512 27.6507 432.39 27.6481 432.293 27.6532C431.971 27.6712 431.649 27.684 431.34 27.7173C431.121 27.7403 430.992 27.8121 431.018 27.8839C431.024 27.9121 431.179 27.9531 431.269 27.9556C431.475 27.9608 431.694 27.9249 431.894 27.9428C432.087 27.9607 432.287 28.012 432.428 28.0684C432.718 28.1863 433.047 28.0812 433.324 28.112C433.614 28.1453 433.852 28.2478 434.129 28.3093C434.2 28.3247 434.335 28.299 434.445 28.2913C434.76 28.2734 435.076 28.258 435.392 28.2401C435.656 28.3144 435.94 28.381 436.178 28.4656C436.61 28.6194 437.073 28.6783 437.634 28.604C437.949 28.563 438.259 28.5784 438.51 28.6783C438.768 28.7808 439.064 28.7706 439.392 28.7501C439.695 28.7296 440.004 28.6732 440.314 28.7449C440.984 28.9038 440.99 28.9115 441.783 28.85C442.021 28.8321 442.201 28.827 442.382 28.8859C442.549 28.9397 442.73 28.9858 442.903 29.0371C443.219 29.0192 443.541 29.0012 443.857 28.9807C444.263 28.9525 444.488 28.9884 444.585 29.1319C444.643 29.2191 444.669 29.2985 444.81 29.3574C444.978 29.4292 445.158 29.4266 445.403 29.4061C445.635 29.3882 445.802 29.36 445.899 29.2678C445.938 29.2293 446.015 29.1934 446.086 29.1627C446.144 29.1396 446.234 29.1037 446.286 29.1089C446.382 29.1191 446.511 29.1473 446.543 29.1806C446.859 29.4907 446.859 29.4933 447.181 29.583C447.535 29.6829 447.903 29.7726 448.225 29.8854C448.515 29.9853 448.804 29.9418 449.12 29.9418C449.358 29.9418 449.513 30.0084 449.494 30.075C449.481 30.1135 449.391 30.1698 449.313 30.1749C448.682 30.2262 448.044 30.2698 447.406 30.3056C447.329 30.3108 447.233 30.2646 447.142 30.2416C446.962 30.1954 446.801 30.1237 446.608 30.1083C446.414 30.0929 446.189 30.1314 445.976 30.1442C445.764 30.157 445.538 30.1903 445.345 30.1698C445.152 30.1493 444.997 30.075 444.817 30.0263C444.733 30.0033 444.617 29.97 444.546 29.9776C444.076 30.0391 443.728 29.9546 443.393 29.8418C443.322 29.8187 443.2 29.8034 443.11 29.8085C442.362 29.8521 441.622 29.9033 440.874 29.952C440.571 29.9725 440.327 29.8828 440.262 29.7316C440.23 29.647 440.166 29.5625 440.166 29.4779C440.166 29.3241 439.811 29.2396 439.554 29.2575C439.128 29.2831 438.697 29.3036 438.278 29.3421C437.937 29.3728 437.647 29.3421 437.415 29.2498C437.144 29.1447 436.835 29.1652 436.526 29.1934C436.294 29.2139 436.229 29.2985 436.242 29.5112C436.255 29.6829 436.146 29.7367 435.727 29.7649C435.199 29.8008 434.664 29.8367 434.129 29.8649C434.045 29.87 433.949 29.8264 433.865 29.8034C433.685 29.7572 433.524 29.6829 433.33 29.6675C433.137 29.6496 432.912 29.688 432.699 29.7034C432.486 29.7162 432.261 29.7521 432.068 29.7342C431.874 29.7162 431.713 29.6394 431.539 29.5907C431.456 29.5676 431.353 29.5343 431.269 29.5394C430.844 29.5599 430.419 29.5907 429.993 29.6189C429.517 29.6496 429.517 29.6496 428.84 29.4907C428.531 29.419 428.222 29.4753 427.919 29.4958C427.597 29.5163 427.294 29.5266 427.043 29.4241C426.875 29.3574 426.689 29.3164 426.489 29.3293C425.954 29.36 425.426 29.3985 424.891 29.4292C424.801 29.4343 424.679 29.4215 424.608 29.3985C424.266 29.2908 423.931 29.2062 423.455 29.2601C423.042 29.3062 422.598 29.3087 422.186 29.3523C421.96 29.3754 421.857 29.4574 421.902 29.5215C421.928 29.5548 422.063 29.5932 422.153 29.5932C422.359 29.5958 422.585 29.5573 422.778 29.5727C423.178 29.6035 423.377 29.8187 423.899 29.7598C424.208 29.7239 424.53 29.7111 424.853 29.7008C424.936 29.6983 425.026 29.747 425.117 29.7726C425.374 29.8418 425.6 29.9315 425.973 29.8854C426.283 29.8495 426.611 29.8393 426.927 29.8188C427.429 29.7854 427.429 29.788 428.08 29.9443C428.389 30.0186 428.698 29.9597 429.001 29.9418C429.227 29.9289 429.439 29.9033 429.62 29.9392C429.897 29.993 430.096 30.116 430.438 30.1083C430.76 30.1006 431.076 30.0648 431.398 30.0519C431.597 30.0443 431.784 30.0853 431.945 30.1545C432.113 30.2236 432.293 30.2544 432.512 30.239C432.828 30.2185 433.15 30.1929 433.472 30.1801C433.562 30.1775 433.665 30.2006 433.749 30.2211C433.93 30.2672 434.103 30.321 434.277 30.3697C434.593 30.3543 434.915 30.3492 435.224 30.3185C435.463 30.2954 435.63 30.3057 435.824 30.3569C436.068 30.4261 436.268 30.5491 436.667 30.4902C436.867 30.462 437.099 30.4697 437.299 30.444C437.544 30.4107 437.711 30.4235 437.885 30.5004C438.214 30.6465 438.626 30.6491 439.051 30.5927C439.515 30.5312 439.863 30.603 440.211 30.7157C440.578 30.8336 440.578 30.831 440.861 31.1155C440.945 31.1975 441.183 31.2359 441.383 31.2206C441.718 31.1949 442.008 31.2077 442.253 31.3051C442.51 31.4102 442.82 31.3974 443.135 31.3692C443.554 31.3308 443.973 31.2974 444.314 31.4461C444.482 31.5178 444.662 31.5358 444.888 31.5178C445.525 31.4717 446.17 31.4435 446.794 31.3872C447.175 31.3513 447.394 31.4333 447.651 31.5025C447.999 31.5973 448.379 31.6819 448.379 31.8843C448.379 31.9176 448.469 31.9561 448.547 31.9817C448.714 32.0355 448.895 32.0816 449.069 32.1329C449.326 32.2098 449.577 32.2738 449.932 32.2328C450.241 32.1995 450.569 32.1893 450.885 32.1662C451.201 32.1431 451.491 32.1303 451.774 32.2277C452.103 32.3379 452.451 32.443 452.824 32.525C453.088 32.5839 453.436 32.484 453.72 32.5634C453.894 32.6121 454.061 32.6685 454.248 32.7095C454.325 32.7274 454.448 32.7146 454.551 32.7095C454.763 32.6993 454.982 32.6916 455.189 32.666C455.427 32.6378 455.607 32.6429 455.788 32.7018C455.955 32.7557 456.123 32.83 456.316 32.8453C456.606 32.8684 456.928 32.7659 457.218 32.8838C457.366 32.9427 457.553 32.9991 457.746 33.0171C457.939 33.035 458.165 32.9965 458.371 32.9991C458.461 32.9991 458.571 33.0401 458.622 33.0734C458.654 33.0914 458.609 33.1401 458.564 33.1657C458.506 33.1964 458.423 33.2375 458.339 33.2426C457.701 33.2887 457.063 33.3271 456.425 33.3707C456.045 33.3963 456.045 33.3963 455.279 33.2349C455.098 33.1964 454.899 33.2041 454.673 33.2221C454.37 33.2451 454.061 33.2887 453.746 33.2426C453.333 33.0683 452.824 33.0529 452.283 33.1195C452.058 33.1477 451.851 33.1477 451.684 33.099C451.33 33.0017 450.956 32.912 450.64 32.7967C450.396 32.707 450.28 32.6993 450.177 32.8223C450.144 32.8607 450.112 32.9017 450.119 32.9376C450.157 33.0657 450.228 33.1913 450.267 33.3194C450.28 33.3553 450.228 33.3963 450.196 33.4348C450.093 33.5424 449.958 33.5347 449.732 33.445C449.507 33.3553 449.236 33.2964 448.875 33.3374C448.566 33.3733 448.231 33.3682 447.922 33.4066C447.445 33.463 447.11 33.381 446.769 33.2708C446.698 33.2477 446.575 33.2349 446.485 33.24C445.525 33.299 444.572 33.3656 443.612 33.4245C443.406 33.4373 443.219 33.3989 443.058 33.3297C442.891 33.2605 442.704 33.2246 442.497 33.2374C441.647 33.2913 440.797 33.34 439.946 33.4066C439.599 33.4348 439.322 33.4014 439.083 33.3117C438.903 33.2451 438.735 33.2246 438.51 33.2323C438.265 33.24 438.091 33.2656 437.969 33.34C437.853 33.4117 437.936 33.4553 438.194 33.5116C438.471 33.5732 438.729 33.6526 438.993 33.7244C439.206 33.7141 439.418 33.6936 439.624 33.6962C439.715 33.6962 439.798 33.7423 439.889 33.7679C440.146 33.8422 440.385 33.9166 440.752 33.8756C441.061 33.8397 441.389 33.832 441.705 33.8089C442.143 33.7807 442.143 33.7807 442.852 33.9422C443.032 33.9832 443.225 33.9806 443.457 33.9576C443.657 33.9396 443.863 33.9755 444.005 34.0524C444.063 34.0831 444.044 34.1344 443.921 34.3036C443.921 34.4291 444.056 34.3727 444.102 34.2907C444.172 34.1728 444.037 34.1344 443.779 34.1985C443.599 34.2446 443.509 34.3112 443.554 34.3651C443.58 34.3932 443.702 34.4291 443.921 34.3036C444.488 34.1498 444.92 34.1318 445.332 34.0908C445.577 34.0678 445.731 34.078 445.925 34.1446C446.157 34.2241 446.389 34.3087 446.769 34.2677C447.181 34.2215 447.619 34.2164 448.038 34.178C448.424 34.1421 448.624 34.2549 448.869 34.3215C449.165 34.4009 449.494 34.3112 449.764 34.3574C450.048 34.4035 450.247 34.5162 450.576 34.5367C451.053 34.4675 451.355 34.5957 451.716 34.6803C452 34.7443 452.335 34.6879 452.637 34.6598C452.979 34.629 453.262 34.6572 453.501 34.7495C453.771 34.8545 454.074 34.8315 454.383 34.8084C455.105 34.7572 455.131 34.7495 455.549 34.8904C455.852 34.9929 456.142 34.9468 456.445 34.934C456.709 35.0032 456.967 35.0775 457.244 35.139C457.315 35.1544 457.45 35.1287 457.559 35.1211C457.875 35.1006 458.197 35.0801 458.513 35.0596C458.725 35.0467 458.951 35.0083 459.144 35.0237C459.337 35.0416 459.498 35.1159 459.672 35.1646C459.846 35.2133 460.027 35.262 460.194 35.3133C460.452 35.3901 460.697 35.4542 461.057 35.4158C461.367 35.3825 461.689 35.3722 462.011 35.3491C462.417 35.321 462.404 35.3286 463.157 35.4824C463.563 35.567 463.982 35.4645 464.394 35.4542C464.6 35.4491 464.8 35.4773 464.942 35.5516C465 35.5824 464.981 35.6336 465 35.6772C463.937 35.7464 462.868 35.8053 461.817 35.8899C461.412 35.9232 461.199 35.8309 460.98 35.754C460.619 35.631 460.143 35.8104 459.801 35.6515C459.595 35.5567 459.299 35.5029 458.944 35.549C458.738 35.5747 458.519 35.5721 458.307 35.5952C457.765 35.6515 457.269 35.6541 456.838 35.4773C456.69 35.4158 456.477 35.3825 456.322 35.3235C456.142 35.2595 455.968 35.2236 455.755 35.2364C454.796 35.2979 453.842 35.3594 452.889 35.426C452.805 35.4311 452.721 35.4696 452.65 35.4978C452.47 35.5695 452.528 35.6259 452.818 35.6721C452.914 35.6874 452.992 35.7207 453.082 35.7464C453.256 35.795 453.417 35.8719 453.61 35.8899C453.803 35.9078 454.029 35.8719 454.242 35.8591C454.454 35.8463 454.68 35.8079 454.873 35.8232C455.066 35.8412 455.227 35.9155 455.408 35.9616C455.491 35.9847 455.595 36.0231 455.678 36.0206C456.103 36.0052 456.522 35.977 456.947 35.9539C457.211 36.0231 457.437 36.1231 457.753 36.1462C457.952 36.1615 458.165 36.1333 458.371 36.1385C458.461 36.141 458.577 36.1795 458.622 36.2128C458.648 36.2333 458.564 36.2845 458.5 36.3102C458.255 36.4076 457.92 36.3896 457.617 36.4204C457.289 36.4537 456.992 36.4434 456.741 36.3435C456.574 36.2769 456.387 36.241 456.181 36.2538C455.646 36.2871 455.118 36.3256 454.583 36.3538C454.493 36.3589 454.383 36.3358 454.3 36.3179C453.623 36.1615 453.623 36.1564 453.146 36.1897C452.444 36.2384 452.444 36.2384 451.974 36.1026C451.884 36.0769 451.787 36.0283 451.71 36.0308C450.962 36.0718 450.222 36.1128 449.481 36.1718C449.236 36.1897 449.069 36.1897 448.888 36.1231C448.734 36.0667 448.553 36.0026 448.36 35.9873C448.16 35.9719 447.941 36.0103 447.729 36.0231C447.516 36.036 447.291 36.0693 447.104 36.0488C446.91 36.0283 446.743 35.9565 446.575 35.9053C446.401 35.8515 446.215 35.854 445.976 35.8745C445.242 35.9334 445.235 35.9258 444.508 35.7669C444.424 35.7489 444.314 35.7284 444.224 35.7336C443.689 35.7643 443.161 35.8028 442.626 35.8335C442.42 35.8463 442.221 35.813 442.079 35.7387C442.021 35.7079 442.04 35.6567 442.002 35.5567C441.956 35.5336 442.008 35.5747 442.021 35.6131C442.117 35.608 442.233 35.6131 442.304 35.5926C442.485 35.5439 442.575 35.4798 442.53 35.426C442.504 35.3978 442.382 35.3619 442.304 35.3619C442.163 35.3619 442.04 35.4183 442.002 35.5567C441.596 35.6413 441.164 35.6592 440.745 35.7002C440.5 35.7259 440.346 35.7131 440.153 35.6464C439.921 35.5644 439.682 35.485 439.302 35.526C438.89 35.5721 438.452 35.5798 438.027 35.6157C437.537 35.6567 437.324 35.426 436.912 35.4311C436.487 35.4363 436.062 35.4798 435.637 35.5106C435.263 35.5362 435.263 35.5362 434.49 35.3696C434.207 35.3081 433.872 35.3978 433.595 35.3338C433.408 35.2928 433.247 35.2313 433.066 35.1877C432.989 35.1698 432.867 35.1697 432.77 35.1749C432.235 35.2056 431.694 35.2261 431.179 35.2825C430.593 35.3491 430.148 35.2774 429.729 35.1262C429.201 35.1544 428.666 35.1698 428.145 35.2184C427.764 35.2543 427.545 35.1698 427.288 35.1006C427.197 35.0775 427.12 35.0391 427.024 35.0288C426.927 35.0185 426.811 35.039 426.708 35.0467C426.283 35.0749 425.845 35.0878 425.432 35.1339C424.923 35.1928 424.73 34.9827 424.337 34.957C424.073 35.0826 423.931 35.2543 423.41 35.2671C422.984 35.2774 422.559 35.3184 422.134 35.3466C421.921 35.3594 421.709 35.3748 421.496 35.3876C421.155 35.4107 420.994 35.5106 421.065 35.6644C421.103 35.7489 421.135 35.8335 421.168 35.9181C421.232 36.0693 421.071 36.1974 420.8 36.2154C420.053 36.264 419.312 36.3153 418.565 36.3589C418.365 36.3717 418.172 36.3281 418.011 36.2589C417.843 36.1897 417.657 36.159 417.451 36.1718C416.703 36.2205 415.962 36.2717 415.215 36.3153C415.131 36.3204 415.022 36.2948 414.938 36.2743C414.758 36.2282 414.584 36.1744 414.41 36.1257C413.985 36.1487 413.566 36.1641 413.147 36.1948C412.471 36.241 412.471 36.2435 411.975 36.1026C411.885 36.0769 411.794 36.0283 411.711 36.0308C411.389 36.0411 411.073 36.0667 410.751 36.0898C409.804 36.1564 409.804 36.1564 409.527 36.0795C409.275 36.0078 409.05 35.9206 408.67 35.9616C408.258 36.0078 407.819 36.0231 407.394 36.0488C407.079 36.0667 406.763 36.0872 406.447 36.0923C406.364 36.0949 406.273 36.0462 406.183 36.0206C405.926 35.9411 405.674 35.8771 405.32 35.9206C405.114 35.9463 404.895 35.9514 404.682 35.9642C404.128 36.0001 404.128 36.0001 403.22 35.8463C403.13 35.8309 403.02 35.813 402.93 35.8207C402.183 35.8668 401.442 35.9181 400.695 35.9616C400.604 35.9668 400.495 35.9514 400.405 35.9386C399.387 35.7899 399.387 35.7899 398.305 35.8617C397.892 35.8873 397.879 35.8976 397.448 35.7617C397.254 35.7028 397.093 35.6746 396.868 35.6925C396.018 35.754 395.161 35.7951 394.317 35.8668C393.937 35.8976 393.718 35.8207 393.46 35.7515C393.37 35.7284 393.273 35.6772 393.196 35.6797C392.346 35.7284 391.495 35.7874 390.645 35.8361C390.567 35.8412 390.471 35.7899 390.381 35.7669C390.207 35.7207 390.039 35.6515 389.846 35.6362C389.646 35.6208 389.427 35.6592 389.208 35.6721C388.673 35.7054 388.673 35.7028 388.055 35.5516C387.971 35.5311 387.862 35.5029 387.778 35.508C386.928 35.5593 386.071 35.6029 385.227 35.6772C384.744 35.7182 384.415 35.6439 384.074 35.5362C384.003 35.5132 383.881 35.5029 383.79 35.508C382.83 35.567 381.877 35.6336 380.917 35.6925C380.717 35.7054 380.524 35.6618 380.363 35.5952C380.105 35.4901 379.803 35.5029 379.481 35.526C378.74 35.5798 378.733 35.5772 378.295 35.4542C378.205 35.4286 378.128 35.3953 378.031 35.3825C377.941 35.3696 377.825 35.3773 377.728 35.3825C377.303 35.4081 376.878 35.4363 376.453 35.4645C376.028 35.4926 375.596 35.508 375.177 35.5516C374.662 35.6054 374.417 35.4388 374.056 35.3619C373.528 35.3953 372.987 35.4158 372.465 35.4696C372.066 35.5106 371.879 35.3978 371.615 35.3389C371.525 35.3184 371.428 35.2748 371.344 35.2799C370.384 35.3363 369.424 35.3978 368.471 35.467C368.239 35.4824 368.084 35.4619 367.891 35.4004C367.46 35.262 367.44 35.2671 366.719 35.3184C366.403 35.3415 366.1 35.362 365.83 35.2569C365.591 35.1621 365.301 35.139 364.96 35.1697C364.541 35.2082 364.11 35.2287 363.684 35.2543C363.259 35.2825 362.834 35.3209 362.409 35.3338C362.068 35.3466 361.861 35.2261 361.591 35.1646C361.507 35.1467 361.391 35.1441 361.294 35.1492C360.869 35.1723 360.431 35.1902 360.019 35.2338C359.516 35.2876 359.239 35.1467 358.885 35.0647C358.808 35.0467 358.679 35.057 358.582 35.0647C357.835 35.1108 357.094 35.1621 356.347 35.2107C356.083 35.1416 355.812 35.0749 355.548 35.0057C355.123 35.0314 354.698 35.0595 354.272 35.0852C353.95 35.1057 353.622 35.1134 353.319 35.1518C352.926 35.2031 352.733 35.0826 352.469 35.0237C352.378 35.0032 352.282 34.9596 352.198 34.9647C351.663 34.9929 351.129 35.0237 350.6 35.0672C350.098 35.1108 349.898 34.8801 349.486 34.8827C349.061 34.8853 348.623 34.9186 348.21 34.9647C347.734 35.0186 347.399 34.9365 347.057 34.8263C346.986 34.8033 346.864 34.7905 346.774 34.7956C346.239 34.8263 345.711 34.8648 345.176 34.8955C345.086 34.9007 344.977 34.8879 344.886 34.8725C343.868 34.7213 343.868 34.7187 343.424 34.7495C343.108 34.77 342.786 34.7956 342.464 34.8084C342.374 34.8135 342.264 34.7905 342.181 34.77C341.511 34.6136 341.511 34.6111 341.027 34.6418C340.602 34.67 340.177 34.6982 339.752 34.7264C339.488 34.6572 339.217 34.5906 338.953 34.5214C338.425 34.5547 337.884 34.5803 337.362 34.6264C337.117 34.6469 336.956 34.6393 336.769 34.5752C336.537 34.4983 336.305 34.4086 335.919 34.4522C335.506 34.4983 335.068 34.5034 334.65 34.5419C334.147 34.588 333.941 34.3548 333.535 34.3574C333.11 34.3599 332.672 34.3932 332.26 34.4394C331.783 34.4932 331.448 34.4112 331.107 34.301C331.036 34.2779 330.913 34.2651 330.823 34.2702C329.651 34.3446 328.485 34.4188 327.312 34.4983C326.591 34.547 326.591 34.5496 325.219 34.4086C325.122 34.3984 325.019 34.3881 324.922 34.3932C324.497 34.4163 324.059 34.4342 323.646 34.4778C323.144 34.5316 322.867 34.3932 322.513 34.3087C322.435 34.2907 322.313 34.301 322.21 34.3061C321.888 34.324 321.572 34.3471 321.25 34.3676C320.825 34.3958 320.4 34.424 319.975 34.4522C319.71 34.3856 319.44 34.3163 319.176 34.2497C318.647 34.283 318.106 34.301 317.585 34.3548C317.185 34.3958 316.998 34.2882 316.734 34.2267C316.644 34.2062 316.547 34.1626 316.464 34.1652C315.504 34.2215 314.544 34.2805 313.59 34.3522C313.197 34.383 313.017 34.2676 312.753 34.2087C312.663 34.1908 312.56 34.1575 312.476 34.1626C311.838 34.1985 311.2 34.242 310.563 34.2856C310.202 34.3112 310.202 34.3112 309.416 34.1523C309.326 34.1344 309.223 34.1165 309.133 34.1216C307.11 34.2497 305.093 34.3855 303.07 34.5137C302.864 34.5265 302.677 34.4881 302.516 34.4189C302.349 34.3497 302.162 34.3138 301.956 34.3266C301.106 34.3804 300.249 34.4291 299.405 34.4958C299.057 34.524 298.78 34.4906 298.542 34.4009C298.361 34.3343 298.194 34.3087 297.968 34.324C297.543 34.3548 297.118 34.3804 296.693 34.4086C296.268 34.4368 295.842 34.465 295.417 34.4932C294.992 34.5214 294.56 34.5368 294.142 34.5803C293.626 34.6341 293.375 34.4753 293.021 34.3958C292.383 34.4343 291.745 34.4727 291.114 34.5137C290.263 34.5675 289.413 34.6265 288.563 34.6777C288.485 34.6828 288.389 34.6367 288.299 34.6136C288.034 34.5496 287.841 34.4599 287.448 34.4881C285.541 34.6239 283.622 34.7392 281.708 34.8725C281.309 34.9007 281.135 34.7905 280.864 34.7315C280.774 34.7136 280.671 34.6777 280.587 34.6828C279.524 34.7469 278.461 34.8186 277.399 34.8878C276.967 34.916 276.967 34.916 276.245 34.7571C276.162 34.7392 276.052 34.7161 275.962 34.7213C274.577 34.8084 273.198 34.9007 271.813 34.9904C271.607 35.0032 271.42 34.9673 271.253 34.8981C271.092 34.8289 270.898 34.7905 270.699 34.8033C269.423 34.8853 268.141 34.9647 266.872 35.0544C266.531 35.0801 266.247 35.057 266.002 34.9647C265.828 34.8981 265.654 34.8699 265.435 34.8853C263.522 35.0108 261.609 35.1313 259.695 35.2646C259.328 35.2902 259.071 35.2415 258.839 35.1569C258.652 35.0903 258.491 35.0775 258.259 35.0877C258.014 35.1006 257.866 35.1287 257.731 35.2056C257.557 35.3056 257.447 35.4311 257.035 35.4388C256.61 35.4465 256.178 35.4773 255.759 35.5209C255.36 35.5644 255.173 35.4491 254.922 35.3799C254.735 35.3312 254.561 35.3235 254.323 35.3466C254.104 35.3671 253.968 35.4106 253.84 35.4926C253.556 35.6669 253.53 35.6669 253.182 35.5567C252.996 35.4978 252.828 35.4516 252.622 35.4619C251.772 35.5131 250.921 35.5695 250.071 35.6285C249.581 35.6618 249.575 35.6669 249.208 35.5388C249.027 35.4747 248.853 35.444 248.641 35.4593C246.302 35.6131 243.964 35.7617 241.625 35.9232C241.265 35.9488 241.02 35.895 240.762 35.8181C240.678 35.7925 240.595 35.7566 240.498 35.7464C240.401 35.7361 240.292 35.7464 240.189 35.7515C238.488 35.8617 236.781 35.9668 235.086 36.0898C234.7 36.118 234.494 36.036 234.23 35.9693C234.14 35.9463 234.062 35.9104 233.966 35.9001C233.869 35.8925 233.753 35.9104 233.65 35.9181C231.949 36.0283 230.242 36.1334 228.548 36.2564C228.142 36.2846 227.968 36.1769 227.704 36.1205C227.614 36.1 227.517 36.0616 227.433 36.0667C226.899 36.0949 226.37 36.1333 225.836 36.1666C224.56 36.2512 223.284 36.3307 222.009 36.4178C221.519 36.4511 221.307 36.223 220.894 36.2333C220.36 36.2461 219.831 36.2974 219.297 36.3332C218.872 36.3614 218.446 36.3871 218.021 36.4178C217.602 36.446 217.602 36.446 216.559 36.2973C216.469 36.2845 216.359 36.2666 216.269 36.2717C214.781 36.3666 213.286 36.4614 211.805 36.5639C211.463 36.5869 211.18 36.5741 210.935 36.4793C210.761 36.4127 210.581 36.3794 210.368 36.3947C208.133 36.5408 205.904 36.6869 203.668 36.8304C203.584 36.8355 203.475 36.8099 203.391 36.7894C203.211 36.7433 203.037 36.6895 202.863 36.6408C202.734 36.6997 202.567 36.7535 202.483 36.8202C202.367 36.9099 202.212 36.9355 201.967 36.9509C201.723 36.9662 201.568 36.9611 201.375 36.8945C201.143 36.8125 200.905 36.7484 200.524 36.774C198.186 36.9355 195.847 37.0816 193.509 37.2405C193.122 37.2661 192.942 37.1533 192.672 37.0944C192.581 37.0764 192.478 37.0483 192.394 37.0534C191.435 37.1123 190.481 37.1764 189.521 37.2379C186.861 37.4122 184.2 37.5787 181.546 37.7633C181.063 37.7966 180.734 37.7325 180.393 37.6223C180.322 37.5992 180.2 37.5864 180.109 37.5915C176.386 37.8324 172.662 38.0759 168.945 38.3194C168.745 38.3322 168.552 38.2912 168.391 38.2245C168.223 38.1553 168.037 38.122 167.831 38.1348C166.13 38.245 164.429 38.3553 162.728 38.468C162.303 38.4962 162.297 38.4987 161.859 38.3757C161.769 38.3501 161.672 38.3014 161.601 38.3066C161.453 38.3194 161.311 38.3834 161.208 38.4706C161.105 38.5628 160.944 38.5884 160.706 38.6064C160.461 38.6243 160.3 38.6166 160.113 38.5551C159.875 38.4783 159.655 38.4039 159.269 38.4296C154.379 38.7576 149.49 39.0728 144.6 39.3983C144.207 39.4239 144.027 39.3163 143.756 39.2573C143.666 39.2394 143.576 39.2138 143.479 39.2086C143.376 39.2035 143.267 39.2189 143.164 39.2266C135.188 39.7468 127.213 40.2696 119.238 40.7898C118.761 40.8206 118.767 40.8206 118.245 41.0564C118.181 41.0846 118.097 41.123 118.007 41.1281C115.565 41.2921 113.118 41.451 110.67 41.6099C109.607 41.6791 108.544 41.7509 107.481 41.8175C107.101 41.8406 107.101 41.8406 106.192 42.1174C106.115 42.1404 106.025 42.1712 105.934 42.1763C101.683 42.4556 97.4308 42.735 93.1726 43.0092C92.8376 43.0297 92.567 43.0758 92.4124 43.1988C92.3029 43.286 92.1612 43.3372 91.9486 43.3526C88.9724 43.5474 85.9962 43.7447 83.0135 43.9343C82.6591 43.9574 82.4465 44.0292 82.2725 44.1368C82.2145 44.1727 82.163 44.2137 82.0792 44.2393C82.0019 44.2624 81.886 44.2701 81.7894 44.2777C79.2383 44.4443 76.6873 44.616 74.1297 44.7749C73.7496 44.798 73.5949 44.8928 73.4081 44.9928C73.3437 45.0261 73.2986 45.0722 73.2148 45.0953C73.1311 45.1158 73.0087 45.1158 72.9056 45.1209C70.7797 45.2593 68.6539 45.4002 66.528 45.5386C66.1157 45.5258 66.0254 45.6745 65.8257 45.7641C65.7549 45.7949 65.7034 45.8359 65.6197 45.8564C65.5295 45.8769 65.4134 45.8743 65.3039 45.8795C63.6031 45.9897 61.9025 46.1076 60.1953 46.2101C59.8023 46.2331 59.725 46.3638 59.5124 46.4535C59.4415 46.4817 59.3708 46.5253 59.287 46.533C58.2241 46.6073 57.1611 46.6765 56.0982 46.7431C55.7439 46.7662 55.7439 46.7636 55.119 47.0173C55.0481 47.0455 54.9643 47.0763 54.8741 47.084C53.2829 47.1916 51.6853 47.2941 50.0876 47.3992C49.8815 47.412 49.7398 47.4735 49.6367 47.5606C49.5336 47.6478 49.3855 47.7041 49.1793 47.717C47.9038 47.8015 46.6281 47.8887 45.3526 47.9655C44.9983 47.986 44.7664 48.0501 44.6118 48.1654C44.4958 48.2526 44.3541 48.2961 44.1286 48.3115C42.8531 48.3935 41.5776 48.4832 40.2956 48.555C39.922 48.5755 39.7286 48.6626 39.574 48.7702C39.4516 48.8574 39.3099 48.8881 39.0715 48.9035C36.733 49.0522 34.3881 49.2008 32.0561 49.3648C31.6631 49.393 31.4634 49.3033 31.2057 49.2392C30.8385 49.1495 30.4971 49.0521 30.4971 48.8522C30.4971 48.8215 30.3876 48.7856 30.3103 48.76C29.7369 48.5678 29.7369 48.5678 29.6467 48.3628C29.5952 48.2372 29.5372 48.1091 29.4921 47.9809C29.4084 47.7708 29.2022 47.717 28.6095 47.7554C28.3969 47.7682 28.1843 47.7861 27.9717 47.7964C27.656 47.8143 27.4177 47.7298 27.3597 47.576C27.3275 47.4914 27.2889 47.4069 27.2567 47.3223C27.5788 47.3018 27.5723 47.2992 28.1392 46.9891C28.3776 46.8584 28.3777 46.8584 27.9203 46.7277C27.7463 46.679 27.5788 46.6252 27.392 46.5791C27.3082 46.5586 27.1988 46.5458 27.1086 46.5509C26.5739 46.5816 26.0456 46.6175 25.5174 46.6534C24.667 46.7098 24.6669 46.7098 23.8037 46.4484C23.7328 46.4279 23.6233 46.3895 23.6362 46.3689C23.707 46.2741 23.8809 46.2331 24.1 46.2229C24.4221 46.2075 24.7377 46.1819 25.0534 46.1614C25.266 46.1485 25.4786 46.1332 25.6912 46.1204C25.8909 46.023 26.0971 45.9282 26.284 45.8282C26.5803 45.6745 26.5802 45.6693 26.1743 45.5617C25.9166 45.4899 25.6396 45.4258 25.3755 45.3592C25.0598 45.3797 24.7378 45.4028 24.4221 45.4207C24.0227 45.4438 23.8616 45.3951 23.7585 45.2285C23.6683 45.0824 23.7779 44.9569 24.0871 44.9261C24.4027 44.8954 24.6992 44.8749 24.8603 44.7442C25.0149 44.6186 25.2854 44.5699 25.6204 44.5596C25.833 44.552 26.0456 44.534 26.2582 44.5187C26.5352 44.4982 26.6834 44.3674 26.6254 44.2214C26.5932 44.1265 26.5287 44.0471 26.2775 44.0266C25.163 43.9369 25.1501 43.9395 24.596 43.7652C24.5445 43.7498 24.5059 43.7037 24.5253 43.6806C24.5575 43.6422 24.6284 43.5858 24.7057 43.5781C25.4465 43.5217 26.1873 43.4705 26.9282 43.4321C27.173 43.4192 27.3534 43.4013 27.4371 43.3064C27.5531 43.1757 27.5015 43.0553 27.2761 42.9656C27.2052 42.9374 27.0891 42.9016 27.0118 42.9041C26.1615 42.9502 25.3176 43.0092 24.4672 43.0553C24.3899 43.0604 24.2483 43.0169 24.2161 42.9836C24.1516 42.9221 24.2482 42.84 24.4737 42.8119C24.77 42.7734 25.0728 42.7708 25.2725 42.6427C25.5495 42.4608 25.8909 42.2942 26.2001 42.1199C26.2517 42.0892 26.3355 42.0302 26.3162 42.0251C26.1551 41.9687 25.9683 41.9251 25.8008 41.8713C25.5173 41.7816 25.5173 41.6561 25.5817 41.5356C25.6332 41.4382 25.8265 41.3998 26.0649 41.3998C26.1679 41.3998 26.2968 41.3998 26.3805 41.3767C26.5996 41.3203 26.6704 41.2486 26.5609 41.1948C26.4965 41.164 26.3806 41.1205 26.3033 41.1256C24.9247 41.2102 23.5395 41.2921 22.1673 41.3972C21.7615 41.428 21.5748 41.3306 21.33 41.2614C21.1432 41.2076 20.9691 41.1871 20.7372 41.2255C20.5182 41.2614 20.3057 41.2409 20.1704 41.1563C20.0609 41.0871 20.2541 41.0282 20.7759 40.9616C20.8725 40.9487 20.982 40.941 21.0529 40.9154C21.8002 40.6386 21.8001 40.6361 22.3155 40.6002C22.818 40.5669 22.8181 40.5643 23.0822 40.4157C23.2046 40.3465 23.3398 40.2773 23.4558 40.2055C23.5009 40.1773 23.5783 40.1261 23.5525 40.1107C23.4108 40.0313 23.2174 40.0133 22.992 40.0313C22.4895 40.0749 21.8969 40.039 21.6327 40.2824C21.5297 40.3747 21.3686 40.4003 21.1367 40.4157C18.8046 40.5643 16.4725 40.7232 14.134 40.8667C13.7539 40.8898 13.5801 40.9846 13.4319 41.0897C13.3031 41.1768 13.1613 41.2025 12.9165 41.2178C12.6717 41.2332 12.4784 41.2409 12.3366 41.1563C12.2529 41.1051 12.3238 41.0333 12.517 40.9616C12.794 40.8591 12.7425 40.7309 12.6523 40.6105C12.5879 40.531 12.3882 40.4746 12.1756 40.4798C11.8599 40.49 11.5572 40.5182 11.2931 40.4157C11.1385 40.3568 10.9452 40.3157 10.7712 40.2645C10.4362 40.1594 10.1012 40.0518 9.63097 40.121C9.30886 40.0953 9.08338 40.0031 8.8257 39.9313C8.39407 39.8134 8.35542 39.7955 8.66464 39.6699C9.01252 39.529 8.7419 39.3444 8.93516 39.2061C9.14131 39.0574 9.42486 38.9267 9.6761 38.7884C9.74052 38.7525 9.79853 38.7192 9.86295 38.6833C9.71478 38.632 9.57952 38.568 9.40558 38.5321C9.18011 38.486 9.06414 38.4296 9.07703 38.2707C9.03193 38.2476 9.05113 38.3065 9.10267 38.3219C9.16065 38.3373 9.30248 38.3245 9.37334 38.3066C9.55372 38.2579 9.64382 38.1938 9.59872 38.14C9.57295 38.1118 9.45065 38.0759 9.37334 38.0759C9.23162 38.0759 9.10923 38.1323 9.07058 38.2707C8.34906 38.3758 7.60165 38.427 6.85437 38.468C6.77706 38.4731 6.68048 38.4219 6.59029 38.3963C6.29396 38.3091 6.29392 38.3117 5.42423 38.286C5.33404 38.2835 5.2117 38.2476 5.16661 38.2117C4.97979 38.0554 4.98628 37.8837 4.89609 37.7171C5.06358 37.6095 5.23095 37.5044 5.40488 37.3993C5.75276 37.1866 6.20381 36.9996 6.47438 36.7663C6.4164 36.6408 6.33908 36.5152 6.62254 36.4127C7.4278 36.2846 7.42141 36.2846 7.64044 36.1615C8.26533 35.813 8.88374 35.4619 9.5344 35.1185C9.70833 35.0288 9.70836 34.9801 9.39914 34.9417C9.3025 34.9314 9.19929 34.9289 9.09622 34.934C8.77411 34.9519 8.45201 34.998 8.13634 34.9878C7.82068 34.9801 7.58876 34.8673 7.33108 34.7981C7.06695 34.7264 6.80283 34.6521 6.53871 34.5778C6.23593 34.5854 5.9332 34.6572 5.63042 34.5419C5.39851 34.4522 5.10863 34.3881 4.8445 34.3138C5.04421 34.119 5.41791 33.9704 5.7078 33.7987C5.97193 33.6423 5.97823 33.6449 6.68686 33.5245C7.02186 33.4681 7.13782 33.1785 6.85437 33.0939C6.51293 32.9914 6.15225 32.8966 5.80437 32.7992C5.50159 32.8069 5.19243 32.8761 4.90254 32.7608C4.67706 32.6736 4.41933 32.6147 4.04568 32.648C3.41435 32.7044 2.77016 32.7326 2.13239 32.7787C1.91335 32.7941 1.67492 32.7838 1.57829 32.6967C1.51387 32.6352 1.70071 32.5506 1.9133 32.5327C2.2354 32.5071 2.52527 32.4763 2.68632 32.3482C2.84093 32.22 3.12436 32.1816 3.45935 32.1636C3.54954 32.1585 3.65269 32.1278 3.69778 32.097C3.9297 31.9484 4.1874 31.8202 4.68345 31.8254C4.8896 31.7741 4.99904 31.71 4.93462 31.6485C4.89597 31.6152 4.76075 31.5717 4.68345 31.5768C4.14875 31.6024 3.61407 31.628 3.09226 31.6742C2.84746 31.6947 2.66053 31.6998 2.50592 31.6229C2.39641 31.5716 2.45438 31.5025 2.66053 31.4281C2.84091 31.3641 2.8925 31.2897 2.87962 31.2026C2.84741 31.0002 2.6541 30.9412 2.03566 30.954C1.59115 30.9643 1.48163 30.931 1.385 30.7567C1.35923 30.7157 1.29492 30.6593 1.34002 30.6311C1.61703 30.4569 1.79742 30.2416 2.31923 30.1596C2.52538 30.1288 2.74433 30.1288 2.87317 30.0622C3.00201 29.9956 3.11803 29.9187 3.25331 29.8546C3.42081 29.7777 3.53665 29.706 3.45935 29.6573C3.3305 29.5702 3.12442 29.5625 2.88607 29.5932C2.67992 29.6189 2.46089 29.6214 2.2483 29.6368C1.86821 29.665 1.55906 29.5983 1.51397 29.4856C1.39156 29.1883 1.26268 28.8936 1.15317 28.5963C1.14028 28.5604 1.17241 28.5143 1.22394 28.4835C1.40432 28.3759 1.59766 28.2734 1.78448 28.1683C2.00352 28.0479 2.35145 28.071 2.64779 28.0479C3.06653 28.0146 3.06638 28.0171 3.62685 27.7711C3.84588 27.6737 4.22599 27.7122 4.45146 27.625C4.52232 27.5968 4.63184 27.5507 4.61251 27.5251C4.58675 27.4918 4.45797 27.4661 4.36134 27.4507C4.27115 27.4354 4.16166 27.4277 4.06503 27.4354C2.89256 27.5097 1.72656 27.5892 0.554093 27.6609C0.354387 27.6737 0.135348 27.6173 0.0644843 27.5379C-0.00637922 27.4636 0.0128843 27.3739 0 27.2893C0.186822 27.1842 0.399331 27.0868 0.560384 26.9741C0.682785 26.8869 0.824537 26.8485 1.06934 26.8434C1.39145 26.8357 1.70714 26.8049 2.0679 26.7819C2.73788 26.4077 3.39494 26.0156 4.11646 25.6415C4.40635 25.4903 4.3356 25.3365 4.39358 25.175C4.45156 25.0264 4.88316 25.0495 5.17306 25.0059C5.40497 24.97 5.48218 24.888 5.39199 24.8316C5.34045 24.7983 5.22456 24.7599 5.13437 24.7599C4.92177 24.7599 4.70919 24.7829 4.4966 24.7957C4.28401 24.8086 4.03922 24.8009 3.86528 24.8445C3.69779 24.8855 3.58821 24.9726 3.47869 25.0469C3.35629 25.1289 3.19535 25.1571 2.95055 25.1622C2.63488 25.1674 2.31924 25.1904 2.00357 25.2083C1.6557 25.1084 1.29486 25.011 0.959872 24.906C0.895451 24.8855 0.882497 24.8265 0.88894 24.7881C0.901824 24.6881 0.805217 24.6266 0.592626 24.5779C0.412246 24.5369 0.264065 24.478 0.0965692 24.4267C0.225412 24.3575 0.367189 24.2909 0.470263 24.2166C0.695738 24.0602 0.979224 23.9475 1.46883 23.9526C1.66209 23.8527 1.81666 23.7297 2.0679 23.6605C2.30626 23.5938 2.71213 23.6604 2.89251 23.5092C2.9827 23.4349 3.11806 23.3504 3.292 23.3196C3.56901 23.2709 3.92977 23.2966 4.09082 23.153C4.18745 23.071 4.32912 22.9967 4.51594 22.9762C4.72854 22.9531 4.94751 22.948 5.10212 22.8993C5.18587 22.8737 5.27607 22.8327 5.27607 22.7968C5.27607 22.7738 5.14733 22.7379 5.05714 22.7225C4.97339 22.7046 4.86375 22.6917 4.76712 22.6969C4.44501 22.7122 4.12935 22.7404 3.80725 22.7558C3.71706 22.7609 3.61401 22.743 3.51738 22.7276C3.23393 22.6866 3.25322 22.6354 3.47869 22.5431C3.70417 22.4534 3.86531 22.3381 4.05213 22.233C4.25828 22.2151 4.51593 22.2228 4.65765 22.1741C4.89601 22.0946 5.06346 21.9793 5.25673 21.8793C5.46932 21.864 5.68834 21.8589 5.88804 21.8307C5.97179 21.8204 6.01048 21.764 6.08134 21.7307C6.21018 21.6666 6.31979 21.5744 6.49373 21.5436C6.77718 21.4975 7.12505 21.5154 7.29254 21.3745C7.38918 21.2925 7.53729 21.2054 7.71767 21.2002C8.22016 21.19 8.43275 21.049 8.69044 20.9157C8.8837 20.8158 9.29601 20.8671 9.5086 20.7671C9.65033 20.703 9.75347 20.6236 9.89519 20.5621C9.95317 20.5365 10.0755 20.5237 10.1722 20.516C10.7004 20.4775 11.2351 20.4493 11.7634 20.4083C11.8471 20.4006 11.9245 20.3622 11.9889 20.3315C12.1242 20.2648 12.2078 20.1726 12.3753 20.129C12.5428 20.0854 12.7811 20.0854 12.9873 20.0726C13.6508 20.0342 13.7024 20.0444 14.0052 19.8266C14.25 19.6497 14.8492 19.7753 15.0489 19.5806C15.1649 19.4678 15.3774 19.3756 15.7574 19.3627C16.2921 19.3448 16.8204 19.2961 17.3551 19.2628C17.8318 19.232 17.8254 19.232 18.3407 18.9937C18.5727 18.8861 18.9142 18.9014 19.2169 18.8809C19.5391 18.8604 19.8354 18.8297 19.99 18.7016C20.1446 18.576 20.428 18.535 20.7565 18.517C21.0593 18.4991 21.4008 18.5119 21.6392 18.4094C22.219 18.1634 22.2126 18.1608 22.6184 18.1352C23.2562 18.0942 23.8939 18.0532 24.5317 18.0096C24.9569 17.9814 25.4014 17.9763 25.8008 17.9199C26.0907 17.8789 26.2195 17.7354 26.4063 17.6355C26.9346 17.597 27.4628 17.5586 27.9911 17.5227C28.7319 17.4714 29.4792 17.4253 30.2265 17.3766C30.5486 17.2792 30.5938 17.064 31.1349 17.0537C31.457 17.0486 31.7727 17.0153 32.0948 16.9948C32.6295 16.9589 33.1577 16.9128 33.6924 16.8948C34.0983 16.882 34.169 16.7436 34.3816 16.6565C34.4525 16.6257 34.5169 16.5822 34.6007 16.5745C35.4382 16.5027 36.3014 16.4873 37.1195 16.3823C37.2033 16.372 37.2806 16.3182 37.2999 16.2797C37.3128 16.2592 37.2033 16.2208 37.1324 16.2029C37.0487 16.1824 36.9392 16.1619 36.849 16.167C34.1884 16.3387 31.5279 16.513 28.8673 16.6847C28.4936 16.7103 28.4936 16.7077 27.5853 16.9896C27.508 17.0127 27.4177 17.0383 27.3211 17.046C26.8959 17.0768 26.4643 17.0947 26.0455 17.1332C25.7041 17.1639 25.4207 17.1331 25.1759 17.0409C25.002 16.9742 24.8215 16.9538 24.6025 16.9589C24.3577 16.9666 24.1967 16.9948 24.055 17.064C23.8682 17.1588 23.7715 17.2818 23.3785 17.3074C21.5683 17.4176 19.758 17.5406 17.9542 17.6585C17.7029 17.6226 17.5805 17.5688 17.6449 17.5047C17.6836 17.4663 17.7609 17.4151 17.8382 17.4099C18.5791 17.3561 19.3264 17.31 20.0672 17.2587C20.1703 17.251 20.312 17.2561 20.37 17.2305C20.6534 17.1152 20.7566 16.9281 21.2913 16.9153C21.6005 16.9076 21.9161 16.8692 22.2125 16.8333C22.2962 16.8231 22.3736 16.7692 22.3929 16.7308C22.3993 16.7103 22.2962 16.6718 22.2189 16.6539C21.9355 16.5796 21.607 16.6693 21.3235 16.618C21.2269 16.6001 21.0915 16.5745 21.0722 16.5437C21.0593 16.5155 21.1689 16.4694 21.2462 16.4412C21.317 16.4156 21.4136 16.3925 21.5102 16.3848C22.3606 16.3259 23.2111 16.2644 24.0614 16.2182C24.4093 16.2003 24.6541 16.1362 24.8087 16.0183C24.9246 15.9312 25.0664 15.8851 25.2854 15.8723C26.7735 15.7775 28.2616 15.6724 29.7562 15.5853C30.1298 15.5648 30.3232 15.4802 30.4778 15.37C30.6002 15.2829 30.7419 15.2521 30.9803 15.2367C33.1126 15.1035 35.2321 14.9548 37.3644 14.8267C37.7574 14.8036 37.8734 14.6934 38.0731 14.5986C38.144 14.5653 38.1889 14.5243 38.2791 14.5038C38.3693 14.4833 38.4853 14.4858 38.5948 14.4807C40.2955 14.3705 41.9964 14.2526 43.7035 14.1501C44.1029 14.1271 44.1801 13.9989 44.3863 13.9092C44.4571 13.881 44.5216 13.8349 44.6054 13.8272C45.8809 13.7401 47.1564 13.6581 48.4319 13.5735C49.2823 13.5171 50.1326 13.4607 50.983 13.4069C51.4017 13.3813 51.4018 13.3787 51.9687 13.1353C52.0331 13.1071 52.1234 13.0737 52.2071 13.0661C54.6551 12.902 57.0966 12.7457 59.5446 12.5843C59.7508 12.5715 59.8989 12.5125 60.002 12.4254C60.1051 12.3382 60.2534 12.2793 60.4531 12.2665C62.3664 12.1383 64.2797 12.0128 66.1994 11.8923C66.5473 11.8718 66.792 11.8103 66.9466 11.695C67.0626 11.6079 67.2043 11.5617 67.4234 11.5489C69.3367 11.4259 71.2501 11.2952 73.1699 11.1773C73.5371 11.1542 73.7174 11.0671 73.8977 10.9646C73.9622 10.9287 74.0137 10.8698 74.091 10.8647C75.0445 10.7929 75.9914 10.7186 76.9513 10.6699C77.3507 10.6494 77.4861 10.5418 77.6471 10.4392C77.776 10.3572 77.9242 10.3291 78.169 10.3188C78.7037 10.2957 79.2319 10.2522 79.7537 10.2086C79.831 10.2009 79.9277 10.1445 79.9341 10.1087C79.947 10.042 79.7988 9.9959 79.554 9.97284C77.0029 10.1394 74.4454 10.306 71.8943 10.4726C71.4756 10.5007 71.4756 10.5008 70.9087 10.7442C70.8442 10.7724 70.754 10.8057 70.6638 10.8134C68.2158 10.9749 65.7743 11.1338 63.3262 11.2952C63.1201 11.308 62.972 11.367 62.8689 11.4541C62.7658 11.5412 62.6175 11.6002 62.4178 11.613C60.0793 11.7668 57.7409 11.9231 55.3959 12.0692C55.0481 12.0897 54.8033 12.1486 54.6487 12.2665C54.5327 12.3536 54.391 12.3998 54.172 12.4126C51.9366 12.5561 49.7075 12.7073 47.4656 12.8457C47.2402 12.8585 47.0728 12.7842 47.0856 12.715C47.0921 12.6791 47.1886 12.6202 47.2659 12.615C48.4319 12.5305 49.5916 12.4433 50.7641 12.3793C51.1571 12.3588 51.2729 12.246 51.4726 12.1512C51.537 12.1179 51.5886 12.0743 51.6724 12.0563C51.7626 12.0358 51.8785 12.0384 51.988 12.0333C54.7517 11.8513 57.5155 11.6668 60.2856 11.4951C60.685 11.4695 60.7622 11.3439 60.9683 11.2542C61.0392 11.2235 61.1037 11.1773 61.1874 11.1722C62.0378 11.1107 62.8881 11.0569 63.7385 11.0031C65.2266 10.9057 66.7147 10.8083 68.2093 10.7109C68.6409 10.6827 68.6409 10.6827 69.1949 10.4418C69.2594 10.4136 69.3496 10.3778 69.4334 10.3726C73.3695 10.1138 77.3057 9.85496 81.2419 9.59868C81.448 9.58587 81.5962 9.52693 81.6992 9.4398C81.8023 9.35522 81.9504 9.29372 82.1502 9.27834C87.4714 8.92981 92.7861 8.58126 98.1073 8.23785C98.4552 8.21479 98.7 8.16096 98.8546 8.04052C98.9641 7.95338 99.1123 7.90726 99.3313 7.89189C105.181 7.51004 111.03 7.12819 116.886 6.74378C120.822 6.48751 124.758 6.22611 128.695 5.97496C129.055 5.95189 129.249 5.87243 129.429 5.76736C129.487 5.73148 129.545 5.67254 129.622 5.66741C130.466 5.60334 131.31 5.54441 132.154 5.48547C132.418 5.55466 132.682 5.6213 132.946 5.6905C133.146 5.59311 133.339 5.49316 133.539 5.39578C134.815 5.32146 136.071 5.20613 137.359 5.17025C137.443 5.16769 137.533 5.21639 137.623 5.24202C138.222 5.40347 138.564 5.39065 138.944 5.17538C139.079 5.0985 139.195 5.02931 139.401 5.01649C140.039 4.97036 140.683 4.93961 141.315 4.88579C141.656 4.8576 141.94 4.88322 142.184 4.97548C142.358 5.04211 142.539 5.07032 142.751 5.05494C143.924 4.97806 145.09 4.90373 146.262 4.82172C146.346 4.8166 146.423 4.77302 146.488 4.74226C146.623 4.67563 146.739 4.60389 146.868 4.5347C147.042 4.57826 147.235 4.61158 147.377 4.66796C147.557 4.7346 147.725 4.73458 147.969 4.71664C152.646 4.40655 157.33 4.10415 162.007 3.79149C162.406 3.76587 162.58 3.87351 162.851 3.92989C162.941 3.95039 163.031 3.97601 163.128 3.98114C163.231 3.98626 163.34 3.9709 163.443 3.96321C166.954 3.73256 170.465 3.50446 173.976 3.27381C174.44 3.24306 174.44 3.24306 175.13 3.40195C175.213 3.42245 175.323 3.44552 175.413 3.43783C177.011 3.33789 178.608 3.23026 180.199 3.12775C180.406 3.11494 180.58 3.15593 180.766 3.21488C181.134 3.3302 181.159 3.33021 181.43 3.16107C181.559 3.08162 181.694 3.03291 181.907 3.00984C182.138 2.98422 182.325 2.99193 182.506 3.03806C182.763 3.10213 182.95 3.20975 183.343 3.18156C185.044 3.06111 186.751 2.96117 188.445 2.83816C188.832 2.80997 189.038 2.8971 189.296 2.96117C189.386 2.98423 189.47 3.02011 189.566 3.0278C189.663 3.03549 189.779 3.01753 189.882 3.00984C192.008 2.87146 194.14 2.73566 196.26 2.58702C196.659 2.55883 196.833 2.669 197.104 2.72538C197.194 2.74589 197.297 2.78178 197.381 2.77666C198.656 2.69721 199.938 2.61262 201.214 2.52805C201.671 2.49729 201.671 2.49986 202.367 2.65618C202.451 2.67669 202.56 2.69719 202.65 2.69207C204.139 2.59725 205.633 2.49986 207.121 2.40248C207.579 2.37172 207.579 2.37173 208.899 2.50499C208.996 2.51524 209.099 2.53064 209.196 2.52551C210.896 2.41532 212.603 2.30766 214.304 2.18978C214.646 2.16671 214.929 2.18721 215.174 2.27947C215.348 2.3461 215.528 2.3743 215.741 2.35893C217.654 2.23335 219.574 2.11291 221.481 1.97965C221.848 1.95402 222.086 2.01038 222.344 2.0847C222.428 2.11032 222.511 2.14621 222.608 2.15646C222.705 2.16671 222.814 2.15645 222.917 2.14877C224.831 2.02319 226.75 1.90531 228.657 1.76948C229.044 1.74129 229.25 1.82842 229.508 1.89249C229.598 1.91556 229.694 1.96169 229.772 1.95913C230.519 1.91556 231.266 1.87713 232.007 1.81306C232.406 1.77718 232.58 1.89505 232.851 1.95143C232.941 1.96937 233.044 2.00783 233.128 2.0027C234.726 1.90276 236.323 1.79769 237.915 1.69006C238.14 1.67468 238.308 1.69772 238.488 1.76435C238.726 1.85405 239.003 1.88993 239.351 1.86174C240.092 1.8028 240.839 1.7618 241.587 1.71311C242.025 1.68492 242.025 1.68493 243.365 1.81819C243.461 1.82844 243.564 1.84381 243.661 1.83868C244.937 1.75668 246.218 1.67724 247.488 1.58754C247.829 1.56191 248.113 1.58497 248.357 1.67723C248.531 1.74386 248.705 1.77207 248.924 1.75669C250.097 1.67981 251.263 1.60292 252.435 1.52604C252.86 1.49785 253.286 1.44914 253.711 1.44914C254.02 1.4517 254.245 1.57471 254.522 1.63622C254.6 1.65416 254.729 1.63368 254.832 1.62855C256.32 1.53117 257.814 1.44146 259.296 1.33126C259.683 1.30307 259.889 1.3902 260.146 1.45427C260.237 1.47734 260.333 1.52347 260.411 1.52091C260.945 1.49272 261.473 1.45427 262.008 1.42095C262.646 1.37995 263.29 1.3492 263.921 1.29282C264.437 1.24669 264.63 1.46964 265.042 1.47733C265.358 1.48502 265.68 1.44146 265.996 1.42095C266.634 1.37995 267.271 1.33383 267.909 1.29795C268.135 1.28513 268.309 1.24411 268.38 1.15185C268.392 1.13391 268.283 1.09549 268.212 1.07243C267.355 0.811025 267.355 0.811013 266.492 0.867393C265.957 0.903271 265.429 0.939156 264.894 0.969909C264.804 0.975035 264.701 0.954534 264.611 0.939157C264.353 0.895591 264.379 0.844341 264.598 0.752082C264.817 0.659823 264.984 0.547072 265.171 0.442C265.435 0.508631 265.693 0.575239 265.957 0.64187C266.17 0.629056 266.382 0.613703 266.595 0.600889C267.658 0.534257 268.721 0.465058 269.784 0.403552C269.861 0.398427 269.958 0.449689 270.048 0.475317C270.306 0.549636 270.538 0.613687 270.911 0.585497C271.865 0.511178 272.825 0.45736 273.778 0.393291C274.197 0.365101 274.197 0.365104 274.931 0.523994C275.015 0.541933 275.124 0.562436 275.215 0.557311C276.174 0.498368 277.128 0.434307 278.088 0.372801C278.294 0.359987 278.494 0.393301 278.642 0.467621C278.7 0.498374 278.687 0.549619 278.932 0.969909C279.692 1.31075 280.214 1.27489 280.742 1.24414C280.967 1.23133 281.167 1.2185 281.315 1.16725C281.393 1.13906 281.489 1.09805 281.489 1.06473C281.489 1.0391 281.348 0.998091 281.257 0.992965C280.62 0.94171 280.014 1.04936 279.389 1.07243C279.099 1.08268 278.848 0.992979 278.796 0.846902C278.784 0.805898 278.764 0.762334 278.745 0.72133C278.726 0.680326 278.713 0.636762 278.693 0.595758C278.442 0.582945 278.294 0.629066 278.184 0.7162C278.094 0.787957 277.965 0.869965 277.791 0.908406C277.617 0.94941 277.379 0.941735 277.167 0.954549C276.96 0.967363 276.735 1.00067 276.542 0.982735C276.348 0.962233 276.194 0.887901 276.013 0.841772C275.93 0.818707 275.827 0.785404 275.743 0.790529C275.002 0.834096 274.268 0.877646 273.533 0.934027C273.147 0.96478 272.953 0.857161 272.709 0.790529C272.515 0.739275 272.322 0.752072 272.29 0.869958C272.206 1.15186 272.502 1.26974 273.16 1.21592C273.701 1.16979 274.19 1.16213 274.615 1.3364C274.673 1.35946 274.809 1.36971 274.892 1.36458C275.421 1.33383 275.942 1.29538 276.471 1.26463C276.567 1.25951 276.671 1.26974 276.761 1.27999C278.075 1.41838 278.075 1.42096 278.519 1.3902C278.732 1.37483 278.938 1.36201 278.919 0.972474C279.325 0.554747 279.969 0.526562 280.594 0.465056C281 0.426615 281.173 0.53938 281.438 0.598324C281.528 0.618826 281.625 0.659822 281.708 0.654696C283.093 0.570126 284.472 0.480417 285.851 0.385596C286.082 0.370219 286.25 0.385598 286.43 0.45223C286.662 0.5368 286.92 0.590629 287.287 0.559876C288.022 0.49837 288.769 0.459938 289.516 0.408683C289.896 0.383055 289.896 0.383029 290.663 0.541919C290.747 0.559859 290.856 0.580362 290.946 0.575236C291.693 0.53167 292.434 0.477868 293.175 0.431739C293.381 0.418925 293.568 0.4548 293.729 0.523994C293.89 0.593188 294.084 0.629063 294.283 0.616249C295.031 0.57012 295.771 0.518881 296.512 0.472752C296.602 0.467626 296.712 0.485564 296.796 0.503503C297.582 0.662393 297.582 0.662367 297.942 0.63674C298.471 0.598298 299.012 0.580379 299.534 0.529124C300.043 0.477869 300.307 0.626496 300.655 0.708504C301.608 0.649561 302.568 0.600881 303.515 0.529124C303.901 0.498371 304.108 0.582935 304.365 0.649566C304.455 0.672631 304.546 0.721328 304.629 0.718765C304.951 0.708514 305.267 0.680329 305.583 0.659827C305.899 0.639325 306.221 0.618826 306.536 0.598324C306.897 0.672643 307.135 0.846907 307.651 0.787964C307.96 0.752086 308.289 0.744398 308.604 0.723896C308.92 0.703394 309.242 0.682894 309.558 0.662392C309.77 0.649578 309.989 0.641879 310.195 0.618814C310.575 0.580373 310.762 0.705963 311.033 0.762343C311.123 0.780282 311.226 0.811015 311.31 0.80589C311.948 0.770011 312.592 0.739261 313.217 0.680318C313.7 0.634188 314.028 0.711081 314.37 0.818716C314.441 0.841781 314.563 0.854593 314.653 0.849468C315.401 0.805901 316.141 0.752068 316.882 0.705939C317.082 0.693125 317.275 0.734128 317.436 0.800759C317.604 0.869953 317.791 0.903294 317.997 0.89048C318.738 0.844351 319.485 0.793081 320.226 0.746951C320.316 0.741826 320.425 0.762332 320.509 0.782834C321.231 0.941724 321.231 0.944289 321.656 0.913536C321.759 0.905848 321.869 0.900702 321.972 0.893014C322.5 0.857136 323.047 0.84434 323.563 0.782834C324.156 0.71364 324.587 0.800777 325.006 0.946853C325.534 0.9161 326.075 0.898157 326.591 0.846902C326.977 0.808461 327.183 0.90584 327.441 0.969909C327.531 0.992974 327.628 1.0391 327.705 1.03398C328.452 0.990411 329.2 0.951984 329.934 0.887915C330.333 0.852037 330.507 0.967339 330.778 1.02628C330.868 1.04678 330.965 1.08268 331.049 1.07756C331.474 1.05705 331.899 1.02629 332.324 0.998096C332.82 0.96478 332.82 0.96734 333.477 1.12367C333.786 1.19799 334.096 1.13904 334.399 1.1211C334.721 1.1006 335.023 1.08523 335.281 1.1903C335.442 1.25693 335.635 1.29794 335.835 1.28769C336.26 1.26462 336.692 1.24157 337.111 1.20313C337.446 1.17237 337.735 1.19287 337.98 1.28769C338.154 1.35432 338.335 1.38765 338.547 1.37228C339.501 1.31077 340.461 1.24668 341.414 1.18774C341.498 1.18261 341.614 1.20568 341.691 1.22875C341.871 1.27488 342.045 1.32612 342.219 1.37738C342.638 1.35431 343.07 1.34409 343.482 1.30821C343.92 1.27233 344.319 1.25951 344.661 1.40046C344.732 1.43122 344.835 1.47476 344.918 1.4722C345.241 1.46195 345.556 1.43633 345.872 1.41582C346.188 1.39532 346.51 1.37482 346.825 1.35432C347.192 1.41839 347.425 1.6029 347.94 1.54396C348.249 1.50808 348.578 1.50039 348.893 1.47989C349.209 1.45939 349.531 1.43633 349.847 1.41839C349.95 1.41326 350.066 1.40044 350.156 1.41069C350.253 1.42094 350.336 1.45683 350.42 1.48246C350.678 1.55678 350.916 1.63111 351.283 1.58754C351.593 1.55166 351.921 1.54397 352.237 1.52091C352.668 1.49272 352.668 1.49272 353.384 1.65417C353.673 1.7208 354.002 1.63368 354.279 1.69006C354.466 1.7285 354.627 1.79255 354.807 1.83612C354.884 1.85406 355.007 1.86173 355.097 1.85661C355.522 1.83354 355.954 1.81049 356.373 1.77205C356.714 1.7413 356.998 1.77205 357.236 1.8643C357.41 1.93094 357.584 1.95914 357.803 1.94376C358.866 1.87201 359.929 1.81048 360.985 1.73104C361.346 1.70285 361.636 1.74642 361.836 1.83868C362.177 1.99757 362.66 1.8105 363.014 1.93863C363.233 2.01808 363.453 2.11034 363.852 2.0719C364.586 2.00527 365.334 1.96937 366.074 1.92324C366.339 1.99244 366.603 2.06165 366.873 2.13084C367.299 2.10265 367.724 2.07444 368.149 2.04882C368.464 2.02831 368.787 2.00525 369.102 1.98731C369.205 1.98219 369.315 1.97193 369.411 1.98475C369.508 1.99756 369.585 2.03088 369.676 2.05651C370.12 2.18209 370.12 2.18466 370.854 2.13341C371.17 2.11034 371.473 2.09496 371.737 2.19747C371.982 2.2923 372.272 2.31022 372.607 2.28203C373.238 2.23078 373.876 2.19234 374.52 2.15646C374.72 2.14365 374.907 2.18722 375.074 2.25385C375.325 2.35892 375.635 2.34867 375.95 2.32048C376.369 2.2846 376.781 2.24873 377.136 2.39225C377.206 2.423 377.316 2.46654 377.393 2.46398C377.922 2.44348 378.456 2.42811 378.972 2.37942C379.487 2.33073 379.738 2.48961 380.093 2.56649C380.621 2.53318 381.156 2.49986 381.684 2.46654C381.787 2.45886 381.909 2.4358 381.999 2.44862C382.38 2.50244 382.599 2.69464 383.12 2.63569C383.423 2.60238 383.752 2.59214 384.067 2.58445C384.151 2.58189 384.261 2.62543 384.319 2.65875C384.351 2.67669 384.319 2.72538 384.28 2.751C384.164 2.82276 384.022 2.88941 383.919 2.96373C383.906 2.97398 384.029 3.02009 384.1 3.0406C384.274 3.08673 384.473 3.07905 384.705 3.05855C384.905 3.04061 385.111 3.07649 385.253 3.15337C385.311 3.18413 385.291 3.23538 385.169 3.40452C385.169 3.53009 385.304 3.4737 385.349 3.39169C385.42 3.2738 385.285 3.23537 385.027 3.29944C384.847 3.34557 384.757 3.4122 384.802 3.46602C384.828 3.49421 384.95 3.53009 385.169 3.40452C385.736 3.25075 386.161 3.22258 386.586 3.19439C386.696 3.1867 386.825 3.16105 386.902 3.17643C387.179 3.23794 387.437 3.31227 387.707 3.38146C388.016 3.36608 388.306 3.32763 388.609 3.42757C389.034 3.56852 389.054 3.55571 389.466 3.52752C389.679 3.51215 389.891 3.49936 390.104 3.48654C390.316 3.47373 390.484 3.51216 390.671 3.5711C391.051 3.69155 391.083 3.69154 391.334 3.52752C391.482 3.42758 391.585 3.39427 391.772 3.4404C392.391 3.59673 392.397 3.60697 392.925 3.56084C393.363 3.5224 393.776 3.51215 394.098 3.65823C394.317 3.76074 394.388 3.73768 394.562 3.63004C395.025 3.34558 395.238 3.35069 396.108 3.55571C396.514 3.65309 396.932 3.54803 397.345 3.53522C397.693 3.52497 397.937 3.58646 397.963 3.74792C397.982 3.84786 398.04 3.91963 398.272 3.95295C398.362 3.96576 398.472 3.9837 398.562 3.97857C399.097 3.94782 399.625 3.91193 400.16 3.87605C400.43 3.85811 400.579 3.73769 400.527 3.5788C400.469 3.40966 400.572 3.34813 400.959 3.29944C401.191 3.27125 401.377 3.27639 401.564 3.32252C401.77 3.37378 401.712 3.41991 401.532 3.51216C401.1 3.73769 401.152 3.87605 401.706 4.03238C401.899 4.0862 402.054 4.13491 402.099 4.21435C402.125 4.25536 402.099 4.30917 402.157 4.33993C402.473 4.51163 402.911 4.62184 403.4 4.70385C403.87 4.63465 404.193 4.74996 404.553 4.84221C404.837 4.91397 405.172 4.85248 405.475 4.82685C405.816 4.79866 406.099 4.81916 406.344 4.91398C406.518 4.98061 406.699 5.01135 406.911 4.99854C407.336 4.97035 407.768 4.95242 408.187 4.91141C408.547 4.87553 408.818 4.9268 409.044 5.01393C409.327 5.12413 409.643 5.0498 409.939 5.06517C410.338 5.08311 410.538 5.31119 411.06 5.24968C411.369 5.2138 411.691 5.20099 412.013 5.19074C412.097 5.18818 412.2 5.23175 412.271 5.26251C412.612 5.40346 413.012 5.39577 413.45 5.35476C413.753 5.32657 414.049 5.30096 414.345 5.39834C414.835 5.56236 415.376 5.70588 415.892 5.85708C415.962 5.97497 415.911 6.11333 416.278 6.18252C416.471 6.2184 416.652 6.27224 416.8 6.33118C416.98 6.40038 417.148 6.41832 417.38 6.40038C417.798 6.3645 418.237 6.35679 418.649 6.31066C419.029 6.26966 419.267 6.35425 419.499 6.4337C419.686 6.49777 419.86 6.52851 420.085 6.48238C420.317 6.43881 420.485 6.46699 420.672 6.53618C420.936 6.63101 420.955 6.62077 421.831 6.64896C421.921 6.65152 422.031 6.68994 422.082 6.72326C422.108 6.7412 422.05 6.79248 422.005 6.81811C421.947 6.84886 421.857 6.88472 421.773 6.89241C420.82 6.95904 419.86 7.01798 418.906 7.08462C418.81 7.0923 418.707 7.11026 418.636 7.13589C418.559 7.16408 418.462 7.2025 418.462 7.23837C418.462 7.264 418.591 7.29476 418.681 7.3127C418.964 7.37165 419.299 7.28196 419.576 7.34859C419.763 7.39215 419.918 7.45365 420.105 7.49465C420.182 7.51259 420.304 7.51004 420.401 7.50491C420.723 7.48697 421.039 7.46135 421.361 7.44597C421.451 7.44341 421.554 7.46905 421.638 7.48955C422.256 7.64331 422.256 7.64331 422.791 7.60999C423.004 7.59718 423.229 7.55873 423.429 7.57411C423.622 7.58949 423.79 7.65868 423.964 7.70225C424.324 7.79451 424.666 7.8842 424.691 8.08409C424.704 8.16098 424.917 8.2276 425.13 8.23272C425.336 8.23785 425.555 8.20968 425.767 8.1943C426.27 8.16355 426.27 8.16355 426.92 8.31988C427.101 8.36344 427.294 8.36856 427.526 8.34293C427.616 8.33268 427.726 8.34295 427.822 8.35576C428.138 8.3942 428.138 8.44288 427.932 8.53514C427.642 8.67096 427.668 8.68379 428.479 8.79911C428.789 8.84268 429.027 8.92469 429.285 8.99645C429.703 9.11177 429.697 9.11175 429.42 9.26295C429.356 9.29627 429.298 9.33215 429.233 9.36803C429.046 9.46798 428.898 9.57561 428.512 9.58586C428.086 9.59611 427.661 9.63713 427.236 9.66532C426.824 9.69351 426.714 9.75499 426.753 9.92926C426.798 10.1394 426.882 10.1625 427.623 10.1599C427.835 10.1599 428.022 10.1804 428.183 10.2496C428.106 10.3316 427.964 10.3957 427.758 10.4111C427.23 10.4495 426.695 10.4828 426.167 10.5161C425.742 10.5443 425.316 10.5725 424.891 10.6007C424.627 10.6186 424.46 10.7519 424.53 10.9005C424.569 10.9851 424.601 11.0697 424.633 11.1543C424.704 11.3234 424.84 11.367 425.271 11.3593C425.381 11.3567 425.484 11.3362 425.587 11.3413C426.006 11.3593 426.205 11.572 426.708 11.5284C427.127 11.4925 427.565 11.4848 427.977 11.4387C428.357 11.3977 428.57 11.49 428.834 11.5592C428.924 11.5823 429.021 11.6309 429.098 11.6284C429.633 11.6002 430.167 11.572 430.689 11.5233C430.934 11.5028 431.082 11.5182 431.275 11.5797C431.739 11.7283 431.752 11.7206 432.441 11.6745C432.944 11.6386 432.95 11.6437 433.595 11.8001C433.775 11.8436 433.968 11.8436 434.2 11.8231C434.503 11.7975 434.819 11.7565 435.134 11.7949C435.231 11.8052 435.353 11.836 435.385 11.8693C435.405 11.8923 435.315 11.9487 435.237 11.9667C434.67 12.0999 434.007 12.0769 433.388 12.1307C433.195 12.1461 433.002 12.0974 432.841 12.0282C432.673 11.959 432.493 11.9308 432.274 11.9436C431.849 11.9718 431.417 11.9897 430.998 12.0307C430.638 12.0666 430.386 12.0077 430.135 11.9282C430.051 11.9026 429.955 11.8539 429.871 11.8564C428.918 11.9077 427.958 11.959 427.011 12.0307C426.631 12.0615 426.412 11.9795 426.154 11.9103C426.064 11.8872 425.974 11.8385 425.89 11.8411C425.568 11.8513 425.252 11.8795 424.93 11.9C423.757 11.9769 422.591 12.0538 421.419 12.1255C421.342 12.1307 421.245 12.0768 421.155 12.0538C420.981 12.0077 420.8 11.9641 420.62 11.9205C420.298 11.941 419.982 11.9666 419.66 11.982C419.428 11.9923 419.222 12.0282 419.19 12.1255C419.171 12.1896 419.383 12.2485 419.609 12.2434C419.828 12.2383 420.047 12.2075 420.227 12.2409C421.123 12.4049 421.123 12.4074 421.683 12.3741C422.173 12.3434 422.121 12.3177 422.553 12.4587C422.739 12.5202 422.907 12.5561 423.12 12.5407C423.648 12.5048 424.183 12.4689 424.717 12.4382C424.801 12.4331 424.911 12.4587 424.994 12.4792C425.626 12.633 425.626 12.6381 426.147 12.5996C426.83 12.5535 426.856 12.5407 427.313 12.697C427.629 12.8047 427.919 12.7303 428.222 12.7252C428.57 12.8252 428.95 12.9149 429.265 13.0276C429.639 13.1609 430.032 13.1378 430.457 13.0994C430.773 13.0712 431.082 13.0609 431.34 13.166C431.585 13.2634 431.881 13.2737 432.216 13.248C432.519 13.225 432.828 13.1763 433.144 13.2326C433.227 13.248 433.356 13.2865 433.35 13.3095C433.343 13.3454 433.259 13.3967 433.176 13.4121C432.583 13.5171 431.932 13.5146 431.308 13.5632C431.224 13.5709 431.114 13.5427 431.031 13.5222C430.85 13.4761 430.676 13.4223 430.502 13.3736C430.187 13.389 429.865 13.3941 429.555 13.4248C429.317 13.4479 429.136 13.4454 428.963 13.3839C428.802 13.3275 428.628 13.2583 428.434 13.2403C428.241 13.2224 428.016 13.2608 427.803 13.2762C427.591 13.2916 427.346 13.2839 427.178 13.3249C427.011 13.3659 426.908 13.4556 426.798 13.5274C426.676 13.6068 426.508 13.6325 426.263 13.6401C426.038 13.6478 425.858 13.6376 425.69 13.5658C425.619 13.5351 425.522 13.512 425.426 13.4915C425.336 13.4735 425.233 13.4453 425.149 13.4505C424.189 13.5094 423.236 13.5735 422.276 13.635C421.799 13.6658 421.805 13.6657 420.813 13.5145C420.723 13.5017 420.614 13.4838 420.523 13.4889C419.989 13.5197 419.461 13.5556 418.926 13.5914C418.385 13.6273 418.391 13.6222 417.47 13.4607C417.302 13.43 417.058 13.471 416.858 13.4659C416.439 13.453 416.233 13.2378 415.743 13.2788C415.325 13.3147 414.886 13.3223 414.468 13.3685C414.088 13.4095 413.869 13.3198 413.611 13.2506C413.521 13.2275 413.424 13.1763 413.347 13.1814C412.387 13.2378 411.434 13.3018 410.158 13.3095C409.842 13.3095 409.984 13.3634 410.19 13.3813C410.487 13.4095 410.583 13.3557 410.422 13.2532C410.306 13.1814 410.139 13.1455 410.003 13.1634C409.933 13.1737 409.842 13.2224 410.158 13.3095C410.493 13.4069 410.474 13.4607 410.532 13.4915C410.673 13.5658 410.873 13.5966 411.079 13.5863C411.401 13.5684 411.717 13.5427 412.039 13.5274C412.129 13.5222 412.239 13.5402 412.323 13.5607C413.031 13.7196 413.038 13.7298 413.791 13.6683C414.03 13.6504 414.204 13.6504 414.391 13.6991C414.648 13.7657 414.835 13.8785 415.228 13.8426C415.75 13.7939 416.285 13.7657 416.819 13.7375C416.903 13.7324 416.993 13.7785 417.09 13.799C417.354 13.8605 417.547 13.9759 417.94 13.9272C418.243 13.8887 418.571 13.8784 418.894 13.8708C418.977 13.8682 419.106 13.9092 419.145 13.9425C419.222 14.0015 419.125 14.0707 418.906 14.1194C418.816 14.1399 418.694 14.1347 418.591 14.1424C418.166 14.1706 417.74 14.2014 417.315 14.2244C417.09 14.2372 416.877 14.2757 416.851 14.3705C416.832 14.4346 417.064 14.491 417.283 14.4858C417.605 14.4781 417.927 14.4576 418.236 14.4243C418.784 14.3679 419.261 14.3833 419.705 14.5448C420.021 14.6575 420.002 14.6165 420.337 14.9497C420.42 15.0343 420.672 15.0419 420.891 15.0368C421.419 15.024 421.664 15.0625 421.619 15.1419C421.561 15.2393 421.374 15.27 421.135 15.2828C420.71 15.3033 420.285 15.3367 419.86 15.3649C419.757 15.3726 419.641 15.3879 419.544 15.3828C419.448 15.3777 419.357 15.3469 419.274 15.3238C419.093 15.2752 418.939 15.2008 418.745 15.1829C418.552 15.1649 418.327 15.2034 418.114 15.2188C417.902 15.2316 417.676 15.27 417.483 15.2521C417.29 15.2341 417.128 15.1573 416.954 15.1112C416.871 15.0881 416.768 15.0522 416.684 15.0547C416.259 15.0753 415.834 15.1086 415.408 15.1342C414.887 15.1675 414.887 15.1675 414.255 15.0086C414.075 14.9625 413.888 14.9651 413.65 14.9856C413.134 15.0266 413.128 15.0189 412.187 14.8702C412.097 14.8549 411.988 14.8369 411.897 14.8446C410.937 14.9036 409.984 14.9676 409.031 15.0291C408.212 15.0829 408.212 15.083 407.762 15.3392C407.427 15.5289 407.42 15.5289 407.749 15.616C408.013 15.6878 408.251 15.7928 408.541 15.8313C408.812 15.8671 409.147 15.7518 409.443 15.8697C409.591 15.9287 409.784 15.9927 409.971 16.003C410.267 16.0158 410.583 15.9415 410.867 16.0542C411.008 16.1106 411.221 16.1696 411.401 16.1721C411.717 16.1773 412.039 16.1362 412.355 16.1183C412.451 16.1132 412.561 16.1132 412.651 16.126C412.748 16.1414 412.832 16.1721 412.915 16.1978C413.173 16.2849 413.45 16.3259 413.785 16.2823C414.333 16.2106 414.822 16.2464 415.247 16.4104C415.305 16.4335 415.447 16.4361 415.537 16.4258C415.769 16.4002 415.969 16.3976 416.143 16.4463C416.214 16.4668 416.317 16.5027 416.304 16.5258C416.285 16.5642 416.207 16.6155 416.123 16.6283C415.518 16.7154 414.867 16.7257 414.242 16.7718C414.159 16.7769 414.056 16.7436 413.972 16.7205C413.791 16.6744 413.637 16.5975 413.444 16.5796C413.25 16.5617 413.025 16.595 412.812 16.6078C412.6 16.6206 412.374 16.659 412.181 16.6437C411.988 16.6257 411.807 16.5617 411.653 16.5053C411.472 16.4412 411.298 16.4335 411.06 16.4592C410.751 16.4925 410.429 16.4976 410.113 16.5155C409.939 16.4668 409.765 16.413 409.585 16.3669C409.501 16.3438 409.398 16.3156 409.308 16.3182C408.883 16.3387 408.457 16.3694 408.032 16.3976C407.607 16.4258 407.607 16.4258 406.885 16.267C406.802 16.249 406.692 16.2285 406.602 16.2336C406.067 16.2644 405.539 16.3028 405.004 16.3336C404.798 16.3464 404.611 16.3105 404.444 16.2413C404.283 16.1721 404.09 16.1337 403.89 16.1465C403.039 16.2003 402.189 16.2516 401.339 16.3156C400.997 16.3413 400.707 16.3182 400.475 16.2259C400.205 16.1209 399.902 16.1465 399.587 16.167C398.871 16.2183 398.865 16.2157 398.408 16.085C398.317 16.0593 398.227 16.0107 398.143 16.0132C397.403 16.0517 396.655 16.0875 395.921 16.149C395.534 16.1824 395.328 16.0927 395.071 16.026C394.98 16.003 394.884 15.9543 394.806 15.9594C394.272 15.9876 393.737 16.0132 393.215 16.0645C392.693 16.1157 392.494 15.8774 392.101 15.88C391.566 15.8825 391.038 15.9415 390.509 15.9774C390.084 16.0056 389.659 16.0337 389.234 16.0619C388.809 16.0901 388.384 16.1132 387.958 16.1465C387.733 16.1644 387.566 16.1413 387.379 16.0773C387.14 15.9927 386.857 15.9261 386.599 15.8492C386.206 15.739 386.206 15.739 385.729 15.7698C385.626 15.7775 385.517 15.7826 385.414 15.7903C384.634 15.8466 384.634 15.8415 383.642 15.6801C383.597 15.6724 383.481 15.7006 383.436 15.7211C383.301 15.7877 383.178 15.8595 383.056 15.9287C382.882 15.8876 382.669 15.8646 382.554 15.8056C382.225 15.6391 381.71 15.8671 381.375 15.7031C381.252 15.6416 381.04 15.5878 380.846 15.5724C380.647 15.5571 380.421 15.5929 380.215 15.6083C379.68 15.6468 379.68 15.6442 379.223 15.8723C378.991 15.985 378.656 15.9645 378.353 15.9902C378.038 16.0183 377.735 16.0337 377.471 15.9287C377.232 15.8338 376.942 15.8108 376.601 15.8415C376.182 15.88 375.751 15.903 375.325 15.9261C375.235 15.9312 375.126 15.9184 375.035 15.903C374.05 15.7518 374.05 15.7493 373.573 15.7826C373.36 15.798 373.141 15.8031 372.935 15.8261C372.587 15.8671 372.323 15.8133 372.072 15.7313C371.988 15.7057 371.892 15.657 371.808 15.6596C371.383 15.6724 370.964 15.6955 370.545 15.7185C370.223 15.7365 369.901 15.7467 369.592 15.7826C369.076 15.8415 368.825 15.6749 368.471 15.598C367.943 15.6314 367.408 15.6544 366.88 15.7006C366.635 15.7211 366.474 15.7134 366.287 15.6519C366.049 15.575 365.83 15.4879 365.443 15.5263C364.928 15.5776 364.387 15.5955 363.858 15.6263C363.504 15.5468 363.246 15.3853 362.738 15.4443C362.428 15.4802 362.1 15.4879 361.784 15.5084C361.359 15.5366 360.934 15.5622 360.509 15.5929C360.051 15.6237 360.058 15.616 359.355 15.4648C358.95 15.3751 358.531 15.4751 358.118 15.4904C357.796 15.5032 357.635 15.6211 357.713 15.7723C357.79 15.9235 357.616 16.0414 357.32 16.0619C356.579 16.1106 355.831 16.1619 355.091 16.2054C355 16.2105 354.891 16.1926 354.807 16.1747C354.015 16.0132 354.015 16.0158 353.66 16.0389C353.132 16.0773 352.591 16.0978 352.069 16.1465C351.709 16.1798 351.444 16.126 351.212 16.0389C351.032 15.9722 350.865 15.9569 350.633 15.9722C348.082 16.1439 345.53 16.3028 342.986 16.4797C342.606 16.5053 342.387 16.431 342.129 16.3618C342.039 16.3387 341.955 16.29 341.865 16.29C341.652 16.29 341.44 16.3131 341.227 16.3285C340.274 16.39 339.32 16.4643 338.36 16.5104C337.955 16.5309 337.845 16.6488 337.671 16.7462C337.536 16.8205 337.381 16.8512 337.143 16.8615C336.911 16.8717 336.743 16.8589 336.563 16.7923C336.331 16.7052 336.067 16.6513 335.706 16.6872C335.288 16.7282 334.862 16.7462 334.431 16.7744C334.212 16.7872 334.044 16.8333 333.973 16.9256C333.96 16.9409 334.096 16.9794 334.173 17.0025C334.431 17.0793 334.675 17.169 334.965 17.2229C335.262 17.2767 335.584 17.2151 335.893 17.1998C336.003 17.1946 336.106 17.1793 336.209 17.1818C336.305 17.1844 336.421 17.1972 336.492 17.2203C336.827 17.3356 337.181 17.4151 337.645 17.3459C338.045 17.3792 338.251 17.5919 338.76 17.5355C339.069 17.5022 339.391 17.4868 339.713 17.474C339.797 17.4714 339.887 17.5176 339.977 17.5406C340.235 17.6047 340.441 17.7072 340.828 17.6636C341.24 17.6175 341.678 17.6098 342.097 17.5739C342.329 17.5534 342.496 17.5714 342.677 17.638C342.909 17.7226 343.173 17.7866 343.533 17.7456C343.843 17.7098 344.171 17.7021 344.487 17.679C344.899 17.6508 344.899 17.6534 345.634 17.8123C345.717 17.8302 345.827 17.8507 345.917 17.8456C346.452 17.8148 346.98 17.7764 347.515 17.7456C347.721 17.7328 347.921 17.7661 348.062 17.8405C348.12 17.8712 348.101 17.9225 348.12 17.9661C347.057 18.0352 345.994 18.0942 344.938 18.1788C344.538 18.2121 344.358 18.107 344.094 18.048C344.004 18.0275 343.907 17.984 343.823 17.9891C343.076 18.0327 342.335 18.0788 341.594 18.1352C341.362 18.1531 341.189 18.1429 341.015 18.0685C340.57 17.8712 340.029 17.9788 339.526 18.007C339.14 18.0275 339.018 18.107 339.063 18.2761C339.121 18.476 339.352 18.5375 339.945 18.5017C340.158 18.4888 340.37 18.4709 340.583 18.4606C340.789 18.4504 340.976 18.4837 341.143 18.5529C341.304 18.6221 341.498 18.658 341.697 18.6477C342.123 18.6247 342.554 18.6016 342.966 18.5632C343.308 18.5324 343.591 18.558 343.83 18.6529C344.094 18.7579 344.403 18.7349 344.712 18.7118C345.434 18.6605 345.44 18.6631 345.891 18.7913C345.981 18.8169 346.072 18.8656 346.155 18.863C346.896 18.8246 347.644 18.7913 348.372 18.7297C348.752 18.699 348.971 18.781 349.222 18.8476C349.312 18.8707 349.402 18.9219 349.486 18.9168C350.021 18.8886 350.555 18.8604 351.077 18.8117C351.322 18.7887 351.47 18.804 351.67 18.8655C352.147 19.0168 352.159 19.0116 352.836 18.9629C353.042 18.9476 353.267 18.9194 353.461 18.9399C353.654 18.9604 353.809 19.0347 353.989 19.0808C354.073 19.1013 354.176 19.1295 354.266 19.1244C354.691 19.1039 355.116 19.0732 355.542 19.045C355.941 19.0168 355.941 19.0193 356.688 19.1782C356.991 19.2449 357.307 19.1885 357.61 19.168C357.938 19.1449 358.234 19.1449 358.486 19.2449C358.737 19.3448 359.04 19.3397 359.362 19.3192C359.665 19.2987 359.974 19.2423 360.283 19.3115C360.992 19.4704 360.992 19.4729 361.43 19.4422C362.067 19.3986 362.699 19.3576 363.343 19.3192C363.427 19.314 363.536 19.3448 363.62 19.3653C363.8 19.4114 363.955 19.4883 364.148 19.5062C364.342 19.5267 364.567 19.496 364.773 19.4806C365.437 19.4319 365.482 19.414 365.926 19.5831C366.3 19.7215 366.764 19.5216 367.112 19.6805C367.311 19.7702 367.582 19.842 367.956 19.7984C368.265 19.7625 368.587 19.7523 368.909 19.7318C369.418 19.6984 369.418 19.701 370.062 19.8548C370.146 19.8753 370.255 19.9009 370.339 19.8958C370.764 19.8753 371.196 19.8573 371.608 19.8112C372.091 19.7574 372.401 19.8548 372.761 19.9496C373.045 20.0239 373.38 19.9624 373.683 19.9368C374.011 19.9112 374.307 19.9188 374.552 20.0188C374.81 20.1213 375.113 20.1085 375.435 20.088C375.738 20.07 376.047 20.0111 376.356 20.0829C377.02 20.2417 377.02 20.2417 377.503 20.211C377.928 20.1828 378.353 20.1521 378.778 20.1316C378.862 20.1264 378.965 20.1597 379.049 20.1828C379.229 20.2289 379.384 20.3058 379.577 20.3238C379.77 20.3417 379.996 20.3084 380.208 20.2956C380.421 20.2828 380.647 20.2443 380.84 20.2597C381.033 20.2751 381.214 20.3392 381.368 20.3955C381.549 20.4622 381.716 20.4698 381.961 20.4442C382.27 20.4109 382.592 20.4032 382.908 20.3853C383.082 20.434 383.262 20.4826 383.43 20.5365C383.604 20.5928 383.79 20.5877 384.029 20.5698C384.821 20.5083 384.827 20.516 385.491 20.6749C385.794 20.7466 386.11 20.6877 386.412 20.6697C386.734 20.6492 387.037 20.639 387.288 20.7415C387.533 20.8389 387.836 20.8517 388.158 20.8209C388.364 20.8004 388.583 20.7876 388.796 20.7799C388.893 20.7774 389.008 20.7876 389.079 20.8081C389.421 20.9158 389.756 21.0132 390.226 20.944C390.638 20.9645 390.845 21.1746 391.341 21.1336C391.759 21.0977 392.197 21.09 392.61 21.0439C392.99 21.0029 393.26 21.0747 393.454 21.1644C393.801 21.3232 394.291 21.108 394.639 21.2643C394.839 21.354 395.096 21.4258 395.483 21.3873C395.908 21.3463 396.043 21.4001 396.166 21.5616C396.237 21.6538 396.224 21.7282 396.095 21.7999C395.966 21.8742 395.824 21.8614 395.618 21.7769C395.38 21.682 395.096 21.6641 394.755 21.6846C394.42 21.7051 394.214 21.5718 393.937 21.5206C393.66 21.4668 393.331 21.5565 393.041 21.4873C392.358 21.3258 392.358 21.3258 391.895 21.3566C391.579 21.3771 391.25 21.3873 390.941 21.4232C390.574 21.4668 390.336 21.3873 390.084 21.3155C389.994 21.2899 389.904 21.2412 389.827 21.2438C389.086 21.2822 388.338 21.3181 387.604 21.3822C387.218 21.4155 387.012 21.3232 386.754 21.2592C386.664 21.2361 386.567 21.19 386.49 21.1951C385.852 21.231 385.221 21.2771 384.583 21.3207C384.46 21.3899 384.325 21.4565 384.209 21.5308C384.087 21.6077 383.919 21.641 383.674 21.6385C383.269 21.6385 382.869 21.7461 382.463 21.6103C382.045 21.4719 382.012 21.4796 381.607 21.5129C381.091 21.5565 380.543 21.5462 380.06 21.6462C379.977 21.6641 379.886 21.7128 379.886 21.7486C379.88 21.7717 380.015 21.805 380.099 21.8255C380.382 21.887 380.711 21.7973 380.994 21.8614C381.181 21.9024 381.336 21.9639 381.523 22.0075C381.6 22.0254 381.716 22.0229 381.819 22.0203C381.929 22.0177 382.032 21.9998 382.135 22.0024C382.231 22.0049 382.335 22.0203 382.412 22.0434C382.766 22.1407 383.14 22.2305 383.455 22.3458C383.765 22.4585 384.054 22.3817 384.364 22.3765C385.601 22.5559 385.601 22.5585 386.432 22.5021C386.638 22.4893 386.85 22.4739 387.063 22.4765C387.153 22.4765 387.237 22.5226 387.327 22.5482C387.585 22.6251 387.83 22.6943 388.19 22.6533C388.5 22.6174 388.828 22.6097 389.144 22.5867C389.569 22.5585 389.569 22.5585 390.291 22.7199C390.471 22.7609 390.664 22.7558 390.896 22.7353C391.096 22.7174 391.302 22.7558 391.444 22.8301C391.502 22.8609 391.482 22.9121 391.502 22.9557C390.864 22.9967 390.22 23.0249 389.601 23.0864C389.202 23.1249 389.021 23.0147 388.757 22.9557C388.667 22.9352 388.57 22.8916 388.487 22.8968C387.855 22.9352 387.224 22.9788 386.593 23.03C386.515 23.0351 386.419 23.0941 386.412 23.13C386.399 23.1966 386.56 23.2607 386.792 23.2581C387.102 23.2555 387.404 23.212 387.681 23.317C387.913 23.4093 388.203 23.4503 388.545 23.4093C388.751 23.3863 388.97 23.3862 389.176 23.3657C389.724 23.3042 390.22 23.3171 390.632 23.4913C390.948 23.5374 391.257 23.4939 391.56 23.4708C391.785 23.4529 392.004 23.4349 392.165 23.4836C392.507 23.5861 392.842 23.6886 393.312 23.6195C393.821 23.6912 394.207 23.8424 394.633 23.9654C394.832 24.0244 394.987 24.0577 395.219 24.0193C395.315 24.0039 395.431 24.0039 395.534 23.9962C395.747 23.9834 395.972 23.9449 396.166 23.9603C396.359 23.9782 396.52 24.0526 396.694 24.0987C396.778 24.1218 396.874 24.1602 396.958 24.1576C397.28 24.1448 397.596 24.1192 397.911 24.0987C398.227 24.0807 398.543 24.0628 398.858 24.0449C399.123 24.1115 399.393 24.1781 399.657 24.2448C400.082 24.2166 400.508 24.1884 400.927 24.1628C401.397 24.132 401.397 24.1346 402.073 24.2935C402.376 24.3652 402.698 24.3191 402.988 24.2858C403.471 24.2319 403.793 24.3293 404.135 24.4319C404.206 24.4524 404.334 24.4652 404.418 24.4549C404.753 24.419 405.043 24.4472 405.288 24.542C405.462 24.6087 405.636 24.6394 405.848 24.6266C406.589 24.5779 407.33 24.5267 408.071 24.4831C408.161 24.478 408.264 24.501 408.348 24.5215C409.005 24.6779 409.011 24.6856 409.494 24.6446C409.926 24.6087 410.326 24.5933 410.667 24.7342C410.738 24.765 410.847 24.8086 410.925 24.806C411.453 24.7804 411.988 24.7522 412.509 24.7086C412.748 24.6881 412.915 24.6958 413.102 24.7548C413.34 24.8291 413.553 24.9188 413.946 24.8855C415.035 24.7906 415.041 24.806 416.33 24.9828C416.42 24.9956 416.542 24.9751 416.645 24.9649C416.864 24.9393 417.025 24.9752 417.219 25.0341C417.65 25.1674 417.663 25.1597 418.075 25.1315C418.391 25.1084 418.72 25.1033 419.029 25.0648C419.506 25.0085 419.821 25.1084 420.176 25.2032C420.459 25.2776 420.787 25.216 421.09 25.193C421.419 25.1674 421.715 25.175 421.96 25.2724C422.128 25.339 422.308 25.3749 422.52 25.3621C423.261 25.316 424.002 25.2647 424.743 25.2186C424.833 25.2135 424.943 25.234 425.026 25.2519C425.761 25.4108 425.761 25.4185 426.489 25.3596C426.721 25.3416 426.914 25.3365 427.088 25.3903C427.255 25.4416 427.436 25.4903 427.61 25.5389C427.925 25.521 428.248 25.5159 428.557 25.4851C428.795 25.4621 428.963 25.4723 429.149 25.5262C429.394 25.5953 429.6 25.7158 429.987 25.6568C430.187 25.6286 430.419 25.6363 430.618 25.6107C430.857 25.5774 431.018 25.5979 431.205 25.6645C431.436 25.744 431.675 25.826 432.048 25.785C432.461 25.7388 432.899 25.7312 433.317 25.6953C433.549 25.6748 433.711 25.6953 433.897 25.7619C434.129 25.8465 434.393 25.9003 434.754 25.867C435.489 25.8029 435.495 25.8157 436.21 25.9772C436.39 26.0182 436.584 26.0131 436.816 25.9926C437.015 25.9746 437.221 26.0131 437.363 26.0874C437.498 26.1694 437.485 26.2206 437.498 26.2642ZM380.093 3.15081C379.88 3.16362 379.667 3.179 379.358 2.95604C379.339 2.9176 379.352 2.87148 379.307 2.83816C379.204 2.76897 379.043 2.72028 378.849 2.71259C378.501 2.70234 378.083 2.78945 378.089 2.85609C378.095 2.91247 378.205 2.96115 378.418 3.00728C378.508 3.02522 378.579 3.05598 378.662 3.07648C378.907 3.13542 379.101 3.25076 379.455 3.19182C379.423 3.11238 379.39 3.03293 379.455 3.19182C379.423 3.28921 379.519 3.3584 379.751 3.38659C379.816 3.39428 379.912 3.38914 379.964 3.37377C380.163 3.31739 380.196 3.24052 380.047 3.03806C380.022 3.07138 380.041 3.1303 380.099 3.14568C380.157 3.16105 380.299 3.14826 380.37 3.13032C380.55 3.08163 380.64 3.01755 380.595 2.96373C380.569 2.93554 380.447 2.89966 380.37 2.89966C380.234 2.89966 380.112 2.95604 380.093 3.15081ZM432.184 32.871C431.713 32.9197 431.172 32.9017 430.702 33.0017C430.618 33.0196 430.535 33.0657 430.528 33.1016C430.522 33.1247 430.651 33.158 430.728 33.1759C430.902 33.2169 431.095 33.2041 431.32 33.1913C431.662 33.1734 431.862 33.2912 432.126 33.3502C432.21 33.3681 432.319 33.3809 432.409 33.3758C432.931 33.3451 433.446 33.3118 433.968 33.2759C434.058 33.2682 434.155 33.2502 434.232 33.2272C434.49 33.1529 434.464 33.1042 434.213 33.0478C433.936 32.9863 433.717 32.8838 433.434 32.8351C433.028 32.7659 432.615 32.8581 432.184 32.871ZM395.599 34.7418C395.283 34.7623 394.974 34.7828 394.658 34.8033C394.555 34.811 394.446 34.8135 394.349 34.8238C394.149 34.8417 394.001 34.8955 393.904 34.9801C394.053 35.0467 394.233 35.0852 394.433 35.0775C394.748 35.0621 395.058 35.0288 395.373 35.0211C395.715 35.0109 395.914 35.1262 396.179 35.1851C396.262 35.2031 396.365 35.2056 396.462 35.2082C396.939 35.2184 397.229 35.0852 397.138 34.8981C397.074 34.752 396.829 34.6649 396.533 34.6828C396.224 34.7008 395.908 34.7213 395.599 34.7418ZM434.387 29.0832C434.464 29.0396 434.548 29.0089 434.587 28.9705C434.703 28.8398 434.657 28.7424 434.445 28.6399C434.187 28.5143 433.872 28.5989 433.582 28.6117C433.511 28.6142 433.433 28.6681 433.395 28.7014C433.369 28.7244 433.369 28.7731 433.408 28.786C433.723 28.8885 434.058 28.9833 434.387 29.0832ZM378.501 21.5129C378.192 21.5334 377.877 21.5488 377.567 21.577C377.49 21.5846 377.419 21.6333 377.374 21.6666C377.29 21.7281 377.38 21.8127 377.645 21.8204C377.947 21.8307 378.263 21.7871 378.579 21.7666C378.978 21.741 379.216 21.6461 379.068 21.5641C378.927 21.4847 378.733 21.4693 378.501 21.5129ZM39.3936 16.0363C39.5998 16.0235 39.8123 16.0132 40.0185 15.9953C40.2117 15.9773 40.36 15.921 40.4567 15.8364C40.2956 15.7698 40.1152 15.7339 39.9155 15.7416C39.5998 15.757 39.2906 15.7775 38.9814 15.8031C38.7881 15.8185 38.6014 15.8748 38.5563 15.962C38.5112 16.0286 38.9427 16.0671 39.3936 16.0363ZM351.258 15.6416C351.341 15.6647 351.425 15.7108 351.509 15.7108C351.715 15.7108 351.928 15.6954 352.121 15.6698C352.205 15.6596 352.269 15.6134 352.308 15.5776C352.333 15.5545 352.327 15.5135 352.288 15.493C352.102 15.37 351.354 15.4136 351.232 15.5545C351.219 15.5801 351.251 15.6134 351.258 15.6416ZM330.933 1.60803C330.952 1.64903 330.958 1.69003 330.984 1.73104C331.036 1.80792 331.177 1.86431 331.384 1.90275C331.545 1.83868 331.628 1.76694 331.622 1.69006C331.616 1.64905 331.596 1.60802 331.57 1.56702C331.519 1.49014 331.377 1.43377 331.171 1.39533C331.01 1.45684 330.933 1.52859 330.933 1.60803ZM449.275 35.1877C449.217 35.221 449.159 35.2543 449.094 35.2851C449.268 35.3594 449.429 35.3825 449.552 35.3414C449.629 35.3158 449.674 35.2774 449.732 35.2441C449.558 35.1697 449.403 35.1492 449.275 35.1877ZM445.268 35.5362C445.351 35.5593 445.429 35.59 445.519 35.6054C445.667 35.631 445.802 35.5875 445.905 35.4952C445.822 35.4721 445.744 35.4414 445.654 35.426C445.506 35.4004 445.371 35.444 445.268 35.5362ZM447.806 35.0672C447.761 35.1288 447.851 35.18 448.089 35.2236C448.147 35.1903 448.225 35.1595 448.263 35.1236C448.328 35.0647 448.218 35.0109 447.986 34.9699C447.922 35.0006 447.864 35.0339 447.806 35.0672ZM434.207 32.3046C434.161 32.3661 434.252 32.4174 434.49 32.4609C434.548 32.4276 434.625 32.3969 434.664 32.361C434.728 32.302 434.619 32.2482 434.387 32.2072C434.323 32.238 434.265 32.2713 434.207 32.3046ZM415.679 14.1706C415.621 14.2039 415.563 14.2372 415.499 14.268C415.673 14.3423 415.834 14.3654 415.956 14.3244C416.033 14.2987 416.078 14.2603 416.136 14.227C415.962 14.1527 415.808 14.1322 415.679 14.1706ZM397.931 4.55006C398.085 4.568 398.214 4.53213 398.324 4.43731C398.24 4.41425 398.163 4.38349 398.073 4.36811C397.924 4.34248 397.789 4.38607 397.686 4.47832C397.77 4.50395 397.854 4.52699 397.931 4.55006ZM388.506 3.94782C388.448 3.98113 388.39 4.01445 388.326 4.0452C388.5 4.11952 388.661 4.14258 388.783 4.10158C388.86 4.07595 388.905 4.03751 388.963 4.00419C388.789 3.92987 388.635 3.91194 388.506 3.94782ZM324.594 1.60547C324.536 1.63878 324.478 1.6721 324.413 1.70285C324.587 1.77717 324.748 1.80023 324.871 1.75922C324.948 1.7336 324.993 1.69515 325.051 1.66184C324.877 1.58752 324.722 1.56959 324.594 1.60547ZM6.35831 22.456C6.27456 22.4329 6.19089 22.4099 6.11358 22.3842C5.92676 22.4534 5.8688 22.5175 5.97187 22.5662C6.0363 22.5969 6.13285 22.6149 6.2166 22.6379C6.40986 22.5687 6.45494 22.5072 6.35831 22.456Z" fill="#FFA616"/>
</svg>
